<svg id="Layer_1" data-name="Layer 1" xmlns="http://www.w3.org/2000/svg" xmlns:xlink="http://www.w3.org/1999/xlink" viewBox="0 0 150 150"><defs><style>.cls-1{fill:none;}.cls-2{fill:#231f20;}.cls-3{clip-path:url(#clip-path);}.cls-4{fill:#fff;}</style><clipPath id="clip-path"><path class="cls-1" d="M144.22,70.37a12,12,0,0,1,0,12.33h-112s.72-1,.72-6.16c0-5.6-.72-6.17-.72-6.17Z"/></clipPath></defs><title>MissileTree_outlines</title><path class="cls-2" d="M129.19,76.51a94.13,94.13,0,0,1,19.95,0,83.43,83.43,0,0,1-10,.53A85.39,85.39,0,0,1,129.19,76.51Z"/><path class="cls-2" d="M147.62,65.74H142l-10.43,4.63H31.15V82.7H131.37L142,87.4h5.67V81.69h-2.45a21,21,0,0,0,0-10.24h2.44Z"/><g class="cls-3"><path class="cls-4" d="M49.21,89.76H49a1.06,1.06,0,0,1-.73-.41c-.14-.2-.26-.39-.37-.57a3.36,3.36,0,0,1-3.4-1.5A3.21,3.21,0,0,1,44.07,86a2.76,2.76,0,0,1,0-.68,3,3,0,0,1-1.5-.64c-1.11-.92-1.45-2.41-1-4.3l.06-.27a18,18,0,0,0,.69-4.57v-.16c0-.7,0-1.5-.62-1.78-.17-.09-.35-.16-.52-.23a2.79,2.79,0,0,1-1.29-.8c-1-1.24-.49-3.06.6-4.22,2.21-2.36,6.4-2.53,8.92-1.2l.24.15a3.63,3.63,0,0,1,2,1,2.84,2.84,0,0,1,.48,3.31,1.72,1.72,0,0,1-.12.22,1.09,1.09,0,0,0-.15.31c0,.07.21.23.3.3s.12.1.16.15l1.14,1.1.51.51.79.73a12.93,12.93,0,0,1,2.13,2.31c1.66,2.53-.38,5.8-1.34,7.09a27,27,0,0,1-5.42,5.07l-.15-.2.15.2A1.55,1.55,0,0,1,49.21,89.76Zm-1-1.56.09.17a4.58,4.58,0,0,0,.42.67.58.58,0,0,0,.39.22,1.08,1.08,0,0,0,.75-.21h0a26.23,26.23,0,0,0,5.32-5c.89-1.21,2.81-4.25,1.33-6.52a13,13,0,0,0-2.06-2.21l-.8-.75-.51-.5L52,73l-.13-.11a1,1,0,0,1-.48-.68,1.29,1.29,0,0,1,.22-.58l.1-.17a2.38,2.38,0,0,0-.39-2.76,3.25,3.25,0,0,0-1.83-.87l-.1,0a1.38,1.38,0,0,0-.24-.14c-2.35-1.25-6.26-1.11-8.32,1.09-.93,1-1.43,2.54-.58,3.56a2.49,2.49,0,0,0,1.09.66,4.49,4.49,0,0,1,.56.24c.86.42.88,1.46.9,2.23v.15a18.3,18.3,0,0,1-.7,4.69l-.07.28a3.68,3.68,0,0,0,.84,3.8,2.72,2.72,0,0,0,1.53.56l.27,0,0,.27a.94.94,0,0,1-.06.18,1.53,1.53,0,0,0,0,.56A2.89,2.89,0,0,0,44.94,87,2.86,2.86,0,0,0,48,88.24Z"/><path class="cls-4" d="M68,105.38a.59.59,0,0,1-.4-.17,4.88,4.88,0,0,1-1.41-3.7,15.56,15.56,0,0,1,.11-2.05v0A8.94,8.94,0,0,1,66.18,98a13.9,13.9,0,0,1,.27-2.81c.06-.29.14-.57.23-.87A6.69,6.69,0,0,0,67,92.83a1.33,1.33,0,0,0-.3-1.1s-.2,0-.68,1c-.2.42-.49.43-.61.41-.36,0-.68-.49-.8-1.14a9.14,9.14,0,0,1-.19-1.81c0-.22,0-.47,0-.72a7.57,7.57,0,0,0,0-.93,6.4,6.4,0,0,0-.29-1.28,8.43,8.43,0,0,1-.29-1.2,16.77,16.77,0,0,1,.33-6,7.16,7.16,0,0,1,2.08-3.8,6.07,6.07,0,0,1,.71-.52c0-.3-.07-.74-.09-1.1,0-.2,0-.37,0-.47L66.67,72c-.14-1.31.21-2.45.8-2.59.19-.05.56,0,.82.64a78,78,0,0,1,2.57,7.78l.15.53a24.6,24.6,0,0,1,.8,3.56,19.71,19.71,0,0,1-.06,4.58c-.13,1.1-.34,2.2-.53,3.25a29.45,29.45,0,0,0-.68,5.52c0,2.49.54,4.84,1.39,6a4.37,4.37,0,0,1,0,3.61c-.22.32-.46.32-.59.28A4.68,4.68,0,0,1,69,103.73l-.1-.1c0,.69-.21,1.51-.64,1.71A.54.54,0,0,1,68,105.38ZM66.67,91.22a.59.59,0,0,1,.22,0,1.68,1.68,0,0,1,.6,1.59,8.1,8.1,0,0,1-.33,1.6c-.08.28-.17.56-.22.83A13.57,13.57,0,0,0,66.68,98a8.05,8.05,0,0,0,.12,1.35l0,.1v0a14.6,14.6,0,0,0-.11,2c.09,2,.71,2.87,1.25,3.36,0,0,.06,0,.06,0a2.93,2.93,0,0,0,.35-1.85l0-.7.46.52.35.37.16.17a4.34,4.34,0,0,0,2.14,1.28,1.2,1.2,0,0,0,.22-.49,4,4,0,0,0-.14-2.62c-.93-1.23-1.5-3.64-1.49-6.27a30.22,30.22,0,0,1,.68-5.61c.2-1.05.4-2.13.53-3.21A18.7,18.7,0,0,0,71.31,82a24.09,24.09,0,0,0-.78-3.5L70.38,78a79.43,79.43,0,0,0-2.55-7.72c-.11-.28-.21-.35-.24-.35-.19,0-.56.8-.42,2.06l.22,2.12c0,.1,0,.28,0,.48,0,.41.07,1,.12,1.2l0,.18-.26.16a6.51,6.51,0,0,0-.68.49,6.77,6.77,0,0,0-1.93,3.55A16.63,16.63,0,0,0,64.4,86a6.9,6.9,0,0,0,.27,1.13,6.81,6.81,0,0,1,.3,1.37,7,7,0,0,1,0,1c0,.24,0,.47,0,.68a9,9,0,0,0,.18,1.71c.09.51.31.74.37.75a.44.44,0,0,0,.1-.13C65.79,92,66.17,91.22,66.67,91.22Z"/><path class="cls-4" d="M60.88,77.22h-.1c-.85,0-1.78-.43-1.82-1.26v0h0l0-.28a6.27,6.27,0,0,1,0-.74,2.19,2.19,0,0,0-.85-1.67l-.46-.42A13.62,13.62,0,0,1,56,71.05h0a.93.93,0,0,1-.14-.92,1.47,1.47,0,0,1,1.08-.87c1.91-.4,4.55,1,5.31,1.46a3.62,3.62,0,0,1,.38.26,2,2,0,0,1,1.65,1.2,1,1,0,0,1-.38,1.06,6.16,6.16,0,0,0-.45.44.47.47,0,0,0,.05.28,1,1,0,0,1,.11,1,1.42,1.42,0,0,1-1,.72c0,.17,0,.35-.06.52C62.46,76.9,61.67,77.22,60.88,77.22Zm-1.43-1.61v0c0,.1,0,.19,0,.29,0,.48.69.76,1.34.78s1.2-.16,1.26-.6c0-.22,0-.45.06-.67v-.2l.19,0a1.07,1.07,0,0,0,.78-.48.52.52,0,0,0-.08-.51,1,1,0,0,1-.1-.69v-.07l0-.06a5.58,5.58,0,0,1,.55-.54.52.52,0,0,0,.22-.54,1.64,1.64,0,0,0-1.31-.86h-.06l-.06,0a2.65,2.65,0,0,0-.37-.25c-1.49-.87-3.58-1.7-5-1.41a1,1,0,0,0-.72.56.4.4,0,0,0,.07.43h0A13.23,13.23,0,0,0,58,72.42l.46.42a2.68,2.68,0,0,1,1,2.07A6.06,6.06,0,0,0,59.45,75.61Z"/><path class="cls-4" d="M78.93,83.56a1.09,1.09,0,0,1-.39-.08,2.7,2.7,0,0,1-1.9-2.4,3.39,3.39,0,0,1,.06-.64,1.72,1.72,0,0,0,0-.78,3.56,3.56,0,0,0-.8-1.24l0-.06a1.5,1.5,0,0,1-.16-1.59,1.12,1.12,0,0,1,1.14-.58,3.31,3.31,0,0,1,1.49.58c.14.09.28.18.45.27a2,2,0,0,0,.73.18,1.84,1.84,0,0,1,1.18.47,1.86,1.86,0,0,1,.35,2,7.7,7.7,0,0,0-.36,2.27,1.15,1.15,0,0,1-.76,1.16A1.4,1.4,0,0,1,78.93,83.56ZM76.25,78l.06.07a4.11,4.11,0,0,1,.89,1.42,2.29,2.29,0,0,1,0,1,2,2,0,0,0-.06.54,2.25,2.25,0,0,0,1.58,2,.79.79,0,0,0,.86-.32l0-.06.07,0a.66.66,0,0,0,.49-.68,8.18,8.18,0,0,1,.38-2.42c.18-.71.12-1.13-.22-1.47a1.41,1.41,0,0,0-.9-.32,2.63,2.63,0,0,1-.9-.24l-.48-.28a2.77,2.77,0,0,0-1.27-.51.61.61,0,0,0-.65.31,1,1,0,0,0,.1,1Z"/><path class="cls-4" d="M109.32,90.84c-.73,0-1.25-1.12-1.49-2.14s-.42-1.88-.57-2.74c-1.08.4-2.15,0-3.19-1.13a7.85,7.85,0,0,1-1.27-7,4.47,4.47,0,0,1,.39-.87,3.38,3.38,0,0,0,.5-1.61,4.22,4.22,0,0,0-1.55-2.66,2.49,2.49,0,0,1-.23-.23,4.79,4.79,0,0,1-.82-3.44,2.81,2.81,0,0,1,.82-2l.53-.37-1.65-1.54a4.48,4.48,0,0,1-.84-3.32c0-.49.2-1.67.83-2.1l2.23-1.5.15-.12v0c-.23-.24-.46-.52-.68-.78s-.47-.55-.66-.74l-2.23-2.16c-1-1-1.18-4-.34-5.07l1.4-1.74c.91-1.12,1.84-2.29,2.78-3.39A2.79,2.79,0,0,1,105.29,43a2.72,2.72,0,0,1,1.95.9c.5.46,1,1,1.49,1.48l.67.7.44.41a6.54,6.54,0,0,1,1.48,1.8c1.12,2.16.74,5.11.44,7.48l0,.25c-.24,1.86-.54,3.65-.88,5.33a66.48,66.48,0,0,0,1.33,9.12,11.9,11.9,0,0,1,1.31,6.39c0,2.19-.12,4.36-.19,6.54,0,1.08-.06,2.17-.1,3.25a2.79,2.79,0,0,1-.66,2.06.88.88,0,0,1-.52.23,3.94,3.94,0,0,1-2.55,1.88Zm-1.68-5.62.06.34c.16,1,.37,2,.61,3s.77,1.8,1.06,1.74a3.42,3.42,0,0,0,2.29-1.77l.08-.14.17,0a.39.39,0,0,0,.31-.11,2.47,2.47,0,0,0,.48-1.69c0-1.09.07-2.17.1-3.25.07-2.18.14-4.36.19-6.54a11.42,11.42,0,0,0-1.27-6.18l0-.06a67.55,67.55,0,0,1-1.36-9.26v-.07c.35-1.67.64-3.47.88-5.33l0-.25c.3-2.3.67-5.16-.39-7.18a6,6,0,0,0-1.37-1.66c-.15-.14-.31-.28-.45-.43l-.68-.7c-.48-.5-1-1-1.47-1.46a1.8,1.8,0,0,0-3.1.24c-.93,1.09-1.87,2.25-2.77,3.38-.46.58-.93,1.16-1.4,1.73-.68.84-.49,3.63.3,4.4l2.23,2.16c.21.21.44.48.69.78s.48.56.72.81l.06.06.05.45-.09.09a2.62,2.62,0,0,1-.3.25l-2.23,1.5a2.6,2.6,0,0,0-.61,1.73,4,4,0,0,0,.68,2.91l2.1,2-1,.73a2.26,2.26,0,0,0-.61,1.59,4.28,4.28,0,0,0,.68,3.06l.21.21a4.68,4.68,0,0,1,1.71,3,3.8,3.8,0,0,1-.56,1.85,5.23,5.23,0,0,0-.35.78,7.46,7.46,0,0,0,1.16,6.55c1,1.08,1.93,1.37,2.9.88Z"/><path class="cls-4" d="M91.69,86h-.06a1.38,1.38,0,0,1-1.08-.74,8.1,8.1,0,0,1-.84-3.14l0-.23c-.34.69-.73.85-1,.84-.67,0-1.28-.89-1.59-2.27a11,11,0,0,1-.19-1.26,4.7,4.7,0,0,0-.28-1.36c-.38-.68-.75-.69-1.17-.62a1,1,0,0,1-.8-.22c-.62-.53-.88-1.89-.91-4.69v-.1a6.48,6.48,0,0,1,0-3c0-1.6.13-3.56.85-4.71a1.44,1.44,0,0,1,1.2-.82c.58,0,1.14.56,1.65,1.59A9.8,9.8,0,0,0,90,69l.38.3a3.26,3.26,0,0,0,.89.59.34.34,0,0,0,0-.1c.08-.71.17-1.37.27-2a23.42,23.42,0,0,1,1.78-6.39c.44-.81,1-1.23,1.54-1.18.4,0,1,.36,1.34,1.65.62,2,.24,4.12-.11,6.16-.09.5-.18,1-.25,1.49a37.9,37.9,0,0,0-.3,3.86c0,.52,0,1-.08,1.57a.54.54,0,0,1,.26.11c.57.4,1,1.94.58,3.51a15.61,15.61,0,0,1-2.41,5.91C93.1,85.49,92.35,86,91.69,86Zm-1.82-6.5L90,80.8c0,.32.09.68.13.94l0,.34A8,8,0,0,0,91,85a.89.89,0,0,0,.68.51c.5,0,1.16-.47,1.88-1.39a15.6,15.6,0,0,0,2.32-5.71,3.61,3.61,0,0,0-.39-3c-.06,0-.08,0-.1,0l-.42.27,0-.5c0-.61.06-1.24.09-1.86.06-1.3.12-2.64.3-3.91.08-.5.16-1,.25-1.51A12.94,12.94,0,0,0,95.76,62c-.24-.78-.58-1.25-.93-1.29s-.71.31-1,.92a21.5,21.5,0,0,0-1.72,6.23c-.11.64-.19,1.29-.27,2,0,.25,0,.33,0,.33L92,71.28l-.59-.88a2.65,2.65,0,0,1-1.29-.73l-.36-.28a10.15,10.15,0,0,1-2.83-3.85c-.4-.81-.85-1.29-1.22-1.31s-.51.19-.76.59c-.66,1-.76,2.94-.77,4.47v.07a5.86,5.86,0,0,0,0,2.76v.21c0,1.59.11,3.77.73,4.31a.49.49,0,0,0,.41.1,1.47,1.47,0,0,1,1.68.88,4.7,4.7,0,0,1,.34,1.54,9.53,9.53,0,0,0,.18,1.21c.27,1.22.76,1.87,1.11,1.88h0c.3,0,.62-.47.84-1.26Zm1.58-9.12h0Z"/><path class="cls-4" d="M128.28,82.16a2.76,2.76,0,0,1-1.06-.22,12.32,12.32,0,0,1-2-1.11l-.74-.46-.44-.29a8.17,8.17,0,0,0-1.11-.67,1.37,1.37,0,0,1-1.07.56,2,2,0,0,1-1.66-.92,2.35,2.35,0,0,1-.83-1.94,1.64,1.64,0,0,1,.73-1.24,2.12,2.12,0,0,1-.06-1.12,3.34,3.34,0,0,1,.77-1.59c.31-1.55.81-3.25,2.65-4a1.36,1.36,0,0,1,1.1,0,2.47,2.47,0,0,1,1.21,1.46,4.25,4.25,0,0,1,.17,1.17,2.6,2.6,0,0,0,.28,1.32,4.39,4.39,0,0,0,1.16,1,6,6,0,0,1,.75.55,6.69,6.69,0,0,1,2.34,4.86,2.56,2.56,0,0,1-1,2.24A2,2,0,0,1,128.28,82.16Zm-5.55-3.35.19.06a6.68,6.68,0,0,1,1.4.8l.41.27.76.47a12.22,12.22,0,0,0,1.92,1.07,1.85,1.85,0,0,0,1.78-.08,2.09,2.09,0,0,0,.78-1.83,6.2,6.2,0,0,0-2.16-4.49h0c-.2-.17-.45-.33-.7-.51a4.43,4.43,0,0,1-1.3-1.12,3,3,0,0,1-.37-1.58,4.28,4.28,0,0,0-.14-1,2.07,2.07,0,0,0-1-1.16.86.86,0,0,0-.7,0c-1.48.59-2,1.85-2.36,3.69l0,.07,0,0a2.82,2.82,0,0,0-.7,1.4,1.68,1.68,0,0,0,.1,1l.09.21-.2.11a1.19,1.19,0,0,0-.65,1,1.85,1.85,0,0,0,.67,1.53l0,0a1.57,1.57,0,0,0,1.23.74h0a.9.9,0,0,0,.77-.49Z"/><path class="cls-4" d="M134.46,75.34a1.58,1.58,0,0,1-.83-.21.74.74,0,0,1-.4-.67.56.56,0,0,1,.15-.35,1.85,1.85,0,0,1-.29-.44,1,1,0,0,1,.13-1,2.27,2.27,0,0,1,.46-.42l.16-.12-.06,0-.13-.09a2,2,0,0,1-.82-1.25,1.06,1.06,0,0,1,.28-.83,1.55,1.55,0,0,1,.7-.43l-.26-.17a.56.56,0,0,1-.21-.8,1,1,0,0,1,1.13-.33.92.92,0,0,1,.25-.09,4.15,4.15,0,0,1,1.1-.07c.17,0,.34,0,.52,0a3.31,3.31,0,0,0,1.37-.37h0a.94.94,0,0,1,1,.14.6.6,0,0,1,.19.67s0,0,.07.15a1.1,1.1,0,0,1,.15.24.82.82,0,0,1-.1.83,2.4,2.4,0,0,1-.59.65l0,0a1,1,0,0,1,.48,1.26l-.05.11c-.16.38-.23.6-.09.89a1.37,1.37,0,0,0,.13.2c.16.28.45.73-.14,1.17a5.17,5.17,0,0,1-1.56.77,5.09,5.09,0,0,1-.87.14,2.44,2.44,0,0,0-.72.19l-.16.06A2.7,2.7,0,0,1,134.46,75.34Zm-.63-1.46a.48.48,0,0,1,.14.23l0,.21-.19.09c-.06,0-.09,0-.09.08s.05.15.15.21a1.65,1.65,0,0,0,1.35,0l.16-.06a3.39,3.39,0,0,1,.81-.22,4.72,4.72,0,0,0,.83-.12,4.52,4.52,0,0,0,1.39-.69c.22-.16.19-.21,0-.5a2,2,0,0,1-.14-.25,1.4,1.4,0,0,1,.07-1.3l0-.11c.07-.18.08-.4-.39-.73l-.16-.11.09-.2v0l-.25,0h0l0-.13.08,0,.26-.16.08,0a1.88,1.88,0,0,0,.47-.51.37.37,0,0,0,.07-.37,1.13,1.13,0,0,0-.1-.13.66.66,0,0,1-.14-.63c0-.05,0-.1-.06-.13a.4.4,0,0,0-.44-.06h0a3.91,3.91,0,0,1-1.56.42h-.57a3.93,3.93,0,0,0-1,0,.54.54,0,0,0-.17.08l-.14.14-.16-.11a.48.48,0,0,0-.6.1s0,0,.06.11l.52.33.18.11.59.39-.7.06a.45.45,0,0,1-.1,0l-.14,0a1.46,1.46,0,0,0-.68.36.58.58,0,0,0-.17.45,1.51,1.51,0,0,0,.64.9l.11.08c.15.11.32.23.32.44a.43.43,0,0,1-.19.37,1.84,1.84,0,0,1-.22.17,2.33,2.33,0,0,0-.36.32.53.53,0,0,0-.07.51,1.84,1.84,0,0,0,.22.32l-.11.21h0Z"/></g><path class="cls-2" d="M31.4,82.7l-9.83-1.88L10.93,78.75,3.2,77.25c-.3-.06-1.52-.21-1.52-.84s1.23-.73,1.52-.79l7.38-1.38,20.68-3.87a24.38,24.38,0,0,1,1,6.17A28.11,28.11,0,0,1,31.4,82.7Z"/><path class="cls-4" d="M31.49,82.85l-.11,0-9.83-1.89L10.91,78.87,3.08,77.35c-.46-.08-1.53-.26-1.53-.94,0-.5.89-.77,1.63-.91l7.37-1.38,20.69-3.87.11,0,0,.1a24.67,24.67,0,0,1,1,6.21,28.15,28.15,0,0,1-.84,6.19Zm-.32-12.34L10.6,74.36,3.23,75.75c-.87.16-1.43.42-1.43.66,0,.47,1,.63,1.32.7l.11,0L11,78.63,21.6,80.7l9.71,1.86a27.74,27.74,0,0,0,.8-6A24,24,0,0,0,31.17,70.51Z"/><path class="cls-2" d="M3.22,77.25c-.33-.06-1.64-.21-1.64-.84s1.33-.73,1.64-.79S3.55,77.31,3.22,77.25Z"/><path class="cls-4" d="M3.24,77.37H3.19l-.11,0c-.49-.08-1.65-.26-1.65-.94,0-.5,1-.77,1.76-.91a.26.26,0,0,1,.26.1,2.18,2.18,0,0,1,0,1.68A.26.26,0,0,1,3.24,77.37Zm0-.24Zm0-1.38c-.93.17-1.48.41-1.48.66,0,.47,1,.64,1.41.7h.07A2.29,2.29,0,0,0,3.21,75.75Z"/><path class="cls-2" d="M133.88,77s7.14.61,8.83.61a39.27,39.27,0,0,0,5-.61,44.67,44.67,0,0,0-5.11-.39C140.32,76.57,133.88,77,133.88,77Z"/><path class="cls-4" d="M142.71,77.69c-1.67,0-8.77-.6-8.84-.61v-.25c.06,0,6.47-.39,8.75-.39a42.42,42.42,0,0,1,5.12.4l.78.1-.77.14A38.9,38.9,0,0,1,142.71,77.69Zm-7-.71c2.23.18,5.89.46,7,.46a31.55,31.55,0,0,0,4.15-.46,38.87,38.87,0,0,0-4.24-.29C141.11,76.69,137.76,76.87,135.68,77Z"/></svg>