<svg xmlns="http://www.w3.org/2000/svg" viewBox="0 0 150 150"><defs><style>.cls-1{fill:#231f20;}.cls-2{fill:#fff;}</style></defs><title>Missile</title><g id="Layer_2" data-name="Layer 2"><path class="cls-1" d="M129.16,75A89,89,0,0,1,148,75a80.35,80.35,0,0,1-9.42.5A80.35,80.35,0,0,1,129.16,75Z"/><path class="cls-1" d="M147,64.17h-5.66L130.94,68.8H30.57V81.13H130.79l10.58,4.7H147V80.12h-2.45a19.69,19.69,0,0,0,.65-5.15,20.11,20.11,0,0,0-.63-5.09H147Z"/><path class="cls-1" d="M30.82,81.13,21,79.25,10.35,77.18l-7.73-1.5c-.31-.06-1.52-.21-1.52-.84s1.23-.73,1.52-.79L10,72.67,30.68,68.8a24.38,24.38,0,0,1,1,6.17A28.11,28.11,0,0,1,30.82,81.13Z"/><path class="cls-2" d="M30.91,81.28l-.11,0L21,79.37,10.33,77.3,2.5,75.78C2,75.7,1,75.52,1,74.84c0-.5.89-.77,1.63-.91L10,72.55l20.68-3.87.11,0,0,.1a24.67,24.67,0,0,1,1,6.21,28.15,28.15,0,0,1-.84,6.19Zm-.32-12.34L10,72.79,2.64,74.18c-.86.16-1.42.42-1.42.66,0,.47,1,.63,1.32.7l.1,0,7.73,1.5L21,79.13,30.73,81a28.41,28.41,0,0,0,.8-6A24,24,0,0,0,30.59,68.94Z"/><path class="cls-1" d="M2.3,75.68C2,75.62,1,75.47,1,74.84s1.08-.73,1.34-.79S2.57,75.74,2.3,75.68Z"/><path class="cls-2" d="M2.32,75.8h0l-.09,0c-.4-.08-1.35-.26-1.35-.94,0-.5.78-.77,1.44-.91a.19.19,0,0,1,.21.1,2.65,2.65,0,0,1,0,1.67A.2.2,0,0,1,2.32,75.8Zm0-.24Zm0-1.38c-.75.17-1.2.41-1.2.66,0,.47.84.64,1.15.7h0A2.65,2.65,0,0,0,2.29,74.18Z"/><path class="cls-1" d="M133.3,75.39s7.14.61,8.83.61a39,39,0,0,0,5-.61A44.43,44.43,0,0,0,142,75C139.74,75,133.3,75.39,133.3,75.39Z"/><path class="cls-2" d="M142.13,76.12c-1.68,0-8.77-.6-8.84-.61v-.25c.06,0,6.47-.39,8.74-.39a42.68,42.68,0,0,1,5.13.4l.77.1-.76.14A39.15,39.15,0,0,1,142.13,76.12Zm-7-.71c2.24.18,5.9.46,7,.46a31.55,31.55,0,0,0,4.15-.46,39.08,39.08,0,0,0-4.25-.29C140.52,75.12,137.18,75.3,135.09,75.41Z"/><path class="cls-2" d="M38.64,68.61c-1,2.31,2.14,3.15,2.78,4.94.43,1.25-.16,2.53-.56,3.7a5.05,5.05,0,0,0-.25,3.36c.15.45.88.26.72-.2-.77-2.21,1.29-4.25,1-6.49a4.05,4.05,0,0,0-1.39-2.35c-.71-.61-2.1-1.44-1.61-2.58.19-.44-.45-.82-.64-.38Z"/><path class="cls-2" d="M51.21,69.07c-.17.47-.61,1.18-.51,1.7s.56.81.88,1.06a13.54,13.54,0,0,1,1.5,1.22c.4.45.74,1,1.15,1.39.87.91,1.82,1.59,2.05,2.91a4.45,4.45,0,0,1-.81,3.33c-.28.39.37.77.64.38a4.82,4.82,0,0,0-.14-6c-.44-.49-1-.89-1.4-1.39s-.73-1-1.16-1.37-1-.77-1.52-1.2a2.12,2.12,0,0,1-.33-.34c-.11-.19-.12-.17,0-.39.13-.38.28-.75.42-1.12s-.56-.65-.73-.2Z"/><path class="cls-2" d="M55.1,69.31c.86,1.17,2.3,1.88,2.95,3.2.33.66.13,1.35.32,2a1.55,1.55,0,0,0,1.28,1.11,2.4,2.4,0,0,0,1.7-.26,1.32,1.32,0,0,0,.49-.53,1.24,1.24,0,0,0,.09-.38c0-.25,0-.31.25-.35a1,1,0,0,0,.75-1.23c-.06-.37-.18-.61.12-.9a2.54,2.54,0,0,0,.53-.6,1.24,1.24,0,0,0-.77-1.63c-.34-.15-.7-.21-1-.34a3.23,3.23,0,0,1-1.12-.71c-.34-.34-.88.19-.53.53a4.23,4.23,0,0,0,1.45.91c.35.13,1.52.27,1.36.87,0,.19-.32.34-.45.48a1.2,1.2,0,0,0-.37.61,2,2,0,0,0,.06.8c0,.1.09.29,0,.39s-.24.08-.36.11a.82.82,0,0,0-.52.32c-.17.25-.05.53-.15.78-.17.46-1,.47-1.36.4-.72-.14-.75-.71-.76-1.34A3.26,3.26,0,0,0,58.61,72c-.71-1.24-2-1.9-2.86-3-.28-.38-.93,0-.65.38Z"/><path class="cls-2" d="M63.85,80.88a7.21,7.21,0,0,1,.83-3.3c.25-.51.53-1,.82-1.5a3.66,3.66,0,0,1,1-1c.74-.61.43-1.81.36-2.64a14.47,14.47,0,0,1,0-3.48c.08-.47-.64-.67-.72-.2a13.82,13.82,0,0,0,0,3.46A15.36,15.36,0,0,1,66.17,74c0,.55-.55.68-.88,1a10.76,10.76,0,0,0-1.53,2.73,7.29,7.29,0,0,0-.66,3.08.38.38,0,0,0,.75,0Z"/><path class="cls-2" d="M67.23,69.27A57.07,57.07,0,0,1,70.73,81c.09.48.81.28.72-.2A57,57,0,0,0,68,69.07c-.19-.44-.91-.25-.73.2Z"/><path class="cls-2" d="M76.71,77.94c0-.52-.39-.77-.72-1.12a1.57,1.57,0,0,1-.46-1.17c.07-.5,1-.3,1.26-.2s.8.52,1.25.68,1,.06,1.39.35a1.2,1.2,0,0,1,.47,1.21c-.08.53-.27,1-.3,1.56,0,.36.08,1.11-.37,1.27s-.26.89.19.73c1.11-.41.8-1.62,1-2.53a4.55,4.55,0,0,0,.22-1.55,1.87,1.87,0,0,0-.6-1.16,2.4,2.4,0,0,0-1.31-.5,1.9,1.9,0,0,1-.7-.21c-.22-.13-.41-.29-.64-.4-.73-.37-2.2-.61-2.55.4A1.89,1.89,0,0,0,75,76.75a2.43,2.43,0,0,0,.48.66c.14.14.43.31.44.53,0,.48.78.48.75,0Z"/><path class="cls-2" d="M76,77.82v1.07A6.27,6.27,0,0,0,76,80a1.55,1.55,0,0,0,1.2,1.25.39.39,0,0,0,.47-.26.38.38,0,0,0-.27-.46.83.83,0,0,1-.69-.84c0-.61,0-1.22,0-1.82a.38.38,0,0,0-.75,0Z"/><path class="cls-2" d="M82.76,69.12l.26,3a10.34,10.34,0,0,0,.28,2.3,1.81,1.81,0,0,0,1.19,1.11,4.65,4.65,0,0,1,1,.37A1.36,1.36,0,0,1,85.94,77a12,12,0,0,0,.4,2.3,2.51,2.51,0,0,0,1.06,1.59,1.3,1.3,0,0,0,1.46-.32,2.56,2.56,0,0,0,.49-2.11c0-.47-.76-.49-.75,0A9.93,9.93,0,0,0,89,81a.38.38,0,0,0,.73-.2,8.91,8.91,0,0,1-.38-2.4H88.6c0,.53.09,2-.83,1.75-.57-.15-.77-1.25-.88-1.74-.23-1,0-2.32-.86-3a3.42,3.42,0,0,0-1.13-.52,1.28,1.28,0,0,1-1-1.29c-.17-1.48-.27-3-.4-4.46,0-.47-.79-.48-.75,0Z"/><path class="cls-2" d="M94.52,69.17c-.12,1.56-.17,3.12-.17,4.69a.38.38,0,0,0,.47.36c.32-.12.31,1.35.31,1.52A9,9,0,0,1,95,77.53a9.9,9.9,0,0,1-1.21,3.15.38.38,0,0,0,.65.38,10.64,10.64,0,0,0,1.45-4.52c.06-.72.29-3.62-1.22-3.05l.48.37c0-1.57.05-3.13.17-4.69,0-.49-.71-.48-.75,0Z"/><path class="cls-2" d="M100.4,69.22a4.26,4.26,0,0,0,1.37,2.33,2.77,2.77,0,0,1,.86,1.37,3,3,0,0,1,0,1.86,10.51,10.51,0,0,0-.65,1.3,5.54,5.54,0,0,0-.27,1.45,12.66,12.66,0,0,0,.38,3.41c.09.47.81.27.72-.2a10.5,10.5,0,0,1-.3-3.7,4.53,4.53,0,0,1,.57-1.55,2.78,2.78,0,0,0,.45-1.31,4.2,4.2,0,0,0-.73-2.63c-.3-.38-.7-.67-1-1a3.11,3.11,0,0,1-.66-1.48c-.09-.47-.81-.27-.73.2Z"/><path class="cls-2" d="M111,69.24a21.22,21.22,0,0,1,1,11.51c-.09.47.63.67.72.19a22,22,0,0,0-1-11.9c-.17-.45-.9-.25-.73.2Z"/><path class="cls-2" d="M120.15,74.21A2.83,2.83,0,0,1,120.1,73c.11-.43.51-.69.65-1.11a11.19,11.19,0,0,1,.31-1.27,5.93,5.93,0,0,1,.82-1.16c.31-.37-.21-.9-.53-.53a6.81,6.81,0,0,0-.92,1.28,3.34,3.34,0,0,0-.26.71,4.76,4.76,0,0,1-.14.77,2.44,2.44,0,0,1-.41.56,2,2,0,0,0-.27.66,4.25,4.25,0,0,0,.07,1.55c.09.47.81.27.73-.2Z"/><path class="cls-2" d="M124.44,69.27c.23.73,0,1.52.34,2.23a4.15,4.15,0,0,0,1.3,1.37c1.28,1,2.49,1.91,2.94,3.54a4.63,4.63,0,0,1,.26,2.38,1.79,1.79,0,0,1-2.21,1c-1.61-.76-3.16-1.74-4.72-2.6a.38.38,0,0,0-.46.06,1.36,1.36,0,0,1-2.22-.15c-.3-.5-.54-2.22.29-2.33.47-.07.27-.8-.2-.73-1.42.21-1.27,2.53-.74,3.44a2.11,2.11,0,0,0,3.4.3l-.45.06,2.81,1.55,1.5.83a3.57,3.57,0,0,0,1,.45,2.92,2.92,0,0,0,2.16-.8,2.3,2.3,0,0,0,.58-2,6.65,6.65,0,0,0-2.22-4.48c-.64-.55-1.4-1-2-1.61-.74-.76-.38-1.71-.67-2.63-.15-.46-.87-.26-.73.2Z"/><path class="cls-2" d="M132.17,69.17a1.13,1.13,0,0,0,.67,1.17l.18.07c0,.09-.12.22-.17.27a2,2,0,0,0-.48.56,1.65,1.65,0,0,0,.16,1.35,1.5,1.5,0,0,1,.1.62.63.63,0,0,0,.38.62,1.5,1.5,0,0,0,.73,0l.94-.11c.53-.07,1.06-.14,1.58-.26a5.3,5.3,0,0,0,1.44-.58c.4-.25.9-.61.73-1.14-.1-.29-.29-.43-.25-.76s.18-.63.21-1a1,1,0,0,0-.94-1.21c-.49,0-.49.73,0,.75s.09.86.05,1a1.49,1.49,0,0,0,.13,1.22s.07.08.08.12,0,0,0,0-.15.14-.21.18a3,3,0,0,1-.55.32,4.66,4.66,0,0,1-1.15.36c-.41.09-.84.14-1.26.2l-.74.09-.38,0h-.1c-.07,0,0,0,.06.08v-.07c.1-.35-.15-.77-.26-1.08a.75.75,0,0,1-.09-.46c.05-.16.24-.28.35-.39a1,1,0,0,0,.27-1.2c-.24-.37-.81-.3-.73-.84a.38.38,0,0,0-.38-.37.38.38,0,0,0-.37.37Z"/></g></svg>