<svg id="ghauri" data-name="ghauri" xmlns="http://www.w3.org/2000/svg" xmlns:xlink="http://www.w3.org/1999/xlink" viewBox="0 0 150 150"><defs><style>.cls-1,.cls-4{fill:none;}.cls-2,.cls-5{fill:#231f20;}.cls-3{clip-path:url(#clip-path);}.cls-4,.cls-5{stroke:#fff;stroke-miterlimit:10;}.cls-4{stroke-width:0.5px;}.cls-5{stroke-width:0.25px;}</style><clipPath id="clip-path"><path class="cls-1" d="M143.64,74.45a12,12,0,0,1,0,12.33h-112s.72-1,.72-6.16c0-5.6-.72-6.17-.72-6.17Z"/></clipPath></defs><title>ghauri</title><path class="cls-2" d="M129.16,80.62a89,89,0,0,1,18.84,0,89,89,0,0,1-18.84,0Z"/><path class="cls-2" d="M147,69.82h-5.66l-10.43,4.63H30.57V86.78H130.79l10.58,4.7H147V85.77h-2.45a19.69,19.69,0,0,0,.65-5.15,20.11,20.11,0,0,0-.63-5.09H147Z"/><g class="cls-3"><path class="cls-4" d="M49.41,93.33a27,27,0,0,0,5.37-5c1.4-1.89,2.71-4.71,1.33-6.8a19.55,19.55,0,0,0-2.89-3l-1.64-1.6c-.17-.16-.53-.39-.54-.63s.22-.46.29-.64a2.57,2.57,0,0,0-.43-3,3.47,3.47,0,0,0-2-.94l-.26-.17c-2.53-1.33-6.52-1.09-8.62,1.15-1,1-1.56,2.74-.59,3.89a4.46,4.46,0,0,0,1.73,1c.78.38.74,1.4.76,2.16a19.62,19.62,0,0,1-.76,4.91,3.85,3.85,0,0,0,.92,4,2.91,2.91,0,0,0,1.66.61.3.3,0,0,1,0,.13,1.68,1.68,0,0,0,0,.74,3,3,0,0,0,.41,1.13,3.11,3.11,0,0,0,3.32,1.35,6.16,6.16,0,0,0,.44.7A1.11,1.11,0,0,0,49.41,93.33Z"/><path class="cls-4" d="M66.33,76.07l.23,2.12c0,.34.08,1.36.16,1.72a.41.41,0,0,0-.11.07,5.49,5.49,0,0,0-.71.51,6.8,6.8,0,0,0-2,3.68,16.38,16.38,0,0,0-.32,5.93c.12.87.5,1.62.57,2.48,0,.5-.07,1.16-.06,1.68A8.89,8.89,0,0,0,64.26,96c.16.82.65,1.27.94.67s.64-1.27,1-1.11.49.62.45,1.35a16.43,16.43,0,0,1-.55,2.39,13.41,13.41,0,0,0-.26,2.76,8.88,8.88,0,0,0,.12,1.39v.06a15.26,15.26,0,0,0-.11,2,4.62,4.62,0,0,0,1.33,3.53c.53.49.87-.81.83-2,.18.2.36.37.52.54A4.46,4.46,0,0,0,70.8,109c.67.16,1-2.7.35-3.5-.86-1.14-1.45-3.45-1.44-6.12,0-3.15.87-5.88,1.21-8.8A19.51,19.51,0,0,0,71,86.05,28.58,28.58,0,0,0,70,82c-.78-2.78-1.63-5.37-2.56-7.74C67,73,66.14,74.21,66.33,76.07Z"/><path class="cls-4" d="M55.57,75a17.42,17.42,0,0,0,2.16,2.13A2.46,2.46,0,0,1,58.67,79a5.81,5.81,0,0,0-.05.72h0c0,.1,0,.2,0,.3.06,1.25,2.94,1.4,3.09.2,0-.23.05-.46.07-.69.74-.15,1.29-.66.87-1.36a.78.78,0,0,1-.08-.52,4.35,4.35,0,0,1,.53-.52c.86-.72-.13-1.68-1.21-1.84L61.49,75c-1.3-.76-3.55-1.77-5.13-1.43C55.65,73.74,55.15,74.43,55.57,75Z"/><path class="cls-4" d="M75.48,82.28a4.11,4.11,0,0,1,.9,1.39c.14.5-.09,1-.07,1.49a2.45,2.45,0,0,0,1.74,2.17,1,1,0,0,0,1.15-.4.92.92,0,0,0,.66-.93,8.18,8.18,0,0,1,.37-2.35,1.62,1.62,0,0,0-.29-1.71c-.54-.53-1.24-.27-1.85-.6a4.42,4.42,0,0,0-1.85-.82C75.21,80.41,75,81.67,75.48,82.28Z"/><path class="cls-4" d="M111.29,92.76c.54.07,1-.54,1.08-2,.1-3.26.21-6.51.29-9.78a11.71,11.71,0,0,0-1.3-6.3A67.53,67.53,0,0,1,110,65.41c.36-1.71.65-3.5.89-5.35.31-2.43.74-5.41-.39-7.58a8.36,8.36,0,0,0-1.87-2.15c-.71-.72-1.42-1.5-2.15-2.16-1.33-1.22-2.32-1.1-3.47.25-1.4,1.65-2.78,3.42-4.16,5.13-.77.94-.56,3.88.31,4.73l2.23,2.16c.4.39.92,1.08,1.41,1.58l0,.24c-.11.1-.2.19-.27.24L100.34,64c-1,.64-1,4,0,5l1.87,1.75-.78.54c-1,.69-1,4,0,5,.48.49,1.81,1.56,1.86,3.05,0,1-.67,1.79-.9,2.56a7.65,7.65,0,0,0,1.21,6.78c1.14,1.26,2.21,1.44,3.2.94.18,1,.39,2.06.62,3s.78,2.06,1.35,1.93A3.63,3.63,0,0,0,111.29,92.76Z"/><path class="cls-4" d="M83.35,76.27v.14c0,2.74.26,4.84,1.42,4.66a1.22,1.22,0,0,1,1.43.75,15.13,15.13,0,0,1,.49,2.68c.49,2.22,1.78,3,2.45.64l.06-.23c.07.52.15,1.11.17,1.28a8.06,8.06,0,0,0,.81,3c.84,1.37,2.12.22,3-.86a15.44,15.44,0,0,0,2.37-5.8c.44-1.9-.26-3.67-.87-3.28.13-1.91.12-3.89.4-5.76.36-2.47,1.12-5.09.37-7.54-.59-2-1.67-1.82-2.42-.42a22.3,22.3,0,0,0-1.75,6.31c-.11.66-.2,1.32-.27,2a1.33,1.33,0,0,0,0,.4.1.1,0,0,0-.09,0c-.5,0-1.09-.61-1.57-1a9.92,9.92,0,0,1-2.75-3.75c-.7-1.39-1.6-2.05-2.42-.74-.65,1-.79,2.78-.81,4.6A6.05,6.05,0,0,0,83.35,76.27Z"/><path class="cls-4" d="M127.39,79c-.58-.5-1.52-.92-2-1.58s-.21-1.72-.48-2.56-1.12-1.69-2-1.35c-1.69.68-2.18,2.2-2.51,3.88a3,3,0,0,0-.75,1.52,1.89,1.89,0,0,0,.11,1.17,1.75,1.75,0,0,0,0,2.91c.62.88,1.84,1.24,2.46.23a10.35,10.35,0,0,1,1.76,1,21.06,21.06,0,0,0,2.71,1.56c1.57.64,2.93-.28,2.91-2.14A6.46,6.46,0,0,0,127.39,79Z"/><path class="cls-4" d="M137.24,72a3.77,3.77,0,0,1-1.47.39,8.33,8.33,0,0,0-1.58.06.61.61,0,0,0-.28.14c-.56-.35-1.37.26-.81.63.18.11.35.21.52.33l.18.1-.16.07a2,2,0,0,0-.92.47c-.52.6-.07,1.26.5,1.72.23.18.49.28.24.5a4,4,0,0,0-.62.53.76.76,0,0,0-.1.75,1.71,1.71,0,0,0,.29.43.51.51,0,0,1,.11.16h0c-.39.16-.26.58,0,.75a1.91,1.91,0,0,0,1.57,0,3,3,0,0,1,.9-.27,4.05,4.05,0,0,0,2.34-.86c.51-.38.15-.66,0-1.06a1.33,1.33,0,0,1,.12-1.21c.17-.42-.08-.75-.48-1,0,0-.22-.16-.23-.13s.32-.2.35-.23a2.26,2.26,0,0,0,.54-.58.62.62,0,0,0,.08-.6c-.1-.22-.31-.33-.22-.58S137.67,71.75,137.24,72Z"/></g><path class="cls-5" d="M30.82,86.78,21,84.9,10.35,82.83l-7.73-1.5c-.31-.06-1.52-.21-1.52-.84s1.23-.73,1.52-.79L10,78.32l20.69-3.87a24.38,24.38,0,0,1,1,6.17A28.11,28.11,0,0,1,30.82,86.78Z"/><path class="cls-5" d="M2.3,81.33C2,81.27,1,81.12,1,80.49s1.08-.73,1.34-.79S2.57,81.39,2.3,81.33Z"/><path class="cls-5" d="M133.3,81s7.14.6,8.83.6a39.65,39.65,0,0,0,5-.6,44.43,44.43,0,0,0-5.11-.39C139.74,80.65,133.3,81,133.3,81Z"/></svg>