<svg id="Layer_1" data-name="Layer 1" xmlns="http://www.w3.org/2000/svg" xmlns:xlink="http://www.w3.org/1999/xlink" viewBox="0 0 150 150"><defs><style>.cls-1{fill:none;}.cls-2{fill:#231f20;}.cls-3{clip-path:url(#clip-path);}.cls-4{fill:#fff;}</style><clipPath id="clip-path"><path class="cls-1" d="M143.64,74.45a12,12,0,0,1,0,12.33h-112s.72-1,.72-6.16c0-5.6-.72-6.17-.72-6.17Z"/></clipPath></defs><title>MissileTree_outlines</title><path class="cls-2" d="M129.16,80.62a89,89,0,0,1,18.84,0,89,89,0,0,1-18.84,0Z"/><path class="cls-2" d="M147,69.82h-5.66l-10.43,4.63H30.57V86.78H130.79l10.58,4.7H147V85.77h-2.45a19.69,19.69,0,0,0,.65-5.15,20.11,20.11,0,0,0-.63-5.09H147Z"/><g class="cls-3"><path class="cls-4" d="M48.63,93.84h-.19a1,1,0,0,1-.73-.41,5.57,5.57,0,0,1-.37-.58,3.24,3.24,0,0,1-3.85-2.72,2.35,2.35,0,0,1,0-.68A2.94,2.94,0,0,1,42,88.8c-1.11-.92-1.46-2.41-1-4.3l.07-.28a17.87,17.87,0,0,0,.69-4.56V79.5c0-.7,0-1.5-.61-1.79l-.52-.22a2.79,2.79,0,0,1-1.29-.8c-1-1.24-.49-3.06.6-4.22,2.21-2.37,6.4-2.53,8.91-1.2l.25.15a3.63,3.63,0,0,1,2,1,2.84,2.84,0,0,1,.48,3.31l-.12.21a1.42,1.42,0,0,0-.15.31c0,.07.21.24.3.31a1.17,1.17,0,0,1,.16.15l1.13,1.1.52.51.78.73a13,13,0,0,1,2.14,2.31c1.66,2.53-.39,5.8-1.34,7.09a27,27,0,0,1-5.42,5.07l-.15-.2.15.2A1.55,1.55,0,0,1,48.63,93.84Zm-1-1.56.08.17a5.63,5.63,0,0,0,.42.67.55.55,0,0,0,.4.21,1.07,1.07,0,0,0,.75-.2h0a26.23,26.23,0,0,0,5.32-5c.89-1.21,2.81-4.25,1.32-6.52a12.9,12.9,0,0,0-2-2.21c-.28-.25-.54-.5-.8-.75l-.52-.5L51.4,77.07,51.27,77c-.21-.17-.47-.39-.48-.68A1.19,1.19,0,0,1,51,75.7a1,1,0,0,0,.09-.17,2.36,2.36,0,0,0-.38-2.76,3.25,3.25,0,0,0-1.83-.87l-.1,0a1.38,1.38,0,0,0-.24-.14c-2.35-1.25-6.26-1.11-8.32,1.09-.93,1-1.43,2.54-.58,3.56a2.43,2.43,0,0,0,1.09.66,5.24,5.24,0,0,1,.56.24c.86.42.88,1.46.89,2.22v.16a18.3,18.3,0,0,1-.7,4.69l-.07.27c-.28,1.19-.37,2.8.84,3.8A2.65,2.65,0,0,0,43.8,89l.27,0,0,.27a.94.94,0,0,1-.06.18A1.53,1.53,0,0,0,44,90a3,3,0,0,0,.38,1.08,2.89,2.89,0,0,0,3.06,1.23Z"/><path class="cls-4" d="M67.42,109.46a.59.59,0,0,1-.39-.17,4.85,4.85,0,0,1-1.41-3.7,15.77,15.77,0,0,1,.11-2.06v0a8.9,8.9,0,0,1-.12-1.43,13.22,13.22,0,0,1,.27-2.81c.06-.29.14-.57.22-.87a6.7,6.7,0,0,0,.32-1.49,1.33,1.33,0,0,0-.3-1.1s-.2,0-.69,1c-.19.42-.48.43-.6.41-.37,0-.68-.5-.8-1.14a9.14,9.14,0,0,1-.19-1.81,6,6,0,0,1,0-.72,5,5,0,0,0,0-.93,5.75,5.75,0,0,0-.28-1.28,8.43,8.43,0,0,1-.29-1.2,17,17,0,0,1,.32-6,7.16,7.16,0,0,1,2.09-3.8,7.68,7.68,0,0,1,.71-.53c0-.29-.07-.73-.1-1.1,0-.19,0-.36,0-.46l-.22-2.12c-.14-1.31.21-2.45.8-2.59.19-.05.56,0,.82.64a78,78,0,0,1,2.57,7.78l.15.52a25.05,25.05,0,0,1,.8,3.57,19.22,19.22,0,0,1-.07,4.58c-.12,1.1-.33,2.19-.53,3.25A29.46,29.46,0,0,0,70,99.37c0,2.49.53,4.84,1.39,6a4.37,4.37,0,0,1,0,3.61.55.55,0,0,1-.6.28,4.76,4.76,0,0,1-2.38-1.42l-.09-.1c0,.69-.22,1.51-.65,1.71A.46.46,0,0,1,67.42,109.46ZM66.09,95.3a.63.63,0,0,1,.22,0,1.68,1.68,0,0,1,.6,1.59,7.45,7.45,0,0,1-.34,1.6c-.08.28-.16.56-.21.83a13.54,13.54,0,0,0-.26,2.7,7.87,7.87,0,0,0,.12,1.35v.15a14.6,14.6,0,0,0-.11,2,4.37,4.37,0,0,0,1.25,3.36s.06,0,.06,0a2.93,2.93,0,0,0,.35-1.85l0-.7.46.52c.12.13.23.26.35.37l.16.17a4.32,4.32,0,0,0,2.13,1.28,1,1,0,0,0,.22-.49,4.12,4.12,0,0,0-.13-2.62c-.93-1.23-1.5-3.64-1.49-6.27a30.11,30.11,0,0,1,.68-5.61c.2-1.05.4-2.13.53-3.22a18.69,18.69,0,0,0,.06-4.46,23,23,0,0,0-.79-3.49l-.15-.53a79.5,79.5,0,0,0-2.54-7.72C67.14,74.06,67,74,67,74s-.55.8-.42,2.06l.23,2.12c0,.1,0,.28,0,.48,0,.41.07,1,.12,1.2L67,80l-.27.16a7.63,7.63,0,0,0-.67.49,6.7,6.7,0,0,0-1.93,3.55,16.17,16.17,0,0,0-.31,5.83,6.9,6.9,0,0,0,.27,1.13,6.81,6.81,0,0,1,.3,1.37,5.91,5.91,0,0,1,0,1,5.39,5.39,0,0,0,0,.68A8.23,8.23,0,0,0,64.51,96c.09.51.3.74.37.75a.34.34,0,0,0,.09-.13C65.21,96.09,65.58,95.3,66.09,95.3Z"/><path class="cls-4" d="M60.3,81.29h-.1c-.85,0-1.78-.43-1.82-1.26V80h0l0-.27a6.27,6.27,0,0,1,.05-.74,2.17,2.17,0,0,0-.86-1.67l-.46-.42a14.21,14.21,0,0,1-1.73-1.74h0a1,1,0,0,1-.15-.92,1.49,1.49,0,0,1,1.09-.87c1.91-.4,4.55,1,5.31,1.46a3.62,3.62,0,0,1,.38.26,2,2,0,0,1,1.65,1.2,1,1,0,0,1-.38,1.06,6,6,0,0,0-.45.43.49.49,0,0,0,0,.29A1,1,0,0,1,63,79a1.42,1.42,0,0,1-1,.72c0,.17,0,.35-.05.52C61.88,81,61.09,81.29,60.3,81.29Zm-1.43-1.6v0a2.81,2.81,0,0,0,0,.29c0,.48.69.76,1.34.78s1.2-.16,1.26-.6l.06-.67v-.2l.19,0a1,1,0,0,0,.78-.47.52.52,0,0,0-.08-.51,1,1,0,0,1-.1-.69v-.07l0-.06a4,4,0,0,1,.55-.54.52.52,0,0,0,.22-.54,1.65,1.65,0,0,0-1.31-.86H61.8l-.06,0a2.65,2.65,0,0,0-.37-.25c-1.5-.88-3.58-1.7-5-1.41a1,1,0,0,0-.72.55.44.44,0,0,0,.08.44h0a12.6,12.6,0,0,0,1.67,1.68l.46.42a2.71,2.71,0,0,1,1,2.07A6.06,6.06,0,0,0,58.87,79.69Z"/><path class="cls-4" d="M78.34,87.64a1,1,0,0,1-.38-.08,2.69,2.69,0,0,1-1.9-2.4,3.39,3.39,0,0,1,.06-.64,1.88,1.88,0,0,0,0-.78,3.56,3.56,0,0,0-.8-1.24l0-.06a1.48,1.48,0,0,1-.16-1.59,1.1,1.1,0,0,1,1.14-.58,3.22,3.22,0,0,1,1.48.58l.46.27a1.91,1.91,0,0,0,.72.18,1.84,1.84,0,0,1,1.19.47,1.86,1.86,0,0,1,.35,2A7.7,7.7,0,0,0,80.11,86a1.17,1.17,0,0,1-.76,1.16A1.4,1.4,0,0,1,78.34,87.64Zm-2.67-5.53,0,.06a4.12,4.12,0,0,1,.9,1.43,2.1,2.1,0,0,1,0,1,2.62,2.62,0,0,0,0,.55,2.27,2.27,0,0,0,1.58,1.95.8.8,0,0,0,.86-.32l0-.06.07,0a.66.66,0,0,0,.49-.68A7.87,7.87,0,0,1,80,83.59c.18-.71.12-1.13-.22-1.47a1.41,1.41,0,0,0-.9-.32,2.63,2.63,0,0,1-.9-.24l-.48-.28a2.81,2.81,0,0,0-1.28-.51.6.6,0,0,0-.64.31,1,1,0,0,0,.1,1Z"/><path class="cls-4" d="M108.73,94.91c-.72,0-1.25-1.12-1.48-2.13s-.42-1.88-.57-2.75c-1.08.41-2.15,0-3.19-1.12a7.82,7.82,0,0,1-1.27-7,5.1,5.1,0,0,1,.38-.87,3.29,3.29,0,0,0,.51-1.61,4.19,4.19,0,0,0-1.56-2.66c-.08-.09-.16-.16-.23-.23a4.84,4.84,0,0,1-.81-3.44,2.81,2.81,0,0,1,.82-2l.52-.37-1.64-1.54a4.48,4.48,0,0,1-.84-3.32c0-.49.2-1.67.83-2.1l2.23-1.5.14-.12v0c-.23-.23-.46-.51-.68-.77s-.47-.55-.66-.74L99,58.46c-1-1-1.18-4-.34-5.07l1.4-1.74c.9-1.12,1.84-2.29,2.77-3.39a2.79,2.79,0,0,1,1.88-1.18,2.75,2.75,0,0,1,2,.9c.5.46,1,1,1.48,1.48l.68.7.44.41a6.7,6.7,0,0,1,1.47,1.8c1.13,2.16.75,5.11.45,7.48l0,.25c-.24,1.85-.54,3.65-.89,5.33a66.62,66.62,0,0,0,1.34,9.12,12,12,0,0,1,1.31,6.39c0,2.19-.12,4.36-.19,6.54,0,1.08-.07,2.17-.1,3.25a2.84,2.84,0,0,1-.66,2.06.91.91,0,0,1-.52.23,4,4,0,0,1-2.55,1.88Zm-1.67-5.61.06.34c.16.94.36,2,.61,3s.77,1.81,1,1.75a3.42,3.42,0,0,0,2.3-1.77l.08-.15.17,0a.36.36,0,0,0,.3-.11,2.42,2.42,0,0,0,.49-1.69c0-1.09.07-2.17.1-3.26.07-2.17.14-4.35.19-6.53a11.42,11.42,0,0,0-1.27-6.18l0-.06a67.55,67.55,0,0,1-1.36-9.26v-.07c.34-1.67.64-3.47.88-5.33l0-.25c.3-2.3.67-5.16-.39-7.18a6,6,0,0,0-1.37-1.66c-.16-.14-.31-.29-.45-.43l-.69-.7c-.47-.5-1-1-1.46-1.46a1.81,1.81,0,0,0-3.11.24c-.93,1.09-1.86,2.25-2.76,3.38-.47.58-.93,1.16-1.4,1.73-.68.84-.49,3.63.3,4.4l2.23,2.16c.21.21.44.48.69.78s.48.56.72.81l.06.06,0,.45-.09.09c-.12.1-.22.2-.3.25l-2.23,1.5a2.6,2.6,0,0,0-.61,1.73,4,4,0,0,0,.68,2.91l2.1,2-1,.73a2.26,2.26,0,0,0-.61,1.59,4.34,4.34,0,0,0,.67,3.06l.22.21a4.68,4.68,0,0,1,1.71,3,3.83,3.83,0,0,1-.56,1.85,4.38,4.38,0,0,0-.35.78,7.4,7.4,0,0,0,1.16,6.55c1,1.08,1.93,1.37,2.9.88Z"/><path class="cls-4" d="M91.11,90.1H91A1.37,1.37,0,0,1,90,89.36a8.48,8.48,0,0,1-.84-3.14l0-.23c-.34.69-.73.85-1,.84-.68,0-1.29-.89-1.59-2.27a9.37,9.37,0,0,1-.19-1.26A4.63,4.63,0,0,0,86,81.94c-.38-.68-.75-.69-1.17-.62a1,1,0,0,1-.8-.22c-.62-.53-.89-1.89-.91-4.69v-.1a6.48,6.48,0,0,1,0-3c0-1.6.13-3.56.85-4.71a1.44,1.44,0,0,1,1.2-.82c.58,0,1.14.56,1.65,1.59a9.8,9.8,0,0,0,2.67,3.66l.38.3a3.34,3.34,0,0,0,.89.59s0-.07,0-.1c.08-.71.17-1.37.27-2a23.42,23.42,0,0,1,1.78-6.39c.44-.82,1-1.23,1.53-1.18s1,.36,1.35,1.65a13.23,13.23,0,0,1-.12,6.16c-.08.5-.17,1-.24,1.49a35.24,35.24,0,0,0-.3,3.86c0,.52,0,1-.08,1.57a.7.7,0,0,1,.26.1c.57.41,1,2,.58,3.52a15.77,15.77,0,0,1-2.41,5.91C92.52,89.57,91.77,90.1,91.11,90.1Zm-1.82-6.5.16,1.28c0,.32.09.68.12.94l.05.34a7.82,7.82,0,0,0,.77,2.93.89.89,0,0,0,.68.51c.5,0,1.15-.47,1.88-1.39a15.67,15.67,0,0,0,2.32-5.71,3.61,3.61,0,0,0-.39-3c-.06,0-.08,0-.1,0l-.42.26,0-.49c0-.61.07-1.24.1-1.86a38.88,38.88,0,0,1,.3-3.91c.07-.5.16-1,.25-1.51a12.8,12.8,0,0,0,.13-5.93c-.23-.78-.57-1.26-.92-1.29s-.71.31-1,.92a21.77,21.77,0,0,0-1.73,6.23c-.1.64-.18,1.29-.26,2a1.66,1.66,0,0,0,0,.33l.18,1.13-.58-.88a2.72,2.72,0,0,1-1.3-.73l-.35-.29a10,10,0,0,1-2.83-3.84c-.41-.81-.85-1.29-1.22-1.31s-.51.19-.76.59c-.66,1-.76,2.94-.77,4.47v.07a5.86,5.86,0,0,0,0,2.76v.21c0,1.59.1,3.77.73,4.31a.47.47,0,0,0,.4.1,1.48,1.48,0,0,1,1.69.88,4.48,4.48,0,0,1,.33,1.54c0,.4.1.82.18,1.21.28,1.22.77,1.87,1.12,1.88h0c.3,0,.62-.47.84-1.26Zm1.58-9.12Z"/><path class="cls-4" d="M127.7,86.24a2.76,2.76,0,0,1-1.06-.22,12.67,12.67,0,0,1-2-1.11l-.74-.46a4.66,4.66,0,0,1-.44-.29,8.84,8.84,0,0,0-1.11-.67,1.38,1.38,0,0,1-1.07.56,2,2,0,0,1-1.66-.92,2.32,2.32,0,0,1-.83-1.94,1.66,1.66,0,0,1,.72-1.24,2.23,2.23,0,0,1-.05-1.12,3.25,3.25,0,0,1,.77-1.59c.31-1.55.81-3.25,2.65-4a1.37,1.37,0,0,1,1.1,0,2.51,2.51,0,0,1,1.21,1.46,4.65,4.65,0,0,1,.16,1.17,2.76,2.76,0,0,0,.29,1.32,4.23,4.23,0,0,0,1.16,1,7.19,7.19,0,0,1,.75.54,6.73,6.73,0,0,1,2.34,4.86,2.56,2.56,0,0,1-1,2.25A2.11,2.11,0,0,1,127.7,86.24Zm-5.55-3.36.19.07a6.68,6.68,0,0,1,1.4.8l.41.27.76.47a12.13,12.13,0,0,0,1.91,1.07,1.89,1.89,0,0,0,1.79-.08,2.09,2.09,0,0,0,.78-1.83,6.21,6.21,0,0,0-2.17-4.49h0a7.53,7.53,0,0,0-.7-.51,4.39,4.39,0,0,1-1.29-1.12,2.89,2.89,0,0,1-.37-1.58,3.84,3.84,0,0,0-.15-1,2,2,0,0,0-.94-1.16.86.86,0,0,0-.7,0c-1.48.59-2,1.85-2.36,3.69l0,.07,0,0a2.85,2.85,0,0,0-.69,1.4,1.68,1.68,0,0,0,.1,1l.09.21-.2.11a1.16,1.16,0,0,0-.65,1,1.85,1.85,0,0,0,.67,1.53l.05,0a1.57,1.57,0,0,0,1.23.74h0a.9.9,0,0,0,.77-.49Z"/><path class="cls-4" d="M133.87,79.42a1.67,1.67,0,0,1-.82-.21.74.74,0,0,1-.4-.67.51.51,0,0,1,.15-.35,1.59,1.59,0,0,1-.29-.44,1,1,0,0,1,.13-1,2.27,2.27,0,0,1,.46-.42l.16-.12-.07,0-.12-.09a2,2,0,0,1-.83-1.25,1.07,1.07,0,0,1,.29-.83,1.67,1.67,0,0,1,.7-.44l-.26-.16a.57.57,0,0,1-.22-.8,1,1,0,0,1,1.13-.33,1,1,0,0,1,.26-.09,4.08,4.08,0,0,1,1.09-.07c.18,0,.35,0,.53,0a3.35,3.35,0,0,0,1.37-.37h0a.94.94,0,0,1,1,.14.62.62,0,0,1,.19.67s0,0,.07.15a.9.9,0,0,1,.15.24.85.85,0,0,1-.1.83,2.4,2.4,0,0,1-.59.65l0,0a1,1,0,0,1,.48,1.26l0,.11c-.16.38-.23.6-.09.89l.12.2c.17.28.46.73-.14,1.17a5.11,5.11,0,0,1-1.55.77,5.2,5.2,0,0,1-.88.14,2.11,2.11,0,0,0-.71.19l-.16.06A2.71,2.71,0,0,1,133.87,79.42ZM133.25,78a.57.57,0,0,1,.14.24l0,.21-.19.09a.14.14,0,0,0-.1.08.3.3,0,0,0,.16.21,1.65,1.65,0,0,0,1.35,0l.16-.06a2.89,2.89,0,0,1,.81-.22,4.74,4.74,0,0,0,.82-.12,4.46,4.46,0,0,0,1.4-.69c.22-.17.19-.21,0-.5a2,2,0,0,1-.14-.25,1.4,1.4,0,0,1,.07-1.3l0-.11c.07-.18.08-.4-.39-.73l-.16-.11.09-.2v0l-.25,0h0l0-.14.09,0,.26-.16.08,0a2.24,2.24,0,0,0,.47-.51c.11-.19.1-.29.06-.37A.8.8,0,0,0,138,73a.6.6,0,0,1-.14-.62c0-.05,0-.1-.06-.13a.4.4,0,0,0-.44-.06h0a3.91,3.91,0,0,1-1.57.42h-.56a3.93,3.93,0,0,0-1,.05.45.45,0,0,0-.17.08l-.14.13-.16-.1a.48.48,0,0,0-.6.1s0,0,.06.11l.51.33a1,1,0,0,1,.19.11l.59.39-.71.06a.31.31,0,0,1-.1,0l-.14,0a1.48,1.48,0,0,0-.67.36.58.58,0,0,0-.17.45,1.51,1.51,0,0,0,.64.9l.11.08c.14.11.31.23.32.44a.45.45,0,0,1-.19.37l-.22.17a2.33,2.33,0,0,0-.36.32.52.52,0,0,0-.07.51,1.41,1.41,0,0,0,.22.32l-.11.21h0Z"/></g><path class="cls-2" d="M30.82,86.78,21,84.9,10.35,82.83l-7.73-1.5c-.31-.06-1.52-.21-1.52-.84s1.23-.73,1.52-.79L10,78.32l20.69-3.87a24.38,24.38,0,0,1,1,6.17A28.11,28.11,0,0,1,30.82,86.78Z"/><path class="cls-4" d="M30.91,86.93l-.11,0L21,85,10.33,83,2.5,81.43C2,81.35,1,81.17,1,80.49c0-.5.89-.77,1.63-.91L10,78.2l20.68-3.87.11,0,0,.1a24.57,24.57,0,0,1,1,6.21,28.15,28.15,0,0,1-.84,6.19Zm-.32-12.34L10,78.44,2.64,79.82c-.86.17-1.42.43-1.42.67,0,.47,1,.63,1.32.7h.1l7.73,1.51L21,84.78l9.71,1.86a28.41,28.41,0,0,0,.8-6A24,24,0,0,0,30.59,74.59Z"/><path class="cls-2" d="M2.3,81.33C2,81.27,1,81.12,1,80.49s1.08-.73,1.34-.79S2.57,81.39,2.3,81.33Z"/><path class="cls-4" d="M2.32,81.45h0l-.09,0c-.4-.08-1.35-.27-1.35-.94,0-.5.78-.77,1.44-.91a.19.19,0,0,1,.21.1,2.65,2.65,0,0,1,0,1.67A.2.2,0,0,1,2.32,81.45Zm0-.24Zm0-1.38c-.75.17-1.2.41-1.2.66,0,.47.84.63,1.15.7h0A2.65,2.65,0,0,0,2.29,79.83Z"/><path class="cls-2" d="M133.3,81s7.14.6,8.83.6a39.65,39.65,0,0,0,5-.6,44.43,44.43,0,0,0-5.11-.39C139.74,80.65,133.3,81,133.3,81Z"/><path class="cls-4" d="M142.13,81.77c-1.68,0-8.77-.6-8.84-.61v-.25c.06,0,6.47-.39,8.74-.39a46.24,46.24,0,0,1,5.13.39l.77.11-.76.14A39.15,39.15,0,0,1,142.13,81.77Zm-7-.71c2.24.18,5.9.46,7,.46a31.55,31.55,0,0,0,4.15-.46,39.08,39.08,0,0,0-4.25-.29C140.52,80.77,137.18,81,135.09,81.06Z"/></svg>