<svg id="Layer_1" data-name="Layer 1" xmlns="http://www.w3.org/2000/svg" viewBox="0 0 150 150"><defs><style>.cls-1,.cls-2{fill:#231f20;}.cls-2,.cls-5{stroke:#fff;stroke-miterlimit:10;}.cls-2{stroke-width:0.25px;}.cls-3{fill:#c3beb1;}.cls-4{fill:#fff;}.cls-5{fill:none;stroke-width:0.75px;}</style></defs><title>MissileTree_outlines</title><path class="cls-1" d="M138.18,59.14h9.4V64.2h-2.5l-.45-.94H131.42Z"/><path class="cls-1" d="M131.42,63.26h13.21l.45.94h-15.2Z"/><path class="cls-1" d="M46.87,68.68c-.4,0-.68.25-.69.51s.46.65,1.11.58h76.27c.46,0,.84-.16.83-.58s-.28-.49-.62-.51a.74.74,0,0,0-.21,0H47.29A1.48,1.48,0,0,0,46.87,68.68ZM33.11,63.26h98.31l-1.54.94h15.2a11,11,0,0,1,.12,10H129.88l1.66,1H33.11a13.85,13.85,0,0,0,0-11.93Z"/><path class="cls-1" d="M8.79,66.27l24.32-3a13.85,13.85,0,0,1,0,11.93L8.71,72.12a9.18,9.18,0,0,0,.5-2.66A9.19,9.19,0,0,0,8.79,66.27Z"/><path class="cls-2" d="M3.74,67.92l5-1.65a9.19,9.19,0,0,1,.42,3.19,9.18,9.18,0,0,1-.5,2.66h0l-5-1.48,0-.07A3,3,0,0,0,4,69.22,2.43,2.43,0,0,0,3.74,67.92Z"/><path class="cls-2" d="M.16,69.09l3.58-1.17a2.43,2.43,0,0,1,.3,1.3,3,3,0,0,1-.3,1.35l0,.07L.16,69.57A.29.29,0,0,1,0,69.33.28.28,0,0,1,.16,69.09Z"/><path class="cls-3" d="M46.87,68.68a1.48,1.48,0,0,1,.42,0Z"/><path class="cls-3" d="M123.56,68.68a.74.74,0,0,1,.21,0Z"/><path class="cls-4" d="M123.56,68.68h.21c.34,0,.6.18.62.51s-.37.62-.83.58H47.29c-.65.07-1.12-.21-1.11-.58s.29-.46.69-.51h76.69Z"/><path class="cls-1" d="M145.2,74.18h2.38v5.06h-9.4l-6.64-4h13.09A8.6,8.6,0,0,0,145.2,74.18Z"/><path class="cls-1" d="M129.88,74.18H145.2a8.6,8.6,0,0,1-.57,1H131.54Z"/><path class="cls-5" d="M33.11,75.19a13.85,13.85,0,0,0,0-11.93"/></svg>