<svg id="Layer_1" data-name="Layer 1" xmlns="http://www.w3.org/2000/svg" viewBox="0 0 150 150"><defs><style>.cls-1{fill:#231f20;}.cls-2{fill:#fff;}.cls-3{fill:#c3beb1;}</style></defs><title>MissileTree_outlines</title><path class="cls-1" d="M139.18,72.44h9.4V77.5h-2.5l-.45-.93H132.42Z"/><path class="cls-1" d="M132.42,76.57h13.21l.45.93h-15.2Z"/><path class="cls-1" d="M47.87,82c-.4,0-.68.25-.69.52s.46.64,1.11.57h76.27c.46,0,.84-.15.83-.57s-.28-.5-.62-.52a.74.74,0,0,0-.21,0H48.29A1.48,1.48,0,0,0,47.87,82ZM34.11,76.57h98.31l-1.54.93h15.2a11.56,11.56,0,0,1,1.26,5,11.43,11.43,0,0,1-1.14,5H130.88l1.66,1H34.11a13.83,13.83,0,0,0,0-11.92Z"/><path class="cls-1" d="M9.79,79.57l24.32-3a13.83,13.83,0,0,1,0,11.92L9.71,85.43a9.33,9.33,0,0,0,.5-2.67A9.19,9.19,0,0,0,9.79,79.57Z"/><path class="cls-1" d="M4.74,81.22l5-1.65a9.19,9.19,0,0,1,.42,3.19,9.33,9.33,0,0,1-.5,2.67h0l-5-1.49,0-.07A3,3,0,0,0,5,82.53,2.46,2.46,0,0,0,4.74,81.22Z"/><path class="cls-2" d="M9.8,85.55H9.66L4.54,84l.08-.2a2.85,2.85,0,0,0,.3-1.29,2.31,2.31,0,0,0-.29-1.25l-.07-.13,5.31-1.73,0,.12a9.52,9.52,0,0,1,.43,3.23,9.56,9.56,0,0,1-.51,2.7ZM4.88,83.86l4.75,1.42a9.41,9.41,0,0,0,.46-2.52,9.38,9.38,0,0,0-.38-3L4.91,81.3a2.4,2.4,0,0,1,.26,1.23A3.09,3.09,0,0,1,4.88,83.86Z"/><path class="cls-1" d="M1.16,82.39l3.58-1.17A2.46,2.46,0,0,1,5,82.53a3,3,0,0,1-.3,1.34l0,.07L1.16,82.88A.32.32,0,0,1,1,82.63.29.29,0,0,1,1.16,82.39Z"/><path class="cls-2" d="M4.79,84.09,1.12,83a.43.43,0,0,1-.24-.37.39.39,0,0,1,.23-.35h0l3.68-1.2,0,.1a2.5,2.5,0,0,1,.32,1.36,3.1,3.1,0,0,1-.32,1.4ZM1.21,82.51a.14.14,0,0,0-.08.12c0,.08.09.14.09.14l3.42,1a2.9,2.9,0,0,0,.28-1.26,2.23,2.23,0,0,0-.25-1.16Z"/><path class="cls-3" d="M47.87,82a1.48,1.48,0,0,1,.42,0Z"/><path class="cls-3" d="M124.56,82a.74.74,0,0,1,.21,0Z"/><path class="cls-2" d="M124.56,82h.21c.34,0,.6.18.62.52s-.37.61-.83.57H48.29c-.65.07-1.12-.21-1.11-.57s.29-.47.69-.52h76.69Z"/><path class="cls-1" d="M146.2,87.48h2.38v5.06h-9.4l-6.64-4.05h13.09A8.6,8.6,0,0,0,146.2,87.48Z"/><path class="cls-1" d="M130.88,87.48H146.2a8.6,8.6,0,0,1-.57,1H132.54Z"/><path class="cls-2" d="M34.45,88.65l-.68-.32a13.49,13.49,0,0,0,0-11.6l.68-.33a14.52,14.52,0,0,1,1.38,6.07A14.34,14.34,0,0,1,34.45,88.65Z"/></svg>