<svg xmlns="http://www.w3.org/2000/svg" viewBox="0 0 150 150"><defs><style>.cls-1{fill:#fff;}</style></defs><title>Missile</title><g id="Layer_2" data-name="Layer 2"><rect x="79.33" y="16.25" width="10.7" height="117.5" transform="translate(9.68 159.68) rotate(-90)"/><path class="cls-1" d="M143.72,80.63H25.65V69.37H143.72Zm-117.5-.56H143.15V69.93H26.22Z"/><polygon points="147.14 69.65 147.14 64.3 140.79 64.3 130.54 69.65 147.14 69.65"/><path class="cls-1" d="M147.43,69.93H129.38L140.72,64h6.71Zm-15.73-.56h15.16V64.59h-6Z"/><polygon points="147.14 80.35 147.14 85.7 140.79 85.7 130.54 80.35 147.14 80.35"/><path class="cls-1" d="M147.43,86h-6.71l-11.34-5.91h18.05Zm-6.57-.57h6V80.63H131.7Z"/><rect x="138.45" y="66.43" width="0.85" height="16.98" transform="translate(63.95 213.79) rotate(-90)"/><path class="cls-1" d="M147.65,75.63H130.1V74.21h17.55Zm-17-.57h16.42v-.28H130.66Z"/><rect class="cls-1" x="122.86" y="69.65" width="0.57" height="10.85"/><polygon points="16.03 77.76 16.03 72.39 25.94 69.65 25.94 80.35 16.03 77.76"/><path class="cls-1" d="M26.22,80.72,15.75,78V72.17l10.47-2.89Zm-9.91-3.18L25.65,80V70L16.31,72.6Z"/><rect x="9.59" y="71.33" width="5.4" height="7.47" transform="translate(-62.77 87.36) rotate(-90)"/><path class="cls-1" d="M16.31,78.05h-8v-6h8Zm-7.47-.57h6.91V72.65H8.84Z"/><path d="M3,75.72c.63.61,2.11,1.49,5.58,2v-5.4S4.4,72.84,3,74.13A1.09,1.09,0,0,0,3,75.72Z"/><path class="cls-1" d="M8.84,78.1,8.51,78c-3.49-.56-5-1.46-5.73-2.11h0a1.46,1.46,0,0,1-.43-1,1.38,1.38,0,0,1,.44-1c1.47-1.34,5.56-1.82,5.73-1.84l.32,0Zm-.57-5.41c-1,.14-4,.63-5.09,1.65a.75.75,0,0,0-.26.57.83.83,0,0,0,.26.61h0C3.67,76,5,76.86,8.27,77.43Z"/></g></svg>