<svg id="kn-18" data-name="kn-18" xmlns="http://www.w3.org/2000/svg" viewBox="0 0 150 150"><defs><style>.cls-1,.cls-2{fill:#231f20;}.cls-1,.cls-5{stroke:#fff;stroke-miterlimit:10;}.cls-1{stroke-width:0.25px;}.cls-3{fill:#c3beb1;}.cls-4{fill:#fff;}.cls-5{fill:none;}</style></defs><title>kn-18</title><path class="cls-1" d="M140.94,71.46h9.56v5.15H148c-.14-.31-.28-.62-.45-1H134.08Z"/><path class="cls-1" d="M134.08,75.65H147.5c.17.34.31.65.45,1H132.51Z"/><path class="cls-2" d="M34.15,75.65h99.93l-1.57,1H148a11.09,11.09,0,0,1,.13,10.13H132.51l1.69,1h-100a14.09,14.09,0,0,0,0-12.12Zm92.16,5.51H48.57a1.54,1.54,0,0,0-.43,0c-.41,0-.69.25-.7.52s.46.65,1.13.59h77.52c.47,0,.85-.16.84-.59S126.65,81.18,126.31,81.16Z"/><path class="cls-3" d="M48.14,81.16a1.54,1.54,0,0,1,.43,0Z"/><path class="cls-3" d="M126.09,81.16h0Z"/><path class="cls-2" d="M.66,81.57,4.3,80.38a2.47,2.47,0,0,1,.31,1.33,3,3,0,0,1-.31,1.37l0,.07L.66,82.07a.32.32,0,0,1-.16-.26A.31.31,0,0,1,.66,81.57Z"/><path class="cls-4" d="M47.44,81.68c0-.27.29-.47.7-.52h78.17c.34,0,.6.18.62.52s-.37.62-.84.59H48.57C47.9,82.33,47.43,82.05,47.44,81.68Z"/><path class="cls-2" d="M34.15,75.65,9.43,78.71A9.43,9.43,0,0,1,9.86,82a9.12,9.12,0,0,1-.51,2.71l24.8,3.11a14.09,14.09,0,0,0,0-12.12Z"/><path class="cls-1" d="M9.43,78.71,4.3,80.38a2.47,2.47,0,0,1,.31,1.33,3,3,0,0,1-.31,1.37l0,.07,5.06,1.51h0A9.12,9.12,0,0,0,9.86,82,9.43,9.43,0,0,0,9.43,78.71Z"/><path class="cls-1" d="M148,86.8h2.41v5.14h-9.55l-6.75-4.11h13.3A8.83,8.83,0,0,0,148,86.8Z"/><path class="cls-2" d="M132.51,86.74h15.57a8.13,8.13,0,0,1-.58,1H134.2Z"/><path class="cls-5" d="M34.15,87.77a14.09,14.09,0,0,0,0-12.12"/></svg>