<?xml version="1.0" encoding="UTF-8"?>
<svg width="250px" height="35px" viewBox="0 0 250 35" version="1.1" xmlns="http://www.w3.org/2000/svg" xmlns:xlink="http://www.w3.org/1999/xlink">
    <!-- Generator: Sketch 63.1 (92452) - https://sketch.com -->
    <title>KN-18</title>
    <desc>Created with Sketch.</desc>
    <g id="Page-1" stroke="none" stroke-width="1" fill="none" fill-rule="evenodd">
        <g id="missilebase/KN-18">
            <g id="KN-18">
                <path d="M0,18 C0,16.8813783 4.98780308,15.2724338 14.9634092,13.1731666 L56.2390158,7.46924429 L221.880492,7.46924429 L234.078301,0.427955173 L249.536583,1.10134124e-13 L250,8.79875836 L246.045694,9.22671353 C247.510252,12.4344912 248.242531,15.3589201 248.242531,18 C248.242531,20.6410799 247.510252,23.2819704 246.045694,25.9226714 L249.583291,25.9226714 L249.583291,34.7100176 L234.078301,34.7100176 L223.729242,27.9883183 L56.3223939,27.6801406 L14.7450929,22.4077329 C4.91503098,20.587866 0,19.1186217 0,18 Z" id="Path-3" fill="#000000"></path>
                <g id="separators" transform="translate(6.383542, 7.469244)" stroke="#FFFFFF">
                    <path d="M8.57986769,5.70392232 C9.40267754,7.65638279 9.85779237,9.22279421 9.94521217,10.4031566 C10.032632,11.583519 9.80507455,13.0896406 9.26253993,14.9215213" id="Path-4"></path>
                    <path d="M0,7.7483547 C0.594712786,9.01926731 0.923661941,10.0388895 0.986847464,10.8072213 C1.05003299,11.5755531 0.885558409,12.5559309 0.493423732,13.7483547" id="Path-4"></path>
                    <path d="M49.8554743,0 C52.0051548,3.8266003 53.079995,7.4093852 53.079995,10.7483547 C53.079995,14.0873242 52.0051548,17.263711 49.8554743,20.2775149" id="Path-5"></path>
                </g>
            </g>
        </g>
    </g>
</svg>