<svg id="Layer_1" data-name="Layer 1" xmlns="http://www.w3.org/2000/svg" viewBox="0 0 150 150"><defs><style>.cls-1,.cls-2{stroke:#fff;stroke-miterlimit:10;}.cls-1{stroke-width:1.5px;}.cls-2{stroke-width:0.25px;}</style></defs><title>MissileTree_outlines</title><polygon class="cls-1" points="145.63 74.56 126.3 74.56 133.14 82.83 143.75 82.83 145.63 74.56"/><polygon class="cls-1" points="145.63 70.66 126.3 70.66 133.14 62.39 143.75 62.39 145.63 70.66"/><path class="cls-2" d="M150,78.4H26.42L.55,73.08a.68.68,0,0,1,0-1.34l25.87-5.32H150Z"/><polygon class="cls-2" points="149.13 69 129.8 69 138.49 60.73 149.1 60.73 149.13 69"/><polygon class="cls-2" points="149.13 75.67 129.8 75.67 138.49 83.94 149.1 83.94 149.13 75.67"/><path class="cls-2" d="M26.42,66.42s-2.22,6.08,0,12"/></svg>