<svg id="Layer_1" data-name="Layer 1" xmlns="http://www.w3.org/2000/svg" xmlns:xlink="http://www.w3.org/1999/xlink" viewBox="0 0 150 150"><defs><style>.cls-1{fill:none;}.cls-2{fill:#7c7872;}.cls-3{fill:#d1b792;}.cls-4{fill:#ec1c24;}.cls-5{fill:#221f1f;}.cls-6,.cls-8{fill:#231f20;}.cls-7{clip-path:url(#clip-path);}.cls-8{stroke:#fff;stroke-miterlimit:10;stroke-width:0.25px;}</style><clipPath id="clip-path"><path class="cls-1" d="M146.08,67.57a12.27,12.27,0,0,1,0,12.53H32.33s.72-1,.72-6.26c0-5.68-.72-6.27-.72-6.27Z"/></clipPath></defs><title>MissileTree_outlines</title><path class="cls-2" d="M143.88,62.87h5.75v5.8h-2.48c-.11-.41-.22-.77-.32-1.1H133.74Z"/><path class="cls-3" d="M133.74,67.57h13.09c.1.33.21.69.32,1.1H131.37Z"/><path class="cls-3" d="M31.34,67.57h102.4l-2.37,1.1h15.78a20.8,20.8,0,0,1,0,10.4H131.37l2.22,1H31.34a16.94,16.94,0,0,0,0-12.53Z"/><path class="cls-4" d="M2.84,72.91l28.5-5.34a16.94,16.94,0,0,1,0,12.53L2.84,74.56A5.57,5.57,0,0,0,3,73.73a7.46,7.46,0,0,0-.16-.82Z"/><path class="cls-5" d="M1.74,73.11l1.1-.2h0a7.46,7.46,0,0,1,.16.82,5.57,5.57,0,0,1-.16.83l-1.1-.21a.68.68,0,0,1-.45-.64A.67.67,0,0,1,1.74,73.11Z"/><path class="cls-2" d="M147.13,79.07h2.5v5.8h-5.75L133.59,80.1h13.24C146.92,79.8,147,79.45,147.13,79.07Z"/><path class="cls-3" d="M131.37,79.07h15.76c-.1.38-.21.73-.3,1H133.59Z"/><path class="cls-6" d="M131.37,73.84a14.66,14.66,0,0,1,4.78-2,21.11,21.11,0,0,1,4.78-.54,20.57,20.57,0,0,1,4.79.53,14.7,14.7,0,0,1,4.78,2,14.66,14.66,0,0,1-4.78,2,21.13,21.13,0,0,1-4.79.54,22.31,22.31,0,0,1-4.78-.54A15.12,15.12,0,0,1,131.37,73.84Z"/><polygon class="cls-6" points="143.88 62.87 149.63 62.87 149.63 68.67 130.81 68.67 143.88 62.87"/><polygon class="cls-6" points="143.88 84.87 149.63 84.87 149.63 79.07 130.81 79.07 143.88 84.87"/><path class="cls-6" d="M146.82,67.57a20.52,20.52,0,0,1,0,12.53H31.34V67.57Z"/><g class="cls-7"><path class="cls-8" d="M50.36,86.75a27.28,27.28,0,0,0,5.46-5.1c1.42-1.92,2.75-4.78,1.35-6.91a20.57,20.57,0,0,0-2.93-3l-1.68-1.63c-.16-.16-.53-.39-.54-.63s.22-.48.3-.65a2.64,2.64,0,0,0-.44-3.09,3.57,3.57,0,0,0-2-1,1.78,1.78,0,0,0-.27-.17C47,63.21,43,63.46,40.86,65.74c-1,1.05-1.59,2.78-.6,4a4.47,4.47,0,0,0,1.76,1c.78.39.75,1.42.76,2.2a19.28,19.28,0,0,1-.77,5c-.35,1.47-.29,3.09.94,4.11a2.88,2.88,0,0,0,1.69.63l0,.13a1.58,1.58,0,0,0,0,.75A3.06,3.06,0,0,0,48.4,86a5,5,0,0,0,.44.72A1.12,1.12,0,0,0,50.36,86.75Z"/><path class="cls-8" d="M67.55,69.22l.23,2.16c0,.33.08,1.37.16,1.74l-.11.07a5.41,5.41,0,0,0-.72.52,7,7,0,0,0-2,3.74,17.11,17.11,0,0,0-.33,6c.13.89.51,1.65.59,2.52,0,.51-.07,1.18-.07,1.71a9,9,0,0,0,.19,1.78c.16.84.66,1.29,1,.69s.65-1.3,1-1.13a1.48,1.48,0,0,1,.45,1.36,16.69,16.69,0,0,1-.55,2.43,13.89,13.89,0,0,0-.27,2.81,9,9,0,0,0,.12,1.4l0,.07a14.44,14.44,0,0,0-.12,2.08,4.72,4.72,0,0,0,1.35,3.58c.55.51.89-.81.85-2,.18.21.36.39.52.55a4.68,4.68,0,0,0,2.29,1.38c.68.16,1-2.75.36-3.56C71.57,97.94,71,95.6,71,92.88c0-3.19.88-6,1.23-8.93a19.57,19.57,0,0,0,.06-4.59,27.91,27.91,0,0,0-1-4.13,78.76,78.76,0,0,0-2.59-7.86C68.22,66.11,67.36,67.33,67.55,69.22Z"/><path class="cls-8" d="M56.62,68.11a18.77,18.77,0,0,0,2.2,2.16,2.47,2.47,0,0,1,1,1.92,5.84,5.84,0,0,0-.05.73h0c0,.1,0,.2,0,.3.06,1.27,3,1.43,3.14.2,0-.23.05-.46.07-.7.75-.15,1.31-.67.88-1.38a.8.8,0,0,1-.08-.53,5.33,5.33,0,0,1,.54-.52c.87-.74-.13-1.71-1.23-1.87a4.21,4.21,0,0,0-.41-.28c-1.32-.77-3.61-1.79-5.21-1.45C56.7,66.85,56.19,67.56,56.62,68.11Z"/><path class="cls-8" d="M76.84,75.52a4.23,4.23,0,0,1,.92,1.42,5.92,5.92,0,0,1-.08,1.51,2.52,2.52,0,0,0,1.77,2.21,1.06,1.06,0,0,0,1.17-.41.92.92,0,0,0,.67-1,8.06,8.06,0,0,1,.38-2.38,1.67,1.67,0,0,0-.29-1.74c-.55-.53-1.27-.27-1.89-.61a4.52,4.52,0,0,0-1.87-.83C76.57,73.63,76.33,74.91,76.84,75.52Z"/><path class="cls-8" d="M113.22,86.17c.55.07,1-.54,1.09-2.07.1-3.31.22-6.62.3-9.94a12,12,0,0,0-1.32-6.4,68.11,68.11,0,0,1-1.37-9.36q.54-2.62.9-5.44c.31-2.47.75-5.5-.39-7.7a8.63,8.63,0,0,0-1.9-2.18c-.73-.74-1.45-1.53-2.19-2.2-1.35-1.24-2.35-1.11-3.52.26-1.43,1.67-2.82,3.47-4.23,5.2-.79,1-.57,3.95.32,4.81l2.26,2.2c.41.39.93,1.09,1.43,1.6l0,.25-.27.23L102.1,57c-1,.65-1,4.09,0,5.11l1.9,1.77-.79.56c-1,.69-1,4,0,5.1.48.51,1.83,1.59,1.88,3.11,0,1-.68,1.81-.91,2.59a7.72,7.72,0,0,0,1.23,6.89c1.16,1.28,2.24,1.46,3.25,1,.17,1.06.39,2.1.62,3.09s.8,2.09,1.38,2A3.68,3.68,0,0,0,113.22,86.17Z"/><path class="cls-8" d="M84.84,69.42v.15c0,2.77.27,4.91,1.44,4.73a1.24,1.24,0,0,1,1.45.76,16.31,16.31,0,0,1,.5,2.73c.5,2.25,1.81,3,2.49.64l.06-.23c.07.53.15,1.13.17,1.3a8.48,8.48,0,0,0,.82,3.08c.86,1.38,2.16.22,3-.88a15.94,15.94,0,0,0,2.41-5.89c.44-1.92-.26-3.72-.88-3.33.13-1.94.12-4,.4-5.85.37-2.51,1.13-5.17.38-7.66-.6-2-1.7-1.85-2.46-.43A23,23,0,0,0,92.85,65c-.11.66-.2,1.33-.27,2a2.28,2.28,0,0,0,0,.4.08.08,0,0,0-.08,0c-.51,0-1.11-.62-1.6-1a10.16,10.16,0,0,1-2.8-3.81c-.7-1.41-1.62-2.09-2.45-.76a9.71,9.71,0,0,0-.82,4.68A6.22,6.22,0,0,0,84.84,69.42Z"/><path class="cls-8" d="M129.57,72.17c-.6-.52-1.54-.94-2-1.61s-.21-1.75-.49-2.6-1.13-1.71-2-1.37c-1.71.69-2.21,2.23-2.55,3.94a3.09,3.09,0,0,0-.77,1.54,2,2,0,0,0,.12,1.19,1.77,1.77,0,0,0,0,2.95c.63.91,1.87,1.27,2.49.24a10.44,10.44,0,0,1,1.8,1.06,21,21,0,0,0,2.75,1.58c1.6.66,3-.28,2.95-2.17A6.55,6.55,0,0,0,129.57,72.17Z"/><path class="cls-8" d="M139.57,65a3.66,3.66,0,0,1-1.49.4,8.54,8.54,0,0,0-1.6.06.66.66,0,0,0-.29.14c-.57-.35-1.39.27-.82.64l.52.34.19.1a1.11,1.11,0,0,0-.16.07,2.15,2.15,0,0,0-.94.48c-.53.61-.07,1.28.51,1.75.23.18.5.29.24.5a4.07,4.07,0,0,0-.62.54.77.77,0,0,0-.11.77,1.91,1.91,0,0,0,.29.43s.11.11.12.17h0c-.4.16-.27.58,0,.75a1.88,1.88,0,0,0,1.59,0,3.61,3.61,0,0,1,.92-.27,4.13,4.13,0,0,0,2.38-.87c.52-.38.15-.68-.06-1.08s0-.8.13-1.23-.08-.76-.49-1c0,0-.23-.17-.24-.14s.33-.2.36-.23a2,2,0,0,0,.55-.59.61.61,0,0,0,.08-.61c-.1-.22-.32-.33-.23-.59S140,64.83,139.57,65Z"/></g><path class="cls-8" d="M31.49,80.1l-10-1.91-10.81-2.1L2.84,74.56c-.31-.06-1.55-.21-1.55-.85s1.25-.75,1.55-.8l7.49-1.4,21-3.94a24.67,24.67,0,0,1,1,6.27A28.66,28.66,0,0,1,31.49,80.1Z"/><path class="cls-8" d="M2.71,74.56c-.31-.06-1.55-.21-1.55-.85s1.25-.75,1.55-.8S3,74.62,2.71,74.56Z"/><path class="cls-8" d="M135.57,74.27s7.25.61,9,.61a40.17,40.17,0,0,0,5.09-.61,44.84,44.84,0,0,0-5.19-.4C142.11,73.87,135.57,74.27,135.57,74.27Z"/></svg>