<svg id="Layer_1" data-name="Layer 1" xmlns="http://www.w3.org/2000/svg" viewBox="0 0 150 150"><defs><style>.cls-1,.cls-4{fill:#231f20;}.cls-2,.cls-3{fill:none;}.cls-2,.cls-3,.cls-4{stroke:#fff;stroke-miterlimit:10;}.cls-2{stroke-linecap:round;}.cls-3,.cls-4{stroke-width:0.25px;}</style></defs><title>MissileTree</title><path class="cls-1" d="M23.08,77.77H11.38L3,81a1,1,0,0,0,0,1.86L11.38,86h11.7L37.13,88.7H147.51V75.43H37.13Z"/><rect class="cls-1" x="147.51" y="84.24" width="1.45" height="2.78"/><rect class="cls-1" x="147.51" y="77.07" width="1.45" height="2.78"/><line class="cls-2" x1="42.85" y1="86.75" x2="140.04" y2="86.75"/><line class="cls-3" x1="11.38" y1="85.97" x2="11.38" y2="77.77"/><line class="cls-3" x1="23.08" y1="85.97" x2="23.08" y2="77.77"/><line class="cls-3" x1="37.13" y1="88.7" x2="37.13" y2="75.43"/><path class="cls-4" d="M4.3,83.32a3.65,3.65,0,0,0,0-2.82s-2.1.33-2.1,1.37S4.3,83.32,4.3,83.32Z"/></svg>