<svg id="Layer_1" data-name="Layer 1" xmlns="http://www.w3.org/2000/svg" xmlns:xlink="http://www.w3.org/1999/xlink" viewBox="0 0 150 150"><defs><style>.cls-1,.cls-8{fill:none;}.cls-2{fill:#7c7872;}.cls-3{fill:#d1b792;}.cls-4{fill:#ec1c24;}.cls-5{fill:#221f1f;}.cls-6,.cls-9{fill:#231f20;}.cls-7{clip-path:url(#clip-path);}.cls-8,.cls-9{stroke:#fff;stroke-miterlimit:10;}.cls-8{stroke-width:0.5px;}.cls-9{stroke-width:0.25px;}</style><clipPath id="clip-path"><path class="cls-1" d="M143.64,73.78a12,12,0,0,1,0,12.34h-112s.72-1,.72-6.17c0-5.59-.72-6.17-.72-6.17Z"/></clipPath></defs><title>MissileTree</title><path class="cls-2" d="M141.48,69.16h5.66v5.71h-2.45c-.1-.41-.21-.77-.31-1.09H131.5Z"/><path class="cls-3" d="M131.5,73.78h12.88c.1.32.21.68.31,1.09H129.16Z"/><path class="cls-3" d="M30.68,73.78H131.5l-2.34,1.09h15.53a19.87,19.87,0,0,1,.65,4.91,20.32,20.32,0,0,1-.66,5.32H129.16l2.19,1H30.68a16.71,16.71,0,0,0,0-12.34Z"/><path class="cls-4" d="M2.62,79l28.06-5.26a16.71,16.71,0,0,1,0,12.34L2.62,80.66h0a5.59,5.59,0,0,0,.15-.81A5.34,5.34,0,0,0,2.62,79Z"/><path class="cls-5" d="M1.54,79.24,2.62,79a5.34,5.34,0,0,1,.15.81,5.59,5.59,0,0,1-.15.81h0l-1.08-.21a.64.64,0,0,1,0-1.21Z"/><path class="cls-2" d="M144.68,85.1h2.46v5.71h-5.66l-10.13-4.69h13Q144.53,85.67,144.68,85.1Z"/><path class="cls-3" d="M129.16,85.1h15.52q-.15.57-.3,1h-13Z"/><path class="cls-6" d="M129.16,80a80.35,80.35,0,0,1,9.42-.5A76.24,76.24,0,0,1,148,80a76.24,76.24,0,0,1-9.42.5A80.35,80.35,0,0,1,129.16,80Z"/><polygon class="cls-6" points="141.48 69.16 147.14 69.16 147.14 74.87 128.61 74.87 141.48 69.16"/><polygon class="cls-6" points="141.48 90.81 147.14 90.81 147.14 85.1 128.61 85.1 141.48 90.81"/><path class="cls-6" d="M144.38,73.78a20.31,20.31,0,0,1,0,12.34H30.68V73.78Z"/><g class="cls-7"><path class="cls-8" d="M49.41,92.67a27,27,0,0,0,5.37-5c1.4-1.89,2.71-4.7,1.33-6.8a19,19,0,0,0-2.89-3l-1.64-1.61c-.17-.16-.53-.38-.54-.62s.22-.47.29-.64a2.58,2.58,0,0,0-.43-3,3.54,3.54,0,0,0-2-.94l-.26-.16c-2.53-1.34-6.52-1.09-8.62,1.15-1,1-1.56,2.73-.59,3.88a4.34,4.34,0,0,0,1.73,1c.78.38.74,1.41.76,2.17a19.54,19.54,0,0,1-.76,4.9,3.85,3.85,0,0,0,.92,4,2.85,2.85,0,0,0,1.66.62.24.24,0,0,1,0,.12,1.68,1.68,0,0,0,0,.74,3,3,0,0,0,3.73,2.48,4.79,4.79,0,0,0,.44.7A1.11,1.11,0,0,0,49.41,92.67Z"/><path class="cls-8" d="M66.33,75.41l.23,2.12c0,.33.08,1.35.16,1.71l-.11.07a5.59,5.59,0,0,0-.71.52,6.76,6.76,0,0,0-2,3.68,16.34,16.34,0,0,0-.32,5.92c.12.88.5,1.63.57,2.49,0,.5-.07,1.16-.06,1.68a8.71,8.71,0,0,0,.18,1.75c.16.83.65,1.27.94.68s.64-1.28,1-1.11.49.62.45,1.34a16.43,16.43,0,0,1-.55,2.39,13.48,13.48,0,0,0-.26,2.76A8.88,8.88,0,0,0,66,102.8v.07a15.2,15.2,0,0,0-.11,2,4.61,4.61,0,0,0,1.33,3.53c.53.49.87-.8.83-2,.18.2.36.38.52.54a4.39,4.39,0,0,0,2.25,1.35c.67.17,1-2.7.35-3.49a11,11,0,0,1-1.44-6.13c0-3.15.87-5.88,1.21-8.79A19.52,19.52,0,0,0,71,85.39,28.26,28.26,0,0,0,70,81.33q-1.17-4.18-2.56-7.75C67,72.34,66.14,73.55,66.33,75.41Z"/><path class="cls-8" d="M55.57,74.31a18.94,18.94,0,0,0,2.16,2.13,2.43,2.43,0,0,1,.94,1.89,5.52,5.52,0,0,0-.05.71v0h0a2.71,2.71,0,0,0,0,.29c.06,1.26,2.94,1.41,3.09.2,0-.23.05-.46.07-.68.74-.15,1.29-.67.87-1.37a.76.76,0,0,1-.08-.52,4.29,4.29,0,0,1,.53-.51c.86-.73-.13-1.69-1.21-1.84a4.21,4.21,0,0,0-.41-.28c-1.3-.75-3.55-1.76-5.13-1.43C55.65,73.07,55.15,73.77,55.57,74.31Z"/><path class="cls-8" d="M75.48,81.61a4.31,4.31,0,0,1,.9,1.39,6.21,6.21,0,0,1-.07,1.49,2.44,2.44,0,0,0,1.74,2.17,1,1,0,0,0,1.15-.39.94.94,0,0,0,.66-.94A8.06,8.06,0,0,1,80.23,83a1.62,1.62,0,0,0-.29-1.71c-.54-.53-1.24-.27-1.85-.61a4.41,4.41,0,0,0-1.85-.81C75.21,79.75,75,81,75.48,81.61Z"/><path class="cls-8" d="M111.29,92.1c.54.07,1-.54,1.08-2,.1-3.26.21-6.52.29-9.79a11.73,11.73,0,0,0-1.3-6.3A67.61,67.61,0,0,1,110,64.75c.36-1.72.65-3.51.89-5.35.31-2.43.74-5.42-.39-7.58a8.2,8.2,0,0,0-1.87-2.15c-.71-.73-1.42-1.51-2.15-2.17-1.33-1.21-2.32-1.09-3.47.26-1.4,1.65-2.78,3.41-4.16,5.12-.77.95-.56,3.89.31,4.73l2.23,2.17c.4.38.92,1.08,1.41,1.58l0,.24-.27.23-2.23,1.5c-1,.65-1,4,0,5l1.87,1.75-.78.55c-1,.68-1,4,0,5,.48.5,1.81,1.57,1.86,3.06,0,1-.67,1.78-.9,2.55a7.67,7.67,0,0,0,1.21,6.79c1.14,1.26,2.21,1.43,3.2.93.18,1,.39,2.07.62,3s.78,2,1.35,1.93A3.66,3.66,0,0,0,111.29,92.1Z"/><path class="cls-8" d="M83.35,75.6v.15c0,2.73.26,4.83,1.42,4.66a1.21,1.21,0,0,1,1.43.74,15.27,15.27,0,0,1,.49,2.69c.49,2.22,1.78,3,2.45.64l.06-.23c.07.52.15,1.11.17,1.28a8.06,8.06,0,0,0,.81,3c.84,1.36,2.12.22,3-.86a15.49,15.49,0,0,0,2.37-5.81c.44-1.89-.26-3.66-.87-3.28.13-1.9.12-3.88.4-5.75.36-2.48,1.12-5.09.37-7.55-.59-2-1.67-1.81-2.42-.42a22.47,22.47,0,0,0-1.75,6.32c-.11.65-.2,1.32-.27,2a1.25,1.25,0,0,0,0,.39s0,0-.09,0c-.5,0-1.09-.62-1.57-1a10,10,0,0,1-2.75-3.76c-.7-1.38-1.6-2-2.42-.74a9.68,9.68,0,0,0-.81,4.61A6,6,0,0,0,83.35,75.6Z"/><path class="cls-8" d="M127.39,78.31c-.58-.51-1.52-.92-2-1.59s-.21-1.72-.48-2.55-1.12-1.69-2-1.35c-1.69.67-2.18,2.2-2.51,3.87a3,3,0,0,0-.75,1.52,1.89,1.89,0,0,0,.11,1.17,1.75,1.75,0,0,0,0,2.91c.62.89,1.84,1.25,2.46.23a11,11,0,0,1,1.76,1,22.31,22.31,0,0,0,2.71,1.56c1.57.64,2.93-.29,2.91-2.15A6.44,6.44,0,0,0,127.39,78.31Z"/><path class="cls-8" d="M137.24,71.29a3.6,3.6,0,0,1-1.47.39,9.24,9.24,0,0,0-1.58.06.54.54,0,0,0-.28.15c-.56-.35-1.37.26-.81.62l.52.33.18.11a.64.64,0,0,0-.16.06,2.08,2.08,0,0,0-.92.48c-.52.6-.07,1.26.5,1.71.23.18.49.29.24.5a4.07,4.07,0,0,0-.62.54.75.75,0,0,0-.1.75,1.91,1.91,0,0,0,.29.43.36.36,0,0,1,.11.16h0c-.39.16-.26.57,0,.74a1.87,1.87,0,0,0,1.57,0,3,3,0,0,1,.9-.26,4.94,4.94,0,0,0,.87-.14,4.69,4.69,0,0,0,1.47-.72c.51-.38.15-.67,0-1.07a1.32,1.32,0,0,1,.12-1.2c.17-.42-.08-.75-.48-1,0,0-.22-.17-.23-.14s.32-.2.35-.22a2.26,2.26,0,0,0,.54-.58.64.64,0,0,0,.08-.61c-.1-.21-.31-.32-.22-.57S137.67,71.08,137.24,71.29Z"/></g><path class="cls-9" d="M30.82,86.12,21,84.23,10.35,82.17,2.62,80.66c-.31-.06-1.52-.21-1.52-.83s1.23-.74,1.52-.79L10,77.66l20.69-3.88a24.38,24.38,0,0,1,1,6.17A28.13,28.13,0,0,1,30.82,86.12Z"/><path class="cls-9" d="M2.3,80.66C2,80.6,1,80.45,1,79.83s1.08-.74,1.34-.79S2.57,80.72,2.3,80.66Z"/><path class="cls-9" d="M133.3,80.37s7.14.61,8.83.61a39,39,0,0,0,5-.61A44.43,44.43,0,0,0,142,80C139.74,80,133.3,80.37,133.3,80.37Z"/></svg>