<svg id="noDong" data-name="noDong" xmlns="http://www.w3.org/2000/svg" viewBox="0 0 150 150"><defs><style>.cls-1{fill:#7c7771;}.cls-2{fill:#c3beb1;}.cls-3{fill:#e00e0e;}.cls-4{fill:#afaaa0;}.cls-5{fill:none;stroke:#7c7771;}.cls-5,.cls-7{stroke-miterlimit:10;}.cls-6,.cls-7{fill:#231f20;}.cls-7{stroke:#fff;stroke-width:0.25px;}.cls-8{fill:#fff;}</style></defs><title>noDong</title><path class="cls-1" d="M143.35,67.52H150v5.82H147a19.55,19.55,0,0,0-.64-2.61h-9.89Z"/><path class="cls-1" d="M136.42,70.73h9.89a19.55,19.55,0,0,1,.64,2.61H130.79Z"/><path class="cls-2" d="M125.35,77.67a.76.76,0,0,0,.66-.75.74.74,0,0,0-.66-.73H35.87a.76.76,0,0,0,0,1.48Zm-95-6.94H136.42l-5.63,2.61H147a21.1,21.1,0,0,1,.34,3.61,21.62,21.62,0,0,1-.39,4.23H130.79l5,2.33H30.33a17.11,17.11,0,0,0,1.2-6.21A17.39,17.39,0,0,0,30.33,70.73Z"/><path class="cls-2" d="M20.22,74l10.11-3.27a17.39,17.39,0,0,1,1.2,6.57,17.11,17.11,0,0,1-1.2,6.21L20.22,80.24A7.51,7.51,0,0,0,20.9,77,7.38,7.38,0,0,0,20.22,74Z"/><path class="cls-2" d="M10.55,74h9.67a7.38,7.38,0,0,1,.68,3,7.51,7.51,0,0,1-.68,3.27H10.55a10.58,10.58,0,0,0,.46-3.1A10.82,10.82,0,0,0,10.55,74Z"/><path class="cls-2" d="M4.41,75.58,10.55,74A10.82,10.82,0,0,1,11,77.14a10.58,10.58,0,0,1-.46,3.1L4.41,78.66l0-.22a4.94,4.94,0,0,0,.17-1.3,4.73,4.73,0,0,0-.17-1.33Z"/><path class="cls-3" d="M.84,76.5l3.57-.92,0,.23a4.73,4.73,0,0,1,.17,1.33,4.94,4.94,0,0,1-.17,1.3l0,.22L.84,77.74a.65.65,0,0,1,0-1.24Z"/><path class="cls-4" d="M35.87,76.19h89.48a.74.74,0,0,1,.66.73.76.76,0,0,1-.66.75H35.87a.76.76,0,0,1,0-1.48Z"/><path class="cls-1" d="M146.9,81.18H150V87h-6.65l-7.52-3.49h10.48A19.5,19.5,0,0,0,146.9,81.18Z"/><path class="cls-1" d="M130.79,81.18H146.9a19.5,19.5,0,0,1-.59,2.33H135.83Z"/><path class="cls-5" d="M30.33,83.51a17.42,17.42,0,0,0,1.2-6.21,17.68,17.68,0,0,0-1.2-6.57"/><path class="cls-5" d="M20.22,80.24a7.48,7.48,0,0,0,0-6.24"/><path class="cls-5" d="M10.55,80.24a10.87,10.87,0,0,0,.46-3.1A11.12,11.12,0,0,0,10.55,74"/><path class="cls-6" d="M146.68,70.73H30.33L20.22,74H10.55L4.46,75.57S.39,76.31.39,77.1s4,1.56,4,1.56l6.15,1.58h9.67l10.11,3.27H146.68a53.23,53.23,0,0,0,.61-6.39A49.42,49.42,0,0,0,146.68,70.73Z"/><path class="cls-7" d="M4.14,75.58s-4,.73-4,1.52,4,1.56,4,1.56a4.78,4.78,0,0,0,.23-1.57A5.08,5.08,0,0,0,4.14,75.58Z"/><path class="cls-8" d="M10.59,80.24h.18a12,12,0,0,0,.4-3.06,13.15,13.15,0,0,0-.4-3.18h-.18a12.44,12.44,0,0,1,.4,3.18A11.11,11.11,0,0,1,10.59,80.24Z"/><path class="cls-8" d="M20,80.24h.18a12,12,0,0,0,.4-3.06,13.15,13.15,0,0,0-.4-3.18H20a12.44,12.44,0,0,1,.4,3.18A11.11,11.11,0,0,1,20,80.24Z"/><path class="cls-8" d="M30.4,83.51h.18a19.59,19.59,0,0,0,1.05-6.27,21.47,21.47,0,0,0-1.05-6.51H30.4a20.19,20.19,0,0,1,1.06,6.51A18,18,0,0,1,30.4,83.51Z"/><rect class="cls-8" x="79.9" y="31.6" width="1.52" height="90.7" rx="0.76" transform="translate(3.7 157.61) rotate(-90)"/><polygon class="cls-7" points="143.35 87 150 87 150 81.18 130.79 81.18 143.35 87"/><polygon class="cls-7" points="143.35 67.54 130.79 73.36 150 73.36 150 67.54 143.35 67.54"/></svg>