<svg id="Layer_1" data-name="Layer 1" xmlns="http://www.w3.org/2000/svg" viewBox="0 0 150 150"><defs><style>.cls-1{fill:#231f20;}.cls-2{fill:#fff;}</style></defs><title>MissileTree_outlines</title><path class="cls-1" d="M150,67.55V64.71h-1.49V63H35.7L21.35,65.42h-12L.85,68.71a1,1,0,0,0,0,1.9L9.38,73.8h12L35.7,76.59H148.51V74.88H150V72h-1.49V67.55Z"/><path class="cls-2" d="M140.88,75H41.55a.38.38,0,0,1,0-.75h99.33a.38.38,0,1,1,0,.75Z"/><rect class="cls-2" x="9.01" y="65.42" width="0.75" height="8.37"/><rect class="cls-2" x="20.85" y="65.42" width="1" height="8.37"/><rect class="cls-2" x="35.2" y="63.03" width="1" height="13.56"/><path class="cls-1" d="M2.15,71.1a3.78,3.78,0,0,0,0-2.89S0,68.55,0,69.61,2.15,71.1,2.15,71.1Z"/><path class="cls-2" d="M2.23,71.23h-.1c-.09,0-2.25-.35-2.25-1.61S2,68.1,2.13,68.09l.1,0,0,.09a3.86,3.86,0,0,1,0,3Zm-.15-2.88c-.41.08-1.95.43-1.95,1.26S1.67,70.88,2.07,71A3.59,3.59,0,0,0,2.08,68.35Z"/></svg>