<svg id="Layer_1" data-name="Layer 1" xmlns="http://www.w3.org/2000/svg" viewBox="0 0 150 150"><defs><style>.cls-1,.cls-5{fill:#231f20;}.cls-2,.cls-3,.cls-4{fill:none;}.cls-2,.cls-3,.cls-4,.cls-5{stroke:#fff;stroke-miterlimit:10;}.cls-2{stroke-linecap:round;}.cls-2,.cls-3{stroke-width:0.75px;}.cls-5{stroke-width:0.25px;}</style></defs><title>MissileTree_outlines</title><path class="cls-1" d="M150,67.55V64.71h-1.49V63H35.7L21.35,65.42h-12L.85,68.71a1,1,0,0,0,0,1.9L9.38,73.8h12L35.7,76.59H148.51V74.88H150V72h-1.49V67.55Z"/><line class="cls-2" x1="41.55" y1="74.59" x2="140.88" y2="74.59"/><line class="cls-3" x1="9.38" y1="73.8" x2="9.38" y2="65.42"/><line class="cls-4" x1="21.35" y1="73.8" x2="21.35" y2="65.42"/><line class="cls-4" x1="35.7" y1="76.59" x2="35.7" y2="63.03"/><path class="cls-5" d="M2.15,71.1a3.78,3.78,0,0,0,0-2.89S0,68.55,0,69.61,2.15,71.1,2.15,71.1Z"/></svg>