<svg id="Layer_1" data-name="Layer 1" xmlns="http://www.w3.org/2000/svg" viewBox="0 0 150 150"><defs><style>.cls-1{fill:#231f20;}.cls-2{fill:#fff;}</style></defs><title>MissileTree_outlines</title><path class="cls-1" d="M149,79.85V77.07h-1.45V75.43H37.13L23.08,77.77H11.38L3,81a1,1,0,0,0,0,1.86L11.38,86h11.7L37.13,88.7H147.51V87H149V84.24h-1.45V79.85Z"/><path class="cls-2" d="M140,87.25H42.85a.51.51,0,0,1-.5-.5.5.5,0,0,1,.5-.5H140a.5.5,0,0,1,.5.5A.51.51,0,0,1,140,87.25Z"/><rect class="cls-2" x="11.25" y="77.77" width="0.25" height="8.19"/><rect class="cls-2" x="22.96" y="77.77" width="0.25" height="8.19"/><rect class="cls-2" x="37" y="75.43" width="0.25" height="13.27"/><path class="cls-1" d="M4.3,83.32a3.65,3.65,0,0,0,0-2.82s-2.1.33-2.1,1.37S4.3,83.32,4.3,83.32Z"/><path class="cls-2" d="M4.38,83.46h-.1c-.09,0-2.21-.35-2.21-1.58s2.12-1.48,2.21-1.49l.1,0,0,.09a3.83,3.83,0,0,1,0,2.93Zm-.15-2.82c-.4.08-1.91.43-1.91,1.23s1.51,1.24,1.91,1.31A3.67,3.67,0,0,0,4.23,80.64Z"/></svg>