<svg xmlns="http://www.w3.org/2000/svg" viewBox="0 0 150 150"><defs><style>.cls-1{fill:#fff;}</style></defs><title>Missile</title><g id="Layer_2" data-name="Layer 2"><rect x="71.82" y="4.12" width="8.58" height="136.66" transform="translate(3.66 148.57) rotate(-90)"/><path class="cls-1" d="M144.66,77H7.57v-9H144.66ZM8,76.53H144.23V68.37H8Z"/><polygon points="147.2 80.57 147.2 76.6 135 76.6 142.41 80.57 147.2 80.57"/><path class="cls-1" d="M147.41,80.79h-5.06l-8.21-4.41h13.27Zm-4.95-.44H147V76.81H135.86Z"/><polygon points="147.2 64.19 147.2 68.16 135 68.16 142.41 64.19 147.2 64.19"/><path class="cls-1" d="M147.41,68.37H134.14l8.21-4.4h5.06Zm-11.55-.43H147V64.4h-4.52Z"/><path d="M2.54,74.09l5,2.61a.05.05,0,0,0,.08,0V68.3a.08.08,0,0,0-.12-.08l-5,2.59A1.85,1.85,0,0,0,2.54,74.09Z"/><path class="cls-1" d="M7.6,76.92a.28.28,0,0,1-.13,0l-5-2.61a2.06,2.06,0,0,1,0-3.66l5-2.59a.3.3,0,0,1,.29,0,.31.31,0,0,1,.15.26v8.35a.26.26,0,0,1-.13.23A.23.23,0,0,1,7.6,76.92Zm-.16-8.41L2.64,71a1.63,1.63,0,0,0,0,2.9l4.8,2.49Z"/><rect class="cls-1" x="14.11" y="68.16" width="0.43" height="8.58"/><rect class="cls-1" x="34.21" y="68.16" width="0.43" height="8.58"/><rect class="cls-1" x="128.78" y="68.16" width="0.43" height="8.58"/><rect x="140.6" y="66.03" width="0.5" height="12.7" transform="translate(68.47 213.23) rotate(-90)"/><path class="cls-1" d="M147.41,72.84H134.29v-.93h13.12Zm-12.69-.43H147v-.07H134.72Z"/></g></svg>