<svg id="Layer_1" data-name="Layer 1" xmlns="http://www.w3.org/2000/svg" viewBox="0 0 150 150"><defs><style>.cls-1{fill:#fff;}</style></defs><title>MissileTree_outlines</title><polygon points="133.14 82.83 143.75 82.83 145.63 74.56 126.3 74.56 133.14 82.83"/><polygon points="143.75 62.39 133.14 62.39 126.3 70.66 145.63 70.66 143.75 62.39"/><path d="M150,78.4H26.42L.55,73.08a.68.68,0,0,1,0-1.34l25.87-5.32H150Z"/><path class="cls-1" d="M150.13,78.53H26.42L.52,73.21a.82.82,0,0,1,0-1.6l25.87-5.32H150.13Zm-123.71-12L.57,71.86a.56.56,0,0,0,0,1.1l25.87,5.32H149.88V66.54Z"/><polygon points="149.1 60.73 138.49 60.73 129.8 69 149.13 69 149.1 60.73"/><path class="cls-1" d="M149.26,69.12H129.49l8.95-8.52h10.78Zm-19.15-.25H149l0-8H138.54Z"/><polygon points="138.49 83.94 149.1 83.94 149.13 75.67 129.8 75.67 138.49 83.94"/><path class="cls-1" d="M149.22,84.06H138.44l0,0-8.91-8.49h19.77Zm-10.68-.25H149l0-8h-18.9Z"/><path d="M26.42,66.42s-2.22,6.08,0,12"/><path class="cls-1" d="M26.3,78.45c-2.2-5.88,0-12,0-12.08l.24.09c0,.06-2.18,6.11,0,11.9Z"/></svg>