<svg id="scudB" data-name="scudB" xmlns="http://www.w3.org/2000/svg" viewBox="0 0 150 150"><defs><style>.cls-1{stroke:#fff;stroke-miterlimit:10;stroke-width:0.25px;}</style></defs><title>scudB</title><polygon points="133.14 82.83 143.75 82.83 145.63 74.56 126.3 74.56 133.14 82.83"/><polygon points="143.75 62.39 133.14 62.39 126.3 70.66 145.63 70.66 143.75 62.39"/><path class="cls-1" d="M150,78.4H26.42L.55,73.08a.68.68,0,0,1,0-1.34l25.87-5.32H150Z"/><polygon class="cls-1" points="149.1 60.73 138.49 60.73 129.8 69 149.13 69 149.1 60.73"/><polygon class="cls-1" points="138.49 83.94 149.1 83.94 149.13 75.67 129.8 75.67 138.49 83.94"/><path class="cls-1" d="M26.42,66.42s-2.22,6.08,0,12"/></svg>