<svg id="Layer_1" data-name="Layer 1" xmlns="http://www.w3.org/2000/svg" viewBox="0 0 150 150"><defs><style>.cls-1{fill:#231f20;}.cls-2{fill:#fff;}.cls-3{fill:none;stroke:#fff;stroke-linecap:round;stroke-linejoin:round;stroke-width:0.25px;}</style></defs><title>MissileTree_outlines</title><path class="cls-1" d="M139.84,68.78h9.47v5.09h-2.52c-.14-.3-.29-.62-.46-1H133.05Z"/><path class="cls-1" d="M133.05,72.92h13.28c.17.33.32.65.46,1H131.5Z"/><path class="cls-1" d="M4.54,80.27a2.93,2.93,0,0,0,.31-1.35,2.41,2.41,0,0,0-.31-1.31L9.63,76l24.47-3h99l-1.55,1h15.29a11,11,0,0,1,.12,10H131.5l1.67,1H34.1L9.55,81.84h0l-5-1.5Zm43.28-2.08h0v.06a.79.79,0,0,0-.56.63,1,1,0,0,0,1.12.77h76.75a.78.78,0,0,0,.75-.4h2.19a1,1,0,0,0,1-1v0h0a1,1,0,0,0-1-1H48.85A1,1,0,0,0,47.82,78.19Z"/><path class="cls-2" d="M128.07,77.16a1,1,0,0,1,1,1H47.82a1,1,0,0,1,1-1Z"/><path class="cls-2" d="M48.1,78.19h0Z"/><path class="cls-2" d="M125.13,78.19h0Z"/><path class="cls-2" d="M47.82,78.2h.28a.82.82,0,0,0-.28.07V78.2Z"/><path class="cls-1" d="M.94,78.79l3.6-1.18a2.41,2.41,0,0,1,.31,1.31,2.93,2.93,0,0,1-.31,1.35l0,.07L.94,79.28A.32.32,0,0,1,.78,79,.28.28,0,0,1,.94,78.79Z"/><path class="cls-2" d="M48.85,79.26a1,1,0,0,1-1-1,.82.82,0,0,1,.28-.07h77.13a.74.74,0,0,1,.73.7.67.67,0,0,1-.08.37Z"/><path class="cls-2" d="M129.11,78.2v0a1,1,0,0,1-1,1h-2.19a.67.67,0,0,0,.08-.37.74.74,0,0,0-.73-.7h3.88Z"/><path class="cls-1" d="M47.82,78.26a1,1,0,0,0,1,1h77a.78.78,0,0,1-.75.4H48.38a1,1,0,0,1-1.12-.77A.79.79,0,0,1,47.82,78.26Z"/><path class="cls-1" d="M146.91,83.9h2.4V89h-9.47l-6.67-4.08h13.16A7.47,7.47,0,0,0,146.91,83.9Z"/><path class="cls-1" d="M131.5,83.9h15.41a7.47,7.47,0,0,1-.58,1H133.17Z"/><path class="cls-1" d="M146.33,85.17H34.1a.25.25,0,0,1-.25-.25.25.25,0,0,1,.25-.25H146.33a.25.25,0,0,1,.25.25A.25.25,0,0,1,146.33,85.17Z"/><path class="cls-1" d="M146.33,85.17a.23.23,0,0,1-.14,0,.25.25,0,0,1-.06-.35,11,11,0,0,0,1.68-5.86,12.59,12.59,0,0,0-1.7-5.88.25.25,0,0,1,.45-.23,13.17,13.17,0,0,1,1.75,6.11,11.3,11.3,0,0,1-1.77,6.15A.25.25,0,0,1,146.33,85.17Z"/><path class="cls-1" d="M.94,78.79l3.6-1.18a2.41,2.41,0,0,1,.31,1.31,2.93,2.93,0,0,1-.31,1.35l0,.07L.94,79.28A.32.32,0,0,1,.78,79,.28.28,0,0,1,.94,78.79Z"/><polyline class="cls-3" points="9.53 81.84 4.52 80.34 0.94 79.28"/><polyline class="cls-3" points="9.63 75.95 4.54 77.61 0.94 78.78"/><path class="cls-3" d="M4.54,80.27a2.93,2.93,0,0,0,.31-1.35,2.41,2.41,0,0,0-.31-1.31"/><path class="cls-3" d="M.94,78.79A.28.28,0,0,0,.78,79a.32.32,0,0,0,.16.25"/><polygon class="cls-1" points="139.84 68.78 149.31 68.78 149.31 73.87 131.5 73.87 139.84 68.78"/><polygon class="cls-1" points="131.5 83.91 149.31 83.91 149.31 89 139.84 89 131.5 83.91"/><line class="cls-3" x1="131.5" y1="73.87" x2="139.84" y2="68.78"/><line class="cls-3" x1="149.31" y1="68.78" x2="139.84" y2="68.78"/><line class="cls-3" x1="131.5" y1="73.87" x2="149.31" y2="73.87"/><line class="cls-3" x1="149.31" y1="68.78" x2="149.31" y2="73.87"/><line class="cls-3" x1="131.5" y1="83.9" x2="139.84" y2="89"/><line class="cls-3" x1="149.31" y1="89" x2="139.84" y2="89"/><line class="cls-3" x1="131.5" y1="83.9" x2="149.31" y2="83.9"/><line class="cls-3" x1="149.31" y1="89" x2="149.31" y2="83.9"/><path class="cls-2" d="M34.1,85.17a.22.22,0,0,1-.11,0,.25.25,0,0,1-.11-.33,13.73,13.73,0,0,0,0-11.79A.25.25,0,0,1,34,72.7a.25.25,0,0,1,.34.12,14.19,14.19,0,0,1,0,12.21A.27.27,0,0,1,34.1,85.17Z"/><path class="cls-2" d="M9.52,82.1h0a.12.12,0,0,1-.08-.15,9.27,9.27,0,0,0,.5-2.65,9,9,0,0,0-.42-3.17A.12.12,0,0,1,9.57,76a.12.12,0,0,1,.15.08,9.45,9.45,0,0,1,.43,3.25A9.76,9.76,0,0,1,9.64,82,.13.13,0,0,1,9.52,82.1Z"/><polygon class="cls-1" points="48.37 72.2 125.13 72.2 129.1 73.68 44.4 73.68 48.37 72.2"/><polygon class="cls-1" points="44.4 84.22 129.1 84.22 125.13 85.69 48.37 85.69 44.4 84.22"/><line class="cls-3" x1="129.1" y1="73.68" x2="44.4" y2="73.68"/><line class="cls-3" x1="48.37" y1="72.2" x2="125.13" y2="72.2"/><line class="cls-3" x1="44.4" y1="73.68" x2="48.37" y2="72.2"/><line class="cls-3" x1="129.1" y1="73.68" x2="125.13" y2="72.2"/><line class="cls-3" x1="129.1" y1="84.22" x2="44.4" y2="84.22"/><line class="cls-3" x1="48.37" y1="85.7" x2="125.13" y2="85.7"/><line class="cls-3" x1="44.4" y1="84.22" x2="48.37" y2="85.7"/><line class="cls-3" x1="129.1" y1="84.22" x2="125.13" y2="85.7"/></svg>