<svg id="Layer_1" data-name="Layer 1" xmlns="http://www.w3.org/2000/svg" viewBox="0 0 150 150"><defs><style>.cls-1{fill:#231f20;}.cls-2{fill:#fff;}</style></defs><title>MissileTree_outlines</title><path class="cls-1" d="M142.68,61.44h6.64v5.81h-3a20.84,20.84,0,0,0-.65-2.6h-9.87Z"/><path class="cls-1" d="M135.76,64.65h9.87a20.84,20.84,0,0,1,.65,2.6H130.14Z"/><path class="cls-1" d="M124.71,71.57a.73.73,0,0,0,.66-.74.74.74,0,0,0-.66-.73H35.41a.77.77,0,0,0-.56.78.75.75,0,0,0,.56.69ZM29.88,64.65H135.76l-5.62,2.6h16.14a22.24,22.24,0,0,1,.33,3.61,21.59,21.59,0,0,1-.39,4.22H130.14l5,2.33H29.88a17.55,17.55,0,0,0,0-12.76Z"/><path class="cls-1" d="M19.79,67.91l10.09-3.26a17.55,17.55,0,0,1,0,12.76L19.79,74.14a7.46,7.46,0,0,0,.68-3.26A7.38,7.38,0,0,0,19.79,67.91Z"/><path class="cls-1" d="M10.14,67.91h9.65a7.38,7.38,0,0,1,.68,3,7.46,7.46,0,0,1-.68,3.26H10.14A10.58,10.58,0,0,0,10.6,71,10.8,10.8,0,0,0,10.14,67.91Z"/><path class="cls-1" d="M3.15,69.71l7-1.8A10.8,10.8,0,0,1,10.6,71a10.58,10.58,0,0,1-.46,3.1l-7-1.8h0a5.24,5.24,0,0,0,.17-1.29,5.53,5.53,0,0,0-.17-1.33Z"/><path class="cls-1" d="M.45,70.41l2.7-.7h0a5.53,5.53,0,0,1,.17,1.33,5.24,5.24,0,0,1-.17,1.29h0l-2.71-.7A.64.64,0,0,1,0,71,.67.67,0,0,1,.45,70.41Z"/><path class="cls-1" d="M35.41,70.1h89.3a.74.74,0,0,1,.66.73.73.73,0,0,1-.66.74H35.41a.75.75,0,0,1-.56-.69A.77.77,0,0,1,35.41,70.1Z"/><path class="cls-1" d="M146.22,75.08h3.1v5.81h-6.64l-7.51-3.48h10.46A18.18,18.18,0,0,0,146.22,75.08Z"/><path class="cls-1" d="M130.14,75.08h16.08a18.18,18.18,0,0,1-.59,2.33H135.17Z"/><path class="cls-2" d="M145.87,77.66H29.57l.14-.34a17.34,17.34,0,0,0,0-12.58l-.14-.34h116.3l.06.17a21.53,21.53,0,0,1,0,12.91ZM30.3,77.16H145.51a21.09,21.09,0,0,0,0-12.26H30.3a17.77,17.77,0,0,1,0,12.26Z"/><path class="cls-2" d="M20.1,74.27h-10l.05-.16A10.66,10.66,0,0,0,10.6,71,10.51,10.51,0,0,0,10.15,68l-.05-.16h10l0,.07a7.61,7.61,0,0,1,.69,3,7.7,7.7,0,0,1-.69,3.32ZM10.43,74h9.51a7.29,7.29,0,0,0,0-6H10.43a10.55,10.55,0,0,1,.42,3A10.73,10.73,0,0,1,10.43,74Z"/><rect class="cls-2" x="24.96" y="70.48" width="0.5" height="10.6" transform="translate(-54.65 76.43) rotate(-72.07)"/><rect class="cls-2" x="19.91" y="66.03" width="10.6" height="0.5" transform="translate(-19.22 11.02) rotate(-17.97)"/><path class="cls-1" d="M.45,70.41l2.7-.7h0a5.53,5.53,0,0,1,.17,1.33,5.24,5.24,0,0,1-.17,1.29h0l-2.71-.7A.64.64,0,0,1,0,71,.67.67,0,0,1,.45,70.41Z"/><rect class="cls-2" x="5.17" y="67.89" width="0.25" height="10.01" transform="translate(-66.61 59.81) rotate(-75.53)"/><rect class="cls-2" x="0.29" y="69.04" width="10.01" height="0.25" transform="translate(-17.11 3.52) rotate(-14.47)"/><path class="cls-2" d="M.41,71.76a.77.77,0,0,1,0-1.47l.08.24A.51.51,0,0,0,.13,71a.54.54,0,0,0,.36.52Z"/><path class="cls-2" d="M3.28,72.37,3,72.31a4.9,4.9,0,0,0,.17-1.26A4.74,4.74,0,0,0,3,69.75l.25-.06a5.63,5.63,0,0,1,.17,1.36A5.31,5.31,0,0,1,3.28,72.37Z"/><polygon class="cls-1" points="143.06 61.44 149.69 61.44 149.69 67.25 130.52 67.25 143.06 61.44"/><polygon class="cls-1" points="130.52 75.08 149.69 75.08 149.69 80.89 143.06 80.89 130.52 75.08"/><polygon class="cls-2" points="143.01 81 130.47 75.19 130.57 74.97 143.11 80.78 143.01 81"/><rect class="cls-2" x="130.52" y="74.95" width="19.17" height="0.25"/><rect class="cls-2" x="149.57" y="75.08" width="0.25" height="5.81"/><rect class="cls-2" x="143.06" y="80.77" width="6.63" height="0.25"/><polygon class="cls-2" points="130.57 67.37 130.47 67.14 143.01 61.33 143.11 61.56 130.57 67.37"/><rect class="cls-2" x="130.52" y="67.13" width="19.17" height="0.25"/><rect class="cls-2" x="149.57" y="61.44" width="0.25" height="5.81"/><rect class="cls-2" x="143.06" y="61.32" width="6.63" height="0.25"/><rect class="cls-2" x="32.44" y="67" width="95.53" height="0.25"/><rect class="cls-2" x="34.78" y="65.53" width="89.3" height="0.25"/><polygon class="cls-2" points="32.51 67.24 32.38 67.02 34.72 65.55 34.85 65.76 32.51 67.24"/><polygon class="cls-2" points="127.92 67.25 124.04 65.77 124.13 65.54 128.01 67.01 127.92 67.25"/><rect class="cls-2" x="34.86" y="70.14" width="90.57" height="1.38" rx="0.68"/></svg>