<?xml version="1.0" encoding="UTF-8"?>
<svg width="250px" height="34px" viewBox="0 0 250 34" version="1.1" xmlns="http://www.w3.org/2000/svg" xmlns:xlink="http://www.w3.org/1999/xlink">
    <!-- Generator: Sketch 63.1 (92452) - https://sketch.com -->
    <title>Shahab1</title>
    <desc>Created with Sketch.</desc>
    <g id="Page-1" stroke="none" stroke-width="1" fill="none" fill-rule="evenodd">
        <g id="Missile-SVGs" transform="translate(-124.000000, -72.000000)">
            <rect fill="#CCD8C0" x="0" y="0" width="668" height="1469"></rect>
            <g id="missilebase/Shahab1" transform="translate(124.000000, 72.000000)">
                <g id="Shahab1">
                    <path d="M0.0105336798,16.8845634 C0.280290334,15.8175894 5.23876851,14.2262213 14.8859682,12.1104591 L55.7348837,7.09219858 L76.8573242,7.09219858 L79.941559,5.76241135 L208.376674,5.76241135 L212.00432,7.34404234 L221.22263,7.34404234 L233.051237,-1.13686838e-13 L249.014518,-1.13686838e-13 L249.014518,8.42198582 L244.955981,8.42198582 C246.197827,11.5394887 246.81875,14.4206944 246.81875,17.0656028 C246.81875,19.7105113 246.197827,22.3553103 244.955981,25 L249.014518,25 L249.014518,33.6879433 L233.051237,33.6879433 L222.724924,27.0390071 L212.00432,27.0390071 L208.376674,28.3687943 L79.941559,28.3687943 L76.8573242,27.0390071 L56.7428244,27.4822695 L14.7446893,22 C4.65216225,19.656683 -0.259222974,17.9515375 0.0105336798,16.8845634 Z" id="Path-2" fill="#101010"></path>
                    <g id="separators" transform="translate(5.749987, 6.648936)">
                        <path d="M0.606531287,12.4113475 C0.976936166,11.7135318 1.16466679,10.9420969 1.15398685,10.1617075 C1.19495242,9.39974943 1.00505813,8.64254419 0.606531287,7.9787234" id="Path" stroke="#FFFFFF" stroke-width="0.25" stroke-linecap="round" stroke-linejoin="round"></path>
                        <path d="M49.8620117,20.8216935 C49.8024354,20.8372133 49.7399283,20.8372133 49.680352,20.8216935 C49.4826274,20.7179267 49.4022224,20.4745605 49.4986922,20.2718543 C52.4271007,14.0570426 52.4271007,6.84241071 49.4986922,0.62759894 C49.4426354,0.524751456 49.432187,0.402816051 49.4699173,0.29178816 C49.5076475,0.180760269 49.5900545,0.0909449023 49.6968665,0.0444361422 C49.797243,-0.00651187452 49.9138654,-0.0139827626 50.0198226,0.0237474147 C50.1257799,0.061477592 50.211918,0.141149189 50.2583602,0.244377673 C53.2979795,6.67901197 53.2979795,14.1537941 50.2583602,20.5884284 C50.1790786,20.7340644 50.0266869,20.8237523 49.8620117,20.8216935 L49.8620117,20.8216935 Z" id="Path" fill="#FFFFFF" fill-rule="nonzero"></path>
                        <path d="M8.78278384,15.5141844 L8.78278384,15.5141844 C8.72886436,15.4987639 8.68365657,15.4636784 8.65714753,15.416679 C8.63063848,15.3696795 8.62500982,15.314634 8.64150499,15.2637028 C9.16238041,13.837229 9.45985839,12.3463992 9.52449784,10.8385279 C9.61340505,9.04630555 9.36220289,7.25351014 8.78278384,5.5450168 C8.76024982,5.4622545 8.79570567,5.37508621 8.87108313,5.32793275 C8.92494566,5.31233527 8.98315927,5.31765761 9.03286373,5.34272399 C9.08256819,5.36779036 9.11967293,5.41053785 9.13598098,5.46152293 C9.72155481,7.21490728 9.9785457,9.05157256 9.89535484,10.8886242 C9.81655054,12.4072645 9.51339346,13.908007 8.99470213,15.3471967 C8.97124597,15.4412574 8.88485725,15.5093301 8.78278384,15.5141844 Z" id="Path" fill="#FFFFFF" fill-rule="nonzero"></path>
                    </g>
                </g>
            </g>
        </g>
    </g>
</svg>