<svg id="shahab3" data-name="shahab3" xmlns="http://www.w3.org/2000/svg" viewBox="0 0 150 150"><defs><style>.cls-1{fill:#231f20;}.cls-2,.cls-3{fill:none;stroke:#fff;stroke-miterlimit:10;}.cls-2{stroke-width:0.5px;}.cls-3{stroke-width:0.25px;}.cls-4{fill:#fff;}</style></defs><title>shahab3</title><path class="cls-1" d="M142.68,61.44h6.64v5.81h-3a20.84,20.84,0,0,0-.65-2.6h-9.87Z"/><path class="cls-1" d="M135.76,64.65h9.87a20.84,20.84,0,0,1,.65,2.6H130.14Z"/><path class="cls-1" d="M124.71,71.57a.73.73,0,0,0,.66-.74.74.74,0,0,0-.66-.73H35.41a.77.77,0,0,0-.56.78.75.75,0,0,0,.56.69ZM29.88,64.65H135.76l-5.62,2.6h16.14a22.24,22.24,0,0,1,.33,3.61,21.59,21.59,0,0,1-.39,4.22H130.14l5,2.33H29.88a17.55,17.55,0,0,0,0-12.76Z"/><path class="cls-1" d="M19.79,67.91l10.09-3.26a17.55,17.55,0,0,1,0,12.76L19.79,74.14a7.46,7.46,0,0,0,.68-3.26A7.38,7.38,0,0,0,19.79,67.91Z"/><path class="cls-1" d="M10.14,67.91h9.65a7.38,7.38,0,0,1,.68,3,7.46,7.46,0,0,1-.68,3.26H10.14A10.58,10.58,0,0,0,10.6,71,10.8,10.8,0,0,0,10.14,67.91Z"/><path class="cls-1" d="M3.15,69.71l7-1.8A10.8,10.8,0,0,1,10.6,71a10.58,10.58,0,0,1-.46,3.1l-7-1.8h0a5.24,5.24,0,0,0,.17-1.29,5.53,5.53,0,0,0-.17-1.33Z"/><path class="cls-1" d="M.45,70.41l2.7-.7h0a5.53,5.53,0,0,1,.17,1.33,5.24,5.24,0,0,1-.17,1.29h0l-2.71-.7A.64.64,0,0,1,0,71,.67.67,0,0,1,.45,70.41Z"/><path class="cls-1" d="M35.41,70.1h89.3a.74.74,0,0,1,.66.73.73.73,0,0,1-.66.74H35.41a.75.75,0,0,1-.56-.69A.77.77,0,0,1,35.41,70.1Z"/><path class="cls-1" d="M146.22,75.08h3.1v5.81h-6.64l-7.51-3.48h10.46A18.18,18.18,0,0,0,146.22,75.08Z"/><path class="cls-1" d="M130.14,75.08h16.08a18.18,18.18,0,0,1-.59,2.33H135.17Z"/><path class="cls-2" d="M145.69,64.65a20.89,20.89,0,0,1,1,6.21,21.14,21.14,0,0,1-1,6.55H29.94a17.55,17.55,0,0,0,0-12.76Z"/><path class="cls-3" d="M20,67.91a7.53,7.53,0,0,1,.69,3A7.44,7.44,0,0,1,20,74.14H10.27a10.92,10.92,0,0,0,.46-3.1,10.8,10.8,0,0,0-.46-3.13Z"/><line class="cls-2" x1="30.26" y1="77.41" x2="20.17" y2="74.14"/><line class="cls-2" x1="20.17" y1="67.91" x2="30.26" y2="64.65"/><path class="cls-1" d="M.45,70.41l2.7-.7h0a5.53,5.53,0,0,1,.17,1.33,5.24,5.24,0,0,1-.17,1.29h0l-2.71-.7A.64.64,0,0,1,0,71,.67.67,0,0,1,.45,70.41Z"/><polyline class="cls-3" points="0.45 71.64 3.15 72.34 10.14 74.14"/><polyline class="cls-3" points="10.14 67.91 3.15 69.71 0.45 70.41"/><path class="cls-3" d="M.45,70.41A.67.67,0,0,0,0,71a.64.64,0,0,0,.45.63"/><path class="cls-3" d="M3.16,72.34a5.24,5.24,0,0,0,.17-1.29,5.53,5.53,0,0,0-.17-1.33"/><polygon class="cls-1" points="143.06 61.44 149.69 61.44 149.69 67.25 130.52 67.25 143.06 61.44"/><polygon class="cls-1" points="130.52 75.08 149.69 75.08 149.69 80.89 143.06 80.89 130.52 75.08"/><line class="cls-3" x1="130.52" y1="75.08" x2="143.06" y2="80.89"/><line class="cls-3" x1="130.52" y1="75.08" x2="149.69" y2="75.08"/><line class="cls-3" x1="149.69" y1="80.89" x2="149.69" y2="75.08"/><line class="cls-3" x1="143.06" y1="80.89" x2="149.69" y2="80.89"/><line class="cls-3" x1="130.52" y1="67.26" x2="143.06" y2="61.44"/><line class="cls-3" x1="130.52" y1="67.26" x2="149.69" y2="67.26"/><line class="cls-3" x1="149.69" y1="61.44" x2="149.69" y2="67.26"/><line class="cls-3" x1="143.06" y1="61.44" x2="149.69" y2="61.44"/><line class="cls-3" x1="127.97" y1="67.13" x2="32.44" y2="67.13"/><line class="cls-3" x1="34.78" y1="65.66" x2="124.09" y2="65.66"/><line class="cls-3" x1="32.44" y1="67.13" x2="34.78" y2="65.66"/><line class="cls-3" x1="124.09" y1="65.66" x2="127.97" y2="67.13"/><rect class="cls-4" x="34.86" y="70.14" width="90.57" height="1.38" rx="0.68"/></svg>