<svg id="Layer_1" data-name="Layer 1" xmlns="http://www.w3.org/2000/svg" viewBox="0 0 150 150"><defs><style>.cls-1{fill:#231f20;}.cls-2,.cls-3{fill:none;stroke:#fff;stroke-miterlimit:10;}.cls-2{stroke-width:0.25px;}.cls-3{stroke-width:0.5px;}.cls-4{fill:#fff;}</style></defs><title>MissileTree_outlines</title><path class="cls-1" d="M143,64.18h6.61V70h-3a19.18,19.18,0,0,0-.64-2.59h-9.84Z"/><path class="cls-1" d="M136.07,67.38h9.84a19.18,19.18,0,0,1,.64,2.59H130.47Z"/><path class="cls-1" d="M125.06,74.28a.74.74,0,0,0,0-1.47h-89a.76.76,0,0,0,0,1.47Zm-94.52-6.9H136.07L130.47,70h16.08a22,22,0,0,1,.34,3.59,21.33,21.33,0,0,1-.39,4.21h-16l5,2.33h-105a17.44,17.44,0,0,0,0-12.72Z"/><path class="cls-1" d="M20.49,70.63l10.05-3.25a17.44,17.44,0,0,1,0,12.72l-10-3.26a7.52,7.52,0,0,0,0-6.21Z"/><path class="cls-1" d="M10.86,70.63h9.63a7.52,7.52,0,0,1,0,6.21H10.86a10.56,10.56,0,0,0,.46-3.09A10.72,10.72,0,0,0,10.86,70.63Z"/><path class="cls-1" d="M3.9,72.42l7-1.79a10.72,10.72,0,0,1,.46,3.12,10.56,10.56,0,0,1-.46,3.09L3.9,75h0a4.78,4.78,0,0,0,.17-1.28,5.07,5.07,0,0,0-.17-1.33Z"/><path class="cls-1" d="M1.2,73.12l2.7-.7h0a5.07,5.07,0,0,1,.17,1.33A4.78,4.78,0,0,1,3.9,75h0l-2.7-.69a.65.65,0,0,1-.44-.64A.63.63,0,0,1,1.2,73.12Z"/><path class="cls-1" d="M36.05,72.81h89a.74.74,0,0,1,0,1.47h-89a.76.76,0,0,1,0-1.47Z"/><path class="cls-1" d="M146.5,77.77h3.08v5.79H143l-7.48-3.46h10.42A20,20,0,0,0,146.5,77.77Z"/><path class="cls-1" d="M130.47,77.77h16a20,20,0,0,1-.59,2.33H135.49Z"/><path class="cls-2" d="M146.41,67.38a21.16,21.16,0,0,1,1,6.18,20.7,20.7,0,0,1-1,6.53H31a17.42,17.42,0,0,0,0-12.71Z"/><path class="cls-2" d="M20.84,70.63a7.46,7.46,0,0,1,.7,3,7.37,7.37,0,0,1-.7,3.25H10.91a10.52,10.52,0,0,0,.47-3.09,10.05,10.05,0,0,0-.47-3.12Z"/><line class="cls-3" x1="30.91" y1="80.09" x2="20.86" y2="76.84"/><line class="cls-2" x1="20.86" y1="70.63" x2="30.91" y2="67.38"/><path class="cls-1" d="M1.2,73.12l2.7-.7h0a5.07,5.07,0,0,1,.17,1.33A4.78,4.78,0,0,1,3.9,75h0l-2.7-.69a.65.65,0,0,1-.44-.64A.63.63,0,0,1,1.2,73.12Z"/><polyline class="cls-2" points="1.2 74.35 3.9 75.05 10.86 76.84"/><polyline class="cls-2" points="10.86 70.63 3.9 72.42 1.2 73.12"/><path class="cls-2" d="M1.2,73.12a.63.63,0,0,0-.44.59.65.65,0,0,0,.44.64"/><path class="cls-2" d="M3.9,75a4.78,4.78,0,0,0,.17-1.28,5.07,5.07,0,0,0-.17-1.33"/><polygon class="cls-1" points="143.34 64.18 149.96 64.18 149.96 69.97 130.85 69.97 143.34 64.18"/><polygon class="cls-1" points="130.85 77.77 149.96 77.77 149.96 83.56 143.34 83.56 130.85 77.77"/><line class="cls-2" x1="130.85" y1="77.77" x2="143.35" y2="83.56"/><line class="cls-2" x1="130.85" y1="77.77" x2="149.96" y2="77.77"/><line class="cls-2" x1="149.96" y1="83.56" x2="149.96" y2="77.77"/><line class="cls-2" x1="143.35" y1="83.56" x2="149.96" y2="83.56"/><line class="cls-2" x1="130.85" y1="69.97" x2="143.35" y2="64.18"/><line class="cls-2" x1="130.85" y1="69.97" x2="149.96" y2="69.97"/><line class="cls-2" x1="149.96" y1="64.18" x2="149.96" y2="69.97"/><line class="cls-2" x1="143.35" y1="64.18" x2="149.96" y2="64.18"/><line class="cls-2" x1="128.31" y1="69.85" x2="33.09" y2="69.85"/><line class="cls-2" x1="35.43" y1="68.38" x2="124.43" y2="68.38"/><line class="cls-2" x1="33.09" y1="69.85" x2="35.43" y2="68.38"/><line class="cls-2" x1="124.43" y1="68.38" x2="128.31" y2="69.85"/><rect class="cls-4" x="35.51" y="72.85" width="90.27" height="1.37" rx="0.69"/></svg>