<svg xmlns="http://www.w3.org/2000/svg" viewBox="0 0 150 150"><defs><style>.cls-1{fill:#fff;}</style></defs><title>Missile</title><g id="Layer_2" data-name="Layer 2"><rect x="95.01" y="30.02" width="14.35" height="89.96" transform="translate(27.19 177.19) rotate(-90)"/><path class="cls-1" d="M147.36,82.36H57V67.64h90.34Zm-90-.38H147V68H57.39Z"/><rect x="23.8" y="53.79" width="7.55" height="42.42" transform="translate(-47.42 102.58) rotate(-90)"/><path class="cls-1" d="M49,79H6.18V71H49ZM6.56,78.59h42V71.41h-42Z"/><polygon points="48.79 78.78 48.79 71.22 57.2 67.83 57.2 82.17 48.79 78.78"/><path class="cls-1" d="M57.39,82.45,48.6,78.9V71.1l8.79-3.55ZM49,78.65l8,3.24V68.11l-8,3.24Z"/><path d="M2,76.58l4.19,2.18a.06.06,0,0,0,.09-.06V71.21h0L2,73.42A1.78,1.78,0,0,0,2,76.58Z"/><path class="cls-1" d="M6.21,79a.27.27,0,0,1-.12,0L1.91,76.75a2,2,0,0,1,0-3.5L6.26,71l.2.11v7.6a.25.25,0,0,1-.12.22A.33.33,0,0,1,6.21,79ZM2.08,76.41l4,2.09v-7l-4,2.09a1.59,1.59,0,0,0,0,2.82Z"/><polygon points="149.81 67.83 149.81 64.43 145.57 64.43 138.9 67.83 149.81 67.83"/><path class="cls-1" d="M150,68H138.11l7.42-3.78H150Zm-10.31-.38h9.93v-3h-4Z"/><polygon points="149.81 82.17 149.81 85.57 145.57 85.57 138.9 82.17 149.81 82.17"/><path class="cls-1" d="M150,85.76h-4.47L138.11,82H150Zm-4.38-.38h4v-3h-9.93Z"/><rect x="143.92" y="69.4" width="0.5" height="11.29" transform="translate(69.13 219.21) rotate(-90)"/><path class="cls-1" d="M150,75.48H138.34V74.6H150Zm-11.29-.38h10.91V75H138.71Z"/><rect class="cls-1" x="133.47" y="68.04" width="0.38" height="13.93"/><rect class="cls-1" x="12.39" y="71.36" width="0.38" height="7.28"/></g></svg>