<svg id="teapoDong2" data-name="teapoDong2" xmlns="http://www.w3.org/2000/svg" viewBox="0 0 150 150"><defs><style>.cls-1,.cls-3{stroke:#fff;stroke-miterlimit:10;}.cls-1{stroke-width:0.2px;}.cls-2{fill:#fff;}.cls-3{stroke-width:0.15px;}</style></defs><title>teapoDong2</title><path d="M149.86,55.3h-7.79l-3.31,4H69.12l-7.93,1.76H4.49l-3.33,1a1.82,1.82,0,0,0,0,3.27l3.33,1h56.7l7.93,1.79h69.64l3.31,4h7.79v-4h-1.93a14.19,14.19,0,0,0,.55-4.45,14.07,14.07,0,0,0-.55-4.46h1.93Z"/><path class="cls-1" d="M1.16,62.09a1.82,1.82,0,0,0,0,3.27,4.86,4.86,0,0,0,.26-1.63A5.11,5.11,0,0,0,1.16,62.09Z"/><path class="cls-2" d="M4.49,66.41h.09A10.31,10.31,0,0,0,5,63.73a9.84,9.84,0,0,0-.37-2.68H4.49a9.17,9.17,0,0,1,.38,2.68A9.34,9.34,0,0,1,4.49,66.41Z"/><path class="cls-2" d="M9,66.41h.74a10.31,10.31,0,0,0,.37-2.68,9.84,9.84,0,0,0-.37-2.68H9a9.39,9.39,0,0,1,.37,2.68A9.57,9.57,0,0,1,9,66.41Z"/><path class="cls-2" d="M32.55,66.41h.74a10.31,10.31,0,0,0,.37-2.68,9.84,9.84,0,0,0-.37-2.68h-.74a9.39,9.39,0,0,1,.37,2.68A9.57,9.57,0,0,1,32.55,66.41Z"/><path class="cls-2" d="M61.11,66.41h.09a10.31,10.31,0,0,0,.37-2.68,9.84,9.84,0,0,0-.37-2.68h-.09a9.39,9.39,0,0,1,.37,2.68A9.57,9.57,0,0,1,61.11,66.41Z"/><path class="cls-2" d="M69.18,68.22h.75a16.73,16.73,0,0,0,.63-4.47,16.15,16.15,0,0,0-.63-4.46h-.75a15.06,15.06,0,0,1,.64,4.46A15.34,15.34,0,0,1,69.18,68.22Z"/><path class="cls-2" d="M133.12,68.2h.74a16.67,16.67,0,0,0,.63-4.45,16.15,16.15,0,0,0-.63-4.46h-.74a16.07,16.07,0,0,1,0,8.91Z"/><path class="cls-3" d="M139.56,63.75a31.46,31.46,0,0,0,5.07.29,35.27,35.27,0,0,0,5.23-.29,29.79,29.79,0,0,0-5.28-.3A24.61,24.61,0,0,0,139.56,63.75Z"/></svg>