<svg id="Layer_1" data-name="Layer 1" xmlns="http://www.w3.org/2000/svg" viewBox="0 0 200 200"><defs><style>.cls-1,.cls-2{fill:#231f20;}.cls-2,.cls-5{stroke:#fff;stroke-miterlimit:10;}.cls-2{stroke-width:0.25px;}.cls-3{fill:#c3beb1;}.cls-4{fill:#fff;}.cls-5{fill:none;stroke-width:0.75px;}</style></defs><title>TESTMissiles</title><path class="cls-1" d="M170.14,93.21h9.41v5.06H177c-.14-.3-.28-.61-.45-.94h-13.2Z"/><path class="cls-1" d="M163.39,97.33h13.2c.17.33.31.64.45.94H161.85Z"/><path class="cls-1" d="M78.84,102.74c-.41.05-.68.25-.69.52s.45.64,1.11.58h76.27c.46,0,.84-.16.82-.58s-.27-.49-.61-.52H78.84ZM65.07,97.33h98.32l-1.54.94H177a10.92,10.92,0,0,1,.13,10H161.85l1.66,1H65.07a13.83,13.83,0,0,0,0-11.92Z"/><path class="cls-1" d="M40.76,100.34l24.31-3a13.83,13.83,0,0,1,0,11.92l-24.4-3.06a9.14,9.14,0,0,0,.51-2.66A9.7,9.7,0,0,0,40.76,100.34Z"/><path class="cls-2" d="M35.71,102l5-1.65a9.7,9.7,0,0,1,.42,3.19,9.14,9.14,0,0,1-.51,2.66h0l-5-1.49,0-.07a2.94,2.94,0,0,0,.3-1.34A2.43,2.43,0,0,0,35.71,102Z"/><path class="cls-2" d="M32.12,103.16,35.71,102a2.43,2.43,0,0,1,.3,1.3,2.94,2.94,0,0,1-.3,1.34l0,.07-3.56-1.06a.3.3,0,0,1-.15-.25A.27.27,0,0,1,32.12,103.16Z"/><path class="cls-3" d="M78.84,102.74h0Z"/><path class="cls-3" d="M155.53,102.74h0Z"/><path class="cls-4" d="M155.53,102.74h.21c.34,0,.6.19.61.52s-.36.61-.82.58H79.26c-.66.06-1.12-.22-1.11-.58s.28-.47.69-.52h76.69Z"/><path class="cls-1" d="M177.17,108.24h2.38v5.06h-9.41l-6.63-4h13.08A7.68,7.68,0,0,0,177.17,108.24Z"/><path class="cls-1" d="M161.85,108.24h15.32a7.68,7.68,0,0,1-.58,1H163.51Z"/><path class="cls-5" d="M65.07,109.25a13.83,13.83,0,0,0,0-11.92"/></svg>