<!-- Generated by IcoMoon.io -->
<svg version="1.1" xmlns="http://www.w3.org/2000/svg" width="32" height="32" viewBox="0 0 32 32">
<title>emad</title>
<path fill="#231f20" d="M29.596 17.583l0.853 0.019-0.237-0.768-0.427-0.67-1.828 0.213c-0.032 0-0.324 0.1-0.324 0.1z"></path>
<path fill="#231f20" d="M30.042 18.319h0.8v0.546h-0.8v-0.546z"></path>
<path fill="#231f20" d="M29.429 17.493h1.7c0.141 0 0.256 0.115 0.256 0.256v0.004c0 0.141-0.115 0.256-0.256 0.256h-1.7c-0.141 0-0.256-0.115-0.256-0.256v-0.004c0-0.141 0.115-0.256 0.256-0.256z"></path>
<path fill="#231f20" d="M6.786 17.645l0.395 1.412 0.183 0.019 0.698-1.297-0.747-1.353-0.158 0.023-0.371 1.195z"></path>
<path fill="#fff" d="M7.373 19.091l-0.213-0.021-0.399-1.425 0.373-1.203 0.177-0.026 0.755 1.367zM7.194 19.042l0.162 0.017 0.691-1.28-0.738-1.335-0.141 0.019-0.367 1.182z"></path>
<path fill="#d39ca5" d="M28.8 17.169h0.032v0.015h-0.032v-0.015z"></path>
<path fill="#fff" d="M28.785 17.154h0.060v0.045h-0.060v-0.045z"></path>
<path fill="#d39ca5" d="M30.775 17.749h0.013v0.006h-0.013v-0.006z"></path>
<path fill="#fff" d="M30.761 17.737h0.041v0.034h-0.041v-0.034z"></path>
<path fill="#231f20" d="M31.241 16.422l-0.407 0.378-0.006 0.384h-1.050v-0.96l1.463 0.198z"></path>
<path fill="#231f20" d="M27.761 16.427l1.879-1.122h1.6v1.122h-23.987c0.238 0.375 0.379 0.833 0.379 1.323s-0.141 0.947-0.385 1.333l0.006-0.010h22.81c0.227-0.358 0.366-0.791 0.378-1.256l0-0.003z"></path>
<path fill="#fff" d="M30.080 19.089l-22.844-0.021c0.235-0.374 0.375-0.829 0.375-1.316s-0.139-0.942-0.381-1.327l0.006 0.010-0.013-0.021h20.533l1.879-1.12h1.619v1.15h-23.981c0.229 0.373 0.365 0.824 0.365 1.308s-0.136 0.935-0.371 1.319l0.006-0.011h22.78c0.223-0.354 0.36-0.783 0.371-1.243l0-0.003h0.030c-0.009 0.471-0.148 0.908-0.382 1.28l0.006-0.010zM27.814 16.414h3.413v-1.092h-1.574z"></path>
<path fill="#231f20" d="M31.241 19.074v1.122h-1.6l-1.879-1.122z"></path>
<path fill="#fff" d="M31.255 20.209h-1.619l-0.004-0.002-1.879-1.12 0.015-0.026 1.877 1.12h1.581v-1.107h0.030v1.135z"></path>
<path fill="#231f20" d="M31.426 17.815v0.105c0 0 0 0 0 0 0 0.055-0.045 0.1-0.1 0.1-0.001 0-0.002 0-0.002-0h-0.898z"></path>
<path fill="#fff" d="M31.324 18.042h-0.898v-0.030h0.898c0.001 0 0.001 0 0.002 0 0.047 0 0.085-0.038 0.085-0.085 0 0 0-0 0-0v0-0.111h0.030v0.105c0 0.002 0 0.004 0 0.006 0 0.064-0.052 0.115-0.115 0.115-0.001 0-0.002 0-0.002-0h0z"></path>
<path fill="#231f20" d="M31.426 17.687v-0.111c0 0 0 0 0-0 0-0.055-0.045-0.1-0.1-0.1-0.001 0-0.002 0-0.002 0h-0.898z"></path>
<path fill="#fff" d="M31.441 17.687h-0.030v-0.111c0 0 0-0 0-0 0-0.047-0.038-0.085-0.085-0.085-0.001 0-0.002 0-0.002 0h-0.898v-0.030h0.898c0.001 0 0.001-0 0.002-0 0.064 0 0.115 0.052 0.115 0.115 0 0 0 0 0 0v0z"></path>
<path fill="#231f20" d="M31.806 17.687v0.128h-3.433l-0.235-0.064 0.235-0.064z"></path>
<path fill="#fff" d="M31.821 17.828h-3.447l-0.288-0.077 0.292-0.077h3.445zM28.373 17.801h3.413v-0.094h-3.413l-0.181 0.049z"></path>
<path fill="#231f20" d="M31.241 16.427l-0.38 0.378v0.386h-0.482z"></path>
<path fill="#fff" d="M30.876 17.207h-0.497v-0.030h0.469v-0.378l0.382-0.382 0.021 0.021-0.375 0.373v0.395z"></path>
<path fill="#231f20" d="M30.063 19.074h1.178l-0.38-0.378h-0.604z"></path>
<path fill="#fff" d="M31.275 19.089h-1.212v-0.030h1.143l-0.35-0.35h-0.599v-0.028h0.61l0.407 0.407z"></path>
<path fill="#231f20" d="M30.861 18.697v-0.386h-0.482z"></path>
<path fill="#fff" d="M30.876 18.697h-0.028v-0.371h-0.469v-0.030h0.497v0.401z"></path>
<path fill="#fff" d="M30.325 17.687h0.030v0.126h-0.030v-0.126z"></path>
<path fill="#231f20" d="M30.441 17.687c-0.011-0.468-0.15-0.901-0.384-1.269l0.006 0.010z"></path>
<path fill="#fff" d="M30.426 17.69c-0.010-0.469-0.149-0.904-0.382-1.273l0.006 0.010h0.030c0.229 0.36 0.37 0.796 0.382 1.264l0 0.003z"></path>
<path fill="#fff" d="M30.257 16.791h0.606v0.030h-0.606v-0.030z"></path>
<path fill="#231f20" d="M7.253 16.427l-1.476 0.378-2.718 0.094-2.773 0.727c-0.055 0.016-0.095 0.066-0.095 0.125 0 0.011 0.001 0.021 0.004 0.031l-0-0.001c0.013 0.045 0.047 0.079 0.091 0.091l0.001 0 2.773 0.727 2.718 0.094 1.476 0.38z"></path>
<path fill="#fff" d="M7.253 19.089l-1.474-0.378-2.718-0.094-2.773-0.727c-0.062-0.015-0.108-0.071-0.108-0.137 0-0.028 0.008-0.055 0.023-0.077l-0 0.001c0.018-0.032 0.048-0.055 0.084-0.064l0.001-0 2.773-0.73 2.718-0.094 1.474-0.375v0.028l-1.481 0.38-2.716 0.094-2.763 0.727c-0.030 0.007-0.055 0.025-0.070 0.051l-0 0c-0.009 0.016-0.015 0.035-0.015 0.055 0 0.011 0.002 0.021 0.004 0.031l-0-0.001c0.010 0.040 0.041 0.071 0.080 0.081l0.001 0 2.773 0.727 2.718 0.094 1.468 0.38z"></path>
<path fill="#d39ca5" d="M5.773 18.697c0.171-0.268 0.272-0.595 0.272-0.945s-0.101-0.677-0.276-0.952l0.004 0.007z"></path>
<path fill="#fff" d="M5.786 18.705l-0.026-0.015c0.168-0.267 0.267-0.591 0.267-0.939s-0.1-0.672-0.272-0.946l0.004 0.007 0.026-0.015c0.17 0.271 0.27 0.601 0.27 0.954s-0.101 0.682-0.275 0.961l0.004-0.008z"></path>
<path fill="#d39ca5" d="M3.055 18.603c0.154-0.242 0.246-0.537 0.246-0.853s-0.092-0.611-0.25-0.86l0.004 0.006z"></path>
<path fill="#fff" d="M3.068 18.609l-0.026-0.015c0.151-0.239 0.24-0.531 0.24-0.843s-0.089-0.603-0.244-0.849l0.004 0.007 0.026-0.015c0.154 0.244 0.245 0.54 0.245 0.858s-0.091 0.614-0.249 0.864l0.004-0.007z"></path>
<path fill="#d39ca5" d="M5.461 16.817v-0.256l-0.811 0.292z"></path>
<path fill="#fff" d="M4.657 16.86l-0.011-0.028 0.83-0.292v0.277h-0.030v-0.237l-0.789 0.279z"></path>
<path fill="#d39ca5" d="M5.73 17.815h-0.582l-0.241-0.064 0.237-0.064h0.582z"></path>
<path fill="#fff" d="M5.745 17.828h-0.602l-0.288-0.077 0.292-0.077h0.597zM5.15 17.801h0.565v-0.094h-0.565l-0.181 0.049z"></path>
<path fill="#d39ca5" d="M5.461 18.686v0.256l-0.811-0.284z"></path>
<path fill="#fff" d="M5.476 18.963l-0.83-0.292 0.011-0.028 0.789 0.279v-0.237h0.030v0.277z"></path>
<path fill="#fff" d="M8.48 17.692h17.542v0.030h-17.542v-0.030z"></path>
<path fill="#231f20" d="M5.773 16.785l-2.718 0.094-2.773 0.727c-0.055 0.016-0.095 0.066-0.095 0.125 0 0.011 0.001 0.021 0.004 0.031l-0-0.001c0.013 0.045 0.047 0.079 0.091 0.091l0.001 0 2.773 0.727 2.718 0.094z"></path>
<path fill="#fff" d="M5.773 18.69l-2.72-0.094-2.773-0.727c-0.062-0.016-0.106-0.071-0.106-0.137s0.045-0.121 0.105-0.136l0.001-0 2.773-0.73 2.72-0.094v0.030l-2.716 0.094-2.763 0.725c-0.049 0.011-0.085 0.054-0.085 0.106 0 0.011 0.002 0.021 0.005 0.031l-0-0.001c0.010 0.040 0.041 0.071 0.080 0.081l0.001 0 2.773 0.727 2.716 0.094z"></path>
<path fill="#231f20" d="M5.773 18.675c0.171-0.268 0.272-0.595 0.272-0.945s-0.101-0.677-0.276-0.952l0.004 0.007z"></path>
<path fill="#fff" d="M5.786 18.684l-0.026-0.015c0.168-0.267 0.267-0.591 0.267-0.939s-0.1-0.672-0.272-0.946l0.004 0.007 0.026-0.015c0.17 0.271 0.27 0.601 0.27 0.954s-0.101 0.682-0.275 0.961l0.004-0.008z"></path>
<path fill="#231f20" d="M3.055 18.581c0.154-0.242 0.246-0.537 0.246-0.853s-0.092-0.611-0.25-0.86l0.004 0.006z"></path>
<path fill="#fff" d="M3.068 18.588l-0.026-0.015c0.151-0.239 0.24-0.531 0.24-0.843s-0.089-0.603-0.244-0.849l0.004 0.007 0.026-0.015c0.154 0.244 0.245 0.54 0.245 0.858s-0.091 0.614-0.249 0.864l0.004-0.007z"></path>
<path fill="#231f20" d="M5.461 16.796v-0.256l-0.811 0.284z"></path>
<path fill="#fff" d="M4.657 16.836l-0.011-0.026 0.83-0.292v0.277h-0.030v-0.237l-0.789 0.277z"></path>
<path fill="#231f20" d="M5.73 17.794h-0.582l-0.241-0.064 0.237-0.064h0.582z"></path>
<path fill="#fff" d="M5.745 17.807h-0.602l-0.288-0.077 0.292-0.077h0.597zM5.15 17.779h0.565v-0.098h-0.565l-0.181 0.049z"></path>
<path fill="#231f20" d="M5.461 18.665v0.256l-0.811-0.284z"></path>
<path fill="#fff" d="M5.476 18.942l-0.83-0.292 0.011-0.026 0.789 0.277v-0.237h0.030v0.277z"></path>
</svg>
