<!-- Generated by IcoMoon.io -->
<svg version="1.1" xmlns="http://www.w3.org/2000/svg" width="32" height="32" viewBox="0 0 32 32">
<title>ghadr</title>
<path fill="#231f20" d="M27.561 16.322c0.638-0.072 1.378-0.113 2.128-0.113s1.49 0.041 2.218 0.121l-0.090-0.008c-0.602 0.072-1.3 0.113-2.007 0.113-0.044 0-0.089-0-0.133-0l0.007 0c-0.028 0-0.061 0-0.094 0-0.715 0-1.42-0.041-2.113-0.121l0.085 0.008z"></path>
<path fill="#231f20" d="M31.492 14.025h-1.199l-2.225 0.988h-21.423v2.63h21.38l2.268 1.003h1.21v-1.218h-0.523c0.086-0.328 0.135-0.704 0.135-1.092s-0.049-0.764-0.142-1.123l0.007 0.031h0.521z"></path>
<path fill="#fff" d="M10.498 19.149h-0.045c-0.064-0.007-0.119-0.039-0.155-0.087l-0-0.001c-0.030-0.043-0.055-0.083-0.079-0.122-0.037 0.007-0.079 0.010-0.122 0.010-0.252 0-0.474-0.13-0.602-0.328l-0.002-0.003c-0.047-0.078-0.080-0.171-0.091-0.27l-0-0.003c-0.003-0.022-0.005-0.047-0.005-0.073s0.002-0.051 0.005-0.075l-0 0.003c-0.123-0.016-0.232-0.065-0.321-0.137l0.001 0.001c-0.237-0.196-0.309-0.514-0.213-0.917l0.013-0.058c0.086-0.29 0.14-0.625 0.147-0.971l0-0.004v-0.034c0-0.149 0-0.32-0.132-0.38-0.036-0.019-0.075-0.034-0.111-0.049-0.109-0.032-0.203-0.091-0.275-0.17l-0-0c-0.213-0.265-0.105-0.653 0.128-0.9 0.471-0.503 1.365-0.54 1.903-0.256l0.051 0.032c0.168 0.026 0.314 0.103 0.427 0.213l-0-0c0.107 0.109 0.172 0.259 0.172 0.423 0 0.103-0.026 0.201-0.072 0.286l0.002-0.003c-0.008 0.018-0.017 0.034-0.026 0.048l0.001-0.001c-0.013 0.019-0.024 0.041-0.032 0.065l-0 0.002c0 0.015 0.045 0.049 0.064 0.064s0.026 0.021 0.034 0.032l0.243 0.235 0.109 0.109 0.169 0.156c0.171 0.145 0.32 0.307 0.449 0.485l0.006 0.008c0.354 0.54-0.081 1.237-0.286 1.513-0.336 0.412-0.716 0.769-1.139 1.070l-0.018 0.012c-0.053 0.045-0.121 0.073-0.195 0.077l-0.001 0zM10.285 18.816l0.019 0.036c0.028 0.055 0.058 0.101 0.091 0.145l-0.002-0.002c0.020 0.025 0.049 0.043 0.083 0.047l0.001 0c0.007 0.001 0.014 0.001 0.022 0.001 0.052 0 0.1-0.017 0.139-0.046l-0.001 0c0.433-0.308 0.806-0.66 1.127-1.056l0.008-0.011c0.19-0.258 0.599-0.907 0.284-1.391-0.131-0.177-0.275-0.332-0.436-0.468l-0.004-0.003-0.171-0.16-0.109-0.107-0.243-0.228-0.028-0.023c-0.053-0.031-0.090-0.083-0.102-0.144l-0-0.001c0.006-0.047 0.023-0.089 0.048-0.125l-0.001 0.001 0.021-0.036c0.037-0.069 0.059-0.15 0.059-0.237 0-0.137-0.054-0.261-0.142-0.352l0 0c-0.103-0.099-0.238-0.166-0.387-0.185l-0.004-0h-0.021c-0.015-0.011-0.032-0.021-0.049-0.029l-0.002-0.001c-0.501-0.267-1.335-0.237-1.775 0.233-0.198 0.213-0.305 0.542-0.124 0.759 0.062 0.065 0.141 0.113 0.229 0.14l0.004 0.001c0.047 0.017 0.087 0.034 0.125 0.054l-0.005-0.002c0.183 0.090 0.188 0.311 0.192 0.476v0.032c-0.007 0.359-0.061 0.702-0.156 1.028l0.007-0.028-0.015 0.060c-0.028 0.078-0.045 0.168-0.045 0.262 0 0.214 0.085 0.408 0.224 0.549l-0-0c0.090 0.070 0.202 0.113 0.325 0.119l0.001 0h0.058v0.058c-0.003 0.015-0.008 0.027-0.013 0.040l0.001-0.001c-0.004 0.018-0.005 0.039-0.005 0.060s0.002 0.042 0.006 0.062l-0-0.002c0.010 0.083 0.035 0.158 0.072 0.225l-0.002-0.003c0.11 0.17 0.299 0.281 0.514 0.281 0.049 0 0.097-0.006 0.143-0.017l-0.004 0.001z"></path>
<path fill="#fff" d="M14.507 22.481c-0.033-0.001-0.063-0.015-0.085-0.036v0c-0.187-0.188-0.302-0.447-0.302-0.733 0-0.020 0.001-0.039 0.002-0.058l-0 0.003c-0-0.012-0-0.027-0-0.041 0-0.14 0.009-0.277 0.025-0.412l-0.002 0.016c-0.016-0.094-0.026-0.201-0.026-0.311 0 0 0-0 0-0v0c-0-0.005-0-0.011-0-0.018 0-0.206 0.021-0.407 0.061-0.601l-0.003 0.019c0.013-0.062 0.030-0.122 0.049-0.186 0.032-0.092 0.057-0.2 0.068-0.312l0.001-0.006c0.003-0.015 0.004-0.032 0.004-0.050 0-0.071-0.026-0.135-0.069-0.185l0 0s-0.043 0-0.145 0.213c-0.043 0.090-0.105 0.092-0.13 0.087-0.077 0-0.145-0.105-0.171-0.243-0.025-0.116-0.040-0.249-0.041-0.386v-0c0-0.047 0-0.1 0-0.154 0.002-0.030 0.003-0.064 0.003-0.099s-0.001-0.070-0.003-0.104l0 0.005c-0.013-0.102-0.034-0.194-0.065-0.283l0.003 0.010c-0.024-0.071-0.045-0.157-0.060-0.245l-0.002-0.011c-0.018-0.134-0.028-0.289-0.028-0.447 0-0.296 0.036-0.583 0.104-0.858l-0.005 0.025c0.064-0.321 0.222-0.599 0.443-0.81l0.001-0.001c0.045-0.038 0.094-0.075 0.146-0.108l0.005-0.003c0-0.064-0.015-0.158-0.019-0.235 0-0.043 0-0.079 0-0.1l-0.043-0.463c-0.030-0.279 0.045-0.523 0.171-0.553 0.041-0.011 0.119 0 0.175 0.137 0.175 0.426 0.362 0.978 0.52 1.543l0.028 0.117 0.032 0.113c0.067 0.211 0.127 0.468 0.167 0.73l0.004 0.029c0.014 0.13 0.022 0.281 0.022 0.434 0 0.192-0.013 0.38-0.038 0.565l0.002-0.022c-0.028 0.235-0.073 0.469-0.113 0.693-0.081 0.349-0.133 0.754-0.145 1.169l-0 0.009c0 0.531 0.115 1.033 0.297 1.28 0.053 0.113 0.083 0.245 0.083 0.385s-0.031 0.272-0.086 0.391l0.002-0.006c-0.047 0.068-0.098 0.068-0.126 0.060-0.2-0.052-0.37-0.159-0.498-0.304l-0.001-0.001-0.021-0.021c0 0.147-0.045 0.322-0.137 0.365-0.013 0.006-0.029 0.009-0.045 0.009-0.004 0-0.008-0-0.011-0.001l0 0zM14.223 19.46c0.007-0.001 0.015-0.002 0.023-0.002s0.016 0.001 0.024 0.002l-0.001-0c0.082 0.066 0.133 0.166 0.133 0.279 0 0.021-0.002 0.042-0.005 0.063l0-0.002c-0.013 0.127-0.038 0.243-0.074 0.354l0.003-0.012c-0.017 0.060-0.036 0.119-0.047 0.177-0.035 0.17-0.056 0.365-0.056 0.564 0 0.009 0 0.017 0 0.026v-0.001c0 0.102 0.010 0.202 0.027 0.298l-0.002-0.010v0.021c-0.015 0.115-0.024 0.249-0.024 0.384 0 0.015 0 0.030 0 0.045l-0-0.002c0.019 0.427 0.151 0.612 0.267 0.717 0 0 0.013 0 0.013 0 0.051-0.088 0.081-0.194 0.081-0.307 0-0.031-0.002-0.061-0.007-0.091l0 0.003v-0.149l0.098 0.111 0.075 0.079 0.034 0.036c0.119 0.13 0.275 0.226 0.45 0.272l0.006 0.001c0.022-0.029 0.039-0.065 0.047-0.103l0-0.002c0.021-0.071 0.033-0.152 0.033-0.236 0-0.116-0.023-0.227-0.065-0.328l0.002 0.006c-0.198-0.262-0.32-0.777-0.318-1.338 0.012-0.431 0.064-0.842 0.153-1.24l-0.008 0.043c0.043-0.224 0.085-0.454 0.113-0.685 0.021-0.154 0.033-0.333 0.033-0.514 0-0.149-0.008-0.297-0.024-0.442l0.002 0.018c-0.042-0.287-0.1-0.539-0.176-0.783l0.010 0.036-0.032-0.107c-0.186-0.679-0.372-1.227-0.584-1.762l0.040 0.115c-0.023-0.060-0.045-0.075-0.051-0.075-0.041 0-0.119 0.171-0.090 0.439l0.047 0.452c0 0.021 0 0.060 0 0.102 0 0.087 0.015 0.213 0.026 0.256v0.038l-0.055 0.034c-0.055 0.035-0.102 0.069-0.147 0.106l0.002-0.002c-0.205 0.199-0.351 0.458-0.41 0.748l-0.002 0.009c-0.053 0.23-0.084 0.494-0.084 0.766 0 0.169 0.012 0.335 0.035 0.497l-0.002-0.019c0.014 0.092 0.034 0.173 0.061 0.251l-0.003-0.010c0.029 0.084 0.051 0.183 0.063 0.285l0.001 0.007c0.002 0.032 0.004 0.069 0.004 0.107s-0.001 0.075-0.004 0.112l0-0.005c0 0.051 0 0.1 0 0.145 0.001 0.13 0.015 0.256 0.041 0.377l-0.002-0.012c0.019 0.109 0.066 0.158 0.079 0.16 0.009-0.008 0.016-0.017 0.021-0.027l0-0.001c0.036-0.109 0.117-0.275 0.224-0.275z"></path>
<path fill="#fff" d="M12.988 16.474h-0.021c-0.181 0-0.38-0.092-0.388-0.269v0 0-0.060c-0.002-0.024-0.002-0.051-0.002-0.079s0.001-0.055 0.002-0.083l-0 0.004c-0.004-0.145-0.074-0.273-0.18-0.355l-0.001-0.001-0.098-0.090c-0.128-0.117-0.243-0.242-0.347-0.377l-0.005-0.007c-0.027-0.034-0.043-0.077-0.043-0.124 0-0.026 0.005-0.051 0.014-0.074l-0 0.001c0.041-0.095 0.126-0.165 0.228-0.185l0.002-0c0.407-0.085 0.971 0.213 1.133 0.311 0.031 0.019 0.058 0.037 0.083 0.057l-0.002-0.001c0.158 0.015 0.29 0.115 0.351 0.253l0.001 0.003c0.004 0.016 0.007 0.035 0.007 0.054 0 0.071-0.034 0.133-0.087 0.172l-0.001 0c-0.034 0.030-0.065 0.061-0.095 0.093l-0.001 0.001c-0.001 0.004-0.001 0.008-0.001 0.013 0 0.017 0.004 0.033 0.012 0.047l-0-0.001c0.026 0.035 0.042 0.079 0.042 0.127 0 0.031-0.007 0.061-0.019 0.088l0.001-0.001c-0.044 0.080-0.121 0.137-0.211 0.153l-0.002 0c0 0.036 0 0.075-0.013 0.111-0.019 0.149-0.188 0.218-0.356 0.218zM12.683 16.13v0c0 0.021 0 0.041 0 0.062 0 0.102 0.147 0.162 0.286 0.166s0.256-0.034 0.269-0.128c0-0.047 0-0.096 0.013-0.143v-0.043h0.041c0.070-0.008 0.13-0.046 0.166-0.102l0.001-0.001c0.005-0.012 0.007-0.025 0.007-0.039 0-0.026-0.009-0.050-0.024-0.070l0 0c-0.016-0.030-0.026-0.065-0.026-0.102 0-0.016 0.002-0.031 0.005-0.046l-0 0.001v-0.028c0.037-0.041 0.075-0.079 0.116-0.114l0.002-0.001c0.030-0.020 0.049-0.054 0.049-0.092 0-0.008-0.001-0.016-0.003-0.024l0 0.001c-0.056-0.102-0.158-0.173-0.278-0.183l-0.001-0h-0.026c-0.023-0.019-0.049-0.036-0.076-0.052l-0.003-0.001c-0.318-0.186-0.764-0.363-1.067-0.301-0.069 0.013-0.124 0.058-0.153 0.118l-0.001 0.001c-0.005 0.010-0.007 0.022-0.007 0.034 0 0.022 0.008 0.042 0.022 0.057l-0-0c0.115 0.126 0.239 0.24 0.373 0.343l0.007 0.005 0.098 0.090c0.13 0.105 0.212 0.263 0.213 0.441v0c-0.002 0.028-0.003 0.060-0.003 0.093 0 0.020 0 0.039 0.001 0.059l-0-0.003z"></path>
<path fill="#fff" d="M16.838 17.826c-0.030-0.001-0.059-0.007-0.085-0.018l0.002 0.001c-0.225-0.071-0.389-0.27-0.405-0.51l-0-0.002c0-0 0-0.001 0-0.001 0-0.048 0.005-0.095 0.014-0.14l-0.001 0.005c0.006-0.025 0.010-0.054 0.010-0.083s-0.003-0.058-0.010-0.086l0 0.003c-0.040-0.103-0.098-0.191-0.171-0.265l0 0v-0.013c-0.042-0.054-0.068-0.122-0.068-0.197 0-0.052 0.012-0.101 0.034-0.144l-0.001 0.002c0.041-0.076 0.12-0.126 0.211-0.126 0.012 0 0.023 0.001 0.034 0.002l-0.001-0c0.12 0.016 0.228 0.060 0.32 0.125l-0.002-0.001c0.030 0.019 0.060 0.038 0.096 0.058 0.046 0.021 0.099 0.035 0.155 0.038l0.001 0c0.097 0.003 0.185 0.040 0.252 0.101l-0-0c0.066 0.071 0.107 0.166 0.107 0.271 0 0.056-0.012 0.11-0.033 0.159l0.001-0.003c-0.047 0.145-0.075 0.311-0.077 0.484v0.001c0 0.005 0.001 0.011 0.001 0.016 0 0.106-0.067 0.196-0.161 0.23l-0.002 0.001c-0.055 0.058-0.132 0.094-0.217 0.094-0.001 0-0.002 0-0.002 0h0zM16.267 16.64l0.013 0.015c0.081 0.084 0.146 0.185 0.188 0.297l0.002 0.006c0.008 0.032 0.012 0.069 0.012 0.107s-0.004 0.075-0.012 0.11l0.001-0.003c-0.008 0.031-0.013 0.067-0.013 0.104 0 0.004 0 0.008 0 0.011v-0.001c0.014 0.201 0.15 0.367 0.334 0.426l0.003 0.001c0.013 0.004 0.028 0.006 0.044 0.006 0.058 0 0.109-0.029 0.139-0.073l0-0.001v-0.013h0.015c0.061-0.016 0.105-0.071 0.105-0.136 0-0.003-0-0.006-0-0.009l0 0c0.001-0.185 0.031-0.362 0.085-0.529l-0.003 0.012c0.038-0.151 0.026-0.241-0.047-0.314-0.051-0.043-0.118-0.068-0.191-0.068-0 0-0.001 0-0.001 0h0c-0.071-0.006-0.136-0.024-0.195-0.053l0.003 0.001-0.102-0.060c-0.076-0.056-0.168-0.095-0.268-0.108l-0.003-0c-0.007-0.001-0.016-0.002-0.024-0.002-0.049 0-0.092 0.027-0.114 0.068l-0 0.001c-0.012 0.026-0.019 0.056-0.019 0.088 0 0.047 0.015 0.090 0.041 0.126l-0-0.001z"></path>
<path fill="#fff" d="M23.322 19.379c-0.156 0-0.267-0.239-0.318-0.457s-0.090-0.401-0.122-0.585c-0.23 0.085-0.459 0-0.681-0.241-0.213-0.278-0.341-0.631-0.341-1.013 0-0.171 0.026-0.336 0.073-0.492l-0.003 0.012c0.023-0.071 0.052-0.133 0.086-0.19l-0.002 0.004c0.061-0.098 0.1-0.216 0.107-0.342l0-0.002c-0.037-0.231-0.157-0.429-0.329-0.566l-0.002-0.001c-0.018-0.015-0.034-0.031-0.049-0.048l-0-0.001c-0.116-0.164-0.186-0.367-0.186-0.587 0-0.052 0.004-0.103 0.011-0.152l-0.001 0.006c0-0.001 0-0.002 0-0.003 0-0.165 0.067-0.315 0.175-0.423v0l0.113-0.079-0.352-0.329c-0.118-0.157-0.189-0.356-0.189-0.571 0-0.049 0.004-0.096 0.011-0.143l-0.001 0.005c0-0.105 0.043-0.356 0.177-0.448l0.476-0.32 0.032-0.026c-0.049-0.051-0.098-0.111-0.145-0.166s-0.1-0.117-0.141-0.158l-0.476-0.461c-0.213-0.213-0.252-0.853-0.073-1.082l0.299-0.371c0.194-0.239 0.393-0.489 0.593-0.723 0.091-0.133 0.231-0.226 0.393-0.253l0.003-0.001c0.165 0.005 0.313 0.078 0.416 0.191l0 0.001c0.107 0.098 0.213 0.213 0.318 0.316l0.143 0.149 0.094 0.087c0.126 0.107 0.231 0.234 0.312 0.377l0.004 0.007c0.239 0.461 0.158 1.090 0.094 1.596v0.053c-0.051 0.397-0.115 0.779-0.188 1.137 0.056 0.727 0.157 1.392 0.302 2.040l-0.018-0.095c0.181 0.34 0.287 0.744 0.287 1.172 0 0.067-0.003 0.134-0.008 0.2l0.001-0.009c0 0.467-0.026 0.93-0.041 1.395 0 0.23-0.013 0.463-0.021 0.693 0.001 0.016 0.002 0.034 0.002 0.052 0 0.148-0.054 0.284-0.144 0.388l0.001-0.001c-0.029 0.027-0.068 0.045-0.11 0.049l-0.001 0c-0.117 0.201-0.31 0.347-0.538 0.4l-0.006 0.001zM22.963 18.18l0.013 0.073c0.034 0.213 0.079 0.427 0.13 0.64s0.164 0.384 0.226 0.371c0.214-0.049 0.389-0.188 0.487-0.374l0.002-0.004 0.017-0.030h0.036c0.002 0 0.005 0 0.008 0 0.023 0 0.043-0.009 0.058-0.024v0c0.065-0.087 0.104-0.196 0.104-0.315 0-0.016-0.001-0.032-0.002-0.048l0 0.002c0-0.233 0.015-0.463 0.021-0.693 0.015-0.465 0.030-0.93 0.041-1.395 0.005-0.056 0.007-0.122 0.007-0.188 0-0.413-0.103-0.803-0.285-1.144l0.006 0.013v-0.013c-0.13-0.562-0.233-1.237-0.287-1.925l-0.003-0.050v-0.015c0.075-0.356 0.137-0.74 0.188-1.137v-0.053c0.064-0.491 0.143-1.101-0.083-1.532-0.078-0.138-0.176-0.255-0.29-0.353l-0.002-0.002c-0.032-0.030-0.066-0.060-0.096-0.092l-0.145-0.149c-0.102-0.107-0.213-0.213-0.314-0.311-0.070-0.101-0.185-0.165-0.316-0.165-0.151 0-0.282 0.087-0.345 0.214l-0.001 0.002c-0.198 0.233-0.399 0.48-0.591 0.721-0.098 0.124-0.198 0.247-0.299 0.369-0.145 0.179-0.105 0.774 0.064 0.939l0.476 0.461c0.045 0.045 0.094 0.102 0.147 0.166s0.102 0.119 0.154 0.173l0.013 0.013 0.011 0.096-0.019 0.019c-0.019 0.019-0.040 0.036-0.062 0.052l-0.002 0.001-0.476 0.32c-0.081 0.096-0.13 0.221-0.13 0.357 0 0.004 0 0.008 0 0.013v-0.001c-0.006 0.039-0.010 0.084-0.010 0.13 0 0.184 0.058 0.354 0.157 0.493l-0.002-0.003 0.448 0.427-0.213 0.156c-0.081 0.086-0.13 0.202-0.13 0.33 0 0.003 0 0.007 0 0.010v-0.001c-0.007 0.043-0.011 0.092-0.011 0.142 0 0.191 0.058 0.367 0.158 0.514l-0.002-0.003 0.045 0.045c0.194 0.156 0.327 0.38 0.364 0.635l0.001 0.005c-0.006 0.147-0.049 0.282-0.121 0.398l0.002-0.003c-0.026 0.047-0.052 0.102-0.072 0.159l-0.002 0.008c-0.041 0.135-0.065 0.29-0.065 0.45 0 0.357 0.117 0.686 0.315 0.951l-0.003-0.004c0.213 0.23 0.412 0.292 0.619 0.188z"></path>
<path fill="#fff" d="M19.561 18.347h-0.013c-0.101-0.011-0.185-0.072-0.23-0.156l-0.001-0.002c-0.1-0.195-0.164-0.423-0.179-0.665l-0-0.005v-0.049c-0.073 0.147-0.156 0.181-0.213 0.179-0.143 0-0.273-0.19-0.339-0.484-0.017-0.074-0.031-0.166-0.040-0.259l-0.001-0.009c-0.006-0.106-0.027-0.205-0.062-0.297l0.002 0.007c-0.081-0.145-0.16-0.147-0.25-0.132-0.010 0.002-0.022 0.003-0.034 0.003-0.052 0-0.1-0.019-0.137-0.050l0 0c-0.132-0.113-0.188-0.403-0.194-1.001v-0.021c-0.024-0.096-0.038-0.206-0.038-0.32s0.014-0.224 0.040-0.329l-0.002 0.009c0-0.341 0.028-0.759 0.181-1.005 0.047-0.098 0.143-0.167 0.255-0.175l0.001-0c0.124 0 0.243 0.119 0.352 0.339 0.122 0.314 0.306 0.58 0.538 0.794l0.001 0.001 0.081 0.064c0.054 0.050 0.117 0.093 0.186 0.124l0.004 0.002c0-0.003 0.001-0.007 0.001-0.011s-0-0.007-0.001-0.011l0 0c0.017-0.151 0.036-0.292 0.058-0.427 0.067-0.507 0.201-0.967 0.392-1.395l-0.013 0.032c0.094-0.173 0.213-0.262 0.329-0.252 0.085 0 0.213 0.077 0.286 0.352 0.132 0.427 0.051 0.879-0.023 1.314-0.019 0.107-0.038 0.213-0.053 0.318-0.033 0.239-0.056 0.524-0.064 0.812l-0 0.011c0 0.111 0 0.213-0.017 0.335 0.021 0.003 0.040 0.011 0.056 0.024l-0-0c0.122 0.085 0.213 0.414 0.124 0.749-0.089 0.478-0.269 0.902-0.522 1.272l0.007-0.012c-0.169 0.215-0.329 0.324-0.469 0.324zM19.172 16.96l0.028 0.277c0 0.068 0.019 0.145 0.028 0.201v0.073c0.023 0.231 0.089 0.442 0.19 0.632l-0.004-0.009c0.027 0.058 0.080 0.099 0.144 0.109l0.001 0c0.107 0 0.247-0.1 0.401-0.297 0.233-0.348 0.406-0.757 0.492-1.197l0.003-0.021c0.022-0.069 0.035-0.148 0.035-0.23 0-0.152-0.044-0.294-0.12-0.413l0.002 0.003c-0.013 0-0.017 0-0.021 0l-0.090 0.058v-0.107c0-0.13 0.013-0.265 0.019-0.397 0.013-0.277 0.026-0.563 0.064-0.834 0.017-0.107 0.034-0.213 0.053-0.322 0.057-0.209 0.090-0.45 0.090-0.698 0-0.199-0.021-0.392-0.061-0.579l0.003 0.018c-0.051-0.166-0.124-0.267-0.198-0.275s-0.151 0.066-0.213 0.196c-0.178 0.387-0.307 0.836-0.365 1.307l-0.002 0.022c-0.023 0.137-0.041 0.275-0.058 0.427 0 0.053 0 0.070 0 0.070l0.034 0.233-0.126-0.188c-0.109-0.026-0.202-0.081-0.275-0.156l-0-0-0.077-0.060c-0.259-0.219-0.465-0.494-0.598-0.807l-0.005-0.014c-0.085-0.173-0.181-0.275-0.26-0.279s-0.109 0.041-0.162 0.126c-0.141 0.213-0.162 0.627-0.164 0.954v0.015c-0.022 0.088-0.035 0.19-0.035 0.294s0.013 0.206 0.037 0.303l-0.002-0.009v0.045c0 0.339 0.023 0.804 0.156 0.919 0.018 0.015 0.041 0.024 0.066 0.024 0.008 0 0.015-0.001 0.022-0.002l-0.001 0c0.020-0.005 0.044-0.007 0.068-0.007 0.131 0 0.242 0.080 0.29 0.193l0.001 0.002c0.040 0.097 0.067 0.209 0.072 0.326l0 0.002c0.008 0.097 0.022 0.186 0.041 0.272l-0.003-0.014c0.058 0.26 0.162 0.399 0.237 0.401v0c0.064 0 0.132-0.1 0.179-0.269zM19.509 15.014v0z"></path>
<path fill="#fff" d="M27.366 17.527c-0.082-0.001-0.159-0.018-0.23-0.048l0.004 0.001c-0.164-0.073-0.304-0.152-0.435-0.243l0.009 0.006-0.158-0.098-0.094-0.062c-0.068-0.050-0.146-0.097-0.227-0.138l-0.010-0.005c-0.052 0.071-0.135 0.117-0.228 0.119h-0c-0.148-0.002-0.278-0.079-0.353-0.195l-0.001-0.002c-0.109-0.093-0.178-0.23-0.178-0.383 0-0.011 0-0.022 0.001-0.032l-0 0.001c0.009-0.111 0.068-0.206 0.154-0.264l0.001-0.001c-0.015-0.043-0.023-0.092-0.023-0.143 0-0.034 0.004-0.067 0.011-0.099l-0.001 0.003c0.025-0.132 0.083-0.247 0.165-0.34l-0.001 0.001c0.066-0.331 0.173-0.693 0.565-0.853 0.035-0.016 0.075-0.025 0.117-0.025s0.083 0.009 0.119 0.026l-0.002-0.001c0.123 0.066 0.215 0.175 0.257 0.308l0.001 0.004c0.023 0.075 0.036 0.161 0.036 0.249v0c-0 0.009-0.001 0.019-0.001 0.030 0 0.092 0.022 0.179 0.062 0.255l-0.001-0.003c0.069 0.084 0.151 0.155 0.243 0.211l0.004 0.002c0.060 0.038 0.113 0.076 0.162 0.119l-0.002-0.001c0.295 0.253 0.485 0.621 0.499 1.034l0 0.002c0.001 0.013 0.002 0.028 0.002 0.044 0 0.177-0.084 0.334-0.214 0.433l-0.001 0.001c-0.070 0.053-0.158 0.085-0.254 0.085h-0zM26.182 16.813l0.041 0.013c0.114 0.049 0.212 0.106 0.302 0.173l-0.004-0.003 0.087 0.058 0.162 0.1c0.118 0.081 0.252 0.158 0.393 0.222l0.016 0.007c0.051 0.026 0.111 0.041 0.174 0.041 0.076 0 0.147-0.021 0.207-0.059l-0.002 0.001c0.103-0.082 0.168-0.208 0.168-0.349 0-0.015-0.001-0.029-0.002-0.043l0 0.002c-0.014-0.384-0.189-0.724-0.459-0.956l-0.002-0.001c-0.043-0.036-0.096-0.070-0.149-0.109-0.109-0.063-0.201-0.143-0.276-0.237l-0.002-0.002c-0.050-0.089-0.080-0.196-0.080-0.309 0-0.010 0-0.020 0.001-0.029l-0 0.001c-0.002-0.077-0.012-0.15-0.031-0.22l0.001 0.006c-0.038-0.108-0.114-0.195-0.211-0.246l-0.002-0.001c-0.022-0.010-0.048-0.016-0.075-0.016s-0.053 0.006-0.076 0.016l0.001-0c-0.316 0.126-0.427 0.395-0.503 0.787v0.015c-0.074 0.081-0.127 0.182-0.149 0.295l-0.001 0.004c-0.005 0.022-0.007 0.047-0.007 0.073 0 0.051 0.011 0.099 0.030 0.143l-0.001-0.002 0.019 0.045-0.043 0.023c-0.079 0.041-0.134 0.12-0.139 0.213l-0 0.001c-0 0.007-0.001 0.014-0.001 0.022 0 0.122 0.056 0.232 0.143 0.304l0.001 0.001c0.056 0.090 0.151 0.15 0.261 0.158l0.001 0c0.072-0.003 0.133-0.044 0.164-0.103l0-0.001z"></path>
<path fill="#fff" d="M28.685 16.073c-0.003 0-0.006 0-0.009 0-0.062 0-0.12-0.017-0.17-0.046l0.002 0.001c-0.051-0.027-0.085-0.080-0.085-0.14 0-0.001 0-0.002 0-0.003v0c0.002-0.029 0.014-0.055 0.032-0.075l-0 0c-0.024-0.027-0.045-0.058-0.061-0.091l-0.001-0.002c-0.011-0.024-0.017-0.053-0.017-0.083 0-0.049 0.017-0.095 0.045-0.131l-0 0c0.029-0.034 0.061-0.064 0.097-0.089l0.002-0.001 0.034-0.026h-0.013l-0.028-0.019c-0.089-0.062-0.152-0.156-0.174-0.264l-0-0.003c-0.001-0.007-0.001-0.015-0.001-0.023 0-0.060 0.023-0.114 0.061-0.155l-0 0c0.040-0.042 0.090-0.074 0.147-0.091l0.002-0.001-0.055-0.036c-0.038-0.020-0.064-0.060-0.064-0.106 0-0.024 0.007-0.047 0.019-0.065l-0 0c0.039-0.051 0.1-0.083 0.169-0.083 0.026 0 0.051 0.005 0.074 0.013l-0.001-0c0.015-0.008 0.033-0.015 0.052-0.019l0.001-0c0.052-0.011 0.112-0.017 0.173-0.017 0.022 0 0.043 0.001 0.064 0.002l-0.003-0c0.036 0 0.073 0 0.111 0 0.108-0.005 0.207-0.034 0.296-0.081l-0.004 0.002c0.024-0.011 0.053-0.018 0.083-0.018 0.050 0 0.095 0.018 0.13 0.048l-0-0c0.029 0.024 0.048 0.060 0.048 0.1 0 0.015-0.003 0.030-0.008 0.044l0-0.001s0 0 0.015 0.032c0.012 0.015 0.023 0.032 0.031 0.050l0.001 0.001c0.009 0.021 0.015 0.045 0.015 0.071 0 0.040-0.014 0.077-0.036 0.107l0-0c-0.034 0.054-0.076 0.1-0.125 0.138l-0.001 0.001c0.070 0.036 0.117 0.108 0.117 0.191 0 0.028-0.005 0.055-0.015 0.080l0-0.001-0.011 0.023c-0.034 0.081-0.049 0.128-0.019 0.19 0.009 0.016 0.018 0.030 0.028 0.043l-0-0.001c0.034 0.060 0.096 0.156-0.030 0.25-0.095 0.070-0.206 0.126-0.325 0.162l-0.008 0.002c-0.054 0.014-0.117 0.025-0.182 0.030l-0.004 0c-0.057 0.006-0.109 0.020-0.157 0.042l0.003-0.001-0.034 0.013c-0.060 0.023-0.129 0.036-0.201 0.036-0.003 0-0.007-0-0.010-0h0.001zM28.55 15.761c0.014 0.013 0.024 0.030 0.030 0.048l0 0.001v0.045l-0.041 0.019c-0.013 0-0.019 0-0.019 0.017s0.011 0.032 0.032 0.045c0.042 0.019 0.092 0.031 0.144 0.031s0.102-0.011 0.146-0.032l-0.002 0.001 0.034-0.013c0.050-0.021 0.108-0.038 0.169-0.046l0.004-0c0.065-0.004 0.125-0.013 0.184-0.027l-0.007 0.001c0.113-0.034 0.212-0.084 0.299-0.149l-0.003 0.002c0.047-0.034 0.041-0.045 0-0.107-0.010-0.015-0.020-0.033-0.029-0.051l-0.001-0.003c-0.017-0.037-0.027-0.079-0.027-0.124 0-0.056 0.016-0.109 0.043-0.154l-0.001 0.001v-0.023c0.015-0.038 0.017-0.085-0.083-0.156l-0.034-0.023 0.019-0.043h-0.053v-0.028h0.017l0.055-0.034h0.017c0.040-0.030 0.073-0.066 0.099-0.107l0.001-0.002c0.012-0.014 0.020-0.032 0.020-0.052 0-0.010-0.002-0.019-0.005-0.027l0 0.001c-0.007-0.010-0.014-0.019-0.022-0.028l0 0c-0.022-0.025-0.036-0.058-0.036-0.094 0-0.014 0.002-0.028 0.006-0.042l-0 0.001c0-0.011 0-0.021-0.013-0.028-0.015-0.013-0.035-0.021-0.057-0.021-0.014 0-0.026 0.003-0.038 0.009l0-0c-0.097 0.050-0.21 0.083-0.331 0.089l-0.002 0h-0.122c-0.032-0.004-0.069-0.007-0.107-0.007s-0.075 0.002-0.111 0.007l0.004-0c-0.014 0.004-0.026 0.010-0.037 0.017l0-0-0.030 0.030-0.034-0.023c-0.015-0.009-0.032-0.014-0.051-0.014-0.031 0-0.058 0.013-0.077 0.035l-0 0s0 0 0.013 0.023l0.111 0.070 0.038 0.023 0.126 0.083-0.149 0.013c-0.003 0-0.007 0.001-0.011 0.001s-0.007-0-0.011-0.001l0 0h-0.030c-0.057 0.013-0.106 0.040-0.145 0.077l0-0c-0.023 0.022-0.037 0.053-0.037 0.088 0 0.003 0 0.006 0 0.009l-0-0c0.021 0.081 0.070 0.148 0.135 0.191l0.001 0.001 0.023 0.017c0.032 0.023 0.068 0.049 0.068 0.094 0 0.001 0 0.002 0 0.003 0 0.032-0.016 0.059-0.040 0.076l-0 0c-0.014 0.013-0.029 0.025-0.046 0.035l-0.001 0.001c-0.029 0.021-0.054 0.043-0.076 0.068l-0 0c-0.014 0.019-0.023 0.042-0.023 0.068 0 0.015 0.003 0.029 0.008 0.042l-0-0.001c0.014 0.026 0.030 0.048 0.047 0.069l-0-0.001-0.023 0.045z"></path>
<path fill="#231f20" d="M6.699 17.643l-2.097-0.401-3.919-0.762c-0.064-0.013-0.324-0.045-0.324-0.179s0.262-0.156 0.324-0.169l5.986-1.12c0.121 0.391 0.198 0.841 0.213 1.308l0 0.009c-0.014 0.473-0.080 0.924-0.193 1.356l0.009-0.042z"></path>
<path fill="#fff" d="M6.718 17.675h-0.023l-2.097-0.403-3.94-0.77c-0.098-0.017-0.326-0.055-0.326-0.201 0-0.107 0.19-0.164 0.348-0.194l6.010-1.12v0.021c0.121 0.393 0.198 0.847 0.213 1.316l0 0.009c-0.012 0.474-0.076 0.928-0.188 1.362l0.009-0.042zM6.65 15.042l-5.961 1.118c-0.186 0.034-0.305 0.090-0.305 0.141 0 0.1 0.213 0.134 0.282 0.149h0.023l3.919 0.766 2.071 0.397c0.098-0.381 0.16-0.821 0.171-1.273l0-0.007c-0.013-0.464-0.085-0.907-0.21-1.327l0.009 0.036z"></path>
<path fill="#231f20" d="M0.687 16.48c-0.070-0.013-0.35-0.045-0.35-0.179s0.284-0.156 0.35-0.169 0.070 0.361 0 0.348z"></path>
<path fill="#fff" d="M0.691 16.506h-0.034c-0.105-0.017-0.352-0.055-0.352-0.201 0-0.107 0.213-0.164 0.375-0.194 0.003-0.001 0.007-0.001 0.011-0.001 0.018 0 0.034 0.009 0.044 0.022l0 0c0.023 0.053 0.036 0.115 0.036 0.179s-0.013 0.126-0.037 0.182l0.001-0.003c-0.010 0.009-0.023 0.015-0.038 0.015-0.002 0-0.005-0-0.007-0l0 0zM0.691 16.16c-0.198 0.036-0.316 0.087-0.316 0.141 0 0.1 0.213 0.137 0.301 0.149h0.015c0.012-0.040 0.019-0.087 0.019-0.135 0-0.056-0.009-0.109-0.026-0.159l0.001 0.003z"></path>
<path fill="#231f20" d="M28.561 16.427s1.523 0.13 1.884 0.13c0.395-0.023 0.761-0.069 1.119-0.139l-0.053 0.008c-0.321-0.046-0.698-0.076-1.081-0.083l-0.009-0c-0.486-0.009-1.86 0.083-1.86 0.083z"></path>
<path fill="#fff" d="M30.445 16.574c-0.356 0-1.871-0.128-1.886-0.13v-0.053c0.013 0 1.38-0.083 1.867-0.083 0.392 0.007 0.77 0.038 1.141 0.091l-0.049-0.006 0.166 0.021-0.164 0.030c-0.308 0.061-0.678 0.108-1.053 0.129l-0.022 0.001zM28.951 16.422c0.476 0.038 1.257 0.098 1.493 0.098 0.325-0.015 0.629-0.050 0.927-0.104l-0.041 0.006c-0.267-0.035-0.581-0.057-0.899-0.062l-0.006-0c-0.322 0-1.037 0.038-1.481 0.066z"></path>
</svg>
