<!-- Generated by IcoMoon.io -->
<svg version="1.1" xmlns="http://www.w3.org/2000/svg" width="32" height="32" viewBox="0 0 32 32">
<title>ghadr</title>
<path fill="#7c7872" d="M30.694 13.412h1.227v1.237h-0.529c-0.023-0.087-0.047-0.164-0.068-0.235h-2.793z"></path>
<path fill="#d1b792" d="M28.531 14.415h2.793c0.021 0.070 0.045 0.147 0.068 0.235h-3.366z"></path>
<path fill="#d1b792" d="M6.686 14.415h21.845l-0.506 0.235h3.366c0.090 0.333 0.141 0.715 0.141 1.109s-0.051 0.776-0.148 1.14l0.007-0.031h-3.366l0.474 0.213h-21.813c0.162-0.396 0.256-0.855 0.256-1.337s-0.094-0.941-0.265-1.361l0.009 0.024z"></path>
<path fill="#ec1c24" d="M0.606 15.554l6.080-1.139c0.162 0.396 0.256 0.855 0.256 1.337s-0.094 0.941-0.265 1.361l0.009-0.024-6.080-1.182c0.014-0.050 0.026-0.11 0.034-0.171l0.001-0.006c-0.010-0.069-0.021-0.128-0.037-0.186l0.002 0.011z"></path>
<path fill="#221f1f" d="M0.371 15.597l0.235-0.043c0.013 0.047 0.025 0.106 0.033 0.166l0.001 0.008c-0.008 0.067-0.020 0.127-0.036 0.185l0.002-0.008-0.235-0.045c-0.056-0.021-0.096-0.074-0.096-0.137 0 0 0 0 0-0v0c0.003-0.059 0.042-0.109 0.095-0.128l0.001-0z"></path>
<path fill="#7c7872" d="M31.388 16.868h0.533v1.237h-1.227l-2.195-1.018h2.825c0.019-0.064 0.036-0.139 0.064-0.22z"></path>
<path fill="#d1b792" d="M28.026 16.868h3.362c-0.021 0.081-0.045 0.156-0.064 0.213h-2.825z"></path>
<path fill="#231f20" d="M28.026 15.753c0.293-0.077 0.641-0.136 0.997-0.165l0.022-0.001c0.341-0.032 0.681-0.047 1.020-0.047s0.681 0.015 1.022 0.047c0.378 0.029 0.725 0.088 1.062 0.176l-0.042-0.009c-0.292 0.076-0.64 0.134-0.996 0.165l-0.024 0.002c-0.341 0.030-0.681 0.047-1.022 0.047s-0.678-0.017-1.020-0.049c-0.378-0.030-0.726-0.088-1.063-0.174l0.043 0.009z"></path>
<path fill="#231f20" d="M31.921 13.412h-1.227l-2.259 1.003h-21.749v2.673h21.715l2.293 1.018h1.227v-1.237h-0.529c0.088-0.331 0.139-0.71 0.139-1.101 0-0.005 0-0.010-0-0.015v0.001c0-0.008 0-0.018 0-0.028 0-0.382-0.050-0.753-0.143-1.105l0.007 0.030h0.527z"></path>
<path fill="#231f20" d="M11.571 15.294l-0.358-0.348c-0.034-0.034-0.113-0.083-0.115-0.134s0.047-0.102 0.064-0.139c0.042-0.077 0.067-0.168 0.067-0.266 0-0.153-0.061-0.292-0.161-0.394l0 0c-0.112-0.111-0.259-0.188-0.422-0.213l-0.004-0.001c-0.017-0.013-0.036-0.025-0.056-0.035l-0.002-0.001c-0.557-0.279-1.41-0.226-1.867 0.26-0.213 0.224-0.339 0.593-0.128 0.853 0.104 0.096 0.229 0.169 0.369 0.212l0.007 0.002c0.166 0.083 0.16 0.303 0.162 0.469-0.008 0.383-0.068 0.749-0.172 1.096l0.008-0.029c-0.075 0.314-0.062 0.659 0.201 0.877 0.098 0.079 0.223 0.129 0.359 0.134l0.001 0v0.028c-0.006 0.024-0.010 0.052-0.010 0.080s0.004 0.056 0.010 0.082l-0.001-0.002c0.056 0.309 0.322 0.54 0.643 0.54 0.056 0 0.111-0.007 0.164-0.021l-0.005 0.001c0.030 0.059 0.061 0.109 0.096 0.157l-0.002-0.003c0.043 0.043 0.103 0.070 0.169 0.070 0.059 0 0.114-0.022 0.156-0.058l-0 0c0.444-0.315 0.827-0.674 1.157-1.078l0.008-0.010c0.303-0.41 0.587-1.020 0.288-1.474-0.189-0.244-0.394-0.459-0.619-0.652l-0.006-0.005z"></path>
<path fill="#231f20" d="M15.147 19.814c0-0.681 0.188-1.28 0.262-1.905 0.023-0.163 0.036-0.352 0.036-0.544 0-0.153-0.008-0.305-0.024-0.454l0.002 0.018c-0.056-0.339-0.13-0.636-0.225-0.923l0.012 0.042c-0.188-0.688-0.376-1.246-0.592-1.79l0.040 0.114c-0.107-0.269-0.29 0-0.247 0.395 0.015 0.154 0.032 0.307 0.047 0.461 0 0.070 0.017 0.292 0.034 0.371l-0.023 0.015c-0.058 0.035-0.108 0.072-0.155 0.112l0.002-0.001c-0.215 0.209-0.367 0.482-0.425 0.789l-0.001 0.009c-0.062 0.252-0.097 0.54-0.097 0.837 0 0.156 0.010 0.31 0.029 0.461l-0.002-0.018c0.028 0.19 0.109 0.352 0.126 0.538 0 0.109-0.015 0.252-0.015 0.365 0.001 0.135 0.016 0.266 0.043 0.392l-0.002-0.013c0.034 0.179 0.141 0.275 0.213 0.147s0.139-0.277 0.213-0.241c0.062 0.058 0.101 0.14 0.101 0.232 0 0.021-0.002 0.041-0.006 0.060l0-0.002c-0.030 0.199-0.071 0.374-0.124 0.544l0.007-0.025c-0.037 0.175-0.058 0.376-0.058 0.582 0 0.006 0 0.012 0 0.019v-0.001c0.001 0.106 0.010 0.209 0.027 0.31l-0.002-0.011v0.015c-0.017 0.12-0.026 0.258-0.026 0.399 0 0.016 0 0.032 0 0.047l-0-0.002c-0.001 0.017-0.002 0.037-0.002 0.057 0 0.275 0.111 0.525 0.29 0.707l-0-0c0.117 0.109 0.19-0.173 0.181-0.427 0.038 0.045 0.077 0.083 0.111 0.117 0.128 0.14 0.294 0.243 0.482 0.293l0.007 0.002c0.145 0.034 0.213-0.587 0.077-0.759-0.192-0.252-0.314-0.751-0.314-1.331z"></path>
<path fill="#231f20" d="M13.451 14.598c-0.025-0.020-0.054-0.039-0.084-0.057l-0.004-0.002c-0.282-0.164-0.77-0.382-1.111-0.309-0.156 0.032-0.265 0.183-0.173 0.301 0.145 0.167 0.298 0.318 0.463 0.456l0.006 0.005c0.127 0.094 0.209 0.242 0.213 0.409v0.001c-0.006 0.046-0.010 0.101-0.011 0.155v0c0 0.021 0 0.043 0 0.064 0.013 0.271 0.64 0.305 0.67 0.043 0-0.049 0.011-0.098 0.015-0.149 0.16-0.032 0.279-0.143 0.188-0.294-0.012-0.022-0.019-0.048-0.019-0.076 0-0.013 0.002-0.026 0.005-0.038l-0 0.001c0.035-0.040 0.072-0.077 0.112-0.11l0.002-0.001c0.177-0.156-0.036-0.363-0.271-0.397z"></path>
<path fill="#231f20" d="M16.958 15.908c-0.112-0.085-0.246-0.147-0.393-0.176l-0.006-0.001c-0.224-0.023-0.275 0.25-0.164 0.38 0.081 0.085 0.147 0.185 0.192 0.297l0.002 0.006c0.002 0.028 0.004 0.061 0.004 0.095 0 0.080-0.008 0.159-0.022 0.235l0.001-0.008c0.018 0.223 0.17 0.406 0.374 0.47l0.004 0.001c0.019 0.006 0.041 0.009 0.064 0.009 0.076 0 0.144-0.038 0.185-0.096l0-0.001c0.084-0.024 0.144-0.099 0.144-0.189 0-0.008-0.001-0.017-0.002-0.025l0 0.001c0.002-0.182 0.031-0.356 0.084-0.52l-0.003 0.012c0.017-0.040 0.027-0.087 0.027-0.136 0-0.090-0.034-0.173-0.089-0.236l0 0c-0.117-0.102-0.271-0.047-0.403-0.119z"></path>
<path fill="#231f20" d="M23.876 12.459q0.115-0.559 0.192-1.161c0.066-0.527 0.16-1.173-0.083-1.643-0.111-0.18-0.246-0.334-0.402-0.463l-0.003-0.003c-0.156-0.158-0.309-0.326-0.467-0.469-0.288-0.265-0.501-0.237-0.751 0.055-0.305 0.356-0.602 0.74-0.902 1.109-0.169 0.213-0.122 0.843 0.068 1.026l0.482 0.469c0.087 0.083 0.198 0.233 0.305 0.341v0.053l-0.058 0.049-0.476 0.335c-0.213 0.139-0.213 0.873 0 1.090l0.405 0.378-0.169 0.119c-0.213 0.147-0.213 0.853 0 1.088 0.102 0.109 0.39 0.339 0.401 0.663 0 0.213-0.145 0.386-0.194 0.553-0.045 0.143-0.071 0.307-0.071 0.477 0 0.375 0.125 0.72 0.336 0.997l-0.003-0.004c0.247 0.273 0.478 0.311 0.693 0.213 0.036 0.226 0.083 0.448 0.132 0.659s0.171 0.446 0.294 0.427c0.233-0.052 0.424-0.203 0.529-0.405l0.002-0.004c0.117 0.015 0.213-0.117 0.233-0.442 0.021-0.706 0.047-1.412 0.064-2.121 0.004-0.055 0.007-0.12 0.007-0.185 0-0.431-0.107-0.838-0.295-1.194l0.007 0.014c-0.128-0.58-0.227-1.273-0.275-1.98l-0.002-0.045z"></path>
<path fill="#231f20" d="M20.713 12.587c-0.128-0.427-0.363-0.395-0.525-0.092-0.181 0.399-0.315 0.862-0.377 1.347l-0.003 0.025c-0.023 0.141-0.043 0.284-0.058 0.427-0.001 0.013-0.002 0.028-0.002 0.043s0.001 0.030 0.002 0.045l-0-0.002c-0.002-0.001-0.005-0.002-0.009-0.002s-0.006 0.001-0.009 0.002l0-0c-0.109 0-0.237-0.132-0.341-0.213-0.256-0.218-0.459-0.49-0.592-0.799l-0.005-0.014c-0.149-0.301-0.346-0.446-0.523-0.162-0.114 0.249-0.181 0.54-0.181 0.846 0 0.054 0.002 0.107 0.006 0.16l-0-0.007c-0.024 0.094-0.038 0.202-0.038 0.314s0.014 0.219 0.040 0.323l-0.002-0.009v0.032c0 0.591 0.058 1.047 0.307 1.009 0.019-0.005 0.040-0.007 0.062-0.007 0.112 0 0.208 0.070 0.246 0.168l0.001 0.002c0.048 0.167 0.085 0.365 0.105 0.568l0.001 0.014c0.107 0.48 0.386 0.64 0.531 0.137l0.013-0.049c0.015 0.113 0.032 0.241 0.036 0.277 0.018 0.242 0.080 0.465 0.18 0.668l-0.005-0.011c0.183 0.294 0.461 0.047 0.64-0.188 0.243-0.358 0.422-0.78 0.511-1.235l0.003-0.021c0.094-0.41-0.055-0.794-0.188-0.71 0.028-0.414 0.026-0.853 0.085-1.248 0.083-0.542 0.245-1.109 0.085-1.634z"></path>
<path fill="#231f20" d="M27.642 15.396c-0.128-0.111-0.329-0.201-0.427-0.343s-0.045-0.373-0.105-0.555-0.241-0.365-0.427-0.292c-0.365 0.147-0.471 0.476-0.544 0.841-0.082 0.089-0.14 0.2-0.164 0.324l-0.001 0.004c-0.006 0.026-0.009 0.056-0.009 0.086 0 0.061 0.013 0.118 0.035 0.171l-0.001-0.003c-0.102 0.069-0.169 0.184-0.169 0.315s0.067 0.246 0.168 0.314l0.001 0.001c0.134 0.194 0.399 0.271 0.531 0.051 0.147 0.068 0.273 0.144 0.39 0.23l-0.006-0.004c0.167 0.116 0.36 0.228 0.56 0.325l0.027 0.012c0.341 0.141 0.64-0.060 0.629-0.463-0.015-0.406-0.202-0.766-0.489-1.012l-0.002-0.002z"></path>
<path fill="#231f20" d="M29.952 14.665c0.036-0.090-0.017-0.162-0.105-0.213 0 0-0.049-0.036-0.051-0.030s0.070-0.043 0.077-0.049c0.047-0.035 0.086-0.076 0.116-0.124l0.001-0.002c0.017-0.022 0.027-0.050 0.027-0.080 0-0.018-0.004-0.036-0.011-0.051l0 0.001c-0.021-0.047-0.068-0.070-0.049-0.126s-0.090-0.151-0.183-0.107c-0.092 0.048-0.201 0.079-0.316 0.085l-0.002 0c-0.031-0.002-0.067-0.003-0.103-0.003-0.084 0-0.167 0.006-0.248 0.017l0.009-0.001c-0.024 0.005-0.045 0.015-0.062 0.030l0-0c-0.122-0.075-0.297 0.058-0.175 0.137l0.111 0.073 0.041 0.021c-0.013 0.005-0.025 0.010-0.035 0.016l0.001-0.001c-0.078 0.018-0.145 0.054-0.201 0.103l0-0c-0.113 0.13-0.015 0.273 0.109 0.373 0.049 0.038 0.107 0.062 0.051 0.107-0.049 0.035-0.093 0.073-0.132 0.115l-0 0c-0.022 0.028-0.036 0.063-0.036 0.102 0 0.022 0.004 0.044 0.013 0.063l-0-0.001c0.017 0.035 0.038 0.065 0.062 0.092l-0-0s0.023 0.023 0.026 0.036v0c-0.085 0.034-0.058 0.124 0 0.16 0.050 0.024 0.108 0.038 0.17 0.038s0.12-0.014 0.172-0.039l-0.002 0.001c0.057-0.026 0.123-0.046 0.192-0.057l0.004-0.001c0.193-0.008 0.369-0.076 0.51-0.187l-0.002 0.001c0.111-0.081 0.032-0.145-0.013-0.23s-0.002-0.177 0.034-0.269z"></path>
<path fill="#231f20" d="M6.718 17.088l-2.133-0.407-3.979-0.774c-0.066-0.013-0.331-0.045-0.331-0.181s0.267-0.16 0.331-0.171l6.078-1.139c0.122 0.397 0.199 0.856 0.213 1.33l0 0.008c-0.011 0.479-0.076 0.938-0.188 1.378l0.009-0.042z"></path>
<path fill="#231f20" d="M0.578 15.906c-0.066-0.013-0.331-0.045-0.331-0.181s0.267-0.16 0.331-0.171 0.062 0.365 0 0.352z"></path>
<path fill="#231f20" d="M28.922 15.844s1.547 0.13 1.92 0.13c0.402-0.023 0.775-0.069 1.139-0.139l-0.054 0.008c-0.326-0.047-0.709-0.078-1.098-0.085l-0.009-0c-0.503 0-1.899 0.085-1.899 0.085z"></path>
</svg>
