<!-- Generated by IcoMoon.io -->
<svg version="1.1" xmlns="http://www.w3.org/2000/svg" width="32" height="32" viewBox="0 0 32 32">
<title>ghauri</title>
<path fill="#231f20" d="M27.554 17.199c0.603-0.068 1.302-0.107 2.010-0.107s1.407 0.039 2.095 0.114l-0.085-0.008c-0.603 0.068-1.302 0.107-2.010 0.107s-1.407-0.039-2.095-0.114l0.085 0.008z"></path>
<path fill="#231f20" d="M31.36 14.895h-1.207l-2.225 0.988h-21.406v2.63h21.38l2.257 1.003h1.201v-1.218h-0.523c0.088-0.321 0.139-0.69 0.139-1.071 0-0.010-0-0.020-0-0.029v0.002c0-0.006 0-0.013 0-0.020 0-0.379-0.049-0.746-0.141-1.096l0.007 0.030h0.518z"></path>
<path fill="#fff" d="M10.374 20.019h-0.041c-0.064-0.005-0.12-0.038-0.155-0.087l-0-0.001c-0.026-0.035-0.052-0.076-0.076-0.118l-0.003-0.006c-0.041 0.009-0.088 0.014-0.137 0.014-0.347 0-0.635-0.256-0.684-0.59l-0-0.004c-0.003-0.022-0.005-0.047-0.005-0.073s0.002-0.051 0.006-0.075l-0 0.003c-0.122-0.017-0.231-0.066-0.319-0.14l0.001 0.001c-0.237-0.196-0.311-0.514-0.213-0.917l0.015-0.060c0.086-0.29 0.14-0.624 0.147-0.969l0-0.004v-0.034c0-0.149 0-0.32-0.13-0.382l-0.111-0.047c-0.109-0.032-0.203-0.091-0.275-0.17l-0-0c-0.213-0.265-0.105-0.653 0.128-0.9 0.471-0.506 1.365-0.54 1.901-0.256l0.053 0.032c0.168 0.026 0.314 0.103 0.427 0.213l-0-0c0.107 0.109 0.172 0.259 0.172 0.423 0 0.103-0.026 0.201-0.072 0.286l0.002-0.003-0.026 0.045c-0.012 0.019-0.023 0.041-0.031 0.064l-0.001 0.002c0 0.015 0.045 0.051 0.064 0.066 0.013 0.010 0.024 0.020 0.034 0.032l0 0 0.241 0.235 0.111 0.109 0.166 0.156c0.171 0.145 0.321 0.307 0.451 0.485l0.005 0.008c0.354 0.54-0.083 1.237-0.286 1.513-0.336 0.412-0.716 0.769-1.139 1.070l-0.018 0.012c-0.055 0.043-0.125 0.068-0.201 0.068-0.001 0-0.001 0-0.002 0h0zM10.161 19.686l0.017 0.036c0.030 0.055 0.059 0.102 0.092 0.146l-0.002-0.003c0.020 0.026 0.051 0.043 0.085 0.045l0 0c0.008 0.001 0.016 0.001 0.025 0.001 0.051 0 0.098-0.017 0.135-0.044l-0.001 0c0.433-0.308 0.806-0.66 1.127-1.056l0.008-0.011c0.19-0.258 0.599-0.907 0.282-1.391-0.127-0.177-0.268-0.332-0.424-0.469l-0.003-0.003c-0.060-0.053-0.115-0.107-0.171-0.16l-0.111-0.107-0.256-0.23-0.028-0.015c-0.045-0.036-0.1-0.083-0.102-0.145 0.002-0.050 0.019-0.095 0.045-0.133l-0.001 0.001c0.007-0.010 0.013-0.022 0.019-0.035l0.001-0.001c0.038-0.069 0.060-0.151 0.060-0.239 0-0.136-0.054-0.259-0.142-0.35l0 0c-0.103-0.099-0.238-0.166-0.387-0.185l-0.004-0h-0.021c-0.015-0.011-0.032-0.021-0.049-0.029l-0.002-0.001c-0.501-0.267-1.335-0.237-1.775 0.233-0.198 0.213-0.305 0.542-0.124 0.759 0.062 0.065 0.141 0.114 0.229 0.14l0.004 0.001c0.048 0.017 0.088 0.035 0.126 0.054l-0.006-0.003c0.183 0.090 0.188 0.311 0.19 0.474v0.034c-0.007 0.359-0.061 0.702-0.156 1.028l0.007-0.028-0.015 0.058c-0.060 0.254-0.079 0.597 0.179 0.811 0.091 0.070 0.205 0.114 0.33 0.117h0.058v0.058c-0.003 0.015-0.008 0.027-0.013 0.040l0.001-0.001c-0.004 0.019-0.006 0.042-0.006 0.064 0 0.019 0.002 0.037 0.005 0.055l-0-0.002c0.013 0.086 0.041 0.164 0.083 0.233l-0.002-0.003c0.112 0.168 0.301 0.278 0.515 0.278 0.049 0 0.096-0.006 0.142-0.016l-0.004 0.001z"></path>
<path fill="#fff" d="M14.383 23.351c-0.033-0.001-0.062-0.015-0.083-0.036v0c-0.187-0.187-0.302-0.446-0.302-0.731 0-0.020 0.001-0.041 0.002-0.061l-0 0.003c-0-0.012-0-0.026-0-0.041 0-0.141 0.009-0.279 0.025-0.415l-0.002 0.016c-0.016-0.091-0.025-0.197-0.026-0.305v-0c-0-0.009-0-0.020-0-0.032 0-0.201 0.021-0.397 0.061-0.586l-0.003 0.018c0.013-0.062 0.030-0.122 0.047-0.186 0.032-0.092 0.056-0.2 0.068-0.312l0.001-0.006c0.003-0.015 0.004-0.032 0.004-0.050 0-0.071-0.026-0.135-0.069-0.185l0 0s-0.043 0-0.147 0.213c-0.041 0.090-0.102 0.092-0.128 0.087-0.079 0-0.145-0.107-0.171-0.243-0.025-0.116-0.040-0.249-0.041-0.386v-0c-0.001-0.023-0.002-0.050-0.002-0.077s0.001-0.054 0.002-0.080l-0 0.004c0.003-0.030 0.005-0.064 0.005-0.099s-0.002-0.069-0.005-0.104l0 0.004c-0.010-0.101-0.032-0.194-0.062-0.282l0.003 0.009c-0.024-0.071-0.045-0.157-0.060-0.245l-0.002-0.011c-0.018-0.135-0.028-0.291-0.028-0.45 0-0.294 0.035-0.581 0.101-0.855l-0.005 0.025c0.065-0.322 0.223-0.599 0.445-0.81l0.001-0.001c0.045-0.038 0.094-0.075 0.146-0.109l0.006-0.004c0-0.062-0.015-0.156-0.021-0.235 0-0.041 0-0.077 0-0.098l-0.047-0.452c-0.030-0.279 0.045-0.523 0.171-0.553 0.041-0.011 0.119 0 0.175 0.137 0.175 0.426 0.362 0.978 0.52 1.543l0.028 0.117 0.032 0.111c0.067 0.211 0.127 0.468 0.167 0.732l0.004 0.030c0.014 0.128 0.022 0.276 0.022 0.426 0 0.194-0.014 0.385-0.040 0.572l0.002-0.022c-0.026 0.235-0.070 0.467-0.113 0.693-0.076 0.348-0.123 0.75-0.13 1.161l-0 0.006c0 0.531 0.113 1.033 0.297 1.28 0.053 0.113 0.083 0.245 0.083 0.385s-0.031 0.272-0.086 0.391l0.002-0.006c-0.020 0.037-0.059 0.062-0.104 0.062-0.009 0-0.017-0.001-0.025-0.003l0.001 0c-0.203-0.051-0.375-0.158-0.507-0.302l-0.001-0.001-0.019-0.021c0 0.147-0.047 0.322-0.139 0.365-0.009 0.003-0.020 0.005-0.030 0.005-0.008 0-0.016-0.001-0.024-0.003l0.001 0zM14.099 20.331c0.007-0.001 0.015-0.002 0.023-0.002s0.016 0.001 0.024 0.002l-0.001-0c0.082 0.066 0.133 0.166 0.133 0.279 0 0.021-0.002 0.042-0.005 0.063l0-0.002c-0.013 0.126-0.038 0.242-0.076 0.353l0.003-0.011c-0.017 0.060-0.034 0.119-0.045 0.177-0.035 0.169-0.056 0.364-0.056 0.563 0 0.004 0 0.009 0 0.013v-0.001c0 0.102 0.010 0.202 0.027 0.298l-0.002-0.010v0.032c-0.015 0.115-0.024 0.249-0.024 0.384 0 0.015 0 0.030 0 0.045l-0-0.002c-0.001 0.019-0.002 0.040-0.002 0.062 0 0.255 0.103 0.487 0.269 0.655l-0-0s0.013 0 0.013 0c0.051-0.088 0.081-0.194 0.081-0.307 0-0.031-0.002-0.061-0.007-0.091l0 0.003v-0.149l0.098 0.111c0.026 0.028 0.049 0.055 0.075 0.079l0.034 0.036c0.119 0.13 0.273 0.226 0.448 0.272l0.006 0.001c0.024-0.029 0.041-0.064 0.047-0.103l0-0.001c0.021-0.071 0.033-0.153 0.033-0.238 0-0.115-0.022-0.226-0.063-0.327l0.002 0.006c-0.198-0.262-0.32-0.777-0.318-1.338 0.012-0.43 0.064-0.842 0.153-1.24l-0.008 0.043c0.043-0.224 0.085-0.454 0.113-0.687 0.022-0.159 0.035-0.342 0.035-0.529 0-0.149-0.008-0.296-0.024-0.44l0.002 0.018c-0.042-0.285-0.101-0.536-0.178-0.779l0.010 0.035-0.032-0.113c-0.186-0.679-0.371-1.227-0.582-1.762l0.040 0.115c-0.026-0.043-0.055-0.055-0.055-0.055s-0.117 0.171-0.090 0.439l0.049 0.452c0 0.021 0 0.060 0 0.102 0 0.087 0.015 0.213 0.026 0.256l0.015 0.030-0.058 0.034c-0.055 0.036-0.101 0.070-0.146 0.107l0.003-0.002c-0.206 0.198-0.352 0.457-0.41 0.748l-0.002 0.009c-0.060 0.241-0.095 0.517-0.095 0.802 0 0.156 0.010 0.309 0.030 0.459l-0.002-0.018c0.014 0.092 0.034 0.173 0.061 0.251l-0.003-0.010c0.029 0.084 0.051 0.183 0.063 0.285l0.001 0.007c0.003 0.032 0.005 0.069 0.005 0.107s-0.002 0.075-0.005 0.111l0-0.005c-0.001 0.022-0.002 0.047-0.002 0.073s0.001 0.051 0.002 0.076l-0-0.003c-0.001 0.022-0.002 0.048-0.002 0.074 0 0.109 0.010 0.215 0.029 0.318l-0.002-0.011c0.019 0.109 0.064 0.158 0.079 0.16 0.008-0.007 0.015-0.017 0.019-0.027l0-0c0.051-0.113 0.13-0.282 0.239-0.282z"></path>
<path fill="#fff" d="M12.864 17.342h-0.021c-0.181 0-0.38-0.092-0.388-0.269v-0.064c0-0.056 0.004-0.111 0.011-0.165l-0.001 0.007c-0.004-0.145-0.075-0.273-0.182-0.355l-0.001-0.001-0.098-0.090c-0.135-0.114-0.255-0.236-0.365-0.367l-0.004-0.005c-0.027-0.035-0.043-0.080-0.043-0.129 0-0.024 0.004-0.048 0.011-0.069l-0 0.002c0.042-0.095 0.128-0.165 0.231-0.185l0.002-0c0.407-0.085 0.971 0.213 1.133 0.311 0.031 0.019 0.058 0.037 0.083 0.057l-0.002-0.001c0.158 0.015 0.29 0.115 0.351 0.253l0.001 0.003c0.004 0.016 0.007 0.035 0.007 0.054 0 0.071-0.034 0.133-0.087 0.172l-0.001 0c-0.034 0.030-0.066 0.060-0.095 0.091l-0.001 0.001c-0.003 0.009-0.005 0.020-0.005 0.031s0.002 0.022 0.005 0.032l-0-0.001c0.029 0.036 0.047 0.082 0.047 0.133 0 0.023-0.004 0.046-0.011 0.067l0-0.002c-0.044 0.080-0.121 0.137-0.211 0.153l-0.002 0c0 0.036 0 0.075-0.011 0.111-0.015 0.162-0.183 0.224-0.352 0.224zM12.559 17.001v0c-0.001 0.009-0.001 0.020-0.001 0.031s0 0.022 0.001 0.032l-0-0.002c0 0.102 0.147 0.162 0.286 0.166s0.256-0.034 0.269-0.128l0.013-0.143v-0.043h0.041c0.070-0.005 0.131-0.043 0.166-0.099l0.001-0.001c0.005-0.012 0.007-0.025 0.007-0.039 0-0.026-0.009-0.050-0.024-0.070l0 0c-0.016-0.030-0.026-0.065-0.026-0.102 0-0.016 0.002-0.031 0.005-0.046l-0 0.001v-0.028c0.036-0.042 0.074-0.080 0.116-0.114l0.002-0.001c0.030-0.020 0.049-0.054 0.049-0.092 0-0.008-0.001-0.016-0.003-0.024l0 0.001c-0.056-0.102-0.158-0.173-0.278-0.183l-0.001-0h-0.009c-0.023-0.019-0.049-0.036-0.076-0.052l-0.003-0.001c-0.32-0.188-0.764-0.363-1.067-0.301-0.068 0.013-0.124 0.057-0.153 0.116l-0.001 0.001c-0.004 0.010-0.006 0.021-0.006 0.032 0 0.024 0.009 0.045 0.023 0.062l-0-0c0.109 0.132 0.225 0.249 0.352 0.355l0.004 0.003 0.098 0.090c0.129 0.105 0.211 0.264 0.213 0.441v0c-0.001 0.014-0.001 0.031-0.001 0.048 0 0.031 0.001 0.062 0.003 0.093l-0-0.004z"></path>
<path fill="#fff" d="M16.713 18.697c-0.029-0-0.057-0.007-0.082-0.018l0.001 0.001c-0.226-0.070-0.389-0.27-0.405-0.51l-0-0.002c0-0 0-0.001 0-0.001 0-0.048 0.005-0.095 0.014-0.14l-0.001 0.005c0.006-0.025 0.009-0.054 0.009-0.083s-0.003-0.058-0.009-0.086l0 0.003c-0.040-0.103-0.098-0.191-0.171-0.265l0 0v-0.013c-0.043-0.053-0.068-0.122-0.068-0.196 0-0.052 0.013-0.101 0.035-0.145l-0.001 0.002c0.040-0.076 0.118-0.126 0.208-0.126 0.012 0 0.024 0.001 0.036 0.003l-0.001-0c0.12 0.015 0.227 0.059 0.318 0.125l-0.002-0.001 0.098 0.058c0.045 0.022 0.097 0.036 0.153 0.038l0.001 0c0.098 0.002 0.187 0.040 0.254 0.101l-0-0c0.066 0.071 0.107 0.166 0.107 0.271 0 0.056-0.012 0.11-0.033 0.159l0.001-0.003c-0.049 0.141-0.079 0.304-0.083 0.474l-0 0.002c0 0.004 0 0.009 0 0.014 0 0.107-0.067 0.198-0.161 0.233l-0.002 0.001c-0.053 0.061-0.129 0.099-0.215 0.102h-0zM16.143 17.517v0.013c0.082 0.085 0.147 0.186 0.19 0.299l0.002 0.006c0.008 0.032 0.013 0.069 0.013 0.107s-0.005 0.075-0.014 0.11l0.001-0.003c-0.002 0.018-0.003 0.038-0.003 0.059s0.001 0.041 0.003 0.061l-0-0.002c0.019 0.196 0.153 0.357 0.334 0.415l0.003 0.001c0.013 0.003 0.028 0.006 0.043 0.006 0.058 0 0.109-0.029 0.14-0.073l0-0.001v-0.013h0.015c0.061-0.016 0.105-0.071 0.105-0.136 0-0.003-0-0.006-0-0.009l0 0c0.003-0.188 0.036-0.367 0.095-0.534l-0.004 0.012c0.038-0.151 0.026-0.241-0.047-0.314-0.051-0.043-0.118-0.068-0.191-0.068-0 0-0.001 0-0.001 0h0c-0.071-0.006-0.136-0.024-0.195-0.053l0.003 0.001-0.102-0.060c-0.077-0.056-0.169-0.095-0.27-0.108l-0.003-0c-0.007-0.001-0.015-0.002-0.023-0.002-0.049 0-0.091 0.027-0.113 0.068l-0 0.001c-0.012 0.026-0.019 0.056-0.019 0.088 0 0.047 0.015 0.090 0.041 0.126l-0-0.001z"></path>
<path fill="#fff" d="M23.196 20.247c-0.154 0-0.267-0.239-0.316-0.454s-0.090-0.401-0.122-0.587c-0.23 0.087-0.459 0-0.681-0.239-0.213-0.277-0.342-0.63-0.342-1.012 0-0.172 0.026-0.337 0.074-0.493l-0.003 0.012c0.024-0.072 0.051-0.133 0.084-0.191l-0.003 0.005c0.063-0.098 0.103-0.215 0.109-0.342l0-0.002c-0.037-0.232-0.158-0.43-0.331-0.566l-0.002-0.001c-0.017-0.019-0.034-0.034-0.049-0.049-0.115-0.164-0.183-0.368-0.183-0.587 0-0.052 0.004-0.103 0.011-0.152l-0.001 0.006c0-0.001 0-0.002 0-0.003 0-0.165 0.067-0.315 0.175-0.423v0l0.111-0.079-0.35-0.329c-0.118-0.157-0.189-0.356-0.189-0.571 0-0.049 0.004-0.096 0.011-0.143l-0.001 0.005c0-0.105 0.043-0.356 0.177-0.448l0.476-0.32 0.030-0.026c-0.049-0.049-0.098-0.109-0.145-0.164s-0.1-0.117-0.141-0.158l-0.476-0.465c-0.213-0.213-0.252-0.853-0.073-1.082l0.299-0.371c0.192-0.239 0.393-0.489 0.591-0.723 0.092-0.133 0.234-0.226 0.398-0.251l0.003-0c0.169 0.002 0.321 0.076 0.426 0.192l0 0c0.107 0.098 0.213 0.213 0.316 0.316l0.145 0.149 0.094 0.087c0.125 0.108 0.229 0.235 0.31 0.377l0.004 0.007c0.241 0.461 0.16 1.090 0.096 1.596v0.053c-0.051 0.395-0.115 0.779-0.19 1.137 0.057 0.728 0.158 1.392 0.304 2.040l-0.018-0.095c0.18 0.342 0.286 0.747 0.286 1.176 0 0.066-0.002 0.131-0.007 0.195l0.001-0.009c0 0.467-0.026 0.93-0.041 1.395 0 0.23-0.015 0.463-0.021 0.693 0.001 0.015 0.002 0.032 0.002 0.049 0 0.149-0.054 0.286-0.143 0.392l0.001-0.001c-0.030 0.027-0.068 0.045-0.11 0.049l-0.001 0c-0.118 0.2-0.311 0.346-0.538 0.4l-0.006 0.001zM22.839 19.051l0.013 0.073c0.034 0.201 0.077 0.427 0.13 0.64s0.164 0.386 0.213 0.373c0.215-0.049 0.391-0.188 0.489-0.374l0.002-0.004 0.017-0.032h0.036c0.003 0 0.005 0 0.008 0 0.022 0 0.042-0.009 0.056-0.024l0-0c0.067-0.086 0.107-0.195 0.107-0.314 0-0.016-0.001-0.032-0.002-0.048l0 0.002c0-0.233 0.015-0.463 0.021-0.695 0.015-0.463 0.030-0.928 0.041-1.393 0.005-0.056 0.007-0.122 0.007-0.188 0-0.413-0.103-0.803-0.285-1.144l0.006 0.013v-0.013c-0.13-0.562-0.233-1.237-0.287-1.925l-0.003-0.050v-0.015c0.073-0.356 0.137-0.74 0.188-1.137v-0.053c0.064-0.491 0.143-1.101-0.083-1.532-0.078-0.138-0.176-0.255-0.29-0.353l-0.002-0.002c-0.034-0.030-0.066-0.062-0.096-0.092l-0.147-0.149c-0.1-0.107-0.213-0.213-0.311-0.311-0.071-0.1-0.186-0.165-0.317-0.165-0.151 0-0.283 0.087-0.346 0.214l-0.001 0.002c-0.198 0.233-0.397 0.48-0.589 0.721-0.1 0.124-0.198 0.247-0.299 0.369-0.145 0.179-0.105 0.774 0.064 0.939l0.476 0.461c0.045 0.045 0.094 0.102 0.147 0.166s0.102 0.119 0.154 0.173l0.013 0.013v0.096l-0.019 0.019c-0.026 0.021-0.047 0.043-0.064 0.053l-0.476 0.32c-0.081 0.096-0.13 0.221-0.13 0.357 0 0.004 0 0.008 0 0.013v-0.001c-0.006 0.039-0.010 0.084-0.010 0.13 0 0.184 0.058 0.354 0.157 0.493l-0.002-0.003 0.448 0.427-0.213 0.156c-0.081 0.086-0.13 0.202-0.13 0.33 0 0.003 0 0.007 0 0.010v-0.001c-0.007 0.043-0.011 0.092-0.011 0.142 0 0.19 0.057 0.367 0.156 0.514l-0.002-0.003 0.047 0.045c0.194 0.156 0.327 0.38 0.364 0.635l0.001 0.005c-0.006 0.147-0.050 0.282-0.121 0.398l0.002-0.003c-0.028 0.047-0.053 0.102-0.073 0.16l-0.002 0.007c-0.042 0.136-0.066 0.291-0.066 0.453 0 0.356 0.118 0.685 0.317 0.949l-0.003-0.004c0.213 0.23 0.412 0.292 0.619 0.188z"></path>
<path fill="#fff" d="M19.437 19.221h-0.023c-0.094-0.016-0.172-0.075-0.213-0.156l-0.001-0.002c-0.098-0.195-0.162-0.423-0.179-0.664l-0-0.006v-0.049c-0.073 0.147-0.156 0.181-0.213 0.179-0.145 0-0.275-0.19-0.339-0.484-0.018-0.076-0.032-0.168-0.040-0.261l-0-0.007c-0.013-0.108-0.042-0.206-0.084-0.296l0.003 0.006c-0.081-0.145-0.16-0.147-0.25-0.132-0.010 0.002-0.022 0.003-0.034 0.003-0.052 0-0.1-0.019-0.137-0.050l0 0c-0.132-0.113-0.19-0.403-0.194-1.001v-0.021c-0.024-0.096-0.038-0.206-0.038-0.32s0.014-0.224 0.040-0.329l-0.002 0.009c0-0.341 0.028-0.759 0.181-1.005 0.047-0.098 0.143-0.167 0.255-0.175l0.001-0c0.124 0 0.243 0.119 0.352 0.339 0.132 0.31 0.326 0.571 0.567 0.778l0.003 0.002 0.081 0.064c0.054 0.050 0.117 0.092 0.185 0.124l0.004 0.002s0-0.015 0-0.021c0.017-0.151 0.036-0.292 0.058-0.427 0.067-0.507 0.201-0.967 0.392-1.395l-0.013 0.032c0.094-0.175 0.213-0.262 0.326-0.252s0.213 0.077 0.288 0.352c0.041 0.181 0.065 0.39 0.065 0.604 0 0.253-0.033 0.497-0.095 0.73l0.004-0.020c-0.017 0.107-0.036 0.213-0.051 0.318-0.034 0.241-0.057 0.526-0.064 0.815l-0 0.009c0 0.111 0 0.213-0.017 0.335 0.021 0.004 0.040 0.011 0.056 0.022l-0.001-0c0.122 0.087 0.213 0.427 0.124 0.751-0.091 0.478-0.27 0.902-0.522 1.273l0.008-0.012c-0.183 0.226-0.343 0.339-0.484 0.339zM19.049 17.835l0.034 0.273c0 0.068 0.019 0.145 0.026 0.201l0.011 0.073c0.015 0.23 0.074 0.443 0.169 0.635l-0.004-0.010c0.027 0.058 0.080 0.099 0.144 0.109l0.001 0c0.107 0 0.245-0.1 0.401-0.297 0.233-0.348 0.405-0.757 0.491-1.197l0.003-0.021c0.022-0.069 0.035-0.148 0.035-0.23 0-0.152-0.044-0.294-0.12-0.413l0.002 0.003c-0.013 0-0.017 0-0.021 0l-0.090 0.055v-0.105c0-0.13 0.015-0.265 0.021-0.397 0.008-0.304 0.031-0.592 0.069-0.876l-0.005 0.042c0.015-0.107 0.034-0.213 0.053-0.322 0.056-0.207 0.089-0.445 0.089-0.691 0-0.203-0.022-0.402-0.064-0.592l0.003 0.018c-0.049-0.166-0.122-0.269-0.196-0.275s-0.151 0.066-0.213 0.196c-0.177 0.387-0.307 0.836-0.367 1.306l-0.002 0.023c-0.021 0.137-0.038 0.275-0.055 0.427-0.001 0.011-0.002 0.023-0.002 0.035s0.001 0.025 0.002 0.037l-0-0.002 0.038 0.241-0.124-0.188c-0.109-0.027-0.203-0.081-0.277-0.156l-0-0-0.075-0.062c-0.26-0.218-0.466-0.492-0.598-0.805l-0.005-0.014c-0.087-0.173-0.181-0.275-0.26-0.279s-0.109 0.041-0.162 0.126c-0.141 0.213-0.162 0.627-0.164 0.954v0.015c-0.022 0.088-0.035 0.19-0.035 0.294s0.013 0.206 0.037 0.303l-0.002-0.009v0.045c0 0.339 0.021 0.804 0.156 0.919 0.017 0.015 0.040 0.024 0.065 0.024 0.007 0 0.015-0.001 0.021-0.002l-0.001 0c0.021-0.005 0.044-0.008 0.069-0.008 0.131 0 0.243 0.080 0.291 0.193l0.001 0.002c0.041 0.097 0.066 0.209 0.070 0.327l0 0.002c0 0.085 0.021 0.175 0.038 0.258 0.060 0.26 0.164 0.399 0.239 0.401v0c0.064 0 0.132-0.1 0.179-0.269z"></path>
<path fill="#fff" d="M27.243 18.398c-0.082-0.001-0.159-0.018-0.23-0.048l0.004 0.001c-0.164-0.073-0.304-0.152-0.436-0.243l0.009 0.006-0.158-0.098c-0.036-0.021-0.067-0.042-0.096-0.064l0.003 0.002c-0.068-0.049-0.145-0.096-0.226-0.138l-0.011-0.005c-0.053 0.071-0.135 0.117-0.228 0.119h-0c-0.148-0.002-0.278-0.079-0.353-0.195l-0.001-0.002c-0.109-0.091-0.178-0.228-0.178-0.38 0-0.012 0-0.023 0.001-0.035l-0 0.002c0.009-0.11 0.067-0.205 0.152-0.264l0.001-0.001c-0.013-0.042-0.021-0.090-0.021-0.14 0-0.035 0.004-0.069 0.011-0.102l-0.001 0.003c0.024-0.132 0.082-0.247 0.165-0.34l-0.001 0.001c0.066-0.331 0.173-0.693 0.565-0.853 0.035-0.016 0.075-0.025 0.117-0.025s0.083 0.009 0.119 0.025l-0.002-0.001c0.123 0.066 0.215 0.176 0.257 0.308l0.001 0.004c0.021 0.075 0.033 0.16 0.034 0.249v0c-0 0.005-0 0.012-0 0.018 0 0.096 0.023 0.187 0.064 0.267l-0.002-0.003c0.069 0.085 0.151 0.156 0.243 0.211l0.004 0.002c0.061 0.038 0.113 0.076 0.163 0.117l-0.003-0.002c0.294 0.254 0.484 0.622 0.499 1.034l0 0.003c0.001 0.014 0.002 0.029 0.002 0.046 0 0.177-0.084 0.334-0.214 0.434l-0.001 0.001c-0.070 0.051-0.158 0.083-0.253 0.085h-0.001zM26.059 17.681l0.041 0.015c0.114 0.049 0.212 0.106 0.302 0.173l-0.004-0.003 0.087 0.058 0.162 0.1c0.117 0.081 0.251 0.158 0.391 0.222l0.016 0.007c0.051 0.025 0.111 0.040 0.175 0.040 0.076 0 0.148-0.021 0.209-0.058l-0.002 0.001c0.103-0.082 0.168-0.208 0.168-0.349 0-0.015-0.001-0.029-0.002-0.043l0 0.002c-0.015-0.384-0.19-0.724-0.461-0.956l-0.002-0.001c-0.044-0.036-0.092-0.072-0.143-0.105l-0.006-0.004c-0.109-0.063-0.2-0.143-0.274-0.237l-0.002-0.002c-0.050-0.087-0.080-0.192-0.080-0.303 0-0.012 0-0.024 0.001-0.035l-0 0.002c-0.001-0.076-0.013-0.15-0.033-0.219l0.001 0.006c-0.034-0.107-0.105-0.194-0.198-0.246l-0.002-0.001c-0.022-0.010-0.048-0.016-0.075-0.016s-0.053 0.006-0.076 0.016l0.001-0c-0.316 0.126-0.427 0.395-0.503 0.787v0.015c-0.073 0.081-0.125 0.182-0.147 0.295l-0.001 0.004c-0.005 0.022-0.007 0.047-0.007 0.073 0 0.051 0.011 0.099 0.030 0.143l-0.001-0.002 0.019 0.045-0.043 0.023c-0.080 0.040-0.135 0.12-0.139 0.213v0c-0 0.007-0.001 0.014-0.001 0.022 0 0.122 0.056 0.232 0.143 0.304l0.001 0.001h0.011c0.056 0.090 0.151 0.15 0.261 0.158l0.001 0c0.072-0.003 0.133-0.044 0.164-0.103l0-0.001z"></path>
<path fill="#fff" d="M28.559 16.943c-0.001 0-0.001 0-0.002 0-0.064 0-0.123-0.017-0.175-0.046l0.002 0.001c-0.051-0.027-0.085-0.080-0.085-0.14 0-0.001 0-0.002 0-0.003v0c0.001-0.029 0.013-0.056 0.032-0.075v0c-0.025-0.027-0.046-0.058-0.061-0.092l-0.001-0.002c-0.011-0.024-0.017-0.053-0.017-0.083 0-0.049 0.017-0.095 0.045-0.131l-0 0c0.029-0.034 0.061-0.064 0.097-0.089l0.002-0.001 0.034-0.026h-0.015l-0.026-0.019c-0.090-0.062-0.154-0.155-0.177-0.264l-0-0.003c-0.001-0.006-0.001-0.013-0.001-0.020 0-0.061 0.024-0.116 0.063-0.157l-0 0c0.040-0.042 0.090-0.075 0.147-0.093l0.003-0.001-0.055-0.034c-0.039-0.021-0.065-0.061-0.065-0.107 0-0.023 0.007-0.045 0.018-0.064l-0 0.001c0.039-0.051 0.1-0.083 0.169-0.083 0.026 0 0.051 0.005 0.074 0.013l-0.001-0c0.016-0.008 0.035-0.015 0.054-0.019l0.001-0c0.052-0.011 0.111-0.017 0.172-0.017 0.021 0 0.043 0.001 0.064 0.002l-0.003-0c0.038 0 0.075 0 0.113 0 0.108-0.006 0.207-0.034 0.296-0.081l-0.004 0.002c0.024-0.011 0.053-0.018 0.083-0.018 0.050 0 0.095 0.018 0.13 0.048l-0-0c0.029 0.024 0.047 0.061 0.047 0.101 0 0.015-0.002 0.029-0.007 0.043l0-0.001s0 0 0.015 0.032c0.013 0.015 0.024 0.032 0.032 0.050l0 0.001c0.009 0.021 0.014 0.044 0.014 0.070 0 0.040-0.013 0.078-0.036 0.108l0-0.001c-0.034 0.054-0.076 0.1-0.125 0.138l-0.001 0.001c0.070 0.036 0.117 0.108 0.117 0.191 0 0.028-0.005 0.055-0.015 0.080l0-0.001v0.023c-0.034 0.081-0.049 0.128-0.019 0.19l0.026 0.043c0.036 0.060 0.098 0.156-0.030 0.25-0.095 0.070-0.204 0.126-0.323 0.162l-0.008 0.002c-0.054 0.014-0.118 0.025-0.184 0.030l-0.004 0c-0.056 0.005-0.107 0.019-0.154 0.042l0.003-0.001-0.034 0.013c-0.060 0.023-0.13 0.037-0.203 0.037-0.008 0-0.015-0-0.022-0l0.001 0zM28.427 16.64c0.014 0.014 0.024 0.031 0.030 0.050l0 0.001v0.045l-0.041 0.019c-0.010 0.002-0.017 0.008-0.021 0.017l-0 0c0.004 0.020 0.017 0.036 0.034 0.045l0 0c0.042 0.019 0.092 0.031 0.144 0.031s0.102-0.011 0.146-0.032l-0.002 0.001 0.034-0.013c0.050-0.023 0.109-0.039 0.17-0.047l0.003-0c0.064-0.004 0.124-0.013 0.182-0.027l-0.007 0.001c0.114-0.034 0.213-0.084 0.301-0.149l-0.003 0.002c0.047-0.036 0.041-0.045 0-0.107-0.010-0.015-0.020-0.033-0.029-0.051l-0.001-0.003c-0.017-0.037-0.027-0.079-0.027-0.124 0-0.056 0.016-0.109 0.043-0.154l-0.001 0.001v-0.023c0.015-0.038 0.017-0.085-0.083-0.156l-0.034-0.023 0.019-0.043h-0.053v-0.030h0.019l0.055-0.034h0.017c0.039-0.031 0.072-0.067 0.099-0.107l0.001-0.002c0.023-0.041 0.021-0.062 0.013-0.079 0.004-0.014 0.007-0.031 0.007-0.048 0-0.010-0.001-0.020-0.003-0.030l0 0.001c-0.023-0.023-0.037-0.055-0.037-0.090 0-0.015 0.003-0.030 0.007-0.043l-0 0.001c0-0.011 0-0.021-0.013-0.028-0.015-0.013-0.035-0.021-0.057-0.021-0.014 0-0.026 0.003-0.038 0.009l0-0c-0.097 0.051-0.212 0.083-0.333 0.089l-0.002 0h-0.119c-0.020-0.002-0.042-0.003-0.065-0.003-0.052 0-0.104 0.005-0.153 0.014l0.005-0.001c-0.014 0.003-0.026 0.009-0.037 0.017l0-0-0.030 0.028-0.034-0.021c-0.015-0.009-0.032-0.014-0.051-0.014-0.031 0-0.058 0.013-0.077 0.035l-0 0s0 0 0.013 0.023l0.109 0.070c0.015 0.007 0.029 0.015 0.041 0.024l-0.001-0 0.126 0.083-0.151 0.013c-0.003 0.001-0.007 0.001-0.011 0.001s-0.007-0-0.011-0.001l0 0h-0.030c-0.056 0.014-0.104 0.040-0.143 0.077l0-0c-0.023 0.022-0.037 0.053-0.037 0.088 0 0.003 0 0.006 0 0.009l-0-0c0.021 0.081 0.070 0.148 0.135 0.191l0.001 0.001 0.023 0.017c0.030 0.023 0.066 0.049 0.068 0.094 0 0 0 0 0 0.001 0 0.032-0.016 0.061-0.040 0.078l-0 0-0.047 0.036c-0.029 0.021-0.054 0.043-0.076 0.068l-0 0c-0.014 0.018-0.023 0.042-0.023 0.067 0 0.015 0.003 0.029 0.008 0.042l-0-0.001c0.013 0.026 0.029 0.049 0.047 0.069l-0-0-0.023 0.045z"></path>
<path fill="#231f20" d="M6.575 18.513l-2.095-0.401-3.921-0.762c-0.066-0.013-0.324-0.045-0.324-0.179s0.262-0.156 0.324-0.169l5.988-1.12c0.121 0.391 0.198 0.841 0.213 1.308l0 0.009c-0.014 0.473-0.081 0.924-0.195 1.356l0.009-0.042z"></path>
<path fill="#fff" d="M6.594 18.545h-0.023l-2.091-0.412-2.276-0.427-1.67-0.335c-0.107-0.017-0.32-0.055-0.32-0.201 0-0.107 0.19-0.164 0.348-0.194l6.007-1.12v0.021c0.121 0.393 0.198 0.847 0.213 1.316l0 0.008c-0.012 0.474-0.076 0.928-0.188 1.362l0.009-0.042zM6.526 15.913l-5.963 1.116c-0.183 0.036-0.303 0.092-0.303 0.143 0 0.1 0.213 0.134 0.282 0.149h0.021l3.917 0.766 2.071 0.397c0.097-0.38 0.158-0.82 0.17-1.272l0-0.008c-0.011-0.464-0.082-0.907-0.205-1.327l0.009 0.036z"></path>
<path fill="#231f20" d="M0.491 17.35c-0.064-0.013-0.277-0.045-0.277-0.179s0.23-0.156 0.286-0.169 0.049 0.361-0.009 0.348z"></path>
<path fill="#fff" d="M0.495 17.376v0h-0.019c-0.085-0.017-0.288-0.058-0.288-0.201 0-0.107 0.166-0.164 0.307-0.194 0.003-0.001 0.006-0.001 0.009-0.001 0.016 0 0.029 0.009 0.036 0.022l0 0c0.018 0.053 0.029 0.114 0.029 0.178s-0.011 0.125-0.030 0.182l0.001-0.004c-0.008 0.011-0.021 0.018-0.035 0.018-0.003 0-0.007-0-0.010-0.001l0 0zM0.495 17.030c-0.16 0.036-0.256 0.087-0.256 0.141 0 0.1 0.179 0.134 0.245 0.149v0c0.013-0.046 0.021-0.099 0.021-0.153 0-0.049-0.006-0.096-0.018-0.141l0.001 0.004z"></path>
<path fill="#231f20" d="M28.437 17.28s1.523 0.128 1.884 0.128c0.395-0.023 0.761-0.068 1.119-0.136l-0.053 0.008c-0.321-0.046-0.698-0.076-1.081-0.083l-0.009-0c-0.486 0.009-1.86 0.083-1.86 0.083z"></path>
<path fill="#fff" d="M30.321 17.444c-0.358 0-1.871-0.128-1.886-0.13v-0.053c0.013 0 1.38-0.083 1.865-0.083 0.395 0.008 0.773 0.038 1.146 0.089l-0.051-0.006 0.164 0.023-0.162 0.030c-0.308 0.061-0.677 0.108-1.053 0.129l-0.022 0.001zM28.828 17.293c0.478 0.038 1.259 0.098 1.493 0.098 0.325-0.015 0.629-0.050 0.927-0.104l-0.041 0.006c-0.268-0.035-0.582-0.057-0.901-0.062l-0.006-0c-0.322 0-1.035 0.049-1.481 0.062z"></path>
</svg>
