<!-- Generated by IcoMoon.io -->
<svg version="1.1" xmlns="http://www.w3.org/2000/svg" width="32" height="32" viewBox="0 0 32 32">
<title>ghauri</title>
<path fill="#231f20" d="M27.554 17.199c0.603-0.068 1.302-0.107 2.010-0.107s1.407 0.039 2.095 0.114l-0.085-0.008c-0.603 0.068-1.302 0.107-2.010 0.107s-1.407-0.039-2.095-0.114l0.085 0.008z"></path>
<path fill="#231f20" d="M31.36 14.895h-1.207l-2.225 0.988h-21.406v2.63h21.38l2.257 1.003h1.201v-1.218h-0.523c0.088-0.321 0.139-0.69 0.139-1.071 0-0.010-0-0.020-0-0.029v0.002c0-0.006 0-0.013 0-0.020 0-0.379-0.049-0.746-0.141-1.096l0.007 0.030h0.518z"></path>
<path fill="#231f20" d="M6.575 18.513l-2.095-0.401-3.921-0.762c-0.066-0.013-0.324-0.045-0.324-0.179s0.262-0.156 0.324-0.169l5.988-1.12c0.121 0.391 0.198 0.841 0.213 1.308l0 0.009c-0.014 0.473-0.081 0.924-0.195 1.356l0.009-0.042z"></path>
<path fill="#fff" d="M6.594 18.545h-0.023l-2.091-0.412-2.276-0.427-1.67-0.335c-0.107-0.017-0.32-0.055-0.32-0.201 0-0.107 0.19-0.164 0.348-0.194l6.007-1.12v0.021c0.121 0.393 0.198 0.847 0.213 1.316l0 0.008c-0.012 0.474-0.076 0.928-0.188 1.362l0.009-0.042zM6.526 15.913l-5.963 1.116c-0.183 0.036-0.303 0.092-0.303 0.143 0 0.1 0.213 0.134 0.282 0.149h0.021l3.917 0.766 2.071 0.397c0.097-0.38 0.158-0.82 0.17-1.272l0-0.008c-0.011-0.464-0.082-0.907-0.205-1.327l0.009 0.036z"></path>
<path fill="#231f20" d="M0.491 17.35c-0.064-0.013-0.277-0.045-0.277-0.179s0.23-0.156 0.286-0.169 0.049 0.361-0.009 0.348z"></path>
<path fill="#fff" d="M0.495 17.376v0h-0.019c-0.085-0.017-0.288-0.058-0.288-0.201 0-0.107 0.166-0.164 0.307-0.194 0.003-0.001 0.006-0.001 0.009-0.001 0.016 0 0.029 0.009 0.036 0.022l0 0c0.018 0.053 0.029 0.114 0.029 0.178s-0.011 0.125-0.030 0.182l0.001-0.004c-0.008 0.011-0.021 0.018-0.035 0.018-0.003 0-0.007-0-0.010-0.001l0 0zM0.495 17.030c-0.16 0.036-0.256 0.087-0.256 0.141 0 0.1 0.179 0.134 0.245 0.149v0c0.013-0.046 0.021-0.099 0.021-0.153 0-0.049-0.006-0.096-0.018-0.141l0.001 0.004z"></path>
<path fill="#231f20" d="M28.437 17.28s1.523 0.128 1.884 0.128c0.395-0.023 0.761-0.068 1.119-0.136l-0.053 0.008c-0.321-0.046-0.698-0.076-1.081-0.083l-0.009-0c-0.486 0.009-1.86 0.083-1.86 0.083z"></path>
<path fill="#fff" d="M30.321 17.444c-0.358 0-1.871-0.128-1.886-0.13v-0.053c0.013 0 1.38-0.083 1.865-0.083 0.395 0.008 0.773 0.038 1.146 0.089l-0.051-0.006 0.164 0.023-0.162 0.030c-0.308 0.061-0.677 0.108-1.053 0.129l-0.022 0.001zM28.828 17.293c0.478 0.038 1.259 0.098 1.493 0.098 0.325-0.015 0.629-0.050 0.927-0.104l-0.041 0.006c-0.268-0.035-0.582-0.057-0.901-0.062l-0.006-0c-0.322 0-1.035 0.049-1.481 0.062z"></path>
<path fill="#fff" d="M8.243 15.842c-0.213 0.493 0.457 0.672 0.593 1.054 0.092 0.265-0.034 0.54-0.119 0.789-0.058 0.128-0.091 0.277-0.091 0.434 0 0.101 0.014 0.198 0.040 0.291l-0.002-0.008c0.032 0.096 0.188 0.055 0.154-0.043-0.164-0.471 0.275-0.907 0.213-1.385-0.040-0.203-0.146-0.376-0.295-0.5l-0.001-0.001c-0.151-0.13-0.448-0.307-0.343-0.55 0.041-0.094-0.096-0.175-0.137-0.081z"></path>
<path fill="#fff" d="M10.925 15.94c-0.036 0.1-0.13 0.252-0.109 0.363s0.119 0.173 0.188 0.226c0.119 0.083 0.224 0.169 0.321 0.261l-0.001-0.001c0.085 0.096 0.158 0.213 0.245 0.297 0.186 0.194 0.388 0.339 0.437 0.621 0.007 0.045 0.012 0.096 0.012 0.148 0 0.212-0.069 0.407-0.186 0.565l0.002-0.003c-0.060 0.083 0.079 0.164 0.137 0.081 0.13-0.171 0.209-0.387 0.209-0.621 0-0.251-0.090-0.482-0.24-0.66l0.001 0.002c-0.094-0.105-0.213-0.19-0.299-0.297s-0.156-0.213-0.247-0.292-0.213-0.164-0.324-0.256c-0.027-0.022-0.050-0.046-0.070-0.074l-0.001-0.001c-0.023-0.038-0.026-0.034 0-0.081 0.028-0.081 0.060-0.16 0.090-0.239s-0.119-0.139-0.156-0.043z"></path>
<path fill="#fff" d="M11.755 16c0.183 0.25 0.491 0.401 0.629 0.683 0.070 0.141 0.028 0.288 0.068 0.427 0.037 0.125 0.142 0.218 0.271 0.237l0.002 0c0.032 0.007 0.069 0.011 0.107 0.011 0.094 0 0.182-0.025 0.258-0.068l-0.003 0.001c0.045-0.028 0.080-0.066 0.104-0.111l0.001-0.002c0.010-0.024 0.017-0.051 0.019-0.080l0-0.001c0-0.053 0-0.066 0.053-0.075 0.096-0.022 0.167-0.107 0.167-0.208 0-0.019-0.003-0.038-0.007-0.056l0 0.002c-0.013-0.079-0.038-0.13 0.026-0.192 0.044-0.036 0.081-0.079 0.112-0.126l0.001-0.002c0.011-0.029 0.018-0.062 0.018-0.096 0-0.117-0.076-0.216-0.181-0.251l-0.002-0.001c-0.073-0.032-0.149-0.045-0.213-0.073-0.093-0.035-0.173-0.087-0.239-0.152l0 0c-0.073-0.073-0.188 0.041-0.113 0.113 0.086 0.083 0.189 0.149 0.303 0.192l0.006 0.002c0.075 0.026 0.324 0.058 0.29 0.186 0 0.041-0.068 0.073-0.096 0.1-0.037 0.035-0.065 0.080-0.079 0.13l-0 0.002c-0.002 0.016-0.003 0.035-0.003 0.054 0 0.042 0.006 0.082 0.017 0.12l-0.001-0.003c0 0.021 0.019 0.062 0 0.083s-0.051 0.017-0.077 0.023c-0.046 0.008-0.085 0.033-0.111 0.068l-0 0c-0.036 0.053-0.011 0.113-0.032 0.166-0.036 0.096-0.213 0.1-0.29 0.085-0.154-0.030-0.16-0.151-0.162-0.286-0-0.126-0.034-0.245-0.094-0.347l0.002 0.003c-0.151-0.265-0.427-0.407-0.61-0.64-0.060-0.083-0.198 0-0.139 0.081z"></path>
<path fill="#fff" d="M13.621 18.46c0.002-0.258 0.067-0.5 0.181-0.712l-0.004 0.008c0.053-0.109 0.113-0.213 0.175-0.32 0.057-0.085 0.128-0.156 0.211-0.212l0.003-0.002c0.158-0.13 0.092-0.388 0.077-0.563-0.014-0.111-0.022-0.24-0.022-0.371s0.008-0.26 0.024-0.386l-0.002 0.015c0.017-0.1-0.137-0.143-0.154-0.043-0.015 0.111-0.023 0.238-0.023 0.368s0.008 0.258 0.025 0.383l-0.002-0.015c0.014 0.115 0.023 0.248 0.023 0.383v0.001c0 0.117-0.117 0.145-0.188 0.213-0.13 0.167-0.24 0.36-0.321 0.567l-0.005 0.016c-0.089 0.19-0.141 0.412-0.141 0.647 0 0.004 0 0.007 0 0.011v-0.001c0.007 0.039 0.040 0.068 0.080 0.068s0.073-0.029 0.080-0.067l0-0z"></path>
<path fill="#fff" d="M14.342 15.983c0.31 0.714 0.569 1.551 0.735 2.42l0.012 0.076c0.019 0.102 0.173 0.058 0.154-0.043-0.174-0.945-0.429-1.782-0.766-2.576l0.030 0.080c-0.041-0.094-0.194-0.053-0.156 0.043z"></path>
<path fill="#fff" d="M16.365 17.833c0-0.111-0.083-0.164-0.154-0.239-0.061-0.061-0.098-0.144-0.098-0.237 0-0.004 0-0.009 0-0.013l-0 0.001c0.015-0.107 0.213-0.064 0.269-0.043s0.171 0.111 0.267 0.145 0.213 0.013 0.297 0.075c0.064 0.047 0.105 0.122 0.105 0.207 0 0.018-0.002 0.036-0.005 0.053l0-0.002c-0.017 0.113-0.058 0.213-0.064 0.333 0 0.077 0.017 0.237-0.079 0.271s-0.055 0.19 0.041 0.156c0.237-0.087 0.171-0.346 0.213-0.54 0.030-0.090 0.047-0.193 0.047-0.3 0-0.011-0-0.022-0.001-0.033l0 0.002c-0.012-0.099-0.059-0.185-0.128-0.247l-0-0c-0.076-0.062-0.173-0.101-0.278-0.107l-0.001-0c-0.057-0.001-0.11-0.014-0.158-0.035l0.003 0.001c-0.047-0.028-0.087-0.062-0.137-0.085-0.156-0.079-0.469-0.13-0.544 0.085-0.008 0.030-0.012 0.064-0.012 0.099 0 0.073 0.020 0.142 0.054 0.202l-0.001-0.002c0.027 0.054 0.062 0.101 0.102 0.141l0 0c0.030 0.030 0.092 0.066 0.094 0.113 0 0.102 0.166 0.102 0.16 0z"></path>
<path fill="#fff" d="M16.213 17.807v0.228c-0.003 0.034-0.005 0.073-0.005 0.113s0.002 0.079 0.005 0.118l-0-0.005c0.024 0.133 0.125 0.238 0.254 0.266l0.002 0c0.006 0.002 0.014 0.003 0.021 0.003 0.037 0 0.068-0.024 0.079-0.058l0-0.001c0.002-0.006 0.002-0.013 0.002-0.020 0-0.037-0.025-0.069-0.059-0.078l-0.001-0c-0.084-0.016-0.147-0.089-0.147-0.176 0-0.002 0-0.003 0-0.005v0c0-0.128 0-0.258 0-0.386-0.007-0.039-0.040-0.068-0.080-0.068s-0.073 0.029-0.080 0.067l-0 0z"></path>
<path fill="#fff" d="M17.655 15.951l0.055 0.64c0.002 0.175 0.023 0.344 0.063 0.506l-0.003-0.015c0.043 0.114 0.136 0.201 0.251 0.236l0.003 0.001c0.081 0.020 0.152 0.047 0.219 0.082l-0.006-0.003c0.064 0.054 0.105 0.134 0.105 0.223 0 0.002-0 0.004-0 0.006v-0c0.014 0.181 0.044 0.348 0.090 0.509l-0.004-0.018c0.027 0.14 0.106 0.258 0.216 0.336l0.002 0.001c0.032 0.014 0.068 0.022 0.107 0.022 0.081 0 0.153-0.035 0.204-0.090l0-0c0.073-0.092 0.116-0.209 0.116-0.337 0-0.040-0.004-0.079-0.012-0.117l0.001 0.004c0-0.102-0.162-0.105-0.16 0 0.004 0.199 0.035 0.389 0.089 0.57l-0.004-0.015c0.012 0.031 0.041 0.053 0.076 0.053 0.045 0 0.081-0.036 0.081-0.081 0-0.005-0-0.010-0.001-0.015l0 0c-0.048-0.152-0.077-0.328-0.081-0.51l-0-0.002h-0.16c0 0.113 0.019 0.427-0.177 0.373-0.122-0.034-0.164-0.267-0.188-0.371-0.049-0.213 0-0.495-0.183-0.64-0.069-0.049-0.149-0.087-0.236-0.11l-0.005-0.001c-0.123-0.028-0.213-0.137-0.213-0.267 0-0.003 0-0.006 0-0.009v0c-0.036-0.318-0.058-0.64-0.085-0.951 0-0.1-0.169-0.102-0.16 0z"></path>
<path fill="#fff" d="M20.164 15.962c-0.026 0.333-0.036 0.666-0.036 1.001 0.001 0.044 0.037 0.079 0.081 0.079 0.007 0 0.013-0.001 0.020-0.002l-0.001 0c0.068-0.028 0.066 0.288 0.066 0.324 0 0.016 0.001 0.034 0.001 0.053 0 0.116-0.010 0.23-0.030 0.341l0.002-0.012c-0.051 0.253-0.141 0.479-0.263 0.681l0.005-0.009c-0.004 0.009-0.006 0.020-0.006 0.031 0 0.045 0.036 0.081 0.081 0.081 0.026 0 0.049-0.012 0.064-0.031l0-0c0.167-0.277 0.278-0.605 0.309-0.956l0.001-0.009c0.013-0.154 0.062-0.772-0.26-0.64l0.102 0.079c0-0.335 0.011-0.668 0.036-1.001 0-0.105-0.151-0.102-0.16 0z"></path>
<path fill="#fff" d="M21.419 15.972c0.043 0.2 0.147 0.37 0.291 0.496l0.001 0.001c0.087 0.075 0.152 0.175 0.183 0.288l0.001 0.004c0.020 0.059 0.032 0.127 0.032 0.198s-0.012 0.139-0.033 0.203l0.001-0.005c-0.047 0.077-0.093 0.168-0.133 0.263l-0.006 0.015c-0.031 0.091-0.052 0.197-0.057 0.306l-0 0.003c-0.001 0.020-0.001 0.044-0.001 0.067 0 0.234 0.030 0.462 0.086 0.679l-0.004-0.019c0.019 0.1 0.173 0.058 0.154-0.043-0.047-0.172-0.075-0.369-0.075-0.573 0-0.076 0.004-0.152 0.011-0.226l-0.001 0.009c0.022-0.124 0.064-0.236 0.124-0.335l-0.002 0.004c0.053-0.079 0.087-0.175 0.096-0.277l0-0.002c0.001-0.016 0.002-0.035 0.002-0.054 0-0.19-0.059-0.365-0.159-0.51l0.002 0.003c-0.064-0.081-0.149-0.143-0.213-0.213-0.071-0.087-0.121-0.194-0.14-0.312l-0-0.004c-0.019-0.102-0.173-0.058-0.156 0.043z"></path>
<path fill="#fff" d="M23.68 15.977c0.186 0.476 0.294 1.027 0.294 1.603 0 0.301-0.029 0.594-0.085 0.879l0.005-0.029c-0.019 0.102 0.134 0.145 0.154 0.043 0.054-0.268 0.085-0.576 0.085-0.891 0-0.592-0.11-1.158-0.31-1.68l0.011 0.032c-0.036-0.096-0.192-0.053-0.156 0.043z"></path>
<path fill="#fff" d="M25.632 17.037c-0.013-0.048-0.021-0.102-0.021-0.159 0-0.040 0.004-0.078 0.011-0.116l-0.001 0.004c0.023-0.090 0.109-0.145 0.139-0.235 0.020-0.108 0.043-0.199 0.071-0.288l-0.005 0.017c0.051-0.094 0.109-0.175 0.176-0.249l-0.001 0.001c0.066-0.079-0.045-0.192-0.113-0.113-0.073 0.080-0.138 0.169-0.192 0.266l-0.004 0.007c-0.022 0.043-0.041 0.094-0.054 0.147l-0.001 0.005c-0.006 0.062-0.017 0.117-0.032 0.171l0.002-0.007c-0.025 0.046-0.054 0.085-0.088 0.12l0-0c-0.026 0.040-0.046 0.087-0.057 0.138l-0.001 0.003c-0.006 0.038-0.009 0.081-0.009 0.125 0 0.073 0.009 0.144 0.025 0.212l-0.001-0.006c0.019 0.1 0.173 0.058 0.156-0.043z"></path>
<path fill="#fff" d="M26.547 15.983c0.049 0.156 0 0.324 0.073 0.476 0.071 0.118 0.164 0.216 0.274 0.29l0.003 0.002c0.273 0.213 0.531 0.407 0.627 0.755 0.042 0.106 0.067 0.229 0.067 0.358 0 0.053-0.004 0.105-0.012 0.156l0.001-0.006c-0.060 0.138-0.195 0.232-0.353 0.232-0.042 0-0.083-0.007-0.121-0.020l0.003 0.001c-0.343-0.162-0.674-0.371-1.007-0.555-0.012-0.007-0.026-0.011-0.041-0.011-0.022 0-0.043 0.009-0.057 0.024v0c-0.054 0.066-0.135 0.108-0.226 0.108-0.105 0-0.196-0.055-0.247-0.138l-0.001-0.001c-0.064-0.107-0.115-0.474 0.062-0.497 0.1-0.015 0.058-0.171-0.043-0.156-0.303 0.045-0.271 0.54-0.158 0.734 0.080 0.132 0.223 0.218 0.386 0.218 0.135 0 0.256-0.060 0.339-0.154l0-0.001h-0.096l0.599 0.335 0.32 0.177c0.061 0.041 0.132 0.073 0.208 0.093l0.005 0.001c0.011 0.001 0.024 0.001 0.038 0.001 0.164 0 0.313-0.065 0.423-0.17l-0 0c0.082-0.087 0.132-0.205 0.132-0.335 0-0.032-0.003-0.064-0.009-0.095l0 0.003c-0.027-0.381-0.201-0.716-0.464-0.955l-0.001-0.001c-0.137-0.117-0.299-0.213-0.427-0.343-0.158-0.162-0.081-0.365-0.143-0.561-0.032-0.098-0.186-0.058-0.156 0.043z"></path>
<path fill="#fff" d="M28.196 15.962c-0.001 0.009-0.002 0.019-0.002 0.029 0 0.098 0.059 0.183 0.143 0.22l0.002 0.001 0.038 0.015c0 0.019-0.026 0.047-0.036 0.055-0.041 0.034-0.075 0.074-0.101 0.119l-0.001 0.002c-0.010 0.032-0.016 0.068-0.016 0.106 0 0.067 0.019 0.13 0.051 0.183l-0.001-0.002c0.014 0.034 0.022 0.074 0.022 0.116 0 0.006-0 0.011-0 0.017l0-0.001c-0 0.003-0 0.006-0 0.009 0 0.055 0.033 0.102 0.081 0.123l0.001 0c0.023 0.006 0.050 0.010 0.078 0.010s0.055-0.003 0.080-0.010l-0.002 0 0.201-0.023c0.113-0.015 0.226-0.030 0.337-0.055 0.116-0.028 0.219-0.071 0.312-0.127l-0.005 0.003c0.085-0.053 0.192-0.13 0.156-0.243-0.021-0.062-0.062-0.092-0.053-0.162s0.038-0.134 0.045-0.213c0.003-0.014 0.005-0.029 0.005-0.045 0-0.115-0.091-0.209-0.205-0.213h-0c-0.105 0-0.105 0.156 0 0.16s0.019 0.183 0.011 0.224c-0.010 0.030-0.016 0.064-0.016 0.099 0 0.059 0.016 0.115 0.044 0.162l-0.001-0.001s0.015 0.017 0.017 0.026 0 0 0 0-0.032 0.030-0.045 0.038c-0.034 0.025-0.073 0.048-0.113 0.067l-0.004 0.002c-0.071 0.034-0.153 0.060-0.239 0.076l-0.006 0.001c-0.087 0.019-0.179 0.030-0.269 0.043l-0.158 0.019h-0.102c-0.015 0 0 0 0.013 0.017v-0.015c0.021-0.075-0.032-0.164-0.055-0.23-0.013-0.023-0.020-0.049-0.020-0.078 0-0.007 0-0.014 0.001-0.021l-0 0.001c0.011-0.034 0.051-0.060 0.075-0.083 0.048-0.039 0.078-0.099 0.078-0.165 0-0.033-0.008-0.064-0.021-0.092l0.001 0.001c-0.051-0.079-0.173-0.064-0.156-0.179-0.001-0.044-0.037-0.079-0.081-0.079 0 0-0 0-0 0v0c-0.043 0.001-0.078 0.036-0.079 0.079v0z"></path>
</svg>
