<!-- Generated by IcoMoon.io -->
<svg version="1.1" xmlns="http://www.w3.org/2000/svg" width="32" height="32" viewBox="0 0 32 32">
<title>ghauri</title>
<path d="M27.554 17.199c0.603-0.068 1.302-0.107 2.010-0.107s1.407 0.039 2.095 0.114l-0.085-0.008c-0.603 0.068-1.302 0.107-2.010 0.107s-1.407-0.039-2.095-0.114l0.085 0.008z"></path>
<path d="M31.36 14.895h-1.207l-2.225 0.988h-21.406v2.63h21.38l2.257 1.003h1.201v-1.218h-0.523c0.088-0.321 0.139-0.69 0.139-1.071 0-0.010-0-0.020-0-0.029v0.002c0-0.006 0-0.013 0-0.020 0-0.379-0.049-0.746-0.141-1.096l0.007 0.030h0.518z"></path>
<path d="M6.575 18.513l-2.095-0.401-3.921-0.762c-0.066-0.013-0.324-0.045-0.324-0.179s0.262-0.156 0.324-0.169l5.988-1.12c0.121 0.391 0.198 0.841 0.213 1.308l0 0.009c-0.014 0.473-0.081 0.924-0.195 1.356l0.009-0.042z"></path>
<path d="M0.491 17.35c-0.064-0.013-0.277-0.045-0.277-0.179s0.23-0.156 0.286-0.169 0.049 0.361-0.009 0.348z"></path>
<path d="M28.437 17.28s1.523 0.128 1.884 0.128c0.395-0.023 0.761-0.068 1.119-0.136l-0.053 0.008c-0.321-0.046-0.698-0.076-1.081-0.083l-0.009-0c-0.486 0.009-1.86 0.083-1.86 0.083z"></path>
</svg>
