<!-- Generated by IcoMoon.io -->
<svg version="1.1" xmlns="http://www.w3.org/2000/svg" width="32" height="32" viewBox="0 0 32 32">
<title>hawsong6</title>
<path fill="#231f20" d="M29.478 12.617h2.005v1.079h-0.533l-0.096-0.201h-2.818z"></path>
<path fill="#231f20" d="M28.036 13.495h2.818l0.096 0.201h-3.243z"></path>
<path fill="#231f20" d="M9.999 14.652c-0.085 0-0.145 0.053-0.147 0.109s0.098 0.139 0.237 0.124h16.271c0.098 0 0.179-0.034 0.177-0.124s-0.060-0.105-0.132-0.109c-0.007-0.001-0.015-0.002-0.022-0.002s-0.016 0.001-0.023 0.002l0.001-0h-16.271c-0.013-0.002-0.029-0.003-0.045-0.003s-0.031 0.001-0.047 0.003l0.002-0zM7.063 13.495h20.973l-0.329 0.201h3.243c0.17 0.317 0.269 0.693 0.269 1.092 0 0.379-0.090 0.738-0.25 1.055l0.006-0.013h-3.268l0.354 0.213h-20.998c0.182-0.372 0.288-0.81 0.288-1.273s-0.106-0.9-0.296-1.29l0.008 0.018z"></path>
<path fill="#231f20" d="M1.875 14.138l5.188-0.64c0.182 0.372 0.288 0.81 0.288 1.273s-0.106 0.9-0.296 1.29l0.008-0.018-5.205-0.657c0.060-0.168 0.099-0.362 0.107-0.564l0-0.004c0.001-0.026 0.002-0.057 0.002-0.088 0-0.212-0.034-0.415-0.095-0.606l0.004 0.014z"></path>
<path fill="#231f20" d="M0.798 14.49l1.067-0.352c0.058 0.177 0.092 0.381 0.092 0.592 0 0.031-0.001 0.062-0.002 0.093l0-0.004c-0.008 0.206-0.046 0.4-0.111 0.581l0.004-0.014-1.067-0.316v-0.015c0.044-0.084 0.071-0.182 0.073-0.288v-0c0.001-0.012 0.002-0.026 0.002-0.041 0-0.086-0.021-0.168-0.058-0.239l0.001 0.003z"></path>
<path fill="#231f20" d="M0.034 14.739l0.764-0.25c0.041 0.072 0.065 0.159 0.065 0.251 0 0.009-0 0.019-0.001 0.028l0-0.001c0 0.003 0 0.006 0 0.009 0 0.102-0.024 0.198-0.066 0.283l0.002-0.004v0.015l-0.764-0.228c-0.019-0.010-0.033-0.029-0.034-0.051v-0c0.001-0.023 0.015-0.042 0.034-0.051l0-0z"></path>
<path fill="#c3beb1" d="M9.999 14.652c0.013-0.002 0.029-0.003 0.045-0.003s0.031 0.001 0.047 0.003l-0.002-0z"></path>
<path fill="#c3beb1" d="M26.359 14.652c0.007-0.001 0.015-0.002 0.022-0.002s0.016 0.001 0.023 0.002l-0.001-0z"></path>
<path fill="#fff" d="M26.359 14.652h0.045c0.073 0 0.128 0.038 0.132 0.109s-0.079 0.132-0.177 0.124h-16.271c-0.139 0.015-0.239-0.045-0.237-0.124s0.062-0.098 0.147-0.109h16.361z"></path>
<path fill="#231f20" d="M30.976 15.825h0.508v1.079h-2.005l-1.417-0.853h2.793c0.041-0.063 0.081-0.138 0.117-0.215l0.005-0.011z"></path>
<path fill="#231f20" d="M27.708 15.825h3.268c-0.041 0.083-0.081 0.153-0.126 0.22l0.004-0.007h-2.793z"></path>
</svg>
