<!-- Generated by IcoMoon.io -->
<svg version="1.1" xmlns="http://www.w3.org/2000/svg" width="32" height="32" viewBox="0 0 32 32">
<title>hwasong9</title>
<path fill="#231f20" d="M29.858 15.149h1.754v1.547h-3.179l1.425-1.538v-0.009z"></path>
<path fill="#fff" d="M31.665 16.749h-3.354l1.493-1.613v-0.032h1.86zM28.557 16.64h3.002v-1.438h-1.67z"></path>
<path fill="#231f20" d="M28.435 16.695h2.347c0.085 0.317 0.134 0.681 0.134 1.056s-0.049 0.739-0.141 1.085l0.007-0.029h-25.803l-3.486-0.73c0.034-0.096 0.053-0.207 0.053-0.322 0-0.001 0-0.001 0-0.002v0c0-0 0-0.001 0-0.001 0-0.117-0.020-0.23-0.056-0.335l0.002 0.007 3.479-0.73h23.467z"></path>
<path fill="#fff" d="M30.82 18.861h-25.841l-3.55-0.742 0.019-0.058c0.029-0.086 0.045-0.185 0.045-0.287 0-0.007-0-0.014-0-0.021l0 0.001c0-0.001 0-0.001 0-0.002 0-0.111-0.019-0.217-0.053-0.316l0.002 0.007-0.019-0.058 3.546-0.745h25.852l0.011 0.041c0.085 0.32 0.134 0.688 0.134 1.067s-0.049 0.747-0.14 1.097l0.007-0.030zM1.568 18.037l3.413 0.717h25.756c0.077-0.301 0.122-0.647 0.122-1.003s-0.044-0.702-0.128-1.032l0.006 0.029h-25.758l-3.413 0.717c0.024 0.085 0.038 0.184 0.038 0.285 0 0.001 0 0.002 0 0.003v-0c0 0.002 0 0.005 0 0.008 0 0.098-0.013 0.193-0.038 0.283l0.002-0.008z"></path>
<path fill="#231f20" d="M0.015 17.737l1.493-0.311c0.034 0.098 0.053 0.21 0.053 0.328 0 0 0 0.001 0 0.001v-0c-0.005 0.118-0.030 0.229-0.071 0.331l0.002-0.007-1.493-0.311z"></path>
<path fill="#fff" d="M1.534 18.133l-1.585-0.324 0.019-0.117 1.568-0.329 0.015 0.045c0.035 0.103 0.055 0.222 0.055 0.346v0c0 0.001 0 0.002 0 0.003 0 0.121-0.021 0.238-0.060 0.346l0.002-0.007zM0.201 17.751l1.263 0.265c0.019-0.073 0.030-0.156 0.030-0.242 0-0.007-0-0.015-0-0.022l0 0.001c0-0.008 0-0.017 0-0.026 0-0.083-0.011-0.164-0.032-0.241l0.001 0.006z"></path>
<path fill="#231f20" d="M30.778 18.807h0.834v1.547h-1.754v-0.006l-1.425-1.54h2.345z"></path>
<path fill="#fff" d="M31.665 20.407h-1.86v-0.041l-1.493-1.613h3.354zM29.888 20.301h1.67v-1.44h-3.002z"></path>
<path fill="#fff" d="M7.511 18.259h18.276c0.092 0 0.166-0.075 0.166-0.166s-0.075-0.166-0.166-0.166h-18.276c-0.092 0-0.166 0.075-0.166 0.166s0.074 0.166 0.166 0.166v0z"></path>
<path fill="#fff" d="M5.030 18.82l-0.102-0.026c0.079-0.313 0.124-0.673 0.124-1.043s-0.045-0.73-0.13-1.074l0.006 0.031 0.102-0.026c0.081 0.316 0.128 0.68 0.128 1.054 0 0.010-0 0.020-0 0.029v-0.002c0 0.001 0 0.003 0 0.004 0 0.374-0.047 0.736-0.135 1.082l0.007-0.030z"></path>
<path fill="#231f20" d="M28.503 17.754c0.481-0.068 1.036-0.107 1.6-0.107s1.119 0.039 1.663 0.114l-0.063-0.007c-0.481 0.068-1.036 0.107-1.6 0.107s-1.119-0.039-1.663-0.114l0.063 0.007z"></path>
</svg>
