<!-- Generated by IcoMoon.io -->
<svg version="1.1" xmlns="http://www.w3.org/2000/svg" width="32" height="32" viewBox="0 0 32 32">
<title>hwasong5</title>
<path fill="#231f20" d="M29.692 15.454h2.005v1.079h-0.533l-0.096-0.198h-2.818z"></path>
<path fill="#231f20" d="M28.25 16.335h2.818l0.096 0.198h-3.243z"></path>
<path fill="#231f20" d="M10.212 17.493c-0.085 0-0.145 0.053-0.147 0.111s0.098 0.137 0.237 0.122h16.271c0.098 0 0.179-0.032 0.177-0.122s-0.060-0.107-0.132-0.111c-0.007-0.001-0.015-0.002-0.022-0.002s-0.016 0.001-0.023 0.002l0.001-0h-16.271c-0.013-0.002-0.029-0.003-0.045-0.003s-0.031 0.001-0.047 0.003l0.002-0zM7.277 16.335h20.973l-0.329 0.198h3.243c0.162 0.31 0.26 0.676 0.269 1.064l0 0.003c0 0.002 0 0.003 0 0.005 0 0.386-0.090 0.751-0.25 1.076l0.006-0.014h-3.268l0.354 0.213h-20.998c0.182-0.372 0.288-0.809 0.288-1.271s-0.106-0.9-0.296-1.289l0.008 0.017z"></path>
<path fill="#231f20" d="M2.089 16.975l5.188-0.64c0.182 0.372 0.288 0.809 0.288 1.271s-0.106 0.9-0.296 1.289l0.008-0.017-5.205-0.653c0.060-0.169 0.098-0.363 0.107-0.566l0-0.004c0.001-0.026 0.002-0.057 0.002-0.088 0-0.212-0.034-0.415-0.095-0.606l0.004 0.014z"></path>
<path fill="#231f20" d="M1.011 17.327l1.067-0.352c0.058 0.177 0.092 0.381 0.092 0.592 0 0.031-0.001 0.062-0.002 0.093l0-0.004c-0.008 0.206-0.047 0.401-0.111 0.584l0.004-0.014-1.067-0.318v-0.015c0.044-0.083 0.071-0.181 0.073-0.285v-0.001c0.001-0.012 0.002-0.027 0.002-0.041 0-0.087-0.021-0.169-0.058-0.241l0.001 0.003z"></path>
<path fill="#fff" d="M2.091 18.251h-0.030l-1.092-0.331 0.017-0.043c0.040-0.079 0.064-0.173 0.064-0.272 0-0.001 0-0.003 0-0.004v0c0-0.008 0.001-0.017 0.001-0.026 0-0.088-0.023-0.171-0.064-0.243l0.001 0.002-0.015-0.028 1.133-0.369v0.026c0.059 0.182 0.093 0.391 0.093 0.609 0 0.028-0.001 0.056-0.002 0.084l0-0.004c-0.009 0.209-0.048 0.406-0.113 0.59l0.004-0.014zM1.041 17.89l1.013 0.303c0.054-0.159 0.089-0.343 0.098-0.533l0-0.004c0.001-0.021 0.001-0.047 0.001-0.072 0-0.203-0.030-0.398-0.086-0.582l0.004 0.014-1.024 0.329c0.035 0.068 0.056 0.148 0.056 0.233 0 0.010-0 0.020-0.001 0.030l0-0.001c0 0.001 0 0.003 0 0.005 0 0.101-0.023 0.197-0.064 0.283l0.002-0.004z"></path>
<path fill="#231f20" d="M0.247 17.577l0.764-0.25c0.036 0.069 0.057 0.151 0.057 0.238 0 0.015-0.001 0.029-0.002 0.043l0-0.002c0 0.002 0 0.004 0 0.007 0 0.102-0.024 0.198-0.066 0.283l0.002-0.004v0.015l-0.755-0.226c-0.019-0.011-0.032-0.030-0.034-0.053l-0-0c0.002-0.022 0.015-0.041 0.034-0.051l0-0z"></path>
<path fill="#fff" d="M1.022 17.939l-0.783-0.233c-0.030-0.015-0.050-0.044-0.051-0.079v-0c0.001-0.033 0.020-0.061 0.049-0.074l0.001-0 0.785-0.256v0.021c0.043 0.075 0.069 0.166 0.069 0.262 0 0.010-0 0.019-0.001 0.029l0-0.001c0 0.002 0 0.004 0 0.006 0 0.107-0.025 0.207-0.070 0.297l0.002-0.004zM0.258 17.602c-0.010 0.005-0.017 0.014-0.017 0.026v0c0 0.017 0.019 0.030 0.019 0.030l0.73 0.213c0.038-0.078 0.060-0.169 0.060-0.265 0-0.001 0-0.003 0-0.004v0c0-0.008 0.001-0.018 0.001-0.027 0-0.081-0.020-0.156-0.055-0.223l0.001 0.003z"></path>
<path fill="#c3beb1" d="M10.212 17.493c0.013-0.002 0.029-0.003 0.045-0.003s0.031 0.001 0.047 0.003l-0.002-0z"></path>
<path fill="#c3beb1" d="M26.573 17.493c0.007-0.001 0.015-0.002 0.022-0.002s0.016 0.001 0.023 0.002l-0.001-0z"></path>
<path fill="#fff" d="M26.573 17.493h0.045c0.073 0 0.128 0.038 0.132 0.111s-0.079 0.13-0.177 0.122h-16.271c-0.139 0.015-0.239-0.045-0.237-0.122s0.062-0.1 0.147-0.111h16.361z"></path>
<path fill="#231f20" d="M31.189 18.662h0.508v1.079h-2.005l-1.417-0.864h2.793c0.041-0.061 0.081-0.131 0.117-0.205l0.005-0.011z"></path>
<path fill="#231f20" d="M27.921 18.662h3.268c-0.041 0.083-0.081 0.153-0.126 0.22l0.004-0.007h-2.793z"></path>
<path fill="#fff" d="M7.349 18.912l-0.145-0.068c0.176-0.362 0.28-0.788 0.28-1.237s-0.103-0.875-0.287-1.254l0.008 0.017 0.145-0.070c0.183 0.379 0.291 0.824 0.294 1.294v0.001c0 0.003 0 0.006 0 0.009 0 0.476-0.109 0.926-0.302 1.328l0.008-0.018z"></path>
</svg>
