<!-- Generated by IcoMoon.io -->
<svg version="1.1" xmlns="http://www.w3.org/2000/svg" width="32" height="32" viewBox="0 0 32 32">
<title>hwasong5</title>
<path fill="#231f20" d="M29.692 15.454h2.005v1.079h-0.533l-0.096-0.198h-2.818z"></path>
<path fill="#231f20" d="M28.25 16.335h2.818l0.096 0.198h-3.243z"></path>
<path fill="#231f20" d="M10.212 17.493c-0.004-0-0.010-0.001-0.015-0.001-0.066 0-0.121 0.048-0.132 0.111l-0 0.001c0 0.058 0.098 0.137 0.237 0.122h16.271c0.098 0 0.179-0.032 0.177-0.122s-0.060-0.107-0.132-0.111c-0.007-0.001-0.015-0.002-0.022-0.002s-0.016 0.001-0.023 0.002l0.001-0h-16.271c-0.013-0.002-0.029-0.003-0.045-0.003s-0.031 0.001-0.047 0.003l0.002-0zM7.277 16.335h20.973l-0.329 0.198h3.243c0.17 0.317 0.269 0.692 0.269 1.092 0 0.379-0.090 0.738-0.25 1.055l0.006-0.013h-3.268l0.354 0.213h-20.998c0.182-0.372 0.288-0.809 0.288-1.271s-0.106-0.9-0.296-1.289l0.008 0.017z"></path>
<path fill="#231f20" d="M2.089 16.975l5.188-0.64c0.182 0.372 0.288 0.809 0.288 1.271s-0.106 0.9-0.296 1.289l0.008-0.017-5.205-0.653c0.060-0.169 0.098-0.363 0.107-0.566l0-0.004c0.001-0.027 0.002-0.059 0.002-0.091 0-0.21-0.034-0.413-0.096-0.603l0.004 0.014z"></path>
<path fill="#231f20" d="M1.011 17.327l1.067-0.352c0.058 0.176 0.092 0.379 0.092 0.589 0 0.032-0.001 0.064-0.002 0.096l0-0.004c-0.008 0.206-0.047 0.401-0.111 0.584l0.004-0.014-1.067-0.318v-0.015c0.044-0.083 0.071-0.181 0.073-0.285v-0.001c0.001-0.013 0.002-0.029 0.002-0.045 0-0.086-0.021-0.167-0.059-0.237l0.001 0.003z"></path>
<path fill="#fff" d="M2.091 18.251h-0.030l-1.092-0.331 0.017-0.043c0.040-0.080 0.064-0.174 0.064-0.273 0-0.001 0-0.002 0-0.002v0c0-0.007 0.001-0.016 0.001-0.024 0-0.089-0.023-0.172-0.064-0.245l0.001 0.003-0.015-0.028 1.133-0.369v0.026c0.059 0.181 0.093 0.39 0.093 0.607 0 0.236-0.040 0.462-0.115 0.672l0.004-0.014zM1.041 17.89l1.013 0.303c0.054-0.159 0.089-0.343 0.098-0.533l0-0.004c0.001-0.023 0.001-0.049 0.001-0.076 0-0.201-0.030-0.395-0.086-0.578l0.004 0.014-1.024 0.329c0.035 0.069 0.056 0.151 0.056 0.237 0 0.009-0 0.018-0.001 0.027l0-0.001c-0 0.103-0.023 0.2-0.064 0.288l0.002-0.004z"></path>
<path fill="#231f20" d="M0.247 17.577l0.764-0.25c0.036 0.068 0.057 0.149 0.057 0.235 0 0.016-0.001 0.031-0.002 0.047l0-0.002c0 0 0 0.001 0 0.001 0 0.103-0.024 0.201-0.066 0.289l0.002-0.004v0.015l-0.755-0.226c-0.019-0.011-0.032-0.031-0.034-0.053l-0-0c0.002-0.022 0.015-0.041 0.034-0.051l0-0z"></path>
<path fill="#fff" d="M1.022 17.939l-0.783-0.233c-0.029-0.015-0.049-0.044-0.051-0.079v-0c0-0 0-0 0-0 0-0.033 0.020-0.062 0.049-0.074l0.001-0 0.785-0.256v0.021c0.043 0.077 0.069 0.169 0.069 0.266 0 0.008-0 0.017-0.001 0.025l0-0.001c-0 0.109-0.025 0.211-0.070 0.303l0.002-0.004zM0.258 17.602c-0.010 0.004-0.017 0.014-0.017 0.026v0c0.002 0.013 0.009 0.023 0.019 0.030l0 0 0.73 0.213c0.038-0.077 0.060-0.168 0.060-0.264 0-0.002 0-0.003-0-0.005v0c0-0.008 0.001-0.017 0.001-0.027 0-0.081-0.020-0.157-0.055-0.223l0.001 0.003z"></path>
<path fill="#c3beb1" d="M10.212 17.493c0.013-0.002 0.029-0.003 0.045-0.003s0.031 0.001 0.047 0.003l-0.002-0z"></path>
<path fill="#c3beb1" d="M26.573 17.493c0.007-0.001 0.015-0.002 0.022-0.002s0.016 0.001 0.023 0.002l-0.001-0z"></path>
<path fill="#231f20" d="M31.189 18.662h0.508v1.079h-2.005l-1.417-0.864h2.793c0.040-0.060 0.081-0.131 0.117-0.204l0.005-0.011z"></path>
<path fill="#231f20" d="M27.921 18.662h3.268c-0.041 0.084-0.081 0.153-0.126 0.22l0.004-0.007h-2.793z"></path>
<path fill="#fff" d="M7.349 18.912l-0.145-0.068c0.177-0.362 0.28-0.788 0.28-1.237s-0.103-0.875-0.288-1.254l0.008 0.017 0.145-0.070c0.182 0.379 0.29 0.824 0.294 1.293v0.002c0 0.003 0 0.006 0 0.009 0 0.476-0.109 0.926-0.302 1.328l0.008-0.018z"></path>
<path fill="#231f20" d="M9.717 17.261h17.948v0.614h-17.948v-0.614z"></path>
</svg>
