<!-- Generated by IcoMoon.io -->
<svg version="1.1" xmlns="http://www.w3.org/2000/svg" width="32" height="32" viewBox="0 0 32 32">
<title>hwasong6</title>
<path fill="#231f20" d="M29.478 12.617h2.005v1.079h-0.533l-0.096-0.201h-2.818z"></path>
<path fill="#231f20" d="M28.036 13.495h2.818l0.096 0.201h-3.243z"></path>
<path fill="#231f20" d="M9.999 14.652c-0.085 0-0.145 0.053-0.147 0.109s0.098 0.139 0.237 0.124h16.271c0.098 0 0.179-0.034 0.177-0.124s-0.060-0.105-0.132-0.109c-0.007-0.001-0.015-0.002-0.022-0.002s-0.016 0.001-0.023 0.002l0.001-0h-16.271c-0.013-0.002-0.029-0.003-0.045-0.003s-0.031 0.001-0.047 0.003l0.002-0zM7.063 13.495h20.973l-0.329 0.201h3.243c0.17 0.317 0.269 0.693 0.269 1.092 0 0.379-0.090 0.738-0.25 1.055l0.006-0.013h-3.268l0.354 0.213h-20.998c0.182-0.372 0.288-0.81 0.288-1.273s-0.106-0.9-0.296-1.29l0.008 0.018z"></path>
<path fill="#231f20" d="M1.875 14.138l5.188-0.64c0.182 0.372 0.288 0.81 0.288 1.273s-0.106 0.9-0.296 1.29l0.008-0.018-5.205-0.657c0.060-0.168 0.099-0.362 0.107-0.564l0-0.004c0.001-0.026 0.002-0.057 0.002-0.088 0-0.212-0.034-0.415-0.095-0.606l0.004 0.014z"></path>
<path fill="#231f20" d="M0.798 14.49l1.067-0.352c0.058 0.177 0.092 0.381 0.092 0.592 0 0.031-0.001 0.062-0.002 0.093l0-0.004c-0.008 0.206-0.046 0.4-0.111 0.581l0.004-0.014-1.067-0.316v-0.015c0.044-0.084 0.071-0.182 0.073-0.288v-0c0.001-0.012 0.002-0.026 0.002-0.041 0-0.086-0.021-0.168-0.058-0.239l0.001 0.003z"></path>
<path fill="#fff" d="M1.877 15.413h-0.030l-1.092-0.326 0.017-0.043c0.040-0.079 0.064-0.173 0.064-0.272 0-0.002 0-0.004-0-0.006v0c0-0.006 0-0.013 0-0.020 0-0.088-0.023-0.171-0.064-0.243l0.001 0.002-0.015-0.028 1.133-0.369v0.028c0.059 0.182 0.093 0.391 0.093 0.609 0 0.028-0.001 0.056-0.002 0.085l0-0.004c-0.009 0.209-0.048 0.406-0.113 0.59l0.004-0.014zM0.83 15.053l1.011 0.307c0.054-0.158 0.089-0.341 0.098-0.531l0-0.004c0.001-0.021 0.001-0.047 0.001-0.072 0-0.203-0.030-0.398-0.086-0.582l0.004 0.014-1.024 0.322c0.035 0.068 0.056 0.149 0.056 0.235 0 0.010-0 0.019-0.001 0.028l0-0.001c-0 0.103-0.022 0.2-0.062 0.288l0.002-0.004z"></path>
<path fill="#231f20" d="M0.034 14.739l0.764-0.25c0.041 0.072 0.065 0.159 0.065 0.251 0 0.009-0 0.019-0.001 0.028l0-0.001c0 0.003 0 0.006 0 0.009 0 0.102-0.024 0.198-0.066 0.283l0.002-0.004v0.015l-0.764-0.228c-0.019-0.010-0.033-0.029-0.034-0.051v-0c0.001-0.023 0.015-0.042 0.034-0.051l0-0z"></path>
<path fill="#fff" d="M0.806 15.102l-0.781-0.235c-0.030-0.014-0.050-0.044-0.051-0.079v-0c0.004-0.030 0.023-0.055 0.049-0.068l0.001-0 0.785-0.256 0.011 0.019c0.043 0.076 0.069 0.167 0.069 0.264 0 0.009-0 0.018-0.001 0.027l0-0.001c0 0.002 0 0.005 0 0.007 0 0.107-0.025 0.208-0.070 0.298l0.002-0.004zM0.045 14.763c-0.009 0.006-0.016 0.016-0.017 0.028l-0 0c0 0.017 0.019 0.030 0.019 0.030l0.73 0.213c0.038-0.076 0.060-0.165 0.060-0.259 0-0.003-0-0.007-0-0.010v0.001c0-0.008 0.001-0.017 0.001-0.026 0-0.080-0.020-0.156-0.055-0.222l0.001 0.003z"></path>
<path fill="#c3beb1" d="M9.999 14.652c0.013-0.002 0.029-0.003 0.045-0.003s0.031 0.001 0.047 0.003l-0.002-0z"></path>
<path fill="#c3beb1" d="M26.359 14.652c0.007-0.001 0.015-0.002 0.022-0.002s0.016 0.001 0.023 0.002l-0.001-0z"></path>
<path fill="#fff" d="M26.359 14.652h0.045c0.073 0 0.128 0.038 0.132 0.109s-0.079 0.132-0.177 0.124h-16.271c-0.139 0.015-0.239-0.045-0.237-0.124s0.062-0.098 0.147-0.109h16.361z"></path>
<path fill="#231f20" d="M30.976 15.825h0.508v1.079h-2.005l-1.417-0.853h2.793c0.041-0.063 0.081-0.138 0.117-0.215l0.005-0.011z"></path>
<path fill="#231f20" d="M27.708 15.825h3.268c-0.041 0.083-0.081 0.153-0.126 0.22l0.004-0.007h-2.793z"></path>
<path fill="#fff" d="M7.136 16.075l-0.145-0.075c0.176-0.362 0.28-0.788 0.28-1.237s-0.103-0.875-0.287-1.254l0.008 0.017 0.145-0.070c0.186 0.382 0.294 0.832 0.294 1.307s-0.109 0.924-0.302 1.325l0.008-0.018z"></path>
</svg>
