<!-- Generated by IcoMoon.io -->
<svg version="1.1" xmlns="http://www.w3.org/2000/svg" width="32" height="32" viewBox="0 0 32 32">
<title>kavosaghar-1</title>
<path fill="#000" d="M5.532 17.141v-2.283h25.067v2.283h-25.067z"></path>
<path fill="#fff" d="M30.66 17.201h-25.188v-2.402h25.188zM5.594 17.082h24.945v-2.163h-24.945z"></path>
<path fill="#000" d="M31.39 14.859v-1.141h-1.355l-2.187 1.141h3.541z"></path>
<path fill="#fff" d="M31.452 14.918h-3.851l2.419-1.265h1.431zM28.096 14.799h3.234v-1.020h-1.28z"></path>
<path fill="#000" d="M31.39 17.141v1.141h-1.355l-2.187-1.141h3.541z"></path>
<path fill="#fff" d="M31.452 18.347h-1.431l-2.419-1.261h3.851zM30.050 18.225h1.28v-1.024h-3.234z"></path>
<path fill="#000" d="M27.814 16.073v-0.181h3.622v0.181h-3.622z"></path>
<path fill="#fff" d="M31.499 16.134h-3.744v-0.303h3.744zM27.872 16.013h3.503v-0.060h-3.501z"></path>
<path fill="#fff" d="M26.21 14.859h0.122v2.315h-0.122v-2.315z"></path>
<path fill="#000" d="M3.42 16.589v-1.146l2.114-0.585v2.283l-2.114-0.553z"></path>
<path fill="#fff" d="M5.594 17.22l-2.234-0.58v-1.244l2.234-0.617zM3.479 16.542l1.993 0.525v-2.133l-1.993 0.555z"></path>
<path fill="#000" d="M1.826 16.591v-1.152h1.594v1.152h-1.594z"></path>
<path fill="#fff" d="M3.479 16.651h-1.707v-1.28h1.707zM1.886 16.529h1.474v-1.030h-1.474z"></path>
<path fill="#000" d="M0.64 16.154c0.134 0.13 0.45 0.318 1.19 0.427v-1.152s-0.892 0.111-1.19 0.386c-0.045 0.043-0.073 0.103-0.073 0.17s0.028 0.127 0.073 0.17l0 0z"></path>
<path fill="#fff" d="M1.886 16.661l-0.070-0.021c-0.745-0.119-1.067-0.311-1.222-0.45v0c-0.055-0.055-0.090-0.13-0.092-0.213v-0c0.001-0.084 0.037-0.16 0.094-0.213l0-0c0.314-0.286 1.186-0.388 1.222-0.393h0.068zM1.764 15.507c-0.213 0.030-0.853 0.134-1.086 0.352-0.034 0.030-0.055 0.073-0.055 0.121 0 0 0 0 0 0.001v-0c0 0 0 0.001 0 0.001 0 0.051 0.021 0.096 0.055 0.129l0 0c0.105 0.102 0.388 0.286 1.086 0.407z"></path>
</svg>
