<!-- Generated by IcoMoon.io -->
<svg version="1.1" xmlns="http://www.w3.org/2000/svg" width="32" height="32" viewBox="0 0 32 32">
<title>KN-18</title>
<path fill="#231f20" d="M30.067 15.245h2.039v1.099h-0.533c-0.030-0.066-0.060-0.132-0.096-0.213h-2.874z"></path>
<path fill="#fff" d="M32.132 16.369h-0.585v-0.015l-0.090-0.188h-2.95l1.553-0.947h2.071zM31.573 16.316h0.499v-1.043h-1.993l-1.378 0.841h2.786v0.015z"></path>
<path fill="#231f20" d="M28.604 16.139h2.863c0.036 0.073 0.066 0.139 0.096 0.213h-3.294z"></path>
<path fill="#fff" d="M31.605 16.369h-3.43l0.427-0.256h2.889v0.015c0.036 0.070 0.068 0.139 0.098 0.213zM28.373 16.316h3.157l-0.073-0.149h-2.848z"></path>
<path fill="#231f20" d="M7.285 16.139h21.318l-0.335 0.213h3.305c0.173 0.321 0.275 0.702 0.275 1.108 0 0.384-0.091 0.746-0.254 1.067l0.006-0.014h-3.332l0.361 0.213h-21.333c0.184-0.378 0.292-0.823 0.292-1.293s-0.108-0.915-0.3-1.311l0.008 0.018zM26.946 17.314h-16.585c-0.014-0.002-0.030-0.003-0.046-0.003s-0.032 0.001-0.048 0.003l0.002-0c-0.087 0-0.147 0.053-0.149 0.111s0.098 0.139 0.241 0.126h16.538c0.1 0 0.181-0.034 0.179-0.126s-0.060-0.107-0.132-0.111z"></path>
<path fill="#c3beb1" d="M10.27 17.314c0.014-0.002 0.030-0.003 0.046-0.003s0.032 0.001 0.048 0.003l-0.002-0z"></path>
<path fill="#c3beb1" d="M26.899 17.314v0z"></path>
<path fill="#231f20" d="M0.141 17.402l0.777-0.254c0.042 0.074 0.067 0.163 0.067 0.257 0 0.009-0 0.019-0.001 0.028l0-0.001c0 0.003 0 0.006 0 0.009 0 0.103-0.024 0.201-0.068 0.287l0.002-0.004v0.015l-0.777-0.23c-0.020-0.011-0.033-0.032-0.034-0.055v-0c0.002-0.022 0.015-0.041 0.034-0.051l0-0z"></path>
<path fill="#fff" d="M10.121 17.425c0-0.058 0.062-0.1 0.149-0.111h16.676c0.073 0 0.128 0.038 0.132 0.111s-0.079 0.132-0.179 0.126h-16.538c-0.143 0.013-0.243-0.047-0.241-0.126z"></path>
<path fill="#231f20" d="M7.285 16.139l-5.274 0.653c0.060 0.182 0.094 0.391 0.094 0.608 0 0.033-0.001 0.066-0.002 0.099l0-0.005c-0.007 0.209-0.047 0.407-0.113 0.592l0.004-0.014 5.291 0.663c0.184-0.378 0.292-0.823 0.292-1.293s-0.108-0.915-0.3-1.311l0.008 0.018z"></path>
<path fill="#231f20" d="M2.012 16.791l-1.094 0.356c0.042 0.074 0.067 0.163 0.067 0.257 0 0.009-0 0.019-0.001 0.028l0-0.001c0 0.003 0 0.006 0 0.009 0 0.103-0.024 0.201-0.068 0.287l0.002-0.004v0.015l1.079 0.322c0.060-0.168 0.099-0.362 0.107-0.564l0-0.004c0.001-0.028 0.002-0.061 0.002-0.094 0-0.217-0.034-0.426-0.098-0.622l0.004 0.014z"></path>
<path fill="#fff" d="M2.014 18.086h-0.030l-1.109-0.331 0.017-0.043c0.040-0.081 0.064-0.177 0.064-0.279 0-0.001 0-0.002 0-0.003v0c0-0.008 0.001-0.017 0.001-0.026 0-0.090-0.023-0.174-0.064-0.247l0.001 0.003-0.015-0.028 1.152-0.375v0.026c0.066 0.192 0.103 0.414 0.103 0.644 0 0.023-0 0.046-0.001 0.069l0-0.003c-0.010 0.212-0.050 0.412-0.115 0.599l0.005-0.015zM0.947 17.722l1.028 0.307c0.054-0.158 0.091-0.34 0.102-0.53l0-0.006c0.001-0.024 0.002-0.052 0.002-0.080 0-0.206-0.031-0.405-0.089-0.592l0.004 0.014-1.041 0.329c0.035 0.069 0.056 0.151 0.056 0.238 0 0.010-0 0.020-0.001 0.030l0-0.001c0 0.001 0 0.002 0 0.002 0 0.104-0.022 0.203-0.062 0.292l0.002-0.005z"></path>
<path fill="#231f20" d="M31.573 18.517h0.514v1.097h-2.037l-1.44-0.877h2.837c0.042-0.062 0.084-0.134 0.121-0.209l0.005-0.011z"></path>
<path fill="#fff" d="M32.122 19.642h-2.074l-1.525-0.932h2.918c0.038-0.060 0.077-0.13 0.11-0.202l0.005-0.011v-0.015h0.559zM30.063 19.588h2.005v-1.045h-0.471c-0.041 0.084-0.080 0.154-0.124 0.221l0.005-0.008h-2.765z"></path>
<path fill="#231f20" d="M28.269 18.505h3.322c-0.041 0.083-0.082 0.153-0.128 0.219l0.004-0.006h-2.837z"></path>
<path fill="#fff" d="M7.381 18.773l-0.192-0.094c0.178-0.364 0.282-0.793 0.282-1.246s-0.104-0.881-0.289-1.263l0.008 0.017 0.192-0.092c0.191 0.392 0.303 0.852 0.303 1.339s-0.112 0.947-0.311 1.357l0.008-0.018z"></path>
</svg>
