<!-- Generated by IcoMoon.io -->
<svg version="1.1" xmlns="http://www.w3.org/2000/svg" width="32" height="32" viewBox="0 0 32 32">
<title>noDong</title>
<path fill="#7c7771" d="M30.581 14.404h1.419v1.242h-0.64c-0.038-0.217-0.085-0.404-0.145-0.586l0.008 0.030h-2.11z"></path>
<path fill="#7c7771" d="M29.103 15.089h2.11c0.051 0.152 0.099 0.34 0.133 0.532l0.004 0.025h-3.447z"></path>
<path fill="#c3beb1" d="M26.741 16.57c0.080-0.011 0.14-0.078 0.141-0.16v-0c-0.001-0.081-0.062-0.147-0.14-0.156l-0.001-0h-19.089c-0.072 0.017-0.125 0.081-0.125 0.158s0.053 0.141 0.124 0.158l0.001 0zM6.475 15.089h22.628l-1.201 0.557h3.458c0.044 0.23 0.070 0.496 0.073 0.768v0.002c0 0.009 0 0.019 0 0.030 0 0.309-0.030 0.61-0.088 0.902l0.005-0.029h-3.447l1.067 0.497h-22.498c0.16-0.392 0.254-0.847 0.256-1.324v-0.001c0-0.014 0-0.030 0-0.047 0-0.488-0.094-0.953-0.265-1.38l0.009 0.025z"></path>
<path fill="#c3beb1" d="M4.314 15.787l2.157-0.698c0.162 0.402 0.256 0.867 0.256 1.355 0 0.016-0 0.033-0 0.049l0-0.002c-0.002 0.478-0.096 0.933-0.265 1.349l0.009-0.024-2.157-0.698c0.092-0.196 0.145-0.425 0.145-0.667 0-0.009-0-0.017-0-0.026l0 0.001c-0.003-0.233-0.056-0.452-0.149-0.65l0.004 0.010z"></path>
<path fill="#c3beb1" d="M2.251 15.787h2.063c0.089 0.188 0.142 0.407 0.145 0.639v0.001c0 0.009 0 0.020 0 0.031 0 0.242-0.054 0.471-0.149 0.677l0.004-0.010h-2.063c0.062-0.197 0.098-0.423 0.098-0.658 0-0.001 0-0.002 0-0.003v0c0-0.003 0-0.007 0-0.010 0-0.238-0.036-0.467-0.103-0.682l0.004 0.016z"></path>
<path fill="#c3beb1" d="M0.941 16.124l1.31-0.337c0.061 0.197 0.096 0.424 0.096 0.659 0 0.004 0 0.008-0 0.012v-0.001c0 0.001 0 0.002 0 0.003 0 0.235-0.036 0.461-0.102 0.674l0.004-0.016-1.308-0.337v-0.047c0.023-0.082 0.036-0.177 0.036-0.274 0-0.001 0-0.002 0-0.003v0c0-0.005 0-0.010 0-0.015 0-0.096-0.013-0.188-0.038-0.276l0.002 0.007z"></path>
<path fill="#e00e0e" d="M0.179 16.32l0.762-0.196v0.049c0.023 0.081 0.036 0.173 0.036 0.268 0 0.005-0 0.011-0 0.016v-0.001c0 0.001 0 0.002 0 0.003 0 0.098-0.013 0.192-0.038 0.282l0.002-0.007v0.047l-0.762-0.196c-0.057-0.018-0.097-0.071-0.097-0.132s0.040-0.114 0.096-0.132l0.001-0z"></path>
<path fill="#afaaa0" d="M7.652 16.254h19.089c0.079 0.009 0.14 0.075 0.141 0.156v0c-0 0.082-0.061 0.149-0.14 0.16l-0.001 0h-19.089c-0.072-0.017-0.125-0.081-0.125-0.158s0.053-0.141 0.124-0.158l0.001-0z"></path>
<path fill="#7c7771" d="M31.339 17.318h0.661v1.242h-1.419l-1.604-0.745h2.236c0.045-0.133 0.089-0.3 0.122-0.471l0.004-0.026z"></path>
<path fill="#7c7771" d="M27.902 17.318h3.437c-0.037 0.197-0.081 0.364-0.134 0.526l0.008-0.029h-2.236z"></path>
<path fill="#7c7771" d="M6.571 17.856l-0.201-0.079c0.154-0.379 0.245-0.818 0.25-1.278l0-0.002c0-0.011 0-0.025 0-0.038 0-0.476-0.092-0.931-0.258-1.347l0.009 0.024 0.201-0.077c0.166 0.416 0.263 0.898 0.263 1.403s-0.096 0.987-0.272 1.429l0.009-0.026z"></path>
<path fill="#7c7771" d="M4.412 17.163l-0.194-0.096c0.085-0.184 0.134-0.4 0.134-0.628 0-0.004-0-0.009-0-0.013v0.001c-0.004-0.215-0.053-0.418-0.138-0.6l0.004 0.009 0.194-0.090c0.098 0.209 0.155 0.453 0.155 0.71s-0.057 0.502-0.159 0.721l0.004-0.011z"></path>
<path fill="#7c7771" d="M2.347 17.15l-0.213-0.062c0.060-0.19 0.094-0.408 0.094-0.634 0-0.002 0-0.004 0-0.006v0c0-0 0-0.001 0-0.001 0-0.228-0.034-0.447-0.098-0.654l0.004 0.016 0.213-0.062c0.065 0.209 0.102 0.449 0.102 0.697 0 0.001 0 0.002 0 0.003v-0c0 0.003 0 0.007 0 0.011 0 0.247-0.037 0.485-0.107 0.71l0.005-0.017z"></path>
<path fill="#231f20" d="M31.292 15.089h-24.821l-2.157 0.698h-2.063l-1.299 0.335s-0.868 0.158-0.868 0.326 0.853 0.333 0.853 0.333l1.312 0.337h2.063l2.157 0.698h24.823c0.066-0.396 0.112-0.866 0.13-1.343l0.001-0.020c-0.015-0.494-0.062-0.965-0.139-1.425l0.008 0.062z"></path>
<path fill="#231f20" d="M0.883 16.124s-0.853 0.156-0.853 0.324 0.853 0.333 0.853 0.333c0.031-0.094 0.049-0.201 0.049-0.313 0-0.008-0-0.015-0-0.023l0 0.001c-0-0.115-0.018-0.226-0.051-0.33l0.002 0.008z"></path>
<path fill="#fff" d="M0.9 16.811h-0.021c-0.147-0.032-0.879-0.171-0.879-0.363s0.73-0.324 0.877-0.35h0.021v0.021c0.032 0.099 0.051 0.212 0.051 0.33 0 0 0 0 0 0.001v-0c0 0.007 0 0.016 0 0.024 0 0.114-0.019 0.224-0.054 0.326l0.002-0.007zM0.864 16.154c-0.343 0.060-0.809 0.194-0.809 0.294s0.465 0.233 0.811 0.301c0.026-0.087 0.041-0.188 0.041-0.291 0-0.004-0-0.008-0-0.012v0.001c-0-0.104-0.016-0.205-0.045-0.3l0.002 0.007z"></path>
<path fill="#fff" d="M2.259 17.118h0.038c0.054-0.196 0.085-0.421 0.085-0.653v-0c-0.001-0.241-0.032-0.475-0.090-0.698l0.004 0.020h-0.038c0.054 0.2 0.085 0.43 0.085 0.668 0 0.004 0 0.008-0 0.011v-0.001c0 0.007 0 0.014 0 0.022 0 0.224-0.031 0.442-0.089 0.647l0.004-0.017z"></path>
<path fill="#fff" d="M4.267 17.118h0.038c0.054-0.196 0.085-0.421 0.085-0.653v-0c-0.001-0.241-0.032-0.475-0.090-0.698l0.004 0.020h-0.038c0.054 0.2 0.085 0.43 0.085 0.668 0 0.004 0 0.008-0 0.011v-0.001c0 0.007 0 0.014 0 0.022 0 0.224-0.031 0.442-0.089 0.647l0.004-0.017z"></path>
<path fill="#fff" d="M6.485 17.815h0.038c0.141-0.399 0.223-0.858 0.224-1.337v-0.001c-0.003-0.497-0.085-0.975-0.233-1.421l0.009 0.032h-0.038c0.143 0.411 0.226 0.884 0.226 1.377 0 0.004 0 0.008-0 0.012v-0.001c0 0.012 0 0.025 0 0.039 0 0.466-0.083 0.912-0.235 1.325l0.009-0.027z"></path>
<path fill="#fff" d="M7.531 16.416c0-0.090 0.073-0.162 0.162-0.162h19.025c0.090 0 0.162 0.073 0.162 0.162s-0.073 0.162-0.162 0.162h-19.025c-0.090 0-0.162-0.073-0.162-0.162z"></path>
<path fill="#231f20" d="M30.581 18.56h1.419v-1.242h-4.098l2.679 1.242z"></path>
<path fill="#fff" d="M32.028 18.588h-1.457l-2.79-1.295h4.247zM30.588 18.534h1.387v-1.19h-3.951z"></path>
<path fill="#231f20" d="M30.581 14.409l-2.679 1.242h4.098v-1.242h-1.419z"></path>
<path fill="#fff" d="M32.028 15.678h-4.247l2.801-1.295h1.446zM28.023 15.625h3.951v-1.188h-1.387z"></path>
</svg>
