<!-- Generated by IcoMoon.io -->
<svg version="1.1" xmlns="http://www.w3.org/2000/svg" width="32" height="32" viewBox="0 0 32 32">
<title>qiam2</title>
<path fill="#231f20" d="M31.787 17.035v-0.593h-0.309v-0.35h-23.556l-2.997 0.499h-2.496l-1.788 0.689c-0.080 0.032-0.135 0.109-0.135 0.198s0.055 0.166 0.133 0.198l0.001 0 1.788 0.67h2.496l2.997 0.576h23.548v-0.363h0.318v-0.589h-0.309v-0.937z"></path>
<path fill="#fff" d="M29.867 18.613h-20.725c-0.058-0.001-0.105-0.048-0.107-0.107v-0c0-0.059 0.048-0.107 0.107-0.107v0h20.725c0.059 0 0.107 0.048 0.107 0.107v0c-0.001 0.058-0.048 0.105-0.107 0.107h-0z"></path>
<path fill="#fff" d="M2.4 16.591h0.053v1.747h-0.053v-1.747z"></path>
<path fill="#fff" d="M4.898 16.591h0.053v1.747h-0.053v-1.747z"></path>
<path fill="#fff" d="M7.893 16.092h0.053v2.831h-0.053v-2.831z"></path>
<path fill="#231f20" d="M0.917 17.775c0.038-0.089 0.060-0.192 0.060-0.301s-0.022-0.212-0.062-0.306l0.002 0.005s-0.448 0.070-0.448 0.292 0.448 0.309 0.448 0.309z"></path>
<path fill="#fff" d="M0.934 17.805h-0.021c-0.019 0-0.471-0.075-0.471-0.337s0.452-0.316 0.471-0.318h0.021v0.019c0.039 0.092 0.062 0.2 0.062 0.313s-0.023 0.22-0.064 0.318l0.002-0.005zM0.902 17.203c-0.085 0.017-0.407 0.092-0.407 0.262s0.322 0.265 0.407 0.279c0.031-0.081 0.048-0.174 0.048-0.271s-0.018-0.19-0.050-0.276l0.002 0.005z"></path>
</svg>
