<!-- Generated by IcoMoon.io -->
<svg version="1.1" xmlns="http://www.w3.org/2000/svg" width="32" height="32" viewBox="0 0 32 32">
<title>qiam1</title>
<path fill="#231f20" d="M32 14.411v-0.606h-0.318v-0.365h-24.066l-3.061 0.516h-2.56l-1.813 0.702c-0.086 0.029-0.147 0.109-0.147 0.203s0.061 0.174 0.145 0.202l0.002 0 1.82 0.681h2.56l3.055 0.595h24.066v-0.365h0.318v-0.614h-0.318v-0.949z"></path>
<path fill="#fff" d="M30.054 16h-21.19c-0.039-0.007-0.068-0.040-0.068-0.080s0.029-0.073 0.067-0.080l0-0h21.19c0.004-0.001 0.008-0.001 0.013-0.001 0.045 0 0.081 0.036 0.081 0.081s-0.036 0.081-0.081 0.081c-0.005 0-0.009-0-0.014-0.001l0 0z"></path>
<path fill="#fff" d="M1.922 13.956h0.16v1.786h-0.16v-1.786z"></path>
<path fill="#fff" d="M4.448 13.956h0.213v1.786h-0.213v-1.786z"></path>
<path fill="#fff" d="M7.509 13.446h0.213v2.893h-0.213v-2.893z"></path>
<path fill="#231f20" d="M0.459 15.168c0.039-0.091 0.061-0.197 0.061-0.308s-0.023-0.217-0.063-0.314l0.002 0.005s-0.459 0.073-0.459 0.299 0.459 0.318 0.459 0.318z"></path>
<path fill="#fff" d="M0.476 15.196h-0.021c-0.019 0-0.48-0.075-0.48-0.343s0.452-0.324 0.48-0.326h0.021v0.019c0.041 0.094 0.065 0.204 0.065 0.32s-0.024 0.226-0.067 0.325l0.002-0.005zM0.444 14.581c-0.087 0.017-0.416 0.092-0.416 0.269s0.329 0.271 0.414 0.297c0.035-0.084 0.055-0.183 0.055-0.285 0-0.101-0.019-0.197-0.055-0.285l0.002 0.005z"></path>
</svg>
