<!-- Generated by IcoMoon.io -->
<svg version="1.1" xmlns="http://www.w3.org/2000/svg" width="32" height="32" viewBox="0 0 32 32">
<title>safir</title>
<path fill="#000" d="M1.66 16.373v-1.83h29.154v1.83h-29.154z"></path>
<path fill="#fff" d="M30.861 16.427h-29.246v-1.92h29.246zM1.707 16.326h29.062v-1.741h-29.062z"></path>
<path fill="#000" d="M31.403 17.188v-0.847h-2.603l1.581 0.847h1.022z"></path>
<path fill="#fff" d="M31.447 17.235h-1.079l-1.751-0.941h2.831zM30.391 17.141h0.969v-0.755h-2.377z"></path>
<path fill="#000" d="M31.403 13.694v0.847h-2.603l1.581-0.847h1.022z"></path>
<path fill="#fff" d="M31.447 14.586h-2.831l1.751-0.939h1.079zM28.983 14.494h2.377v-0.755h-0.964z"></path>
<path fill="#000" d="M0.542 15.806l1.067 0.557c0.002 0.003 0.005 0.004 0.009 0.004s0.007-0.002 0.008-0.004l0-0v-1.792c0-0.001 0-0.002 0-0.002 0-0.009-0.008-0.017-0.017-0.017-0.003 0-0.006 0.001-0.009 0.002l0-0-1.067 0.553c-0.125 0.068-0.208 0.198-0.208 0.348 0 0.153 0.087 0.286 0.214 0.351l0.002 0.001z"></path>
<path fill="#fff" d="M1.621 16.41c-0.004 0.001-0.009 0.002-0.014 0.002s-0.010-0.001-0.014-0.002l0 0-1.067-0.557c-0.142-0.075-0.238-0.221-0.238-0.39s0.095-0.316 0.235-0.389l0.002-0.001 1.067-0.553c0.009-0.005 0.020-0.008 0.031-0.008s0.022 0.003 0.031 0.008l-0-0c0.019 0.012 0.032 0.032 0.032 0.055v1.781c0 0 0 0.001 0 0.001 0 0.020-0.011 0.038-0.027 0.048l-0 0c-0.007 0.004-0.015 0.006-0.024 0.006-0.005 0-0.010-0.001-0.015-0.002l0 0zM1.587 14.615l-1.024 0.531c-0.113 0.059-0.189 0.175-0.189 0.309s0.076 0.25 0.187 0.308l0.002 0.001 1.024 0.531z"></path>
<path fill="#fff" d="M3.010 14.541h0.092v1.83h-0.092v-1.83z"></path>
<path fill="#fff" d="M7.298 14.541h0.092v1.83h-0.092v-1.83z"></path>
<path fill="#fff" d="M27.473 14.541h0.092v1.83h-0.092v-1.83z"></path>
<path fill="#000" d="M28.693 15.494v-0.107h2.709v0.107h-2.709z"></path>
<path fill="#fff" d="M31.447 15.539h-2.799v-0.198h2.799zM28.74 15.447h2.62v-0.015h-2.62z"></path>
</svg>
