<!-- Generated by IcoMoon.io -->
<svg version="1.1" xmlns="http://www.w3.org/2000/svg" width="32" height="32" viewBox="0 0 32 32">
<title>scudBC</title>
<path fill="#000" d="M28.403 17.67h2.263l0.401-1.764h-4.124l1.459 1.764z"></path>
<path fill="#000" d="M30.667 13.31h-2.263l-1.459 1.764h4.124l-0.401-1.764z"></path>
<path fill="#000" d="M32 16.725h-26.364l-5.519-1.135c-0.069-0.012-0.12-0.072-0.12-0.143s0.052-0.131 0.119-0.143l0.001-0 5.519-1.135h26.364z"></path>
<path fill="#fff" d="M32.028 16.753h-26.391l-5.525-1.135c-0.079-0.018-0.137-0.088-0.137-0.171s0.058-0.152 0.135-0.17l0.001-0 5.519-1.135h26.398zM5.636 14.193l-5.515 1.137c-0.056 0.011-0.097 0.059-0.097 0.117s0.041 0.106 0.096 0.117l0.001 0 5.519 1.135h26.334v-2.505z"></path>
<path fill="#000" d="M31.808 12.956h-2.263l-1.854 1.764h4.124l-0.006-1.764z"></path>
<path fill="#fff" d="M31.842 14.746h-4.218l1.909-1.818h2.3zM27.757 14.692h4.030v-1.707h-2.231z"></path>
<path fill="#000" d="M29.545 17.907h2.263l0.006-1.764h-4.124l1.854 1.764z"></path>
<path fill="#fff" d="M31.834 17.933h-2.3l-1.901-1.811h4.218zM29.555 17.879h2.231v-1.707h-4.032z"></path>
<path fill="#000" d="M5.636 14.17s-0.474 1.297 0 2.56z"></path>
<path fill="#fff" d="M5.611 16.736c-0.469-1.254 0-2.56 0-2.577l0.051 0.019c0 0.013-0.465 1.303 0 2.539z"></path>
</svg>
