<!-- Generated by IcoMoon.io -->
<svg version="1.1" xmlns="http://www.w3.org/2000/svg" width="32" height="32" viewBox="0 0 32 32">
<title>scud_b_c</title>
<path d="M28.403 17.67h2.263l0.401-1.764h-4.124l1.459 1.764z"></path>
<path d="M30.667 13.31h-2.263l-1.459 1.764h4.124l-0.401-1.764z"></path>
<path d="M32 16.725h-26.364l-5.519-1.135c-0.069-0.012-0.12-0.072-0.12-0.143s0.052-0.131 0.119-0.143l0.001-0 5.519-1.135h26.364z"></path>
<path d="M31.808 12.956h-2.263l-1.854 1.764h4.124l-0.006-1.764z"></path>
<path d="M29.545 17.907h2.263l0.006-1.764h-4.124l1.854 1.764z"></path>
<path d="M5.636 14.17s-0.474 1.297 0 2.56"></path>
</svg>
