<!-- Generated by IcoMoon.io -->
<svg version="1.1" xmlns="http://www.w3.org/2000/svg" width="32" height="32" viewBox="0 0 32 32">
<title>shahab1</title>
<path fill="#231f20" d="M29.833 14.673h2.020v1.086h-0.538c-0.030-0.064-0.062-0.132-0.098-0.213h-2.833z"></path>
<path fill="#231f20" d="M28.384 15.556h2.833c0.036 0.070 0.068 0.139 0.098 0.213h-3.262z"></path>
<path fill="#231f20" d="M0.969 17.124c0.042-0.082 0.066-0.178 0.066-0.28 0-0.003-0-0.006-0-0.009v0c0-0.008 0.001-0.017 0.001-0.026 0-0.093-0.025-0.181-0.068-0.256l0.001 0.003 1.086-0.343 5.22-0.64h21.12l-0.331 0.213h3.262c0.17 0.317 0.269 0.692 0.269 1.092 0 0.379-0.090 0.738-0.25 1.055l0.006-0.013h-3.298l0.356 0.213h-21.135l-5.237-0.674-1.067-0.32zM10.202 16.681v0 0.013c-0.062 0.018-0.108 0.070-0.119 0.133l-0 0.001c0.022 0.096 0.107 0.166 0.208 0.166 0.011 0 0.022-0.001 0.032-0.002l-0.001 0h16.373c0.004 0 0.009 0.001 0.014 0.001 0.062 0 0.117-0.034 0.145-0.085l0-0.001h0.467c0.118 0 0.213-0.096 0.213-0.213v0 0 0c0-0.118-0.096-0.213-0.213-0.213v0h-16.9c-0.002-0-0.004-0-0.007-0-0.113 0-0.206 0.088-0.213 0.2l-0 0.001z"></path>
<path fill="#fff" d="M27.322 16.461c0.118 0 0.213 0.096 0.213 0.213v0h-17.333c0-0.118 0.095-0.213 0.213-0.213v0z"></path>
<path fill="#fff" d="M10.261 16.681v0z"></path>
<path fill="#fff" d="M26.694 16.681v0z"></path>
<path fill="#fff" d="M10.202 16.683h0.060c-0.022 0.002-0.042 0.007-0.061 0.015l0.001-0v-0.015z"></path>
<path fill="#fff" d="M10.421 16.909c-0.118 0-0.213-0.096-0.213-0.213v0c0.017-0.008 0.038-0.013 0.059-0.015l0.001-0h16.454c0.083 0.001 0.151 0.067 0.156 0.149l0 0c0 0.003 0 0.007 0 0.011 0 0.025-0.006 0.049-0.018 0.069l0-0.001z"></path>
<path fill="#fff" d="M27.543 16.683v0c0 0.118-0.096 0.213-0.213 0.213v0h-0.467c0.011-0.020 0.017-0.043 0.017-0.068 0-0.004-0-0.007-0-0.011l0 0c-0.005-0.083-0.072-0.148-0.156-0.149h0.828z"></path>
<path fill="#231f20" d="M10.202 16.695c0 0.118 0.095 0.213 0.213 0.213v0h16.427c-0.029 0.052-0.083 0.086-0.146 0.086-0.005 0-0.010-0-0.015-0.001l0.001 0h-16.361c-0.009 0.001-0.020 0.002-0.031 0.002-0.101 0-0.186-0.070-0.208-0.165l-0-0.001c0.011-0.065 0.057-0.116 0.118-0.134l0.001-0z"></path>
<path fill="#231f20" d="M31.341 17.899h0.512v1.088h-2.020l-1.423-0.87h2.807c0.043-0.062 0.084-0.133 0.12-0.208l0.004-0.010z"></path>
<path fill="#231f20" d="M28.053 17.899h3.287c-0.040 0.082-0.081 0.152-0.127 0.219l0.003-0.005h-2.807z"></path>
<path fill="#231f20" d="M0.201 16.809l0.768-0.252c0.042 0.073 0.067 0.16 0.067 0.253 0 0.009-0 0.018-0.001 0.027l0-0.001c0 0.002 0 0.005 0 0.008 0 0.102-0.024 0.198-0.068 0.283l0.002-0.004v0.015l-0.768-0.226c-0.021-0.012-0.034-0.034-0.034-0.059 0-0 0-0 0-0.001v0c0.003-0.020 0.016-0.036 0.034-0.045l0-0z"></path>
<path fill="#231f20" d="M29.833 14.673h2.020v1.086h-3.799l1.779-1.086z"></path>
<path fill="#231f20" d="M28.053 17.901h3.799v1.086h-2.020l-1.779-1.086z"></path>
<path fill="#231f20" d="M10.319 15.403h16.375l0.847 0.316h-18.069l0.847-0.316z"></path>
<path fill="#231f20" d="M9.472 17.967h18.069l-0.847 0.314h-16.375l-0.847-0.314z"></path>
</svg>
