<!-- Generated by IcoMoon.io -->
<svg version="1.1" xmlns="http://www.w3.org/2000/svg" width="32" height="32" viewBox="0 0 32 32">
<title>shahab2</title>
<path fill="#231f20" d="M29.758 13.843h2.029v1.090h-0.538l-0.102-0.213h-2.837z"></path>
<path fill="#231f20" d="M28.307 14.72h2.839l0.096 0.201h-3.264z"></path>
<path fill="#231f20" d="M27.061 17.28h-19.861l-5.239-0.64c0.060-0.17 0.099-0.366 0.109-0.569l0-0.005c0.001-0.023 0.001-0.050 0.001-0.076 0-0.217-0.034-0.427-0.097-0.623l0.004 0.014 5.222-0.64h21.107l-0.329 0.201h3.262c0.17 0.317 0.269 0.693 0.269 1.092 0 0.379-0.090 0.738-0.25 1.055l0.006-0.013h-3.287l0.356 0.213zM27.307 16.156c0.087 0 0.158-0.071 0.158-0.158s-0.071-0.158-0.158-0.158v0h-16.373c-0.087 0-0.158 0.071-0.158 0.158s0.071 0.158 0.158 0.158v0h16.373z"></path>
<path fill="#231f20" d="M10.933 15.84h16.373c0.087 0 0.158 0.071 0.158 0.158s-0.071 0.158-0.158 0.158v0h-16.378c-0.087 0-0.158-0.071-0.158-0.158s0.071-0.158 0.158-0.158v0z"></path>
<path fill="#231f20" d="M31.266 17.067h0.521v1.086h-2.020l-1.431-0.873h2.812c0.039-0.059 0.079-0.129 0.114-0.201l0.005-0.012z"></path>
<path fill="#231f20" d="M27.979 17.067h3.287c-0.041 0.084-0.082 0.154-0.126 0.221l0.005-0.008h-2.81z"></path>
<path fill="#fff" d="M31.147 14.754h-23.947c-0.001 0-0.001 0-0.002 0-0.014 0-0.026-0.011-0.026-0.026 0-0 0-0 0-0v0c0-0.015 0.012-0.028 0.028-0.028v0h23.947c0 0 0 0 0 0 0.014 0 0.026 0.011 0.026 0.026 0 0.001-0 0.002-0 0.002v-0c0 0.014-0.011 0.026-0.026 0.026v0z"></path>
<path fill="#fff" d="M31.147 17.314h-23.947c-0.001 0-0.001 0-0.002 0-0.014 0-0.026-0.011-0.026-0.026 0-0 0-0 0-0v0c0-0.015 0.012-0.028 0.028-0.028v0h23.947c0 0 0 0 0 0 0.014 0 0.026 0.011 0.026 0.026 0 0.001-0 0.002-0 0.002v-0c0 0.014-0.011 0.026-0.026 0.026v0z"></path>
<path fill="#fff" d="M7.2 17.314v0l-5.244-0.657c-0.013-0.002-0.024-0.014-0.024-0.027 0-0.001 0-0.002 0-0.003v0c0.002-0.013 0.014-0.024 0.027-0.024 0.001 0 0.002 0 0.003 0h-0l5.239 0.657c0.013 0.001 0.024 0.012 0.024 0.026 0 0.002-0 0.003-0 0.004l0-0c-0.001 0.013-0.012 0.023-0.026 0.023-0 0-0 0-0 0v0z"></path>
<path fill="#fff" d="M1.978 15.401c-0.013-0.001-0.024-0.011-0.026-0.023l-0-0c-0-0.001-0-0.003-0-0.004 0-0.014 0.010-0.025 0.024-0.026h0l5.22-0.64c0.001-0 0.003-0 0.004-0 0.014 0 0.025 0.010 0.026 0.024v0c0 0.001 0 0.003 0 0.004 0 0.014-0.010 0.025-0.024 0.026h-0l-5.22 0.64z"></path>
<path fill="#231f20" d="M0.894 15.727l1.084-0.354c0.059 0.182 0.093 0.391 0.093 0.608 0 0.027-0.001 0.054-0.002 0.080l0-0.004c-0.009 0.211-0.048 0.41-0.113 0.597l0.004-0.015-1.067-0.322v-0.013c0.041-0.083 0.064-0.18 0.064-0.283 0-0.008-0-0.016-0-0.024l0 0.001c0-0.006 0-0.013 0-0.020 0-0.093-0.024-0.18-0.066-0.256l0.001 0.003z"></path>
<path fill="#231f20" d="M0.245 15.938l0.64-0.213c0.046 0.077 0.073 0.169 0.073 0.268 0 0.003-0 0.005-0 0.008v-0c0 0.002 0 0.004 0 0.006 0 0.102-0.024 0.2-0.066 0.286l0.002-0.004v0.013l-0.64-0.194c-0.035-0.015-0.059-0.049-0.059-0.089s0.024-0.074 0.058-0.088l0.001-0z"></path>
<path fill="#231f20" d="M29.76 13.843h2.018v1.086h-3.799l1.781-1.086z"></path>
<path fill="#231f20" d="M27.979 17.071h3.799v1.086h-2.018l-1.781-1.086z"></path>
<path fill="#fff" d="M7.241 17.333v0c-0.009-0.005-0.015-0.014-0.015-0.025 0-0.004 0.001-0.008 0.003-0.012l-0 0c0.18-0.371 0.286-0.807 0.286-1.268s-0.105-0.897-0.293-1.286l0.008 0.018c-0.002-0.003-0.003-0.007-0.003-0.011 0-0.011 0.006-0.020 0.015-0.025l0-0c0.003-0.001 0.006-0.001 0.010-0.001 0.011 0 0.021 0.006 0.027 0.014l0 0c0.183 0.378 0.29 0.822 0.29 1.292s-0.107 0.914-0.298 1.31l0.008-0.018c-0.005 0.009-0.014 0.015-0.025 0.015-0.004 0-0.008-0.001-0.012-0.003l0 0z"></path>
<path fill="#231f20" d="M10.244 14.573h16.375l0.847 0.316h-18.069l0.847-0.316z"></path>
<path fill="#231f20" d="M9.397 17.137h18.069l-0.847 0.316h-16.375l-0.847-0.316z"></path>
<path fill="#fff" d="M9.884 15.497h17.097c0.091 0 0.164 0.074 0.164 0.164v0.015c0 0.091-0.074 0.164-0.164 0.164h-17.097c-0.091 0-0.164-0.074-0.164-0.164v-0.015c0-0.091 0.074-0.164 0.164-0.164z"></path>
</svg>
