<!-- Generated by IcoMoon.io -->
<svg version="1.1" xmlns="http://www.w3.org/2000/svg" width="32" height="32" viewBox="0 0 32 32">
<title>shahab3M</title>
<path fill="#231f20" d="M30.319 13.069h1.41v1.235h-0.64c-0.039-0.217-0.087-0.403-0.145-0.584l0.009 0.031h-2.099z"></path>
<path fill="#231f20" d="M28.847 13.751h2.099c0.050 0.149 0.097 0.335 0.132 0.525l0.004 0.027h-3.43z"></path>
<path fill="#231f20" d="M26.498 15.223c0.079-0.009 0.14-0.076 0.14-0.157s-0.061-0.147-0.139-0.157l-0.001-0h-18.987c-0.070 0.019-0.121 0.082-0.121 0.157s0.051 0.138 0.12 0.157l0.001 0zM6.334 13.751h22.513l-1.195 0.553h3.43c0.043 0.229 0.069 0.494 0.070 0.764v0.001c0 0.016 0 0.036 0 0.055 0 0.298-0.030 0.59-0.086 0.871l0.005-0.028h-3.413l1.067 0.497h-22.391c0.162-0.402 0.256-0.869 0.256-1.357s-0.094-0.955-0.265-1.382l0.009 0.025z"></path>
<path fill="#231f20" d="M4.188 14.445l2.146-0.693c0.162 0.402 0.256 0.868 0.256 1.357s-0.094 0.955-0.265 1.382l0.009-0.025-2.146-0.695c0.092-0.194 0.145-0.422 0.145-0.662 0-0.011-0-0.022-0-0.033l0 0.002c-0.005-0.23-0.058-0.446-0.149-0.641l0.004 0.010z"></path>
<path fill="#231f20" d="M2.133 14.445h2.052c0.088 0.188 0.141 0.407 0.145 0.639l0 0.001c0 0.009 0 0.020 0 0.031 0 0.24-0.054 0.468-0.149 0.672l0.004-0.010h-2.052c0.062-0.197 0.098-0.423 0.098-0.658 0-0.001 0-0.001 0-0.002v0c0-0.003 0-0.007 0-0.011 0-0.236-0.036-0.464-0.103-0.679l0.004 0.016z"></path>
<path fill="#231f20" d="M0.651 14.827l1.493-0.382c0.062 0.198 0.098 0.426 0.098 0.663 0 0.001 0 0.002 0 0.003v-0c-0.004 0.237-0.043 0.463-0.113 0.675l0.005-0.016-1.493-0.384c0.023-0.081 0.036-0.174 0.036-0.27 0-0.001 0-0.002 0-0.004v0c0-0.002 0-0.004 0-0.006 0-0.099-0.013-0.194-0.038-0.285l0.002 0.008z"></path>
<path fill="#231f20" d="M7.509 14.91h18.987c0.079 0.009 0.14 0.076 0.14 0.157s-0.061 0.147-0.139 0.157l-0.001 0h-18.987c-0.070-0.019-0.121-0.082-0.121-0.157s0.051-0.138 0.12-0.157l0.001-0z"></path>
<path fill="#231f20" d="M31.072 15.968h0.657v1.235h-1.41l-1.598-0.738h2.225c0.043-0.129 0.086-0.296 0.121-0.467l0.005-0.030z"></path>
<path fill="#231f20" d="M27.652 15.968h3.413c-0.040 0.201-0.083 0.368-0.135 0.531l0.009-0.034h-2.219z"></path>
<path fill="#fff" d="M31.072 16.491h-24.672l0.015-0.036c0.161-0.399 0.254-0.862 0.254-1.347s-0.093-0.948-0.263-1.372l0.009 0.025-0.015-0.036 24.672 0.019c0.13 0.396 0.208 0.851 0.213 1.324l0 0.003c0 0.010 0 0.022 0 0.034 0 0.489-0.078 0.959-0.222 1.4l0.009-0.032zM6.479 16.437h24.555c0.127-0.398 0.201-0.855 0.201-1.33s-0.073-0.932-0.209-1.362l0.009 0.032h-24.555c0.154 0.395 0.243 0.852 0.243 1.33s-0.089 0.935-0.252 1.356l0.009-0.026z"></path>
<path fill="#fff" d="M4.282 15.797h-2.172v-0.036c0.062-0.191 0.099-0.411 0.1-0.639v-0.001c-0-0.235-0.037-0.461-0.105-0.673l0.004 0.016v-0.034h2.172v0.015c0.091 0.187 0.146 0.406 0.151 0.638l0 0.002c0 0.010 0 0.023 0 0.035 0 0.242-0.054 0.471-0.15 0.677l0.004-0.010zM2.182 15.744h2.065c0.088-0.189 0.139-0.41 0.139-0.643 0-0.009-0-0.018-0-0.026l0 0.001c-0.005-0.22-0.056-0.427-0.143-0.613l0.004 0.009h-2.065c0.058 0.192 0.091 0.412 0.092 0.64v0c-0.001 0.225-0.034 0.443-0.096 0.648l0.004-0.016z"></path>
<path fill="#fff" d="M4.252 15.817l0.033-0.101 2.145 0.694-0.033 0.102-2.145-0.694z"></path>
<path fill="#fff" d="M4.282 14.393l2.142-0.699 0.017 0.051-2.142 0.699-0.017-0.051z"></path>
<path fill="#231f20" d="M0.075 14.976l0.576-0.149c0.023 0.083 0.036 0.179 0.036 0.278 0 0.002 0 0.004-0 0.006v-0c0 0.001 0 0.002 0 0.004 0 0.096-0.013 0.189-0.038 0.277l0.002-0.007-0.576-0.147c-0.055-0.019-0.094-0.071-0.094-0.131 0-0.002 0-0.004 0-0.006v0c0.001-0.058 0.040-0.107 0.093-0.123l0.001-0z"></path>
<path fill="#fff" d="M0.070 15.265l0.013-0.052 2.062 0.532-0.013 0.052-2.062-0.532z"></path>
<path fill="#fff" d="M0.067 14.95l2.062-0.532 0.013 0.052-2.062 0.532-0.013-0.052z"></path>
<path fill="#fff" d="M0.066 15.264c-0.066-0.024-0.113-0.087-0.113-0.161 0-0.001 0-0.001 0-0.002v0c0.002-0.071 0.048-0.13 0.112-0.151l0.001-0 0.017 0.051c-0.046 0.013-0.080 0.053-0.083 0.102v0c0 0.001 0 0.001 0 0.002 0 0.049 0.032 0.092 0.076 0.107l0.001 0z"></path>
<path fill="#fff" d="M0.676 15.394l-0.051-0.015c0.023-0.080 0.036-0.172 0.036-0.266v-0c-0-0.099-0.013-0.194-0.038-0.285l0.002 0.008 0.051-0.013c0.024 0.087 0.038 0.186 0.038 0.289 0 0 0 0.001 0 0.001v-0c-0 0.1-0.014 0.197-0.040 0.289l0.002-0.007z"></path>
<path fill="#231f20" d="M30.398 13.069h1.412v1.235h-4.079l2.667-1.235z"></path>
<path fill="#231f20" d="M27.731 15.968h4.079v1.235h-1.412l-2.667-1.235z"></path>
<path fill="#fff" d="M30.387 17.229l-2.667-1.235 0.023-0.049 2.667 1.235-0.023 0.049z"></path>
<path fill="#fff" d="M27.731 15.942h4.077v0.053h-4.077v-0.053z"></path>
<path fill="#fff" d="M31.782 15.968h0.053v1.235h-0.053v-1.235z"></path>
<path fill="#fff" d="M30.398 17.178h1.41v0.053h-1.41v-0.053z"></path>
<path fill="#fff" d="M27.744 14.33l-0.023-0.049 2.667-1.235 0.023 0.047-2.667 1.237z"></path>
<path fill="#fff" d="M27.731 14.278h4.077v0.053h-4.077v-0.053z"></path>
<path fill="#fff" d="M31.782 13.069h0.053v1.235h-0.053v-1.235z"></path>
<path fill="#fff" d="M30.398 13.043h1.41v0.053h-1.41v-0.053z"></path>
<path fill="#fff" d="M6.878 14.251h20.311v0.053h-20.311v-0.053z"></path>
<path fill="#fff" d="M7.375 13.937h18.989v0.053h-18.989v-0.053z"></path>
<path fill="#fff" d="M6.893 14.3l-0.028-0.045 0.497-0.314 0.028 0.047-0.497 0.311z"></path>
<path fill="#fff" d="M27.181 14.304l-0.826-0.314 0.019-0.051 0.826 0.314-0.019 0.051z"></path>
<path fill="#fff" d="M7.541 14.918h18.963c0.081 0 0.147 0.066 0.147 0.147v-0.002c0 0.081-0.066 0.147-0.147 0.147h-18.963c-0.081 0-0.147-0.066-0.147-0.147v0.002c0-0.081 0.066-0.147 0.147-0.147z"></path>
</svg>
