<!-- Generated by IcoMoon.io -->
<svg version="1.1" xmlns="http://www.w3.org/2000/svg" width="32" height="32" viewBox="0 0 32 32">
<title>shahab3</title>
<path fill="#231f20" d="M30.438 13.107h1.417v1.239h-0.64c-0.040-0.218-0.088-0.405-0.148-0.586l0.009 0.031h-2.106z"></path>
<path fill="#231f20" d="M28.962 13.792h2.106c0.050 0.15 0.099 0.336 0.134 0.527l0.004 0.028h-3.443z"></path>
<path fill="#231f20" d="M26.605 15.268c0.079-0.008 0.141-0.074 0.141-0.155 0-0.001 0-0.002-0-0.003v0c-0.001-0.081-0.062-0.147-0.14-0.156l-0.001-0h-19.051c-0.070 0.020-0.12 0.083-0.12 0.158 0 0.003 0 0.006 0 0.009l-0-0c0.003 0.071 0.053 0.129 0.118 0.147l0.001 0zM6.374 13.792h22.588l-1.199 0.555h3.443c0.042 0.23 0.068 0.496 0.070 0.768l0 0.002c0 0.008 0 0.018 0 0.028 0 0.308-0.030 0.61-0.088 0.901l0.005-0.029h-3.43l1.067 0.497h-22.455c0.162-0.404 0.256-0.871 0.256-1.361s-0.094-0.958-0.265-1.386l0.009 0.025z"></path>
<path fill="#231f20" d="M4.222 14.487l2.153-0.695c0.162 0.403 0.256 0.871 0.256 1.361s-0.094 0.958-0.265 1.386l0.009-0.025-2.153-0.698c0.092-0.195 0.145-0.423 0.145-0.665 0-0.011-0-0.022-0-0.033l0 0.002c-0.004-0.231-0.057-0.448-0.149-0.643l0.004 0.010z"></path>
<path fill="#231f20" d="M2.163 14.487h2.059c0.089 0.188 0.142 0.407 0.145 0.639v0.001c0 0.009 0 0.020 0 0.031 0 0.241-0.054 0.47-0.149 0.674l0.004-0.010h-2.059c0.062-0.197 0.098-0.424 0.098-0.659 0-0.006-0-0.012-0-0.019v0.001c-0.001-0.235-0.036-0.462-0.102-0.676l0.004 0.016z"></path>
<path fill="#231f20" d="M0.672 14.871l1.493-0.384c0.061 0.197 0.096 0.423 0.096 0.658 0 0 0 0.001 0 0.001v-0c0 0.001 0 0.002 0 0.003 0 0.235-0.036 0.461-0.102 0.674l0.004-0.016-1.493-0.384c0.022-0.082 0.036-0.177 0.036-0.275v-0c-0.001-0.101-0.014-0.199-0.038-0.292l0.002 0.008z"></path>
<path fill="#231f20" d="M7.554 14.955h19.051c0.079 0.009 0.14 0.075 0.141 0.156v0c0 0.001 0 0.002 0 0.003 0 0.081-0.061 0.147-0.14 0.155l-0.001 0h-19.051c-0.067-0.018-0.116-0.076-0.119-0.147v-0c-0-0.002-0-0.005-0-0.008 0-0.075 0.050-0.138 0.119-0.158l0.001-0z"></path>
<path fill="#231f20" d="M31.194 16.017h0.661v1.239h-1.417l-1.602-0.742h2.231c0.046-0.135 0.090-0.302 0.122-0.473l0.004-0.024z"></path>
<path fill="#231f20" d="M27.763 16.017h3.43c-0.036 0.195-0.080 0.362-0.134 0.524l0.008-0.027h-2.231z"></path>
<path fill="#fff" d="M31.119 16.567h-24.811l0.030-0.073c0.159-0.398 0.252-0.859 0.252-1.342s-0.093-0.944-0.261-1.367l0.009 0.025-0.030-0.073h24.811l0.013 0.036c0.134 0.412 0.211 0.885 0.211 1.377s-0.077 0.965-0.22 1.41l0.009-0.032zM6.464 16.461h24.578c0.123-0.391 0.194-0.841 0.194-1.308s-0.071-0.916-0.203-1.34l0.009 0.032h-24.578c0.147 0.389 0.233 0.838 0.233 1.308s-0.085 0.919-0.241 1.334l0.009-0.026z"></path>
<path fill="#fff" d="M4.288 15.844h-2.133l0.011-0.034c0.061-0.196 0.096-0.421 0.096-0.654 0-0.003 0-0.007-0-0.010v0.001c-0.001-0.229-0.036-0.449-0.1-0.656l0.004 0.016-0.011-0.034h2.133v0.015c0.088 0.188 0.142 0.407 0.147 0.638l0 0.002c0 0.008 0 0.018 0 0.028 0 0.247-0.054 0.48-0.152 0.69l0.004-0.010zM2.225 15.787h2.029c0.087-0.188 0.138-0.408 0.138-0.64s-0.051-0.452-0.142-0.65l0.004 0.010h-2.029c0.057 0.188 0.090 0.405 0.090 0.629 0 0.004 0 0.008-0 0.012v-0.001c0 0.002 0 0.004 0 0.006 0 0.226-0.033 0.444-0.094 0.65l0.004-0.016z"></path>
<path fill="#fff" d="M4.286 15.868l0.033-0.101 2.151 0.696-0.033 0.102-2.152-0.696z"></path>
<path fill="#fff" d="M4.286 14.44l2.151-0.698 0.033 0.101-2.151 0.698-0.033-0.101z"></path>
<path fill="#231f20" d="M0.096 15.021l0.576-0.149c0.022 0.085 0.036 0.183 0.036 0.283v0c-0.001 0.098-0.014 0.193-0.038 0.283l0.002-0.008-0.578-0.149c-0.055-0.018-0.094-0.070-0.094-0.13 0-0.002 0-0.003 0-0.005v0c0.004-0.058 0.042-0.107 0.095-0.126l0.001-0z"></path>
<path fill="#fff" d="M0.089 15.31l0.013-0.052 2.068 0.534-0.013 0.052-2.068-0.534z"></path>
<path fill="#fff" d="M0.090 14.997l2.068-0.534 0.013 0.052-2.068 0.534-0.013-0.052z"></path>
<path fill="#fff" d="M0.087 15.309c-0.067-0.021-0.115-0.084-0.115-0.157s0.048-0.135 0.114-0.156l0.001-0 0.017 0.051c-0.044 0.014-0.075 0.053-0.077 0.1v0c0 0.001-0 0.002-0 0.002 0 0.050 0.032 0.092 0.076 0.108l0.001 0z"></path>
<path fill="#fff" d="M0.7 15.439l-0.060-0.013c0.023-0.081 0.036-0.173 0.036-0.269v-0c0-0.003 0-0.006 0-0.009 0-0.096-0.013-0.188-0.038-0.276l0.002 0.007 0.053-0.013c0.023 0.087 0.036 0.187 0.036 0.29v0c0 0.007 0 0.014 0 0.022 0 0.092-0.011 0.181-0.032 0.267l0.002-0.008z"></path>
<path fill="#231f20" d="M30.519 13.107h1.414v1.239h-4.090l2.675-1.239z"></path>
<path fill="#231f20" d="M27.844 16.017h4.090v1.239h-1.414l-2.675-1.239z"></path>
<path fill="#fff" d="M30.509 17.28l-2.675-1.239 0.021-0.047 2.675 1.239-0.021 0.047z"></path>
<path fill="#fff" d="M27.844 15.989h4.090v0.053h-4.090v-0.053z"></path>
<path fill="#fff" d="M31.908 16.017h0.053v1.239h-0.053v-1.239z"></path>
<path fill="#fff" d="M30.519 17.231h1.414v0.053h-1.414v-0.053z"></path>
<path fill="#fff" d="M27.855 14.372l-0.021-0.049 2.675-1.239 0.021 0.049-2.675 1.239z"></path>
<path fill="#fff" d="M27.844 14.321h4.090v0.053h-4.090v-0.053z"></path>
<path fill="#fff" d="M31.908 13.107h0.053v1.239h-0.053v-1.239z"></path>
<path fill="#fff" d="M30.519 13.082h1.414v0.053h-1.414v-0.053z"></path>
<path fill="#fff" d="M6.921 14.293h20.38v0.053h-20.38v-0.053z"></path>
<path fill="#fff" d="M7.42 13.98h19.051v0.053h-19.051v-0.053z"></path>
<path fill="#fff" d="M6.935 14.345l-0.028-0.047 0.499-0.314 0.028 0.045-0.499 0.316z"></path>
<path fill="#fff" d="M27.29 14.347l-0.828-0.316 0.019-0.049 0.828 0.314-0.019 0.051z"></path>
<path fill="#fff" d="M7.582 14.963h19.031c0.080 0 0.145 0.065 0.145 0.145v0.004c0 0.080-0.065 0.145-0.145 0.145h-19.031c-0.080 0-0.145-0.065-0.145-0.145v-0.004c0-0.080 0.065-0.145 0.145-0.145z"></path>
</svg>
