<!-- Generated by IcoMoon.io -->
<svg version="1.1" xmlns="http://www.w3.org/2000/svg" width="32" height="32" viewBox="0 0 32 32">
<title>shahab3M</title>
<path fill="#231f20" d="M30.507 13.692h1.41v1.242h-0.64c-0.038-0.215-0.085-0.401-0.145-0.581l0.008 0.029h-2.099z"></path>
<path fill="#231f20" d="M29.028 14.374h2.099c0.051 0.151 0.099 0.337 0.133 0.528l0.004 0.025h-3.43z"></path>
<path fill="#231f20" d="M26.679 15.846c0.079-0.009 0.14-0.076 0.14-0.157s-0.061-0.147-0.139-0.157l-0.001-0h-18.987c-0.070 0.019-0.121 0.082-0.121 0.157s0.051 0.138 0.12 0.157l0.001 0zM6.515 14.374h22.513l-1.195 0.559h3.43c0.043 0.228 0.069 0.493 0.073 0.763l0 0.003c0 0.009 0 0.020 0 0.031 0 0.307-0.030 0.606-0.088 0.896l0.005-0.029h-3.413l1.067 0.497h-22.4c0.162-0.402 0.256-0.869 0.256-1.357s-0.094-0.955-0.265-1.382l0.009 0.025z"></path>
<path fill="#231f20" d="M4.371 15.068l2.144-0.693c0.162 0.402 0.256 0.868 0.256 1.357s-0.094 0.955-0.265 1.382l0.009-0.025-2.133-0.695c0.090-0.195 0.143-0.422 0.143-0.662s-0.053-0.468-0.147-0.672l0.004 0.010z"></path>
<path fill="#231f20" d="M2.317 15.068h2.054c0.090 0.195 0.143 0.422 0.143 0.662s-0.053 0.468-0.147 0.672l0.004-0.010h-2.054c0.062-0.197 0.098-0.423 0.098-0.658 0-0.001 0-0.001 0-0.002v0c0-0.001 0-0.002 0-0.003 0-0.236-0.036-0.464-0.102-0.679l0.004 0.016z"></path>
<path fill="#231f20" d="M0.832 15.45l1.493-0.382c0.062 0.198 0.098 0.426 0.098 0.663 0 0.001 0 0.002 0 0.003v-0c0 0 0 0.001 0 0.002 0 0.235-0.036 0.461-0.102 0.674l0.004-0.016-1.493-0.393c0.023-0.081 0.036-0.174 0.036-0.27 0-0.001 0-0.002 0-0.004v0c0-0.002 0-0.004 0-0.006 0-0.099-0.013-0.194-0.038-0.285l0.002 0.008z"></path>
<path fill="#231f20" d="M7.691 15.533h18.987c0.079 0.009 0.14 0.076 0.14 0.157s-0.061 0.147-0.139 0.157l-0.001 0h-18.987c-0.070-0.019-0.121-0.082-0.121-0.157s0.051-0.138 0.12-0.157l0.001-0z"></path>
<path fill="#231f20" d="M31.253 16.591h0.657v1.235h-1.404l-1.596-0.738h2.223c0.043-0.133 0.084-0.3 0.116-0.471l0.004-0.026z"></path>
<path fill="#231f20" d="M27.834 16.591h3.413c-0.038 0.198-0.081 0.365-0.134 0.527l0.009-0.030h-2.217z"></path>
<path fill="#231f20" d="M0.256 15.599l0.576-0.149c0.023 0.083 0.036 0.179 0.036 0.278 0 0.002 0 0.004-0 0.006v-0c-0 0.095-0.013 0.187-0.038 0.274l0.002-0.007-0.576-0.147c-0.055-0.019-0.094-0.071-0.094-0.131 0-0.002 0-0.004 0-0.006v0c0.005-0.055 0.042-0.101 0.093-0.117l0.001-0z"></path>
<path fill="#231f20" d="M30.579 13.692h1.412v1.235h-4.077l2.665-1.235z"></path>
<path fill="#231f20" d="M27.915 16.591h4.077v1.235h-1.412l-2.665-1.235z"></path>
<path fill="#fff" d="M7.723 15.541h18.963c0.081 0 0.147 0.066 0.147 0.147v-0.002c0 0.081-0.066 0.147-0.147 0.147h-18.963c-0.081 0-0.147-0.066-0.147-0.147v0.002c0-0.081 0.066-0.147 0.147-0.147z"></path>
</svg>
