<!-- Generated by IcoMoon.io -->
<svg version="1.1" xmlns="http://www.w3.org/2000/svg" width="32" height="32" viewBox="0 0 32 32">
<title>simorgh</title>
<path fill="#000" d="M12.205 17.532v-3.061h19.191v3.061h-19.191z"></path>
<path fill="#fff" d="M31.437 17.57h-19.277v-3.14h19.273zM12.237 17.489h19.123v-2.982h-19.117z"></path>
<path fill="#000" d="M1.359 16.806v-1.611h9.050v1.611h-9.050z"></path>
<path fill="#fff" d="M10.453 16.853h-9.135v-1.707h9.135zM1.399 16.766h8.96v-1.532h-8.96z"></path>
<path fill="#000" d="M10.409 16.806v-1.613l1.794-0.723v3.059l-1.794-0.723z"></path>
<path fill="#fff" d="M12.243 17.589l-1.875-0.757v-1.664l1.875-0.757zM10.453 16.779l1.707 0.691v-2.94l-1.707 0.691z"></path>
<path fill="#000" d="M0.427 16.337l0.894 0.465c0.002 0.001 0.004 0.002 0.007 0.002 0.007 0 0.013-0.006 0.013-0.013 0-0.001-0-0.001-0-0.002v0-1.598l-0.913 0.471c-0.123 0.065-0.205 0.191-0.205 0.337s0.082 0.272 0.203 0.336l0.002 0.001z"></path>
<path fill="#fff" d="M1.325 16.853c-0.004 0.001-0.008 0.001-0.013 0.001s-0.009-0.001-0.013-0.002l0 0-0.892-0.48c-0.132-0.074-0.22-0.213-0.22-0.373s0.088-0.299 0.218-0.372l0.93-0.481 0.043 0.023v1.621c0 0 0 0.001 0 0.001 0 0.019-0.010 0.036-0.025 0.045l-0 0c-0.008 0.007-0.017 0.012-0.027 0.015l-0 0zM0.444 16.301l0.853 0.446v-1.493l-0.853 0.446c-0.109 0.058-0.182 0.171-0.182 0.301s0.073 0.243 0.181 0.3l0.002 0.001z"></path>
<path fill="#000" d="M31.959 14.47v-0.725h-0.905l-1.423 0.725h2.327z"></path>
<path fill="#fff" d="M32 14.507h-2.537l1.583-0.806h0.954zM29.801 14.426h2.118v-0.64h-0.853z"></path>
<path fill="#000" d="M31.959 17.53v0.725h-0.905l-1.423-0.725h2.327z"></path>
<path fill="#fff" d="M32 18.295h-0.954l-1.583-0.802h2.537zM31.066 18.214h0.853v-0.64h-2.118z"></path>
<path fill="#000" d="M29.553 16.062v-0.107h2.409v0.107h-2.409z"></path>
<path fill="#fff" d="M32 16.102h-2.487v-0.188h2.487zM29.591 16.021h2.327v-0.021h-2.327z"></path>
<path fill="#fff" d="M28.474 14.515h0.081v2.972h-0.081v-2.972z"></path>
<path fill="#fff" d="M2.643 15.223h0.081v1.553h-0.081v-1.553z"></path>
</svg>
