<!-- Generated by IcoMoon.io -->
<svg version="1.1" xmlns="http://www.w3.org/2000/svg" width="32" height="32" viewBox="0 0 32 32">
<title>teapodong2</title>
<path fill="#000" d="M31.97 11.797h-1.662l-0.706 0.853h-14.857l-1.692 0.375h-12.096l-0.71 0.213c-0.13 0.065-0.218 0.196-0.218 0.349s0.088 0.284 0.215 0.348l0.002 0.001 0.71 0.213h12.096l1.692 0.382h14.857l0.706 0.853h1.662v-0.853h-0.412c0.076-0.252 0.119-0.542 0.119-0.841 0-0.038-0.001-0.076-0.002-0.113l0 0.005c0.001-0.034 0.002-0.073 0.002-0.113 0-0.299-0.044-0.587-0.125-0.86l0.005 0.021h0.412z"></path>
<path fill="#000" d="M0.247 13.246c-0.13 0.065-0.218 0.196-0.218 0.349s0.088 0.284 0.215 0.348l0.002 0.001c0.035-0.1 0.056-0.215 0.056-0.335 0-0.005-0-0.009-0-0.014v0.001c0-0.002 0-0.004 0-0.007 0-0.123-0.020-0.241-0.058-0.351l0.002 0.008z"></path>
<path fill="#fff" d="M0.958 14.167h0.019c0.052-0.17 0.085-0.366 0.090-0.569l0-0.003c0-0 0-0.001 0-0.002 0-0.203-0.029-0.399-0.083-0.585l0.004 0.015h-0.030c0.051 0.167 0.081 0.359 0.081 0.557 0 0.005-0 0.010-0 0.015v-0.001c0 0.003 0 0.006 0 0.009 0 0.201-0.030 0.394-0.085 0.577l0.004-0.014z"></path>
<path fill="#fff" d="M1.92 14.167h0.158c0.049-0.171 0.078-0.368 0.079-0.571v-0.001c0-0 0-0.001 0-0.002 0-0.203-0.029-0.399-0.083-0.585l0.004 0.015h-0.158c0.050 0.167 0.079 0.359 0.079 0.557 0 0.005-0 0.010-0 0.016v-0.001c0 0.003 0 0.006 0 0.009 0 0.2-0.029 0.394-0.083 0.577l0.004-0.014z"></path>
<path fill="#fff" d="M6.944 14.167h0.158c0.049-0.171 0.078-0.368 0.079-0.571v-0.001c0-0 0-0.001 0-0.002 0-0.203-0.029-0.399-0.083-0.585l0.004 0.015h-0.158c0.050 0.167 0.079 0.359 0.079 0.557 0 0.005-0 0.010-0 0.016v-0.001c0 0.003 0 0.006 0 0.009 0 0.2-0.029 0.394-0.083 0.577l0.004-0.014z"></path>
<path fill="#fff" d="M13.037 14.167h0.019c0.049-0.171 0.078-0.368 0.079-0.571v-0.001c0-0 0-0.001 0-0.002 0-0.203-0.029-0.399-0.083-0.585l0.004 0.015h-0.019c0.050 0.167 0.079 0.359 0.079 0.557 0 0.005-0 0.010-0 0.016v-0.001c0 0.003 0 0.006 0 0.009 0 0.2-0.029 0.394-0.083 0.577l0.004-0.014z"></path>
<path fill="#fff" d="M14.758 14.554h0.16c0.084-0.285 0.133-0.613 0.134-0.953v-0.001c-0-0.339-0.049-0.666-0.141-0.976l0.006 0.024h-0.16c0.087 0.277 0.137 0.596 0.137 0.927 0 0.009-0 0.017-0 0.026v-0.001c0 0.005 0 0.012 0 0.018 0 0.334-0.050 0.656-0.143 0.959l0.006-0.023z"></path>
<path fill="#fff" d="M28.399 14.549h0.158c0.084-0.284 0.133-0.611 0.134-0.948v-0.001c-0-0.339-0.049-0.666-0.141-0.976l0.006 0.024h-0.158c0.085 0.285 0.134 0.612 0.134 0.95s-0.049 0.666-0.141 0.975l0.006-0.024z"></path>
<path fill="#000" d="M29.773 13.6c0.277 0.041 0.597 0.064 0.923 0.064 0.056 0 0.111-0.001 0.167-0.002l-0.008 0c0.042 0.001 0.092 0.001 0.142 0.001 0.343 0 0.681-0.023 1.012-0.067l-0.039 0.004c-0.277-0.043-0.597-0.067-0.922-0.067-0.072 0-0.143 0.001-0.214 0.004l0.010-0c-0.067-0.003-0.145-0.005-0.224-0.005-0.299 0-0.592 0.025-0.878 0.073l0.031-0.004z"></path>
</svg>
