<!-- Generated by IcoMoon.io -->
<svg version="1.1" xmlns="http://www.w3.org/2000/svg" width="32" height="32" viewBox="0 0 32 32">
<title>teapodong2</title>
<path fill="#000" d="M31.97 11.797h-1.662l-0.706 0.853h-14.857l-1.692 0.375h-12.096l-0.71 0.213c-0.13 0.065-0.218 0.196-0.218 0.349s0.088 0.284 0.215 0.348l0.002 0.001 0.71 0.213h12.096l1.692 0.382h14.857l0.706 0.853h1.662v-0.853h-0.412c0.076-0.252 0.119-0.542 0.119-0.841 0-0.038-0.001-0.076-0.002-0.113l0 0.005c0.001-0.034 0.002-0.073 0.002-0.113 0-0.299-0.044-0.587-0.125-0.86l0.005 0.021h0.412z"></path>
<path fill="#000" d="M0.247 13.246c-0.13 0.065-0.218 0.196-0.218 0.349s0.088 0.284 0.215 0.348l0.002 0.001c0.035-0.1 0.056-0.215 0.056-0.335 0-0.005-0-0.009-0-0.014v0.001c0-0.002 0-0.004 0-0.007 0-0.123-0.020-0.241-0.058-0.351l0.002 0.008z"></path>
<path fill="#fff" d="M0.258 13.973h-0.021c-0.136-0.069-0.227-0.208-0.227-0.368s0.091-0.299 0.225-0.367l0.002-0.001h0.021v0.021c0.037 0.105 0.058 0.226 0.058 0.352 0 0.002 0 0.005-0 0.007v-0c0 0.004 0 0.008 0 0.013 0 0.123-0.021 0.241-0.060 0.351l0.002-0.007zM0.235 13.278c-0.107 0.068-0.178 0.184-0.183 0.317l-0 0.001c0.005 0.134 0.077 0.249 0.184 0.315l0.002 0.001c0.028-0.093 0.045-0.199 0.045-0.309 0-0.002 0-0.004-0-0.007v0c0-0.002 0-0.005 0-0.008 0-0.11-0.017-0.217-0.049-0.317l0.002 0.007z"></path>
<path fill="#fff" d="M0.958 14.167h0.019c0.052-0.17 0.085-0.366 0.090-0.569l0-0.003c0-0 0-0.001 0-0.002 0-0.203-0.029-0.399-0.083-0.585l0.004 0.015h-0.030c0.051 0.167 0.081 0.359 0.081 0.557 0 0.005-0 0.010-0 0.015v-0.001c0 0.003 0 0.006 0 0.009 0 0.201-0.030 0.394-0.085 0.577l0.004-0.014z"></path>
<path fill="#fff" d="M1.92 14.167h0.158c0.049-0.171 0.078-0.368 0.079-0.571v-0.001c0-0 0-0.001 0-0.002 0-0.203-0.029-0.399-0.083-0.585l0.004 0.015h-0.158c0.050 0.167 0.079 0.359 0.079 0.557 0 0.005-0 0.010-0 0.016v-0.001c0 0.003 0 0.006 0 0.009 0 0.2-0.029 0.394-0.083 0.577l0.004-0.014z"></path>
<path fill="#fff" d="M6.944 14.167h0.158c0.049-0.171 0.078-0.368 0.079-0.571v-0.001c0-0 0-0.001 0-0.002 0-0.203-0.029-0.399-0.083-0.585l0.004 0.015h-0.158c0.050 0.167 0.079 0.359 0.079 0.557 0 0.005-0 0.010-0 0.016v-0.001c0 0.003 0 0.006 0 0.009 0 0.2-0.029 0.394-0.083 0.577l0.004-0.014z"></path>
<path fill="#fff" d="M13.037 14.167h0.019c0.049-0.171 0.078-0.368 0.079-0.571v-0.001c0-0 0-0.001 0-0.002 0-0.203-0.029-0.399-0.083-0.585l0.004 0.015h-0.019c0.050 0.167 0.079 0.359 0.079 0.557 0 0.005-0 0.010-0 0.016v-0.001c0 0.003 0 0.006 0 0.009 0 0.2-0.029 0.394-0.083 0.577l0.004-0.014z"></path>
<path fill="#fff" d="M14.758 14.554h0.16c0.084-0.285 0.133-0.613 0.134-0.953v-0.001c-0-0.339-0.049-0.666-0.141-0.976l0.006 0.024h-0.16c0.087 0.277 0.137 0.596 0.137 0.927 0 0.009-0 0.017-0 0.026v-0.001c0 0.005 0 0.012 0 0.018 0 0.334-0.050 0.656-0.143 0.959l0.006-0.023z"></path>
<path fill="#fff" d="M28.399 14.549h0.158c0.084-0.284 0.133-0.611 0.134-0.948v-0.001c-0-0.339-0.049-0.666-0.141-0.976l0.006 0.024h-0.158c0.085 0.285 0.134 0.612 0.134 0.95s-0.049 0.666-0.141 0.975l0.006-0.024z"></path>
<path fill="#000" d="M29.773 13.6c0.277 0.041 0.597 0.064 0.923 0.064 0.056 0 0.111-0.001 0.167-0.002l-0.008 0c0.042 0.001 0.092 0.001 0.142 0.001 0.343 0 0.681-0.023 1.012-0.067l-0.039 0.004c-0.277-0.043-0.597-0.067-0.922-0.067-0.072 0-0.143 0.001-0.214 0.004l0.010-0c-0.067-0.003-0.145-0.005-0.224-0.005-0.299 0-0.592 0.025-0.878 0.073l0.031-0.004z"></path>
<path fill="#fff" d="M30.854 13.677c-0.045 0.001-0.097 0.002-0.15 0.002-0.329 0-0.653-0.023-0.97-0.068l0.036 0.004-0.073-0.013 0.070-0.019c0.255-0.042 0.55-0.066 0.85-0.066 0.076 0 0.152 0.002 0.228 0.005l-0.011-0c0.057-0.002 0.124-0.003 0.192-0.003 0.331 0 0.657 0.023 0.975 0.069l-0.037-0.004 0.081 0.017-0.083 0.015c-0.295 0.040-0.637 0.063-0.984 0.063-0.044 0-0.088-0-0.132-0.001l0.007 0zM29.877 13.598c0.263 0.030 0.567 0.048 0.876 0.048 0.036 0 0.071-0 0.106-0.001l-0.005 0c0.026 0 0.057 0 0.089 0 0.321 0 0.638-0.017 0.951-0.051l-0.039 0.003c-0.273-0.029-0.589-0.045-0.909-0.045-0.036 0-0.072 0-0.108 0.001l0.005-0c-0.041-0.001-0.089-0.001-0.138-0.001-0.292 0-0.58 0.017-0.863 0.049l0.035-0.003z"></path>
</svg>
