<svg id="Layer_1" data-name="Layer 1" xmlns="http://www.w3.org/2000/svg" viewBox="0 0 150 150"><defs><style>.cls-1{fill:#231f20;}.cls-2{fill:#fff;}.cls-3{fill:#d39ca5;}</style></defs><title>Missile</title><path class="cls-1" d="M138.73,82.42l4,.09-1.11-3.6-2-3.14-8.57,1c-.15,0-1.52.47-1.52.47Z"/><rect class="cls-1" x="140.82" y="85.87" width="3.75" height="2.56"/><rect class="cls-1" x="136.75" y="82" width="10.37" height="2.42" rx="1.2"/><polygon class="cls-1" points="31.81 82.71 33.66 89.33 34.52 89.42 37.79 83.34 34.29 77 33.55 77.11 31.81 82.71"/><path class="cls-2" d="M34.56,89.49l-1-.1-1.87-6.68v0l1.75-5.64.83-.12,3.54,6.41Zm-.84-.23.76.08,3.24-6-3.46-6.26-.66.09-1.72,5.54Z"/><rect class="cls-3" x="135" y="80.48" width="0.15" height="0.07"/><rect class="cls-2" x="134.93" y="80.41" width="0.28" height="0.21"/><rect class="cls-3" x="144.26" y="83.2" width="0.06" height="0.03"/><rect class="cls-2" x="144.19" y="83.14" width="0.19" height="0.16"/><polygon class="cls-1" points="146.44 76.98 144.53 78.75 144.5 80.55 139.58 80.55 139.58 76.05 146.44 76.98"/><g id="path290"><path class="cls-1" d="M130.13,77l8.81-5.26h7.5V77H34a11.7,11.7,0,0,1,0,12.4H140.92a11.63,11.63,0,0,0,1.77-5.9"/><path class="cls-2" d="M141,89.48H33.86l.06-.1a11.72,11.72,0,0,0,0-12.34l-.06-.1h96.25l8.81-5.25h7.59v5.39H34.1a11.84,11.84,0,0,1,0,12.26H140.88a11.58,11.58,0,0,0,1.74-5.84h.14A11.7,11.7,0,0,1,141,89.45ZM130.38,76.94h16V71.82H139Z"/></g><g id="path292"><path class="cls-1" d="M146.44,89.41v5.26h-7.5l-8.81-5.26"/><polygon class="cls-2" points="146.51 94.73 138.92 94.73 138.9 94.72 130.09 89.47 130.16 89.35 138.96 94.6 146.37 94.6 146.37 89.41 146.51 89.41 146.51 94.73"/></g><g id="path288"><path class="cls-1" d="M147.31,83.51V84a.47.47,0,0,1-.48.47h-4.21"/><path class="cls-2" d="M146.83,84.57h-4.21v-.14h4.21a.4.4,0,0,0,.41-.4v-.52h.14V84A.54.54,0,0,1,146.83,84.57Z"/></g><g id="path294"><path class="cls-1" d="M147.31,82.91v-.52a.47.47,0,0,0-.48-.47h-4.21"/><path class="cls-2" d="M147.38,82.91h-.14v-.52a.4.4,0,0,0-.41-.4h-4.21v-.14h4.21a.54.54,0,0,1,.55.54Z"/></g><g id="path296"><path class="cls-1" d="M149.09,82.91v.6H133l-1.1-.3,1.1-.3Z"/><path class="cls-2" d="M149.16,83.57H133l-1.35-.36,1.37-.36h16.15ZM133,83.44h16V83H133l-.85.23Z"/></g><g id="path298"><path class="cls-1" d="M146.44,77l-1.78,1.77v1.81H142.4"/><polygon class="cls-2" points="144.73 80.66 142.4 80.66 142.4 80.52 144.6 80.52 144.6 78.75 146.39 76.96 146.49 77.06 144.73 78.81 144.73 80.66"/></g><g id="path300"><path class="cls-1" d="M140.92,89.41h5.52l-1.78-1.77h-2.83"/><polygon class="cls-2" points="146.6 89.48 140.92 89.48 140.92 89.34 146.28 89.34 144.64 87.7 141.83 87.7 141.83 87.57 144.69 87.57 146.6 89.48"/></g><g id="path302"><path class="cls-1" d="M144.66,87.64V85.83H142.4"/><polygon class="cls-2" points="144.73 87.64 144.6 87.64 144.6 85.9 142.4 85.9 142.4 85.76 144.73 85.76 144.73 87.64"/></g><g id="path304"><rect class="cls-2" x="142.15" y="82.91" width="0.14" height="0.59"/></g><g id="path306"><path class="cls-1" d="M142.69,82.91a11.63,11.63,0,0,0-1.77-5.9"/><path class="cls-2" d="M142.62,82.92A11.68,11.68,0,0,0,140.86,77L141,77a11.7,11.7,0,0,1,1.79,5.94Z"/></g><g id="path308"><rect class="cls-2" x="141.83" y="78.71" width="2.84" height="0.14"/></g><g id="path310"><path class="cls-1" d="M34,77l-6.92,1.77-12.74.44-13,3.41a.61.61,0,0,0-.43.73.62.62,0,0,0,.43.43l13,3.41,12.74.44L34,89.41"/><path class="cls-2" d="M34,89.48l-6.91-1.77-12.74-.44h0l-13-3.41a.66.66,0,0,1-.4-1,.61.61,0,0,1,.4-.3l13-3.42,12.74-.44L34,76.94l0,.13-6.94,1.78-12.73.44L1.38,82.7a.51.51,0,0,0-.33.24.52.52,0,0,0-.05.4.52.52,0,0,0,.38.38l13,3.41,12.74.44h0L34,89.35Z"/></g><g id="path312"><path class="cls-3" d="M27.06,87.64a8.33,8.33,0,0,0,0-8.86"/><path class="cls-2" d="M27.12,87.68,27,87.61a8.35,8.35,0,0,0,0-8.8l.12-.07A8.52,8.52,0,0,1,27.12,87.68Z"/></g><g id="path314"><path class="cls-3" d="M14.32,87.2a7.51,7.51,0,0,0,0-8"/><path class="cls-2" d="M14.38,87.23l-.12-.07a7.5,7.5,0,0,0,0-7.9l.12-.07A7.62,7.62,0,0,1,14.38,87.23Z"/></g><g id="path316"><path class="cls-3" d="M25.6,78.83v-1.2L21.8,79"/><polygon class="cls-2" points="21.83 79.03 21.78 78.9 25.67 77.53 25.67 78.83 25.53 78.83 25.53 77.72 21.83 79.03"/></g><g id="path318"><path class="cls-3" d="M26.86,83.51H24.13L23,83.21l1.11-.3h2.73Z"/><path class="cls-2" d="M26.93,83.57H24.11l-1.35-.36,1.37-.36h2.8Zm-2.79-.13h2.65V83H24.14l-.85.23Z"/></g><g id="path320"><path class="cls-3" d="M25.6,87.59v1.2l-3.8-1.33"/><polygon class="cls-2" points="25.67 88.89 21.78 87.52 21.83 87.39 25.53 88.7 25.53 87.59 25.67 87.59 25.67 88.89"/></g><g id="path348"><rect class="cls-2" x="39.75" y="82.93" width="82.23" height="0.14"/></g><g id="path310-2" data-name="path310"><path class="cls-1" d="M27.06,78.68l-12.74.44-13,3.41a.61.61,0,0,0-.43.73.62.62,0,0,0,.43.43l13,3.41,12.74.44"/><path class="cls-2" d="M27.06,87.61l-12.75-.44h0l-13-3.41a.66.66,0,0,1,0-1.28l13-3.42,12.75-.44v.14l-12.73.44L1.38,82.6a.51.51,0,0,0-.38.64.52.52,0,0,0,.38.38l13,3.41,12.73.44Z"/></g><g id="path312-2" data-name="path312"><path class="cls-1" d="M27.06,87.54a8.33,8.33,0,0,0,0-8.86"/><path class="cls-2" d="M27.12,87.58,27,87.51a8.35,8.35,0,0,0,0-8.8l.12-.07A8.52,8.52,0,0,1,27.12,87.58Z"/></g><g id="path314-2" data-name="path314"><path class="cls-1" d="M14.32,87.1a7.51,7.51,0,0,0,0-8"/><path class="cls-2" d="M14.38,87.13l-.12-.07a7.5,7.5,0,0,0,0-7.9l.12-.07A7.62,7.62,0,0,1,14.38,87.13Z"/></g><g id="path316-2" data-name="path316"><path class="cls-1" d="M25.6,78.73v-1.2l-3.8,1.33"/><polygon class="cls-2" points="21.83 78.92 21.78 78.8 25.67 77.43 25.67 78.73 25.53 78.73 25.53 77.62 21.83 78.92"/></g><g id="path318-2" data-name="path318"><path class="cls-1" d="M26.86,83.41H24.13L23,83.11l1.11-.3h2.73Z"/><path class="cls-2" d="M26.93,83.47H24.11l-1.35-.36,1.37-.36h2.8Zm-2.79-.13h2.65v-.46H24.14l-.85.23Z"/></g><g id="path320-2" data-name="path320"><path class="cls-1" d="M25.6,87.49v1.2l-3.8-1.33"/><polygon class="cls-2" points="25.67 88.79 21.78 87.42 21.83 87.3 25.53 88.6 25.53 87.49 25.67 87.49 25.67 88.79"/></g></svg>