<svg xmlns="http://www.w3.org/2000/svg" viewBox="0 0 150 150"><defs><style>.cls-1{fill:#231f20;}.cls-2{fill:#fff;}</style></defs><title>Missile</title><g id="Layer_2" data-name="Layer 2"><path class="cls-1" d="M129.16,80.62a89,89,0,0,1,18.84,0,89,89,0,0,1-18.84,0Z"/><path class="cls-1" d="M147,69.82h-5.66l-10.43,4.63H30.57V86.78H130.79l10.58,4.7H147V85.77h-2.45a19.69,19.69,0,0,0,.65-5.15,20.11,20.11,0,0,0-.63-5.09H147Z"/><path class="cls-1" d="M30.82,86.78,21,84.9,10.35,82.83l-7.73-1.5c-.31-.06-1.52-.21-1.52-.84s1.23-.73,1.52-.79L10,78.32l20.69-3.87a24.38,24.38,0,0,1,1,6.17A28.11,28.11,0,0,1,30.82,86.78Z"/><path class="cls-2" d="M30.91,86.93l-.11,0L21,85,10.33,83,2.5,81.43C2,81.35,1,81.17,1,80.49c0-.5.89-.77,1.63-.91L10,78.2l20.68-3.87.11,0,0,.1a24.57,24.57,0,0,1,1,6.21,28.15,28.15,0,0,1-.84,6.19Zm-.32-12.34L10,78.44,2.64,79.82c-.86.17-1.42.43-1.42.67,0,.47,1,.63,1.32.7h.1l7.73,1.51L21,84.78l9.71,1.86a28.41,28.41,0,0,0,.8-6A24,24,0,0,0,30.59,74.59Z"/><path class="cls-1" d="M2.3,81.33C2,81.27,1,81.12,1,80.49s1.08-.73,1.34-.79S2.57,81.39,2.3,81.33Z"/><path class="cls-2" d="M2.32,81.45h0l-.09,0c-.4-.08-1.35-.27-1.35-.94,0-.5.78-.77,1.44-.91a.19.19,0,0,1,.21.1,2.65,2.65,0,0,1,0,1.67A.2.2,0,0,1,2.32,81.45Zm0-.24Zm0-1.38c-.75.17-1.2.41-1.2.66,0,.47.84.63,1.15.7h0A2.65,2.65,0,0,0,2.29,79.83Z"/><path class="cls-1" d="M133.3,81s7.14.6,8.83.6a39.65,39.65,0,0,0,5-.6,44.43,44.43,0,0,0-5.11-.39C139.74,80.65,133.3,81,133.3,81Z"/><path class="cls-2" d="M142.13,81.77c-1.68,0-8.77-.6-8.84-.61v-.25c.06,0,6.47-.39,8.74-.39a46.24,46.24,0,0,1,5.13.39l.77.11-.76.14A39.15,39.15,0,0,1,142.13,81.77Zm-7-.71c2.24.18,5.9.46,7,.46a31.55,31.55,0,0,0,4.15-.46,39.08,39.08,0,0,0-4.25-.29C140.52,80.77,137.18,81,135.09,81.06Z"/><path class="cls-2" d="M38.64,74.26c-1,2.31,2.14,3.15,2.78,4.94.43,1.24-.16,2.53-.56,3.7a5.05,5.05,0,0,0-.25,3.36c.15.45.88.26.72-.2-.77-2.21,1.29-4.25,1-6.49a4.05,4.05,0,0,0-1.39-2.35c-.71-.61-2.1-1.44-1.61-2.58.19-.44-.45-.82-.64-.38Z"/><path class="cls-2" d="M51.21,74.72c-.17.47-.61,1.18-.51,1.7s.56.81.88,1.06a12.49,12.49,0,0,1,1.5,1.22c.4.45.74,1,1.15,1.39.87.91,1.82,1.59,2.05,2.91a4.45,4.45,0,0,1-.81,3.33c-.28.39.37.77.64.38a4.82,4.82,0,0,0-.14-6c-.44-.49-1-.89-1.4-1.39s-.73-1-1.16-1.37-1-.77-1.52-1.2a1.83,1.83,0,0,1-.33-.35c-.11-.18-.12-.16,0-.38.13-.38.28-.75.42-1.12s-.56-.65-.73-.2Z"/><path class="cls-2" d="M55.1,75c.86,1.17,2.3,1.88,2.95,3.2.33.66.13,1.35.32,2a1.55,1.55,0,0,0,1.28,1.11,2.45,2.45,0,0,0,1.7-.26,1.32,1.32,0,0,0,.49-.53,1.24,1.24,0,0,0,.09-.38c0-.25,0-.31.25-.35a1,1,0,0,0,.75-1.23c-.06-.37-.18-.61.12-.9a2.54,2.54,0,0,0,.53-.6,1.24,1.24,0,0,0-.77-1.63c-.34-.15-.7-.21-1-.34a3.23,3.23,0,0,1-1.12-.71c-.34-.34-.88.19-.53.53a4.23,4.23,0,0,0,1.45.91c.35.12,1.52.27,1.36.87,0,.19-.32.34-.45.47a1.28,1.28,0,0,0-.37.62,2,2,0,0,0,.06.8c0,.1.09.29,0,.39s-.24.08-.36.11a.82.82,0,0,0-.52.32c-.17.25-.05.53-.15.78-.17.45-1,.47-1.36.4-.72-.14-.75-.71-.76-1.34a3.26,3.26,0,0,0-.43-1.61c-.71-1.24-2-1.91-2.86-3-.28-.39-.93,0-.65.38Z"/><path class="cls-2" d="M63.85,86.53a7.21,7.21,0,0,1,.83-3.3c.25-.51.53-1,.82-1.5a3.66,3.66,0,0,1,1-1c.74-.61.43-1.82.36-2.64a14.47,14.47,0,0,1,0-3.48c.08-.47-.64-.67-.72-.2a13.74,13.74,0,0,0,0,3.45,15.66,15.66,0,0,1,.11,1.8c0,.55-.55.68-.88,1a10.76,10.76,0,0,0-1.53,2.73,7.29,7.29,0,0,0-.66,3.08.38.38,0,0,0,.75,0Z"/><path class="cls-2" d="M67.23,74.92a56.89,56.89,0,0,1,3.5,11.7c.09.48.81.27.72-.2A57,57,0,0,0,68,74.72c-.19-.44-.91-.25-.73.2Z"/><path class="cls-2" d="M76.71,83.59c0-.52-.39-.77-.72-1.12a1.57,1.57,0,0,1-.46-1.17c.07-.5,1-.3,1.26-.2s.8.52,1.25.68,1,.06,1.39.35a1.2,1.2,0,0,1,.47,1.21c-.08.53-.27,1-.3,1.56,0,.36.08,1.11-.37,1.27s-.26.89.19.73c1.11-.41.8-1.62,1-2.53a4.55,4.55,0,0,0,.22-1.55,1.87,1.87,0,0,0-.6-1.16,2.26,2.26,0,0,0-1.31-.5A1.9,1.9,0,0,1,78,81c-.22-.13-.41-.29-.64-.4-.73-.37-2.2-.61-2.55.4A1.89,1.89,0,0,0,75,82.4a2.43,2.43,0,0,0,.48.66c.14.14.43.31.44.53,0,.48.78.48.75,0Z"/><path class="cls-2" d="M76,83.47v1.07a6.27,6.27,0,0,0,0,1.06,1.55,1.55,0,0,0,1.2,1.25.39.39,0,0,0,.47-.26.38.38,0,0,0-.27-.46.84.84,0,0,1-.69-.85c0-.6,0-1.21,0-1.81a.38.38,0,0,0-.75,0Z"/><path class="cls-2" d="M82.76,74.77l.26,3a10.41,10.41,0,0,0,.28,2.3,1.81,1.81,0,0,0,1.19,1.11,4.65,4.65,0,0,1,1,.37,1.36,1.36,0,0,1,.49,1.07,12,12,0,0,0,.4,2.3A2.51,2.51,0,0,0,87.4,86.5a1.3,1.3,0,0,0,1.46-.32,2.56,2.56,0,0,0,.49-2.11c0-.48-.76-.49-.75,0a9.93,9.93,0,0,0,.4,2.6.38.38,0,0,0,.73-.2,8.91,8.91,0,0,1-.38-2.4H88.6c0,.53.09,2-.83,1.75-.57-.16-.77-1.25-.88-1.74-.23-1,0-2.32-.86-3a3.42,3.42,0,0,0-1.13-.52,1.28,1.28,0,0,1-1-1.29c-.17-1.49-.27-3-.4-4.46,0-.47-.79-.48-.75,0Z"/><path class="cls-2" d="M94.52,74.82c-.12,1.56-.17,3.12-.17,4.69a.38.38,0,0,0,.47.36c.32-.13.31,1.35.31,1.52A9,9,0,0,1,95,83.18a9.9,9.9,0,0,1-1.21,3.15.38.38,0,0,0,.65.38,10.64,10.64,0,0,0,1.45-4.52c.06-.72.29-3.62-1.22-3l.48.37c0-1.57.05-3.13.17-4.69,0-.49-.71-.48-.75,0Z"/><path class="cls-2" d="M100.4,74.87a4.26,4.26,0,0,0,1.37,2.33,2.72,2.72,0,0,1,.86,1.37,3,3,0,0,1,0,1.86,10.51,10.51,0,0,0-.65,1.3,5.54,5.54,0,0,0-.27,1.45,12.66,12.66,0,0,0,.38,3.41c.09.47.81.27.72-.2a10.5,10.5,0,0,1-.3-3.7,4.53,4.53,0,0,1,.57-1.55,2.81,2.81,0,0,0,.45-1.31,4.2,4.2,0,0,0-.73-2.63c-.3-.38-.7-.67-1-1a3.11,3.11,0,0,1-.66-1.48c-.09-.48-.81-.27-.73.2Z"/><path class="cls-2" d="M111,74.89a21.19,21.19,0,0,1,1,11.5c-.09.48.63.68.72.2a22,22,0,0,0-1-11.9c-.17-.45-.9-.25-.73.2Z"/><path class="cls-2" d="M120.15,79.86a2.87,2.87,0,0,1-.05-1.27c.11-.42.51-.68.65-1.1a11.19,11.19,0,0,1,.31-1.27,5.93,5.93,0,0,1,.82-1.16c.31-.37-.21-.9-.53-.53a6.81,6.81,0,0,0-.92,1.28,3.34,3.34,0,0,0-.26.71,4.76,4.76,0,0,1-.14.77,2.44,2.44,0,0,1-.41.56,2,2,0,0,0-.27.66,4.26,4.26,0,0,0,.07,1.55c.09.47.81.27.73-.2Z"/><path class="cls-2" d="M124.44,74.92c.23.73,0,1.52.34,2.23a4.25,4.25,0,0,0,1.3,1.37c1.28,1,2.49,1.91,2.94,3.54a4.63,4.63,0,0,1,.26,2.38,1.8,1.8,0,0,1-2.21,1c-1.61-.76-3.16-1.74-4.72-2.6a.38.38,0,0,0-.46.06,1.36,1.36,0,0,1-2.22-.15c-.3-.5-.54-2.22.29-2.33.47-.07.27-.8-.2-.73-1.42.21-1.27,2.53-.74,3.44a2.11,2.11,0,0,0,3.4.3l-.45,0L124.78,85l1.5.83a3.29,3.29,0,0,0,1,.44,2.87,2.87,0,0,0,2.16-.79,2.3,2.3,0,0,0,.58-2A6.65,6.65,0,0,0,127.84,79c-.64-.55-1.4-1-2-1.61-.74-.76-.38-1.71-.67-2.63-.15-.46-.87-.27-.73.2Z"/><path class="cls-2" d="M132.17,74.82a1.13,1.13,0,0,0,.67,1.17l.18.07c0,.09-.12.22-.17.26a2.17,2.17,0,0,0-.48.57,1.65,1.65,0,0,0,.16,1.35,1.5,1.5,0,0,1,.1.62.63.63,0,0,0,.38.62,1.5,1.5,0,0,0,.73,0l.94-.11c.53-.07,1.06-.14,1.58-.26a5.3,5.3,0,0,0,1.44-.58c.4-.25.9-.61.73-1.14-.1-.29-.29-.43-.25-.76s.18-.63.21-1a1,1,0,0,0-.94-1.21c-.49,0-.49.73,0,.75s.09.86.05,1.05a1.49,1.49,0,0,0,.13,1.22s.07.08.08.12,0,0,0,0-.15.14-.21.18a3,3,0,0,1-.55.32,4.66,4.66,0,0,1-1.15.36c-.41.09-.84.14-1.26.2l-.74.09-.38,0h-.1c-.07,0,0,0,.06.08v-.07c.1-.35-.15-.77-.26-1.08a.75.75,0,0,1-.09-.46c.05-.16.24-.28.35-.39a1,1,0,0,0,.27-1.2c-.24-.37-.81-.3-.73-.84a.38.38,0,0,0-.38-.37.38.38,0,0,0-.37.37Z"/></g></svg>