<svg id="Layer_1" data-name="Layer 1" xmlns="http://www.w3.org/2000/svg" viewBox="0 0 150 150"><defs><style>.cls-1{fill:#231f20;}.cls-2{fill:#fff;}</style></defs><title>hwasong9</title><polygon class="cls-1" points="139.96 71.01 148.18 71.01 148.18 78.26 144.27 78.26 133.28 78.26 139.96 71.05 139.96 71.01"/><path class="cls-2" d="M148.43,78.51H132.71l7-7.56V70.8l.25,0h8.47ZM133.86,78h14.07V71.26H140.1Z"/><path class="cls-1" d="M133.29,78.26h11a19.76,19.76,0,0,1,0,9.9H23.34L7,84.74a4.69,4.69,0,0,0,.25-1.52A4.84,4.84,0,0,0,7,81.68l16.31-3.42h110Z"/><path class="cls-2" d="M144.47,88.41H23.34L6.7,84.93l.09-.27A4.4,4.4,0,0,0,7,83.22a4.51,4.51,0,0,0-.24-1.46l-.09-.27L23.29,78H144.47l.05.19a20.24,20.24,0,0,1,0,10ZM7.35,84.55l16,3.36H144.08a19.66,19.66,0,0,0,0-9.4H23.34l-16,3.36a5.05,5.05,0,0,1,.18,1.35A5,5,0,0,1,7.35,84.55Z"/><path class="cls-1" d="M.07,83.14l7-1.46a4.84,4.84,0,0,1,.25,1.54A4.69,4.69,0,0,1,7,84.74L0,83.28Z"/><path class="cls-2" d="M7.19,85-.24,83.48l.09-.55L7.2,81.39l.07.21a5.18,5.18,0,0,1,.26,1.62,4.8,4.8,0,0,1-.27,1.6ZM.94,83.21l5.92,1.24A4.62,4.62,0,0,0,7,83.22,4.34,4.34,0,0,0,6.86,82Z"/><polygon class="cls-1" points="144.27 88.16 148.18 88.16 148.18 95.41 139.96 95.41 139.96 95.38 133.28 88.16 144.27 88.16"/><path class="cls-2" d="M148.43,95.66h-8.72v-.19l-7-7.56h15.72Zm-8.33-.5h7.83V88.41H133.86Z"/><path class="cls-2" d="M35.21,85.59h85.67a.78.78,0,0,0,0-1.56H35.21a.78.78,0,0,0,0,1.56Z"/><path class="cls-2" d="M23.58,88.22l-.48-.12a20.9,20.9,0,0,0,0-9.78l.48-.12a20.62,20.62,0,0,1,.6,5.07A20.57,20.57,0,0,1,23.58,88.22Z"/><path class="cls-1" d="M133.61,83.22a56.2,56.2,0,0,1,15,0,56.2,56.2,0,0,1-15,0Z"/></svg>