<svg id="Layer_1" data-name="Layer 1" xmlns="http://www.w3.org/2000/svg" viewBox="0 0 150 150"><defs><style>.cls-1{fill:#231f20;}.cls-2{fill:#fff;}.cls-3{fill:#c3beb1;}</style></defs><path class="cls-1" d="M139.18,72.44h9.4V77.5h-2.5l-.45-.93H132.42Z"/><path class="cls-1" d="M132.42,76.57h13.21l.45.93h-15.2Z"/><path class="cls-1" d="M47.87,82a.63.63,0,0,0-.69.52c0,.27.46.64,1.11.57h76.27c.46,0,.84-.15.83-.57s-.28-.5-.62-.52a.74.74,0,0,0-.21,0H48.29A1.48,1.48,0,0,0,47.87,82ZM34.11,76.57h98.31l-1.54.93h15.2a11,11,0,0,1,.12,10H130.88l1.66,1H34.11a13.83,13.83,0,0,0,0-11.92Z"/><path class="cls-1" d="M9.79,79.57l24.32-3a13.83,13.83,0,0,1,0,11.92L9.71,85.43a9.34,9.34,0,0,0,.5-2.67A9.08,9.08,0,0,0,9.79,79.57Z"/><path class="cls-1" d="M4.74,81.22l5-1.65a9.08,9.08,0,0,1,.42,3.19,9.34,9.34,0,0,1-.5,2.67h0l-5-1.49v-.07A3,3,0,0,0,5,82.53,2.38,2.38,0,0,0,4.74,81.22Z"/><path class="cls-2" d="M9.8,85.55H9.66L4.54,84l.08-.2a2.88,2.88,0,0,0,.3-1.29,2.35,2.35,0,0,0-.29-1.25l-.07-.13L9.87,79.4v.12a9.45,9.45,0,0,1-.08,5.93ZM4.88,83.86l4.75,1.42a9.41,9.41,0,0,0,.46-2.52,9.23,9.23,0,0,0-.38-3L4.91,81.3a2.48,2.48,0,0,1,.26,1.23A3.22,3.22,0,0,1,4.88,83.86Z"/><path class="cls-1" d="M1.16,82.39l3.58-1.17A2.38,2.38,0,0,1,5,82.53a3.12,3.12,0,0,1-.3,1.34v.07L1.16,82.88A.33.33,0,0,1,1,82.63.31.31,0,0,1,1.16,82.39Z"/><path class="cls-2" d="M4.79,84.09,1.12,83a.44.44,0,0,1-.24-.37.38.38,0,0,1,.23-.35h0l3.68-1.2v.1a2.58,2.58,0,0,1,.32,1.36,3.23,3.23,0,0,1-.32,1.4ZM1.21,82.51a.13.13,0,0,0-.08.12.2.2,0,0,0,.09.14l3.42,1a2.87,2.87,0,0,0,.28-1.26,2.24,2.24,0,0,0-.25-1.16Z"/><path class="cls-3" d="M47.87,82a1.48,1.48,0,0,1,.42,0Z"/><path class="cls-3" d="M124.56,82a.74.74,0,0,1,.21,0Z"/><path class="cls-1" d="M146.2,87.48h2.38v5.06h-9.4l-6.64-4.05h13.09A9.05,9.05,0,0,0,146.2,87.48Z"/><path class="cls-1" d="M130.88,87.48H146.2a8.91,8.91,0,0,1-.57,1H132.54Z"/><path class="cls-2" d="M34.45,88.65l-.68-.32a13.47,13.47,0,0,0,0-11.6l.68-.33a14.64,14.64,0,0,1,1.38,6.07A14.34,14.34,0,0,1,34.45,88.65Z"/><rect class="cls-1" x="45.55" y="80.91" width="84.13" height="2.88"/></svg>