<svg id="Layer_1" data-name="Layer 1" xmlns="http://www.w3.org/2000/svg" viewBox="0 0 150 150"><defs><style>.cls-1{fill:#231f20;}.cls-2{fill:#fff;}.cls-3,.cls-4{fill:none;stroke:#fff;stroke-width:0.25px;}.cls-3{stroke-linecap:round;stroke-linejoin:round;}.cls-4{stroke-miterlimit:10;}</style></defs><title>MissileTree_outlines</title><path class="cls-1" d="M139.49,64.89H149V70h-2.52L146,69h-13.3Z"/><path class="cls-1" d="M132.69,69H146l.45.94H131.15Z"/><path class="cls-1" d="M126.85,81H33.75L9.19,78a9.73,9.73,0,0,0,.51-2.69,9.53,9.53,0,0,0-.43-3.21l24.48-3h98.94l-1.54.94h15.29a11,11,0,0,1,.12,10H131.15l1.67,1ZM128,75.73a.74.74,0,0,0,0-1.48H51.25a.74.74,0,1,0,0,1.48H128Z"/><path class="cls-1" d="M4.19,73.72l5.08-1.66a9.53,9.53,0,0,1,.43,3.21A9.73,9.73,0,0,1,9.19,78h0l-5-1.51,0-.06A3.06,3.06,0,0,0,4.49,75,2.49,2.49,0,0,0,4.19,73.72Z"/><path class="cls-1" d="M1.15,74.71l3-1A2.49,2.49,0,0,1,4.49,75a3.06,3.06,0,0,1-.3,1.35l0,.06-3-.91a.45.45,0,0,1,0-.83Z"/><path class="cls-1" d="M51.25,74.25H128a.74.74,0,0,1,0,1.48H51.23a.74.74,0,1,1,0-1.48Z"/><path class="cls-1" d="M146.56,80H149v5.09h-9.47L132.82,81H146A9.47,9.47,0,0,0,146.56,80Z"/><path class="cls-1" d="M131.15,80h15.41a9.47,9.47,0,0,1-.57,1H132.82Z"/><path class="cls-2" d="M146,69.16H33.75a.12.12,0,0,1-.13-.12.13.13,0,0,1,.13-.13H146a.12.12,0,0,1,.12.13A.12.12,0,0,1,146,69.16Z"/><path class="cls-2" d="M146,81.16H33.75a.12.12,0,0,1-.13-.12.13.13,0,0,1,.13-.13H146a.12.12,0,0,1,.12.13A.12.12,0,0,1,146,81.16Z"/><path class="cls-2" d="M33.75,81.16h0L9.17,78.08a.13.13,0,0,1-.11-.14.13.13,0,0,1,.14-.11l24.56,3.08a.12.12,0,0,1,.11.14A.12.12,0,0,1,33.75,81.16Z"/><path class="cls-2" d="M9.27,72.19a.13.13,0,0,1-.12-.11.12.12,0,0,1,.11-.14l24.47-3a.12.12,0,0,1,.14.11.12.12,0,0,1-.11.14l-24.47,3Z"/><path class="cls-1" d="M4.19,73.72l5.08-1.66a9.53,9.53,0,0,1,.43,3.21A9.73,9.73,0,0,1,9.19,78h0l-5-1.51,0-.06A3.06,3.06,0,0,0,4.49,75,2.49,2.49,0,0,0,4.19,73.72Z"/><path class="cls-1" d="M1.15,74.71l3-1A2.49,2.49,0,0,1,4.49,75a3.06,3.06,0,0,1-.3,1.35l0,.06-3-.91a.45.45,0,0,1,0-.83Z"/><polyline class="cls-3" points="9.18 77.95 4.17 76.45 1.15 75.54"/><polyline class="cls-3" points="9.27 72.06 4.19 73.72 1.15 74.71"/><path class="cls-3" d="M4.19,76.39A3.06,3.06,0,0,0,4.49,75a2.49,2.49,0,0,0-.3-1.32"/><path class="cls-3" d="M9.19,78a9.73,9.73,0,0,0,.51-2.69,9.53,9.53,0,0,0-.43-3.21"/><path class="cls-4" d="M1.15,74.71a.45.45,0,0,0,0,.83"/><polygon class="cls-1" points="139.5 64.89 148.96 64.89 148.96 69.98 131.15 69.98 139.5 64.89"/><polygon class="cls-1" points="131.15 80.02 148.96 80.02 148.96 85.11 139.5 85.11 131.15 80.02"/><line class="cls-3" x1="131.15" y1="69.98" x2="139.5" y2="64.89"/><line class="cls-3" x1="148.96" y1="64.89" x2="139.5" y2="64.89"/><line class="cls-3" x1="131.15" y1="69.98" x2="148.96" y2="69.98"/><line class="cls-3" x1="148.96" y1="64.89" x2="148.96" y2="69.98"/><line class="cls-3" x1="131.15" y1="80.02" x2="139.5" y2="85.11"/><line class="cls-3" x1="148.96" y1="85.11" x2="139.5" y2="85.11"/><line class="cls-3" x1="131.15" y1="80.02" x2="148.96" y2="80.02"/><line class="cls-3" x1="148.96" y1="85.11" x2="148.96" y2="80.02"/><path class="cls-2" d="M33.94,81.25h0a.13.13,0,0,1-.06-.17,13.86,13.86,0,0,0,0-11.89.13.13,0,0,1,.06-.17.15.15,0,0,1,.17.06,14.16,14.16,0,0,1,0,12.11A.13.13,0,0,1,33.94,81.25Z"/><polygon class="cls-1" points="48.02 68.31 124.78 68.31 128.75 69.79 44.05 69.79 48.02 68.31"/><polygon class="cls-1" points="44.05 80.33 128.75 80.33 124.78 81.81 48.02 81.81 44.05 80.33"/><line class="cls-3" x1="128.76" y1="69.79" x2="44.05" y2="69.79"/><line class="cls-3" x1="48.02" y1="68.32" x2="124.78" y2="68.32"/><line class="cls-3" x1="44.05" y1="69.79" x2="48.02" y2="68.32"/><line class="cls-3" x1="128.76" y1="69.79" x2="124.78" y2="68.32"/><line class="cls-3" x1="128.76" y1="80.33" x2="44.05" y2="80.33"/><line class="cls-3" x1="48.02" y1="81.81" x2="124.78" y2="81.81"/><line class="cls-3" x1="44.05" y1="80.33" x2="48.02" y2="81.81"/><line class="cls-3" x1="128.76" y1="80.33" x2="124.78" y2="81.81"/><rect class="cls-2" x="45.56" y="72.64" width="81.68" height="1.61" rx="0.77"/></svg>