<svg id="Layer_1" data-name="Layer 1" xmlns="http://www.w3.org/2000/svg" viewBox="0 0 150 150"><defs><style>.cls-1{fill:#231f20;}.cls-2{fill:#fff;}</style></defs><title>MissileTree_outlines</title><path class="cls-1" d="M142.12,61.26h6.61v5.79h-3a20.82,20.82,0,0,0-.64-2.59h-9.84Z"/><path class="cls-1" d="M135.22,64.46h9.84a20.82,20.82,0,0,1,.64,2.59H129.62Z"/><path class="cls-1" d="M124.21,71.36a.74.74,0,0,0,0-1.47h-89a.76.76,0,0,0,0,1.47Zm-94.52-6.9H135.22l-5.6,2.59H145.7a21,21,0,0,1,.33,3.59,20.65,20.65,0,0,1-.38,4.21h-16l5,2.33H29.69a17.44,17.44,0,0,0,0-12.72Z"/><path class="cls-1" d="M19.63,67.71l10.06-3.25a17.44,17.44,0,0,1,0,12.72L19.63,73.92a7.41,7.41,0,0,0,.68-3.25A7.5,7.5,0,0,0,19.63,67.71Z"/><path class="cls-1" d="M10,67.71h9.62a7.5,7.5,0,0,1,.68,3,7.41,7.41,0,0,1-.68,3.25H10a10.56,10.56,0,0,0,.46-3.09A10.72,10.72,0,0,0,10,67.71Z"/><path class="cls-1" d="M3.05,69.5l7-1.79a10.72,10.72,0,0,1,.46,3.12A10.56,10.56,0,0,1,10,73.92l-7-1.8h0a4.78,4.78,0,0,0,.17-1.28,5.07,5.07,0,0,0-.17-1.33Z"/><path class="cls-1" d="M.35,70.2l2.7-.7h0a5.07,5.07,0,0,1,.17,1.33,4.78,4.78,0,0,1-.17,1.28h0l-2.7-.69a.65.65,0,0,1-.44-.64A.62.62,0,0,1,.35,70.2Z"/><path class="cls-1" d="M35.2,69.89h89a.74.74,0,0,1,0,1.47h-89a.76.76,0,0,1,0-1.47Z"/><path class="cls-1" d="M145.65,74.85h3.08v5.79h-6.61l-7.49-3.46h10.43A22.27,22.27,0,0,0,145.65,74.85Z"/><path class="cls-1" d="M129.62,74.85h16a22.27,22.27,0,0,1-.59,2.33H134.63Z"/><path class="cls-2" d="M145.65,77.3H30l.07-.17a17.34,17.34,0,0,0,0-12.63L30,64.33H145.65l0,.09a21.39,21.39,0,0,1,1,6.22,21.05,21.05,0,0,1-1,6.57ZM30.37,77.05h115.1a21.13,21.13,0,0,0,0-12.47H30.37a17.61,17.61,0,0,1,0,12.47Z"/><path class="cls-2" d="M20.07,74.05H9.89l0-.17a10.22,10.22,0,0,0,.47-3,10.41,10.41,0,0,0-.47-3.08l0-.16H20.07l0,.07a7.37,7.37,0,0,1,.71,3A7.51,7.51,0,0,1,20.1,74Zm-9.84-.25h9.68a7.3,7.3,0,0,0,.65-3.13,7.22,7.22,0,0,0-.65-2.83H10.23a10.86,10.86,0,0,1,.43,3A10.72,10.72,0,0,1,10.23,73.8Z"/><rect class="cls-2" x="24.79" y="70.26" width="0.5" height="10.57" transform="translate(-54.55 76.1) rotate(-72.07)"/><rect class="cls-2" x="19.75" y="65.96" width="10.57" height="0.25" transform="matrix(0.95, -0.31, 0.31, 0.95, -19.14, 10.93)"/><path class="cls-1" d="M.35,70.2l2.7-.7h0a5.07,5.07,0,0,1,.17,1.33,4.78,4.78,0,0,1-.17,1.28h0l-2.7-.69a.65.65,0,0,1-.44-.64A.62.62,0,0,1,.35,70.2Z"/><rect class="cls-2" x="5.06" y="67.69" width="0.25" height="9.98" transform="translate(-66.48 59.54) rotate(-75.53)"/><rect class="cls-2" x="0.19" y="68.83" width="9.98" height="0.25" transform="translate(-17.07 3.48) rotate(-14.47)"/><path class="cls-2" d="M.31,71.55a.8.8,0,0,1-.53-.76.77.77,0,0,1,.53-.71l.08.24A.53.53,0,0,0,0,70.8a.53.53,0,0,0,.36.51Z"/><path class="cls-2" d="M3.17,72.16l-.24-.07a4.83,4.83,0,0,0,.17-1.25,5.15,5.15,0,0,0-.17-1.3l.24-.06a5.18,5.18,0,0,1,.18,1.36A4.94,4.94,0,0,1,3.17,72.16Z"/><polygon class="cls-1" points="142.49 61.26 149.11 61.26 149.11 67.05 129.99 67.05 142.49 61.26"/><polygon class="cls-1" points="129.99 74.85 149.11 74.85 149.11 80.64 142.49 80.64 129.99 74.85"/><polygon class="cls-2" points="142.44 80.76 129.94 74.97 130.05 74.74 142.55 80.53 142.44 80.76"/><rect class="cls-2" x="129.99" y="74.73" width="19.11" height="0.25"/><rect class="cls-2" x="148.98" y="74.85" width="0.25" height="5.79"/><rect class="cls-2" x="142.49" y="80.52" width="6.61" height="0.25"/><polygon class="cls-2" points="130.05 67.17 129.94 66.94 142.44 61.15 142.55 61.37 130.05 67.17"/><rect class="cls-2" x="129.99" y="66.93" width="19.11" height="0.25"/><rect class="cls-2" x="148.98" y="61.26" width="0.25" height="5.79"/><rect class="cls-2" x="142.49" y="61.14" width="6.61" height="0.25"/><rect class="cls-2" x="32.24" y="66.8" width="95.21" height="0.25"/><rect class="cls-2" x="34.57" y="65.33" width="89.01" height="0.25"/><polygon class="cls-2" points="32.31 67.03 32.18 66.82 34.51 65.35 34.64 65.57 32.31 67.03"/><polygon class="cls-2" points="127.41 67.05 123.54 65.58 123.63 65.34 127.5 66.81 127.41 67.05"/><rect class="cls-2" x="34.66" y="69.93" width="90.27" height="1.37" rx="0.69"/></svg>