<svg aria-hidden="true" style="position: absolute; width: 0; height: 0; overflow: hidden;" version="1.1" xmlns="http://www.w3.org/2000/svg" xmlns:xlink="http://www.w3.org/1999/xlink">
<defs>
<symbol id="icon-emad" viewBox="0 0 32 32">
<path fill="#231f20" style="fill: var(--color1, #231f20)" d="M29.596 17.583l0.853 0.019-0.237-0.768-0.427-0.67-1.828 0.213c-0.032 0-0.324 0.1-0.324 0.1z"></path>
<path fill="#231f20" style="fill: var(--color1, #231f20)" d="M30.042 18.319h0.8v0.546h-0.8v-0.546z"></path>
<path fill="#231f20" style="fill: var(--color1, #231f20)" d="M29.429 17.493h1.7c0.141 0 0.256 0.115 0.256 0.256v0.004c0 0.141-0.115 0.256-0.256 0.256h-1.7c-0.141 0-0.256-0.115-0.256-0.256v-0.004c0-0.141 0.115-0.256 0.256-0.256z"></path>
<path fill="#231f20" style="fill: var(--color1, #231f20)" d="M6.786 17.645l0.395 1.412 0.183 0.019 0.698-1.297-0.747-1.353-0.158 0.023-0.371 1.195z"></path>
<path fill="#fff" style="fill: var(--color2, #fff)" d="M7.373 19.091l-0.213-0.021-0.399-1.425 0.373-1.203 0.177-0.026 0.755 1.367zM7.194 19.042l0.162 0.017 0.691-1.28-0.738-1.335-0.141 0.019-0.367 1.182z"></path>
<path fill="#d39ca5" style="fill: var(--color3, #d39ca5)" d="M28.8 17.169h0.032v0.015h-0.032v-0.015z"></path>
<path fill="#fff" style="fill: var(--color2, #fff)" d="M28.785 17.154h0.060v0.045h-0.060v-0.045z"></path>
<path fill="#d39ca5" style="fill: var(--color3, #d39ca5)" d="M30.775 17.749h0.013v0.006h-0.013v-0.006z"></path>
<path fill="#fff" style="fill: var(--color2, #fff)" d="M30.761 17.737h0.041v0.034h-0.041v-0.034z"></path>
<path fill="#231f20" style="fill: var(--color1, #231f20)" d="M31.241 16.422l-0.407 0.378-0.006 0.384h-1.050v-0.96l1.463 0.198z"></path>
<path fill="#231f20" style="fill: var(--color1, #231f20)" d="M27.761 16.427l1.879-1.122h1.6v1.122h-23.987c0.238 0.375 0.379 0.833 0.379 1.323s-0.141 0.947-0.385 1.333l0.006-0.010h22.81c0.227-0.358 0.366-0.791 0.378-1.256l0-0.003z"></path>
<path fill="#fff" style="fill: var(--color2, #fff)" d="M30.080 19.089l-22.844-0.021c0.235-0.374 0.375-0.829 0.375-1.316s-0.139-0.942-0.381-1.327l0.006 0.010-0.013-0.021h20.533l1.879-1.12h1.619v1.15h-23.981c0.229 0.373 0.365 0.824 0.365 1.308s-0.136 0.935-0.371 1.319l0.006-0.011h22.78c0.223-0.354 0.36-0.783 0.371-1.243l0-0.003h0.030c-0.009 0.471-0.148 0.908-0.382 1.28l0.006-0.010zM27.814 16.414h3.413v-1.092h-1.574z"></path>
<path fill="#231f20" style="fill: var(--color1, #231f20)" d="M31.241 19.074v1.122h-1.6l-1.879-1.122z"></path>
<path fill="#fff" style="fill: var(--color2, #fff)" d="M31.255 20.209h-1.619l-0.004-0.002-1.879-1.12 0.015-0.026 1.877 1.12h1.581v-1.107h0.030v1.135z"></path>
<path fill="#231f20" style="fill: var(--color1, #231f20)" d="M31.426 17.815v0.105c0 0 0 0 0 0 0 0.055-0.045 0.1-0.1 0.1-0.001 0-0.002 0-0.002-0h-0.898z"></path>
<path fill="#fff" style="fill: var(--color2, #fff)" d="M31.324 18.042h-0.898v-0.030h0.898c0.001 0 0.001 0 0.002 0 0.047 0 0.085-0.038 0.085-0.085 0 0 0-0 0-0v0-0.111h0.030v0.105c0 0.002 0 0.004 0 0.006 0 0.064-0.052 0.115-0.115 0.115-0.001 0-0.002 0-0.002-0h0z"></path>
<path fill="#231f20" style="fill: var(--color1, #231f20)" d="M31.426 17.687v-0.111c0 0 0 0 0-0 0-0.055-0.045-0.1-0.1-0.1-0.001 0-0.002 0-0.002 0h-0.898z"></path>
<path fill="#fff" style="fill: var(--color2, #fff)" d="M31.441 17.687h-0.030v-0.111c0 0 0-0 0-0 0-0.047-0.038-0.085-0.085-0.085-0.001 0-0.002 0-0.002 0h-0.898v-0.030h0.898c0.001 0 0.001-0 0.002-0 0.064 0 0.115 0.052 0.115 0.115 0 0 0 0 0 0v0z"></path>
<path fill="#231f20" style="fill: var(--color1, #231f20)" d="M31.806 17.687v0.128h-3.433l-0.235-0.064 0.235-0.064z"></path>
<path fill="#fff" style="fill: var(--color2, #fff)" d="M31.821 17.828h-3.447l-0.288-0.077 0.292-0.077h3.445zM28.373 17.801h3.413v-0.094h-3.413l-0.181 0.049z"></path>
<path fill="#231f20" style="fill: var(--color1, #231f20)" d="M31.241 16.427l-0.38 0.378v0.386h-0.482z"></path>
<path fill="#fff" style="fill: var(--color2, #fff)" d="M30.876 17.207h-0.497v-0.030h0.469v-0.378l0.382-0.382 0.021 0.021-0.375 0.373v0.395z"></path>
<path fill="#231f20" style="fill: var(--color1, #231f20)" d="M30.063 19.074h1.178l-0.38-0.378h-0.604z"></path>
<path fill="#fff" style="fill: var(--color2, #fff)" d="M31.275 19.089h-1.212v-0.030h1.143l-0.35-0.35h-0.599v-0.028h0.61l0.407 0.407z"></path>
<path fill="#231f20" style="fill: var(--color1, #231f20)" d="M30.861 18.697v-0.386h-0.482z"></path>
<path fill="#fff" style="fill: var(--color2, #fff)" d="M30.876 18.697h-0.028v-0.371h-0.469v-0.030h0.497v0.401z"></path>
<path fill="#fff" style="fill: var(--color2, #fff)" d="M30.325 17.687h0.030v0.126h-0.030v-0.126z"></path>
<path fill="#231f20" style="fill: var(--color1, #231f20)" d="M30.441 17.687c-0.011-0.468-0.15-0.901-0.384-1.269l0.006 0.010z"></path>
<path fill="#fff" style="fill: var(--color2, #fff)" d="M30.426 17.69c-0.010-0.469-0.149-0.904-0.382-1.273l0.006 0.010h0.030c0.229 0.36 0.37 0.796 0.382 1.264l0 0.003z"></path>
<path fill="#fff" style="fill: var(--color2, #fff)" d="M30.257 16.791h0.606v0.030h-0.606v-0.030z"></path>
<path fill="#231f20" style="fill: var(--color1, #231f20)" d="M7.253 16.427l-1.476 0.378-2.718 0.094-2.773 0.727c-0.055 0.016-0.095 0.066-0.095 0.125 0 0.011 0.001 0.021 0.004 0.031l-0-0.001c0.013 0.045 0.047 0.079 0.091 0.091l0.001 0 2.773 0.727 2.718 0.094 1.476 0.38z"></path>
<path fill="#fff" style="fill: var(--color2, #fff)" d="M7.253 19.089l-1.474-0.378-2.718-0.094-2.773-0.727c-0.062-0.015-0.108-0.071-0.108-0.137 0-0.028 0.008-0.055 0.023-0.077l-0 0.001c0.018-0.032 0.048-0.055 0.084-0.064l0.001-0 2.773-0.73 2.718-0.094 1.474-0.375v0.028l-1.481 0.38-2.716 0.094-2.763 0.727c-0.030 0.007-0.055 0.025-0.070 0.051l-0 0c-0.009 0.016-0.015 0.035-0.015 0.055 0 0.011 0.002 0.021 0.004 0.031l-0-0.001c0.010 0.040 0.041 0.071 0.080 0.081l0.001 0 2.773 0.727 2.718 0.094 1.468 0.38z"></path>
<path fill="#d39ca5" style="fill: var(--color3, #d39ca5)" d="M5.773 18.697c0.171-0.268 0.272-0.595 0.272-0.945s-0.101-0.677-0.276-0.952l0.004 0.007z"></path>
<path fill="#fff" style="fill: var(--color2, #fff)" d="M5.786 18.705l-0.026-0.015c0.168-0.267 0.267-0.591 0.267-0.939s-0.1-0.672-0.272-0.946l0.004 0.007 0.026-0.015c0.17 0.271 0.27 0.601 0.27 0.954s-0.101 0.682-0.275 0.961l0.004-0.008z"></path>
<path fill="#d39ca5" style="fill: var(--color3, #d39ca5)" d="M3.055 18.603c0.154-0.242 0.246-0.537 0.246-0.853s-0.092-0.611-0.25-0.86l0.004 0.006z"></path>
<path fill="#fff" style="fill: var(--color2, #fff)" d="M3.068 18.609l-0.026-0.015c0.151-0.239 0.24-0.531 0.24-0.843s-0.089-0.603-0.244-0.849l0.004 0.007 0.026-0.015c0.154 0.244 0.245 0.54 0.245 0.858s-0.091 0.614-0.249 0.864l0.004-0.007z"></path>
<path fill="#d39ca5" style="fill: var(--color3, #d39ca5)" d="M5.461 16.817v-0.256l-0.811 0.292z"></path>
<path fill="#fff" style="fill: var(--color2, #fff)" d="M4.657 16.86l-0.011-0.028 0.83-0.292v0.277h-0.030v-0.237l-0.789 0.279z"></path>
<path fill="#d39ca5" style="fill: var(--color3, #d39ca5)" d="M5.73 17.815h-0.582l-0.241-0.064 0.237-0.064h0.582z"></path>
<path fill="#fff" style="fill: var(--color2, #fff)" d="M5.745 17.828h-0.602l-0.288-0.077 0.292-0.077h0.597zM5.15 17.801h0.565v-0.094h-0.565l-0.181 0.049z"></path>
<path fill="#d39ca5" style="fill: var(--color3, #d39ca5)" d="M5.461 18.686v0.256l-0.811-0.284z"></path>
<path fill="#fff" style="fill: var(--color2, #fff)" d="M5.476 18.963l-0.83-0.292 0.011-0.028 0.789 0.279v-0.237h0.030v0.277z"></path>
<path fill="#fff" style="fill: var(--color2, #fff)" d="M8.48 17.692h17.542v0.030h-17.542v-0.030z"></path>
<path fill="#231f20" style="fill: var(--color1, #231f20)" d="M5.773 16.785l-2.718 0.094-2.773 0.727c-0.055 0.016-0.095 0.066-0.095 0.125 0 0.011 0.001 0.021 0.004 0.031l-0-0.001c0.013 0.045 0.047 0.079 0.091 0.091l0.001 0 2.773 0.727 2.718 0.094z"></path>
<path fill="#fff" style="fill: var(--color2, #fff)" d="M5.773 18.69l-2.72-0.094-2.773-0.727c-0.062-0.016-0.106-0.071-0.106-0.137s0.045-0.121 0.105-0.136l0.001-0 2.773-0.73 2.72-0.094v0.030l-2.716 0.094-2.763 0.725c-0.049 0.011-0.085 0.054-0.085 0.106 0 0.011 0.002 0.021 0.005 0.031l-0-0.001c0.010 0.040 0.041 0.071 0.080 0.081l0.001 0 2.773 0.727 2.716 0.094z"></path>
<path fill="#231f20" style="fill: var(--color1, #231f20)" d="M5.773 18.675c0.171-0.268 0.272-0.595 0.272-0.945s-0.101-0.677-0.276-0.952l0.004 0.007z"></path>
<path fill="#fff" style="fill: var(--color2, #fff)" d="M5.786 18.684l-0.026-0.015c0.168-0.267 0.267-0.591 0.267-0.939s-0.1-0.672-0.272-0.946l0.004 0.007 0.026-0.015c0.17 0.271 0.27 0.601 0.27 0.954s-0.101 0.682-0.275 0.961l0.004-0.008z"></path>
<path fill="#231f20" style="fill: var(--color1, #231f20)" d="M3.055 18.581c0.154-0.242 0.246-0.537 0.246-0.853s-0.092-0.611-0.25-0.86l0.004 0.006z"></path>
<path fill="#fff" style="fill: var(--color2, #fff)" d="M3.068 18.588l-0.026-0.015c0.151-0.239 0.24-0.531 0.24-0.843s-0.089-0.603-0.244-0.849l0.004 0.007 0.026-0.015c0.154 0.244 0.245 0.54 0.245 0.858s-0.091 0.614-0.249 0.864l0.004-0.007z"></path>
<path fill="#231f20" style="fill: var(--color1, #231f20)" d="M5.461 16.796v-0.256l-0.811 0.284z"></path>
<path fill="#fff" style="fill: var(--color2, #fff)" d="M4.657 16.836l-0.011-0.026 0.83-0.292v0.277h-0.030v-0.237l-0.789 0.277z"></path>
<path fill="#231f20" style="fill: var(--color1, #231f20)" d="M5.73 17.794h-0.582l-0.241-0.064 0.237-0.064h0.582z"></path>
<path fill="#fff" style="fill: var(--color2, #fff)" d="M5.745 17.807h-0.602l-0.288-0.077 0.292-0.077h0.597zM5.15 17.779h0.565v-0.098h-0.565l-0.181 0.049z"></path>
<path fill="#231f20" style="fill: var(--color1, #231f20)" d="M5.461 18.665v0.256l-0.811-0.284z"></path>
<path fill="#fff" style="fill: var(--color2, #fff)" d="M5.476 18.942l-0.83-0.292 0.011-0.026 0.789 0.277v-0.237h0.030v0.277z"></path>
</symbol>
<symbol id="icon-ghadr" viewBox="0 0 32 32">
<path fill="#231f20" style="fill: var(--color1, #231f20)" d="M27.554 16c0.603-0.068 1.302-0.107 2.010-0.107s1.407 0.039 2.095 0.114l-0.085-0.008c-0.574 0.068-1.238 0.107-1.912 0.107-0.034 0-0.069-0-0.103-0l0.005 0c-0.029 0-0.063 0-0.098 0-0.674 0-1.338-0.039-1.991-0.114l0.080 0.008z"></path>
<path fill="#231f20" style="fill: var(--color1, #231f20)" d="M31.36 13.69h-1.207l-2.219 0.988h-21.412v2.63h21.38l2.257 1.003h1.201v-1.218h-0.523c0.088-0.321 0.139-0.69 0.139-1.071 0-0.010-0-0.020-0-0.029v0.002c0-0.006 0-0.013 0-0.020 0-0.379-0.049-0.746-0.141-1.095l0.007 0.030h0.518z"></path>
<path fill="#231f20" style="fill: var(--color1, #231f20)" d="M6.575 17.308l-2.095-0.401-3.921-0.762c-0.066-0.013-0.324-0.045-0.324-0.179s0.262-0.156 0.324-0.169l5.986-1.12c0.121 0.391 0.198 0.841 0.213 1.308l0 0.008c-0.014 0.473-0.080 0.924-0.193 1.356l0.009-0.042z"></path>
<path fill="#fff" style="fill: var(--color2, #fff)" d="M6.594 17.34h-0.023l-6.037-1.173c-0.107-0.017-0.32-0.055-0.32-0.201 0-0.107 0.19-0.164 0.348-0.194l6.007-1.12v0.021c0.121 0.393 0.198 0.847 0.213 1.316l0 0.008c-0.012 0.474-0.076 0.928-0.188 1.362l0.009-0.042zM6.526 14.707l-5.963 1.118c-0.183 0.034-0.303 0.090-0.303 0.141 0 0.1 0.213 0.134 0.282 0.149h0.021l1.649 0.32 2.268 0.446 2.076 0.399c0.097-0.38 0.158-0.82 0.17-1.272l0-0.008c-0.012-0.465-0.085-0.908-0.21-1.329l0.009 0.036z"></path>
<path fill="#231f20" style="fill: var(--color1, #231f20)" d="M0.491 16.145c-0.064-0.013-0.277-0.045-0.277-0.179s0.23-0.156 0.286-0.169 0.049 0.361-0.009 0.348z"></path>
<path fill="#fff" style="fill: var(--color2, #fff)" d="M0.495 16.171v0h-0.019c-0.085-0.017-0.288-0.055-0.288-0.201 0-0.107 0.166-0.164 0.307-0.194 0.003-0.001 0.006-0.001 0.009-0.001 0.016 0 0.029 0.009 0.036 0.022l0 0c0.018 0.053 0.029 0.114 0.029 0.178s-0.011 0.125-0.030 0.182l0.001-0.004c-0.008 0.011-0.021 0.018-0.035 0.018-0.003 0-0.007-0-0.010-0.001l0 0zM0.495 15.825c-0.16 0.036-0.256 0.087-0.256 0.141 0 0.1 0.179 0.137 0.245 0.149v0c0.013-0.046 0.021-0.099 0.021-0.153 0-0.049-0.006-0.096-0.018-0.141l0.001 0.004z"></path>
<path fill="#231f20" style="fill: var(--color1, #231f20)" d="M28.437 16.083s1.523 0.13 1.884 0.13c0.395-0.023 0.761-0.069 1.119-0.139l-0.052 0.008c-0.322-0.046-0.701-0.076-1.085-0.083l-0.009-0c-0.482 0-1.856 0.083-1.856 0.083z"></path>
<path fill="#fff" style="fill: var(--color2, #fff)" d="M30.321 16.239c-0.358 0-1.871-0.128-1.886-0.13v-0.053c0.013 0 1.38-0.083 1.865-0.083 0.393 0.007 0.772 0.038 1.143 0.091l-0.049-0.006 0.164 0.021-0.162 0.030c-0.308 0.061-0.677 0.108-1.053 0.129l-0.022 0.001zM28.828 16.087c0.478 0.038 1.259 0.098 1.493 0.098 0.325-0.015 0.629-0.050 0.927-0.104l-0.041 0.006c-0.268-0.035-0.582-0.057-0.901-0.062l-0.006-0c-0.322 0-1.035 0.038-1.481 0.062z"></path>
<path fill="#fff" style="fill: var(--color2, #fff)" d="M8.243 14.637c-0.213 0.493 0.457 0.672 0.593 1.054 0.092 0.267-0.034 0.54-0.119 0.789-0.058 0.128-0.091 0.277-0.091 0.434 0 0.101 0.014 0.198 0.040 0.291l-0.002-0.008c0.032 0.096 0.188 0.055 0.154-0.043-0.164-0.471 0.275-0.907 0.213-1.385-0.040-0.203-0.146-0.376-0.295-0.5l-0.001-0.001c-0.151-0.13-0.448-0.307-0.343-0.55 0.041-0.094-0.096-0.175-0.137-0.081z"></path>
<path fill="#fff" style="fill: var(--color2, #fff)" d="M10.925 14.735c-0.036 0.1-0.13 0.252-0.109 0.363s0.119 0.173 0.188 0.226c0.119 0.084 0.223 0.169 0.321 0.262l-0.001-0.001c0.085 0.096 0.158 0.213 0.245 0.297 0.186 0.194 0.388 0.339 0.437 0.621 0.007 0.045 0.012 0.096 0.012 0.148 0 0.212-0.069 0.407-0.186 0.565l0.002-0.003c-0.060 0.083 0.079 0.164 0.137 0.081 0.13-0.171 0.209-0.387 0.209-0.621 0-0.251-0.090-0.482-0.24-0.66l0.001 0.002c-0.094-0.105-0.213-0.19-0.299-0.297s-0.156-0.213-0.247-0.292-0.213-0.164-0.324-0.256c-0.026-0.022-0.049-0.045-0.070-0.072l-0.001-0.001c-0.023-0.041-0.026-0.036 0-0.083 0.028-0.081 0.060-0.16 0.090-0.239s-0.119-0.139-0.156-0.043z"></path>
<path fill="#fff" style="fill: var(--color2, #fff)" d="M11.755 14.786c0.183 0.25 0.491 0.401 0.629 0.683 0.070 0.141 0.028 0.288 0.068 0.427 0.037 0.125 0.142 0.218 0.271 0.237l0.002 0c0.033 0.007 0.070 0.012 0.109 0.012 0.093 0 0.181-0.025 0.256-0.069l-0.002 0.001c0.045-0.028 0.080-0.066 0.104-0.111l0.001-0.002c0.010-0.024 0.017-0.051 0.019-0.080l0-0.001c0-0.053 0-0.066 0.053-0.075 0.096-0.022 0.167-0.107 0.167-0.208 0-0.019-0.003-0.038-0.007-0.056l0 0.002c-0.013-0.079-0.038-0.13 0.026-0.192 0.044-0.036 0.081-0.079 0.112-0.126l0.001-0.002c0.011-0.029 0.018-0.062 0.018-0.096 0-0.117-0.076-0.216-0.181-0.251l-0.002-0.001c-0.073-0.032-0.149-0.045-0.213-0.073-0.093-0.035-0.173-0.087-0.239-0.152l0 0c-0.073-0.073-0.188 0.041-0.113 0.113 0.086 0.083 0.189 0.149 0.303 0.192l0.006 0.002c0.075 0.028 0.324 0.058 0.29 0.186 0 0.041-0.068 0.073-0.096 0.102-0.038 0.034-0.066 0.078-0.079 0.128l-0 0.002c-0.002 0.016-0.003 0.035-0.003 0.054 0 0.042 0.006 0.082 0.017 0.12l-0.001-0.003c0 0.021 0.019 0.062 0 0.083s-0.051 0.017-0.077 0.023c-0.046 0.008-0.085 0.033-0.111 0.068l-0 0c-0.036 0.053-0.011 0.113-0.032 0.166-0.036 0.098-0.213 0.1-0.29 0.085-0.154-0.030-0.16-0.151-0.162-0.286-0.004-0.123-0.039-0.236-0.098-0.334l0.002 0.003c-0.151-0.265-0.427-0.405-0.61-0.64-0.060-0.081-0.198 0-0.139 0.081z"></path>
<path fill="#fff" style="fill: var(--color2, #fff)" d="M13.621 17.254c0.002-0.258 0.067-0.5 0.181-0.712l-0.004 0.008c0.053-0.109 0.113-0.213 0.175-0.32 0.057-0.085 0.128-0.156 0.211-0.212l0.003-0.002c0.158-0.13 0.092-0.386 0.077-0.563-0.014-0.111-0.022-0.24-0.022-0.371s0.008-0.26 0.024-0.386l-0.002 0.015c0.017-0.1-0.137-0.143-0.154-0.043-0.015 0.111-0.023 0.239-0.023 0.369s0.008 0.258 0.025 0.384l-0.002-0.015c0.006 0.073 0.009 0.159 0.009 0.245 0 0.047-0.001 0.095-0.003 0.141l0-0.007c0 0.117-0.117 0.145-0.188 0.213-0.13 0.167-0.24 0.36-0.321 0.567l-0.005 0.016c-0.089 0.19-0.141 0.412-0.141 0.647 0 0.004 0 0.007 0 0.011v-0.001c0.007 0.039 0.040 0.068 0.080 0.068s0.073-0.029 0.080-0.067l0-0z"></path>
<path fill="#fff" style="fill: var(--color2, #fff)" d="M14.342 14.778c0.311 0.716 0.569 1.555 0.735 2.426l0.012 0.076c0.019 0.102 0.173 0.060 0.154-0.043-0.174-0.947-0.429-1.786-0.766-2.582l0.030 0.080c-0.041-0.094-0.194-0.053-0.156 0.043z"></path>
<path fill="#fff" style="fill: var(--color2, #fff)" d="M16.365 16.627c0-0.111-0.083-0.164-0.154-0.239-0.061-0.061-0.098-0.144-0.098-0.237 0-0.004 0-0.009 0-0.013l-0 0.001c0.015-0.107 0.213-0.064 0.269-0.043s0.171 0.111 0.267 0.145 0.213 0.013 0.297 0.075c0.064 0.047 0.105 0.122 0.105 0.207 0 0.018-0.002 0.036-0.005 0.053l0-0.002c-0.017 0.113-0.058 0.213-0.064 0.333 0 0.077 0.017 0.237-0.079 0.271s-0.055 0.19 0.041 0.156c0.237-0.087 0.171-0.346 0.213-0.54 0.030-0.090 0.047-0.193 0.047-0.3 0-0.011-0-0.022-0.001-0.033l0 0.002c-0.012-0.099-0.059-0.185-0.128-0.247l-0-0c-0.077-0.060-0.173-0.099-0.278-0.107l-0.002-0c-0.055-0.006-0.106-0.022-0.151-0.046l0.002 0.001c-0.047-0.028-0.087-0.062-0.137-0.085-0.156-0.079-0.469-0.13-0.544 0.085-0.010 0.034-0.016 0.073-0.016 0.114 0 0.072 0.019 0.139 0.052 0.198l-0.001-0.002c0.027 0.054 0.062 0.101 0.102 0.141l0 0c0.030 0.030 0.092 0.066 0.094 0.113 0 0.102 0.166 0.102 0.16 0z"></path>
<path fill="#fff" style="fill: var(--color2, #fff)" d="M16.213 16.602v0.228c-0.003 0.035-0.005 0.077-0.005 0.118s0.002 0.083 0.006 0.124l-0-0.005c0.024 0.133 0.125 0.238 0.254 0.266l0.002 0c0.006 0.002 0.014 0.003 0.021 0.003 0.037 0 0.068-0.024 0.079-0.058l0-0.001c0.002-0.006 0.002-0.013 0.002-0.020 0-0.037-0.025-0.069-0.059-0.078l-0.001-0c-0.084-0.015-0.147-0.087-0.147-0.175 0-0.002 0-0.003 0-0.005v0c0-0.13 0-0.26 0-0.388-0.007-0.039-0.040-0.068-0.080-0.068s-0.073 0.029-0.080 0.067l-0 0z"></path>
<path fill="#fff" style="fill: var(--color2, #fff)" d="M17.655 14.746l0.055 0.64c0.002 0.175 0.023 0.344 0.063 0.506l-0.003-0.015c0.043 0.114 0.136 0.202 0.251 0.236l0.003 0.001c0.081 0.020 0.152 0.047 0.219 0.082l-0.006-0.003c0.059 0.053 0.097 0.13 0.097 0.216 0 0.007-0 0.013-0.001 0.019l0-0.001c0.014 0.181 0.044 0.348 0.090 0.509l-0.004-0.018c0.029 0.142 0.111 0.261 0.224 0.338l0.002 0.001c0.032 0.014 0.068 0.022 0.107 0.022 0.081 0 0.153-0.035 0.204-0.090l0-0c0.073-0.092 0.116-0.209 0.116-0.337 0-0.040-0.004-0.079-0.012-0.117l0.001 0.004c0-0.1-0.162-0.105-0.16 0 0.005 0.195 0.036 0.381 0.089 0.557l-0.004-0.015c0.012 0.031 0.041 0.053 0.076 0.053 0.045 0 0.081-0.036 0.081-0.081 0-0.005-0-0.010-0.001-0.015l0 0c-0.048-0.152-0.077-0.328-0.081-0.51l-0-0.002h-0.16c0 0.113 0.019 0.427-0.177 0.373-0.122-0.032-0.164-0.267-0.188-0.371-0.049-0.213 0-0.495-0.183-0.64-0.069-0.049-0.149-0.087-0.236-0.11l-0.005-0.001c-0.123-0.028-0.213-0.137-0.213-0.267 0-0.003 0-0.006 0-0.009v0c-0.036-0.316-0.058-0.64-0.085-0.951 0-0.1-0.169-0.102-0.16 0z"></path>
<path fill="#fff" style="fill: var(--color2, #fff)" d="M20.164 14.756c-0.026 0.333-0.036 0.666-0.036 1.001 0.001 0.044 0.037 0.079 0.081 0.079 0.007 0 0.013-0.001 0.020-0.002l-0.001 0c0.068-0.026 0.066 0.288 0.066 0.324 0 0.016 0.001 0.034 0.001 0.053 0 0.116-0.010 0.23-0.030 0.341l0.002-0.012c-0.051 0.253-0.141 0.479-0.263 0.681l0.005-0.009c-0.004 0.009-0.006 0.020-0.006 0.031 0 0.045 0.036 0.081 0.081 0.081 0.026 0 0.049-0.012 0.064-0.031l0-0c0.167-0.277 0.278-0.605 0.309-0.956l0.001-0.009c0.013-0.154 0.062-0.772-0.26-0.651l0.102 0.079c0-0.335 0.011-0.668 0.036-1.001 0-0.105-0.151-0.102-0.16 0z"></path>
<path fill="#fff" style="fill: var(--color2, #fff)" d="M21.419 14.767c0.043 0.2 0.147 0.37 0.291 0.496l0.001 0.001c0.087 0.076 0.151 0.175 0.182 0.288l0.001 0.004c0.020 0.059 0.032 0.127 0.032 0.198s-0.012 0.139-0.033 0.203l0.001-0.005c-0.047 0.077-0.093 0.168-0.133 0.263l-0.006 0.015c-0.031 0.091-0.052 0.197-0.057 0.306l-0 0.003c-0.001 0.020-0.001 0.044-0.001 0.067 0 0.234 0.030 0.462 0.086 0.679l-0.004-0.019c0.019 0.1 0.173 0.058 0.154-0.043-0.047-0.172-0.075-0.369-0.075-0.573 0-0.076 0.004-0.152 0.011-0.226l-0.001 0.009c0.022-0.124 0.064-0.236 0.124-0.335l-0.002 0.004c0.053-0.079 0.087-0.175 0.096-0.277l0-0.002c0.001-0.016 0.002-0.035 0.002-0.054 0-0.19-0.059-0.365-0.159-0.51l0.002 0.003c-0.064-0.081-0.149-0.143-0.213-0.213-0.071-0.087-0.121-0.194-0.14-0.312l-0-0.004c-0.019-0.1-0.173-0.058-0.156 0.043z"></path>
<path fill="#fff" style="fill: var(--color2, #fff)" d="M23.68 14.771c0.186 0.476 0.294 1.028 0.294 1.605 0 0.301-0.029 0.595-0.085 0.879l0.005-0.029c-0.019 0.1 0.134 0.143 0.154 0.041 0.054-0.268 0.085-0.576 0.085-0.891 0-0.592-0.11-1.158-0.31-1.68l0.011 0.032c-0.036-0.096-0.192-0.053-0.156 0.043z"></path>
<path fill="#fff" style="fill: var(--color2, #fff)" d="M25.632 15.831c-0.013-0.046-0.020-0.099-0.020-0.153 0-0.037 0.003-0.073 0.010-0.108l-0.001 0.004c0.023-0.092 0.109-0.147 0.139-0.237 0.020-0.108 0.043-0.199 0.071-0.288l-0.005 0.017c0.051-0.094 0.109-0.175 0.176-0.249l-0.001 0.001c0.066-0.079-0.045-0.192-0.113-0.113-0.073 0.080-0.138 0.169-0.192 0.266l-0.004 0.007c-0.022 0.043-0.041 0.094-0.054 0.147l-0.001 0.005c-0.006 0.062-0.017 0.117-0.032 0.171l0.002-0.007c-0.025 0.046-0.054 0.085-0.088 0.12l0-0c-0.026 0.040-0.046 0.088-0.057 0.138l-0.001 0.003c-0.006 0.038-0.009 0.081-0.009 0.125 0 0.073 0.009 0.144 0.025 0.212l-0.001-0.006c0.019 0.1 0.173 0.058 0.156-0.043z"></path>
<path fill="#fff" style="fill: var(--color2, #fff)" d="M26.547 14.778c0.049 0.156 0 0.324 0.073 0.476 0.070 0.119 0.163 0.217 0.274 0.29l0.003 0.002c0.273 0.213 0.531 0.407 0.627 0.755 0.042 0.106 0.067 0.229 0.067 0.358 0 0.053-0.004 0.105-0.012 0.156l0.001-0.006c-0.060 0.138-0.195 0.233-0.352 0.233-0.043 0-0.084-0.007-0.123-0.020l0.003 0.001c-0.343-0.162-0.674-0.371-1.007-0.555-0.012-0.007-0.026-0.011-0.041-0.011-0.022 0-0.043 0.009-0.057 0.024v0c-0.054 0.066-0.135 0.108-0.226 0.108-0.105 0-0.196-0.055-0.247-0.138l-0.001-0.001c-0.064-0.107-0.115-0.474 0.062-0.497 0.1-0.015 0.058-0.171-0.043-0.156-0.303 0.045-0.271 0.54-0.158 0.734 0.080 0.132 0.223 0.218 0.386 0.218 0.135 0 0.256-0.060 0.339-0.154l0-0.001-0.096 0.013 0.919 0.508c0.061 0.041 0.132 0.073 0.208 0.095l0.005 0.001c0.009 0 0.020 0.001 0.032 0.001 0.166 0 0.318-0.065 0.429-0.172l-0 0c0.082-0.087 0.132-0.205 0.132-0.335 0-0.032-0.003-0.064-0.009-0.095l0 0.003c-0.029-0.382-0.206-0.718-0.472-0.954l-0.001-0.001c-0.137-0.117-0.299-0.213-0.427-0.343-0.158-0.162-0.081-0.365-0.143-0.561-0.032-0.098-0.186-0.055-0.156 0.043z"></path>
<path fill="#fff" style="fill: var(--color2, #fff)" d="M28.196 14.756c-0.001 0.009-0.002 0.019-0.002 0.029 0 0.098 0.059 0.183 0.143 0.22l0.002 0.001 0.038 0.015c0 0.019-0.026 0.047-0.036 0.058-0.041 0.033-0.075 0.073-0.101 0.117l-0.001 0.002c-0.010 0.032-0.016 0.068-0.016 0.106 0 0.067 0.019 0.13 0.051 0.183l-0.001-0.002c0.014 0.034 0.022 0.074 0.022 0.116 0 0.006-0 0.011-0 0.017l0-0.001c-0 0.003-0 0.006-0 0.009 0 0.055 0.033 0.102 0.081 0.123l0.001 0c0.023 0.006 0.050 0.010 0.078 0.010s0.055-0.004 0.080-0.010l-0.002 0.001 0.201-0.023c0.113-0.015 0.226-0.030 0.337-0.055 0.116-0.028 0.219-0.071 0.312-0.127l-0.005 0.003c0.085-0.053 0.192-0.13 0.156-0.243-0.021-0.062-0.062-0.092-0.053-0.162s0.038-0.134 0.045-0.213c0.003-0.014 0.005-0.029 0.005-0.045 0-0.115-0.091-0.209-0.205-0.213h-0c-0.105 0-0.105 0.156 0 0.16s0.019 0.183 0.011 0.213c-0.010 0.030-0.016 0.064-0.016 0.099 0 0.059 0.016 0.115 0.044 0.162l-0.001-0.001s0.015 0.017 0.017 0.026 0 0 0 0-0.032 0.030-0.045 0.038c-0.034 0.025-0.073 0.048-0.113 0.067l-0.004 0.002c-0.071 0.034-0.153 0.060-0.239 0.076l-0.006 0.001c-0.087 0.019-0.179 0.030-0.269 0.043l-0.158 0.019h-0.102c-0.015 0 0 0 0.013 0.017v-0.015c0.021-0.075-0.032-0.164-0.055-0.23-0.013-0.023-0.020-0.050-0.020-0.078 0-0.007 0-0.014 0.001-0.021l-0 0.001c0.011-0.034 0.051-0.060 0.075-0.083 0.048-0.039 0.078-0.099 0.078-0.165 0-0.033-0.008-0.064-0.021-0.092l0.001 0.001c-0.051-0.079-0.173-0.064-0.156-0.179-0.001-0.044-0.037-0.079-0.081-0.079 0 0-0 0-0 0v0c-0.043 0.001-0.078 0.036-0.079 0.079v0z"></path>
</symbol>
<symbol id="icon-ghauri" viewBox="0 0 32 32">
<path fill="#231f20" style="fill: var(--color1, #231f20)" d="M27.554 17.199c0.603-0.068 1.302-0.107 2.010-0.107s1.407 0.039 2.095 0.114l-0.085-0.008c-0.603 0.068-1.302 0.107-2.010 0.107s-1.407-0.039-2.095-0.114l0.085 0.008z"></path>
<path fill="#231f20" style="fill: var(--color1, #231f20)" d="M31.36 14.895h-1.207l-2.225 0.988h-21.406v2.63h21.38l2.257 1.003h1.201v-1.218h-0.523c0.088-0.321 0.139-0.69 0.139-1.071 0-0.010-0-0.020-0-0.029v0.002c0-0.006 0-0.013 0-0.020 0-0.379-0.049-0.746-0.141-1.096l0.007 0.030h0.518z"></path>
<path fill="#231f20" style="fill: var(--color1, #231f20)" d="M6.575 18.513l-2.095-0.401-3.921-0.762c-0.066-0.013-0.324-0.045-0.324-0.179s0.262-0.156 0.324-0.169l5.988-1.12c0.121 0.391 0.198 0.841 0.213 1.308l0 0.009c-0.014 0.473-0.081 0.924-0.195 1.356l0.009-0.042z"></path>
<path fill="#fff" style="fill: var(--color2, #fff)" d="M6.594 18.545h-0.023l-2.091-0.412-2.276-0.427-1.67-0.335c-0.107-0.017-0.32-0.055-0.32-0.201 0-0.107 0.19-0.164 0.348-0.194l6.007-1.12v0.021c0.121 0.393 0.198 0.847 0.213 1.316l0 0.008c-0.012 0.474-0.076 0.928-0.188 1.362l0.009-0.042zM6.526 15.913l-5.963 1.116c-0.183 0.036-0.303 0.092-0.303 0.143 0 0.1 0.213 0.134 0.282 0.149h0.021l3.917 0.766 2.071 0.397c0.097-0.38 0.158-0.82 0.17-1.272l0-0.008c-0.011-0.464-0.082-0.907-0.205-1.327l0.009 0.036z"></path>
<path fill="#231f20" style="fill: var(--color1, #231f20)" d="M0.491 17.35c-0.064-0.013-0.277-0.045-0.277-0.179s0.23-0.156 0.286-0.169 0.049 0.361-0.009 0.348z"></path>
<path fill="#fff" style="fill: var(--color2, #fff)" d="M0.495 17.376v0h-0.019c-0.085-0.017-0.288-0.058-0.288-0.201 0-0.107 0.166-0.164 0.307-0.194 0.003-0.001 0.006-0.001 0.009-0.001 0.016 0 0.029 0.009 0.036 0.022l0 0c0.018 0.053 0.029 0.114 0.029 0.178s-0.011 0.125-0.030 0.182l0.001-0.004c-0.008 0.011-0.021 0.018-0.035 0.018-0.003 0-0.007-0-0.010-0.001l0 0zM0.495 17.030c-0.16 0.036-0.256 0.087-0.256 0.141 0 0.1 0.179 0.134 0.245 0.149v0c0.013-0.046 0.021-0.099 0.021-0.153 0-0.049-0.006-0.096-0.018-0.141l0.001 0.004z"></path>
<path fill="#231f20" style="fill: var(--color1, #231f20)" d="M28.437 17.28s1.523 0.128 1.884 0.128c0.395-0.023 0.761-0.068 1.119-0.136l-0.053 0.008c-0.321-0.046-0.698-0.076-1.081-0.083l-0.009-0c-0.486 0.009-1.86 0.083-1.86 0.083z"></path>
<path fill="#fff" style="fill: var(--color2, #fff)" d="M30.321 17.444c-0.358 0-1.871-0.128-1.886-0.13v-0.053c0.013 0 1.38-0.083 1.865-0.083 0.395 0.008 0.773 0.038 1.146 0.089l-0.051-0.006 0.164 0.023-0.162 0.030c-0.308 0.061-0.677 0.108-1.053 0.129l-0.022 0.001zM28.828 17.293c0.478 0.038 1.259 0.098 1.493 0.098 0.325-0.015 0.629-0.050 0.927-0.104l-0.041 0.006c-0.268-0.035-0.582-0.057-0.901-0.062l-0.006-0c-0.322 0-1.035 0.049-1.481 0.062z"></path>
<path fill="#fff" style="fill: var(--color2, #fff)" d="M8.243 15.842c-0.213 0.493 0.457 0.672 0.593 1.054 0.092 0.265-0.034 0.54-0.119 0.789-0.058 0.128-0.091 0.277-0.091 0.434 0 0.101 0.014 0.198 0.040 0.291l-0.002-0.008c0.032 0.096 0.188 0.055 0.154-0.043-0.164-0.471 0.275-0.907 0.213-1.385-0.040-0.203-0.146-0.376-0.295-0.5l-0.001-0.001c-0.151-0.13-0.448-0.307-0.343-0.55 0.041-0.094-0.096-0.175-0.137-0.081z"></path>
<path fill="#fff" style="fill: var(--color2, #fff)" d="M10.925 15.94c-0.036 0.1-0.13 0.252-0.109 0.363s0.119 0.173 0.188 0.226c0.119 0.083 0.224 0.169 0.321 0.261l-0.001-0.001c0.085 0.096 0.158 0.213 0.245 0.297 0.186 0.194 0.388 0.339 0.437 0.621 0.007 0.045 0.012 0.096 0.012 0.148 0 0.212-0.069 0.407-0.186 0.565l0.002-0.003c-0.060 0.083 0.079 0.164 0.137 0.081 0.13-0.171 0.209-0.387 0.209-0.621 0-0.251-0.090-0.482-0.24-0.66l0.001 0.002c-0.094-0.105-0.213-0.19-0.299-0.297s-0.156-0.213-0.247-0.292-0.213-0.164-0.324-0.256c-0.027-0.022-0.050-0.046-0.070-0.074l-0.001-0.001c-0.023-0.038-0.026-0.034 0-0.081 0.028-0.081 0.060-0.16 0.090-0.239s-0.119-0.139-0.156-0.043z"></path>
<path fill="#fff" style="fill: var(--color2, #fff)" d="M11.755 16c0.183 0.25 0.491 0.401 0.629 0.683 0.070 0.141 0.028 0.288 0.068 0.427 0.037 0.125 0.142 0.218 0.271 0.237l0.002 0c0.032 0.007 0.069 0.011 0.107 0.011 0.094 0 0.182-0.025 0.258-0.068l-0.003 0.001c0.045-0.028 0.080-0.066 0.104-0.111l0.001-0.002c0.010-0.024 0.017-0.051 0.019-0.080l0-0.001c0-0.053 0-0.066 0.053-0.075 0.096-0.022 0.167-0.107 0.167-0.208 0-0.019-0.003-0.038-0.007-0.056l0 0.002c-0.013-0.079-0.038-0.13 0.026-0.192 0.044-0.036 0.081-0.079 0.112-0.126l0.001-0.002c0.011-0.029 0.018-0.062 0.018-0.096 0-0.117-0.076-0.216-0.181-0.251l-0.002-0.001c-0.073-0.032-0.149-0.045-0.213-0.073-0.093-0.035-0.173-0.087-0.239-0.152l0 0c-0.073-0.073-0.188 0.041-0.113 0.113 0.086 0.083 0.189 0.149 0.303 0.192l0.006 0.002c0.075 0.026 0.324 0.058 0.29 0.186 0 0.041-0.068 0.073-0.096 0.1-0.037 0.035-0.065 0.080-0.079 0.13l-0 0.002c-0.002 0.016-0.003 0.035-0.003 0.054 0 0.042 0.006 0.082 0.017 0.12l-0.001-0.003c0 0.021 0.019 0.062 0 0.083s-0.051 0.017-0.077 0.023c-0.046 0.008-0.085 0.033-0.111 0.068l-0 0c-0.036 0.053-0.011 0.113-0.032 0.166-0.036 0.096-0.213 0.1-0.29 0.085-0.154-0.030-0.16-0.151-0.162-0.286-0-0.126-0.034-0.245-0.094-0.347l0.002 0.003c-0.151-0.265-0.427-0.407-0.61-0.64-0.060-0.083-0.198 0-0.139 0.081z"></path>
<path fill="#fff" style="fill: var(--color2, #fff)" d="M13.621 18.46c0.002-0.258 0.067-0.5 0.181-0.712l-0.004 0.008c0.053-0.109 0.113-0.213 0.175-0.32 0.057-0.085 0.128-0.156 0.211-0.212l0.003-0.002c0.158-0.13 0.092-0.388 0.077-0.563-0.014-0.111-0.022-0.24-0.022-0.371s0.008-0.26 0.024-0.386l-0.002 0.015c0.017-0.1-0.137-0.143-0.154-0.043-0.015 0.111-0.023 0.238-0.023 0.368s0.008 0.258 0.025 0.383l-0.002-0.015c0.014 0.115 0.023 0.248 0.023 0.383v0.001c0 0.117-0.117 0.145-0.188 0.213-0.13 0.167-0.24 0.36-0.321 0.567l-0.005 0.016c-0.089 0.19-0.141 0.412-0.141 0.647 0 0.004 0 0.007 0 0.011v-0.001c0.007 0.039 0.040 0.068 0.080 0.068s0.073-0.029 0.080-0.067l0-0z"></path>
<path fill="#fff" style="fill: var(--color2, #fff)" d="M14.342 15.983c0.31 0.714 0.569 1.551 0.735 2.42l0.012 0.076c0.019 0.102 0.173 0.058 0.154-0.043-0.174-0.945-0.429-1.782-0.766-2.576l0.030 0.080c-0.041-0.094-0.194-0.053-0.156 0.043z"></path>
<path fill="#fff" style="fill: var(--color2, #fff)" d="M16.365 17.833c0-0.111-0.083-0.164-0.154-0.239-0.061-0.061-0.098-0.144-0.098-0.237 0-0.004 0-0.009 0-0.013l-0 0.001c0.015-0.107 0.213-0.064 0.269-0.043s0.171 0.111 0.267 0.145 0.213 0.013 0.297 0.075c0.064 0.047 0.105 0.122 0.105 0.207 0 0.018-0.002 0.036-0.005 0.053l0-0.002c-0.017 0.113-0.058 0.213-0.064 0.333 0 0.077 0.017 0.237-0.079 0.271s-0.055 0.19 0.041 0.156c0.237-0.087 0.171-0.346 0.213-0.54 0.030-0.090 0.047-0.193 0.047-0.3 0-0.011-0-0.022-0.001-0.033l0 0.002c-0.012-0.099-0.059-0.185-0.128-0.247l-0-0c-0.076-0.062-0.173-0.101-0.278-0.107l-0.001-0c-0.057-0.001-0.11-0.014-0.158-0.035l0.003 0.001c-0.047-0.028-0.087-0.062-0.137-0.085-0.156-0.079-0.469-0.13-0.544 0.085-0.008 0.030-0.012 0.064-0.012 0.099 0 0.073 0.020 0.142 0.054 0.202l-0.001-0.002c0.027 0.054 0.062 0.101 0.102 0.141l0 0c0.030 0.030 0.092 0.066 0.094 0.113 0 0.102 0.166 0.102 0.16 0z"></path>
<path fill="#fff" style="fill: var(--color2, #fff)" d="M16.213 17.807v0.228c-0.003 0.034-0.005 0.073-0.005 0.113s0.002 0.079 0.005 0.118l-0-0.005c0.024 0.133 0.125 0.238 0.254 0.266l0.002 0c0.006 0.002 0.014 0.003 0.021 0.003 0.037 0 0.068-0.024 0.079-0.058l0-0.001c0.002-0.006 0.002-0.013 0.002-0.020 0-0.037-0.025-0.069-0.059-0.078l-0.001-0c-0.084-0.016-0.147-0.089-0.147-0.176 0-0.002 0-0.003 0-0.005v0c0-0.128 0-0.258 0-0.386-0.007-0.039-0.040-0.068-0.080-0.068s-0.073 0.029-0.080 0.067l-0 0z"></path>
<path fill="#fff" style="fill: var(--color2, #fff)" d="M17.655 15.951l0.055 0.64c0.002 0.175 0.023 0.344 0.063 0.506l-0.003-0.015c0.043 0.114 0.136 0.201 0.251 0.236l0.003 0.001c0.081 0.020 0.152 0.047 0.219 0.082l-0.006-0.003c0.064 0.054 0.105 0.134 0.105 0.223 0 0.002-0 0.004-0 0.006v-0c0.014 0.181 0.044 0.348 0.090 0.509l-0.004-0.018c0.027 0.14 0.106 0.258 0.216 0.336l0.002 0.001c0.032 0.014 0.068 0.022 0.107 0.022 0.081 0 0.153-0.035 0.204-0.090l0-0c0.073-0.092 0.116-0.209 0.116-0.337 0-0.040-0.004-0.079-0.012-0.117l0.001 0.004c0-0.102-0.162-0.105-0.16 0 0.004 0.199 0.035 0.389 0.089 0.57l-0.004-0.015c0.012 0.031 0.041 0.053 0.076 0.053 0.045 0 0.081-0.036 0.081-0.081 0-0.005-0-0.010-0.001-0.015l0 0c-0.048-0.152-0.077-0.328-0.081-0.51l-0-0.002h-0.16c0 0.113 0.019 0.427-0.177 0.373-0.122-0.034-0.164-0.267-0.188-0.371-0.049-0.213 0-0.495-0.183-0.64-0.069-0.049-0.149-0.087-0.236-0.11l-0.005-0.001c-0.123-0.028-0.213-0.137-0.213-0.267 0-0.003 0-0.006 0-0.009v0c-0.036-0.318-0.058-0.64-0.085-0.951 0-0.1-0.169-0.102-0.16 0z"></path>
<path fill="#fff" style="fill: var(--color2, #fff)" d="M20.164 15.962c-0.026 0.333-0.036 0.666-0.036 1.001 0.001 0.044 0.037 0.079 0.081 0.079 0.007 0 0.013-0.001 0.020-0.002l-0.001 0c0.068-0.028 0.066 0.288 0.066 0.324 0 0.016 0.001 0.034 0.001 0.053 0 0.116-0.010 0.23-0.030 0.341l0.002-0.012c-0.051 0.253-0.141 0.479-0.263 0.681l0.005-0.009c-0.004 0.009-0.006 0.020-0.006 0.031 0 0.045 0.036 0.081 0.081 0.081 0.026 0 0.049-0.012 0.064-0.031l0-0c0.167-0.277 0.278-0.605 0.309-0.956l0.001-0.009c0.013-0.154 0.062-0.772-0.26-0.64l0.102 0.079c0-0.335 0.011-0.668 0.036-1.001 0-0.105-0.151-0.102-0.16 0z"></path>
<path fill="#fff" style="fill: var(--color2, #fff)" d="M21.419 15.972c0.043 0.2 0.147 0.37 0.291 0.496l0.001 0.001c0.087 0.075 0.152 0.175 0.183 0.288l0.001 0.004c0.020 0.059 0.032 0.127 0.032 0.198s-0.012 0.139-0.033 0.203l0.001-0.005c-0.047 0.077-0.093 0.168-0.133 0.263l-0.006 0.015c-0.031 0.091-0.052 0.197-0.057 0.306l-0 0.003c-0.001 0.020-0.001 0.044-0.001 0.067 0 0.234 0.030 0.462 0.086 0.679l-0.004-0.019c0.019 0.1 0.173 0.058 0.154-0.043-0.047-0.172-0.075-0.369-0.075-0.573 0-0.076 0.004-0.152 0.011-0.226l-0.001 0.009c0.022-0.124 0.064-0.236 0.124-0.335l-0.002 0.004c0.053-0.079 0.087-0.175 0.096-0.277l0-0.002c0.001-0.016 0.002-0.035 0.002-0.054 0-0.19-0.059-0.365-0.159-0.51l0.002 0.003c-0.064-0.081-0.149-0.143-0.213-0.213-0.071-0.087-0.121-0.194-0.14-0.312l-0-0.004c-0.019-0.102-0.173-0.058-0.156 0.043z"></path>
<path fill="#fff" style="fill: var(--color2, #fff)" d="M23.68 15.977c0.186 0.476 0.294 1.027 0.294 1.603 0 0.301-0.029 0.594-0.085 0.879l0.005-0.029c-0.019 0.102 0.134 0.145 0.154 0.043 0.054-0.268 0.085-0.576 0.085-0.891 0-0.592-0.11-1.158-0.31-1.68l0.011 0.032c-0.036-0.096-0.192-0.053-0.156 0.043z"></path>
<path fill="#fff" style="fill: var(--color2, #fff)" d="M25.632 17.037c-0.013-0.048-0.021-0.102-0.021-0.159 0-0.040 0.004-0.078 0.011-0.116l-0.001 0.004c0.023-0.090 0.109-0.145 0.139-0.235 0.020-0.108 0.043-0.199 0.071-0.288l-0.005 0.017c0.051-0.094 0.109-0.175 0.176-0.249l-0.001 0.001c0.066-0.079-0.045-0.192-0.113-0.113-0.073 0.080-0.138 0.169-0.192 0.266l-0.004 0.007c-0.022 0.043-0.041 0.094-0.054 0.147l-0.001 0.005c-0.006 0.062-0.017 0.117-0.032 0.171l0.002-0.007c-0.025 0.046-0.054 0.085-0.088 0.12l0-0c-0.026 0.040-0.046 0.087-0.057 0.138l-0.001 0.003c-0.006 0.038-0.009 0.081-0.009 0.125 0 0.073 0.009 0.144 0.025 0.212l-0.001-0.006c0.019 0.1 0.173 0.058 0.156-0.043z"></path>
<path fill="#fff" style="fill: var(--color2, #fff)" d="M26.547 15.983c0.049 0.156 0 0.324 0.073 0.476 0.071 0.118 0.164 0.216 0.274 0.29l0.003 0.002c0.273 0.213 0.531 0.407 0.627 0.755 0.042 0.106 0.067 0.229 0.067 0.358 0 0.053-0.004 0.105-0.012 0.156l0.001-0.006c-0.060 0.138-0.195 0.232-0.353 0.232-0.042 0-0.083-0.007-0.121-0.020l0.003 0.001c-0.343-0.162-0.674-0.371-1.007-0.555-0.012-0.007-0.026-0.011-0.041-0.011-0.022 0-0.043 0.009-0.057 0.024v0c-0.054 0.066-0.135 0.108-0.226 0.108-0.105 0-0.196-0.055-0.247-0.138l-0.001-0.001c-0.064-0.107-0.115-0.474 0.062-0.497 0.1-0.015 0.058-0.171-0.043-0.156-0.303 0.045-0.271 0.54-0.158 0.734 0.080 0.132 0.223 0.218 0.386 0.218 0.135 0 0.256-0.060 0.339-0.154l0-0.001h-0.096l0.599 0.335 0.32 0.177c0.061 0.041 0.132 0.073 0.208 0.093l0.005 0.001c0.011 0.001 0.024 0.001 0.038 0.001 0.164 0 0.313-0.065 0.423-0.17l-0 0c0.082-0.087 0.132-0.205 0.132-0.335 0-0.032-0.003-0.064-0.009-0.095l0 0.003c-0.027-0.381-0.201-0.716-0.464-0.955l-0.001-0.001c-0.137-0.117-0.299-0.213-0.427-0.343-0.158-0.162-0.081-0.365-0.143-0.561-0.032-0.098-0.186-0.058-0.156 0.043z"></path>
<path fill="#fff" style="fill: var(--color2, #fff)" d="M28.196 15.962c-0.001 0.009-0.002 0.019-0.002 0.029 0 0.098 0.059 0.183 0.143 0.22l0.002 0.001 0.038 0.015c0 0.019-0.026 0.047-0.036 0.055-0.041 0.034-0.075 0.074-0.101 0.119l-0.001 0.002c-0.010 0.032-0.016 0.068-0.016 0.106 0 0.067 0.019 0.13 0.051 0.183l-0.001-0.002c0.014 0.034 0.022 0.074 0.022 0.116 0 0.006-0 0.011-0 0.017l0-0.001c-0 0.003-0 0.006-0 0.009 0 0.055 0.033 0.102 0.081 0.123l0.001 0c0.023 0.006 0.050 0.010 0.078 0.010s0.055-0.003 0.080-0.010l-0.002 0 0.201-0.023c0.113-0.015 0.226-0.030 0.337-0.055 0.116-0.028 0.219-0.071 0.312-0.127l-0.005 0.003c0.085-0.053 0.192-0.13 0.156-0.243-0.021-0.062-0.062-0.092-0.053-0.162s0.038-0.134 0.045-0.213c0.003-0.014 0.005-0.029 0.005-0.045 0-0.115-0.091-0.209-0.205-0.213h-0c-0.105 0-0.105 0.156 0 0.16s0.019 0.183 0.011 0.224c-0.010 0.030-0.016 0.064-0.016 0.099 0 0.059 0.016 0.115 0.044 0.162l-0.001-0.001s0.015 0.017 0.017 0.026 0 0 0 0-0.032 0.030-0.045 0.038c-0.034 0.025-0.073 0.048-0.113 0.067l-0.004 0.002c-0.071 0.034-0.153 0.060-0.239 0.076l-0.006 0.001c-0.087 0.019-0.179 0.030-0.269 0.043l-0.158 0.019h-0.102c-0.015 0 0 0 0.013 0.017v-0.015c0.021-0.075-0.032-0.164-0.055-0.23-0.013-0.023-0.020-0.049-0.020-0.078 0-0.007 0-0.014 0.001-0.021l-0 0.001c0.011-0.034 0.051-0.060 0.075-0.083 0.048-0.039 0.078-0.099 0.078-0.165 0-0.033-0.008-0.064-0.021-0.092l0.001 0.001c-0.051-0.079-0.173-0.064-0.156-0.179-0.001-0.044-0.037-0.079-0.081-0.079 0 0-0 0-0 0v0c-0.043 0.001-0.078 0.036-0.079 0.079v0z"></path>
</symbol>
<symbol id="icon-hwasong5" viewBox="0 0 32 32">
<path fill="#231f20" style="fill: var(--color1, #231f20)" d="M29.692 15.454h2.005v1.079h-0.533l-0.096-0.198h-2.818z"></path>
<path fill="#231f20" style="fill: var(--color1, #231f20)" d="M28.25 16.335h2.818l0.096 0.198h-3.243z"></path>
<path fill="#231f20" style="fill: var(--color1, #231f20)" d="M10.212 17.493c-0.004-0-0.010-0.001-0.015-0.001-0.066 0-0.121 0.048-0.132 0.111l-0 0.001c0 0.058 0.098 0.137 0.237 0.122h16.271c0.098 0 0.179-0.032 0.177-0.122s-0.060-0.107-0.132-0.111c-0.007-0.001-0.015-0.002-0.022-0.002s-0.016 0.001-0.023 0.002l0.001-0h-16.271c-0.013-0.002-0.029-0.003-0.045-0.003s-0.031 0.001-0.047 0.003l0.002-0zM7.277 16.335h20.973l-0.329 0.198h3.243c0.17 0.317 0.269 0.692 0.269 1.092 0 0.379-0.090 0.738-0.25 1.055l0.006-0.013h-3.268l0.354 0.213h-20.998c0.182-0.372 0.288-0.809 0.288-1.271s-0.106-0.9-0.296-1.289l0.008 0.017z"></path>
<path fill="#231f20" style="fill: var(--color1, #231f20)" d="M2.089 16.975l5.188-0.64c0.182 0.372 0.288 0.809 0.288 1.271s-0.106 0.9-0.296 1.289l0.008-0.017-5.205-0.653c0.060-0.169 0.098-0.363 0.107-0.566l0-0.004c0.001-0.027 0.002-0.059 0.002-0.091 0-0.21-0.034-0.413-0.096-0.603l0.004 0.014z"></path>
<path fill="#231f20" style="fill: var(--color1, #231f20)" d="M1.011 17.327l1.067-0.352c0.058 0.176 0.092 0.379 0.092 0.589 0 0.032-0.001 0.064-0.002 0.096l0-0.004c-0.008 0.206-0.047 0.401-0.111 0.584l0.004-0.014-1.067-0.318v-0.015c0.044-0.083 0.071-0.181 0.073-0.285v-0.001c0.001-0.013 0.002-0.029 0.002-0.045 0-0.086-0.021-0.167-0.059-0.237l0.001 0.003z"></path>
<path fill="#fff" style="fill: var(--color2, #fff)" d="M2.091 18.251h-0.030l-1.092-0.331 0.017-0.043c0.040-0.080 0.064-0.174 0.064-0.273 0-0.001 0-0.002 0-0.002v0c0-0.007 0.001-0.016 0.001-0.024 0-0.089-0.023-0.172-0.064-0.245l0.001 0.003-0.015-0.028 1.133-0.369v0.026c0.059 0.181 0.093 0.39 0.093 0.607 0 0.236-0.040 0.462-0.115 0.672l0.004-0.014zM1.041 17.89l1.013 0.303c0.054-0.159 0.089-0.343 0.098-0.533l0-0.004c0.001-0.023 0.001-0.049 0.001-0.076 0-0.201-0.030-0.395-0.086-0.578l0.004 0.014-1.024 0.329c0.035 0.069 0.056 0.151 0.056 0.237 0 0.009-0 0.018-0.001 0.027l0-0.001c-0 0.103-0.023 0.2-0.064 0.288l0.002-0.004z"></path>
<path fill="#231f20" style="fill: var(--color1, #231f20)" d="M0.247 17.577l0.764-0.25c0.036 0.068 0.057 0.149 0.057 0.235 0 0.016-0.001 0.031-0.002 0.047l0-0.002c0 0 0 0.001 0 0.001 0 0.103-0.024 0.201-0.066 0.289l0.002-0.004v0.015l-0.755-0.226c-0.019-0.011-0.032-0.031-0.034-0.053l-0-0c0.002-0.022 0.015-0.041 0.034-0.051l0-0z"></path>
<path fill="#fff" style="fill: var(--color2, #fff)" d="M1.022 17.939l-0.783-0.233c-0.029-0.015-0.049-0.044-0.051-0.079v-0c0-0 0-0 0-0 0-0.033 0.020-0.062 0.049-0.074l0.001-0 0.785-0.256v0.021c0.043 0.077 0.069 0.169 0.069 0.266 0 0.008-0 0.017-0.001 0.025l0-0.001c-0 0.109-0.025 0.211-0.070 0.303l0.002-0.004zM0.258 17.602c-0.010 0.004-0.017 0.014-0.017 0.026v0c0.002 0.013 0.009 0.023 0.019 0.030l0 0 0.73 0.213c0.038-0.077 0.060-0.168 0.060-0.264 0-0.002 0-0.003-0-0.005v0c0-0.008 0.001-0.017 0.001-0.027 0-0.081-0.020-0.157-0.055-0.223l0.001 0.003z"></path>
<path fill="#c3beb1" style="fill: var(--color4, #c3beb1)" d="M10.212 17.493c0.013-0.002 0.029-0.003 0.045-0.003s0.031 0.001 0.047 0.003l-0.002-0z"></path>
<path fill="#c3beb1" style="fill: var(--color4, #c3beb1)" d="M26.573 17.493c0.007-0.001 0.015-0.002 0.022-0.002s0.016 0.001 0.023 0.002l-0.001-0z"></path>
<path fill="#231f20" style="fill: var(--color1, #231f20)" d="M31.189 18.662h0.508v1.079h-2.005l-1.417-0.864h2.793c0.040-0.060 0.081-0.131 0.117-0.204l0.005-0.011z"></path>
<path fill="#231f20" style="fill: var(--color1, #231f20)" d="M27.921 18.662h3.268c-0.041 0.084-0.081 0.153-0.126 0.22l0.004-0.007h-2.793z"></path>
<path fill="#fff" style="fill: var(--color2, #fff)" d="M7.349 18.912l-0.145-0.068c0.177-0.362 0.28-0.788 0.28-1.237s-0.103-0.875-0.288-1.254l0.008 0.017 0.145-0.070c0.182 0.379 0.29 0.824 0.294 1.293v0.002c0 0.003 0 0.006 0 0.009 0 0.476-0.109 0.926-0.302 1.328l0.008-0.018z"></path>
<path fill="#231f20" style="fill: var(--color1, #231f20)" d="M9.717 17.261h17.948v0.614h-17.948v-0.614z"></path>
</symbol>
<symbol id="icon-hwasong6" viewBox="0 0 32 32">
<path fill="#231f20" style="fill: var(--color1, #231f20)" d="M29.478 12.617h2.005v1.079h-0.533l-0.096-0.201h-2.818z"></path>
<path fill="#231f20" style="fill: var(--color1, #231f20)" d="M28.036 13.495h2.818l0.096 0.201h-3.243z"></path>
<path fill="#231f20" style="fill: var(--color1, #231f20)" d="M9.999 14.652c-0.085 0-0.145 0.053-0.147 0.109s0.098 0.139 0.237 0.124h16.271c0.098 0 0.179-0.034 0.177-0.124s-0.060-0.105-0.132-0.109c-0.007-0.001-0.015-0.002-0.022-0.002s-0.016 0.001-0.023 0.002l0.001-0h-16.271c-0.013-0.002-0.029-0.003-0.045-0.003s-0.031 0.001-0.047 0.003l0.002-0zM7.063 13.495h20.973l-0.329 0.201h3.243c0.17 0.317 0.269 0.693 0.269 1.092 0 0.379-0.090 0.738-0.25 1.055l0.006-0.013h-3.268l0.354 0.213h-20.998c0.182-0.372 0.288-0.81 0.288-1.273s-0.106-0.9-0.296-1.29l0.008 0.018z"></path>
<path fill="#231f20" style="fill: var(--color1, #231f20)" d="M1.875 14.138l5.188-0.64c0.182 0.372 0.288 0.81 0.288 1.273s-0.106 0.9-0.296 1.29l0.008-0.018-5.205-0.657c0.060-0.168 0.099-0.362 0.107-0.564l0-0.004c0.001-0.026 0.002-0.057 0.002-0.088 0-0.212-0.034-0.415-0.095-0.606l0.004 0.014z"></path>
<path fill="#231f20" style="fill: var(--color1, #231f20)" d="M0.798 14.49l1.067-0.352c0.058 0.177 0.092 0.381 0.092 0.592 0 0.031-0.001 0.062-0.002 0.093l0-0.004c-0.008 0.206-0.046 0.4-0.111 0.581l0.004-0.014-1.067-0.316v-0.015c0.044-0.084 0.071-0.182 0.073-0.288v-0c0.001-0.012 0.002-0.026 0.002-0.041 0-0.086-0.021-0.168-0.058-0.239l0.001 0.003z"></path>
<path fill="#fff" style="fill: var(--color2, #fff)" d="M1.877 15.413h-0.030l-1.092-0.326 0.017-0.043c0.040-0.079 0.064-0.173 0.064-0.272 0-0.002 0-0.004-0-0.006v0c0-0.006 0-0.013 0-0.020 0-0.088-0.023-0.171-0.064-0.243l0.001 0.002-0.015-0.028 1.133-0.369v0.028c0.059 0.182 0.093 0.391 0.093 0.609 0 0.028-0.001 0.056-0.002 0.085l0-0.004c-0.009 0.209-0.048 0.406-0.113 0.59l0.004-0.014zM0.83 15.053l1.011 0.307c0.054-0.158 0.089-0.341 0.098-0.531l0-0.004c0.001-0.021 0.001-0.047 0.001-0.072 0-0.203-0.030-0.398-0.086-0.582l0.004 0.014-1.024 0.322c0.035 0.068 0.056 0.149 0.056 0.235 0 0.010-0 0.019-0.001 0.028l0-0.001c-0 0.103-0.022 0.2-0.062 0.288l0.002-0.004z"></path>
<path fill="#231f20" style="fill: var(--color1, #231f20)" d="M0.034 14.739l0.764-0.25c0.041 0.072 0.065 0.159 0.065 0.251 0 0.009-0 0.019-0.001 0.028l0-0.001c0 0.003 0 0.006 0 0.009 0 0.102-0.024 0.198-0.066 0.283l0.002-0.004v0.015l-0.764-0.228c-0.019-0.010-0.033-0.029-0.034-0.051v-0c0.001-0.023 0.015-0.042 0.034-0.051l0-0z"></path>
<path fill="#fff" style="fill: var(--color2, #fff)" d="M0.806 15.102l-0.781-0.235c-0.030-0.014-0.050-0.044-0.051-0.079v-0c0.004-0.030 0.023-0.055 0.049-0.068l0.001-0 0.785-0.256 0.011 0.019c0.043 0.076 0.069 0.167 0.069 0.264 0 0.009-0 0.018-0.001 0.027l0-0.001c0 0.002 0 0.005 0 0.007 0 0.107-0.025 0.208-0.070 0.298l0.002-0.004zM0.045 14.763c-0.009 0.006-0.016 0.016-0.017 0.028l-0 0c0 0.017 0.019 0.030 0.019 0.030l0.73 0.213c0.038-0.076 0.060-0.165 0.060-0.259 0-0.003-0-0.007-0-0.010v0.001c0-0.008 0.001-0.017 0.001-0.026 0-0.080-0.020-0.156-0.055-0.222l0.001 0.003z"></path>
<path fill="#c3beb1" style="fill: var(--color4, #c3beb1)" d="M9.999 14.652c0.013-0.002 0.029-0.003 0.045-0.003s0.031 0.001 0.047 0.003l-0.002-0z"></path>
<path fill="#c3beb1" style="fill: var(--color4, #c3beb1)" d="M26.359 14.652c0.007-0.001 0.015-0.002 0.022-0.002s0.016 0.001 0.023 0.002l-0.001-0z"></path>
<path fill="#fff" style="fill: var(--color2, #fff)" d="M26.359 14.652h0.045c0.073 0 0.128 0.038 0.132 0.109s-0.079 0.132-0.177 0.124h-16.271c-0.139 0.015-0.239-0.045-0.237-0.124s0.062-0.098 0.147-0.109h16.361z"></path>
<path fill="#231f20" style="fill: var(--color1, #231f20)" d="M30.976 15.825h0.508v1.079h-2.005l-1.417-0.853h2.793c0.041-0.063 0.081-0.138 0.117-0.215l0.005-0.011z"></path>
<path fill="#231f20" style="fill: var(--color1, #231f20)" d="M27.708 15.825h3.268c-0.041 0.083-0.081 0.153-0.126 0.22l0.004-0.007h-2.793z"></path>
<path fill="#fff" style="fill: var(--color2, #fff)" d="M7.136 16.075l-0.145-0.075c0.176-0.362 0.28-0.788 0.28-1.237s-0.103-0.875-0.287-1.254l0.008 0.017 0.145-0.070c0.186 0.382 0.294 0.832 0.294 1.307s-0.109 0.924-0.302 1.325l0.008-0.018z"></path>
</symbol>
<symbol id="icon-hwasong7" viewBox="0 0 32 32">
<path fill="#7c7771" style="fill: var(--color5, #7c7771)" d="M30.581 14.404h1.419v1.242h-0.64c-0.038-0.217-0.085-0.404-0.145-0.586l0.008 0.030h-2.11z"></path>
<path fill="#7c7771" style="fill: var(--color5, #7c7771)" d="M29.103 15.089h2.11c0.051 0.152 0.099 0.34 0.133 0.532l0.004 0.025h-3.447z"></path>
<path fill="#c3beb1" style="fill: var(--color4, #c3beb1)" d="M26.741 16.57c0.080-0.011 0.14-0.078 0.141-0.16v-0c-0.001-0.081-0.062-0.147-0.14-0.156l-0.001-0h-19.089c-0.072 0.017-0.125 0.081-0.125 0.158s0.053 0.141 0.124 0.158l0.001 0zM6.475 15.089h22.628l-1.201 0.557h3.458c0.044 0.23 0.070 0.496 0.073 0.768v0.002c0 0.009 0 0.019 0 0.030 0 0.309-0.030 0.61-0.088 0.902l0.005-0.029h-3.447l1.067 0.497h-22.498c0.16-0.392 0.254-0.847 0.256-1.324v-0.001c0-0.014 0-0.030 0-0.047 0-0.488-0.094-0.953-0.265-1.38l0.009 0.025z"></path>
<path fill="#c3beb1" style="fill: var(--color4, #c3beb1)" d="M4.314 15.787l2.157-0.698c0.162 0.402 0.256 0.867 0.256 1.355 0 0.016-0 0.033-0 0.049l0-0.002c-0.002 0.478-0.096 0.933-0.265 1.349l0.009-0.024-2.157-0.698c0.092-0.196 0.145-0.425 0.145-0.667 0-0.009-0-0.017-0-0.026l0 0.001c-0.003-0.233-0.056-0.452-0.149-0.65l0.004 0.010z"></path>
<path fill="#c3beb1" style="fill: var(--color4, #c3beb1)" d="M2.251 15.787h2.063c0.089 0.188 0.142 0.407 0.145 0.639v0.001c0 0.009 0 0.020 0 0.031 0 0.242-0.054 0.471-0.149 0.677l0.004-0.010h-2.063c0.062-0.197 0.098-0.423 0.098-0.658 0-0.001 0-0.002 0-0.003v0c0-0.003 0-0.007 0-0.010 0-0.238-0.036-0.467-0.103-0.682l0.004 0.016z"></path>
<path fill="#c3beb1" style="fill: var(--color4, #c3beb1)" d="M0.941 16.124l1.31-0.337c0.061 0.197 0.096 0.424 0.096 0.659 0 0.004 0 0.008-0 0.012v-0.001c0 0.001 0 0.002 0 0.003 0 0.235-0.036 0.461-0.102 0.674l0.004-0.016-1.308-0.337v-0.047c0.023-0.082 0.036-0.177 0.036-0.274 0-0.001 0-0.002 0-0.003v0c0-0.005 0-0.010 0-0.015 0-0.096-0.013-0.188-0.038-0.276l0.002 0.007z"></path>
<path fill="#e00e0e" style="fill: var(--color6, #e00e0e)" d="M0.179 16.32l0.762-0.196v0.049c0.023 0.081 0.036 0.173 0.036 0.268 0 0.005-0 0.011-0 0.016v-0.001c0 0.001 0 0.002 0 0.003 0 0.098-0.013 0.192-0.038 0.282l0.002-0.007v0.047l-0.762-0.196c-0.057-0.018-0.097-0.071-0.097-0.132s0.040-0.114 0.096-0.132l0.001-0z"></path>
<path fill="#afaaa0" style="fill: var(--color7, #afaaa0)" d="M7.652 16.254h19.089c0.079 0.009 0.14 0.075 0.141 0.156v0c-0 0.082-0.061 0.149-0.14 0.16l-0.001 0h-19.089c-0.072-0.017-0.125-0.081-0.125-0.158s0.053-0.141 0.124-0.158l0.001-0z"></path>
<path fill="#7c7771" style="fill: var(--color5, #7c7771)" d="M31.339 17.318h0.661v1.242h-1.419l-1.604-0.745h2.236c0.045-0.133 0.089-0.3 0.122-0.471l0.004-0.026z"></path>
<path fill="#7c7771" style="fill: var(--color5, #7c7771)" d="M27.902 17.318h3.437c-0.037 0.197-0.081 0.364-0.134 0.526l0.008-0.029h-2.236z"></path>
<path fill="#7c7771" style="fill: var(--color5, #7c7771)" d="M6.571 17.856l-0.201-0.079c0.154-0.379 0.245-0.818 0.25-1.278l0-0.002c0-0.011 0-0.025 0-0.038 0-0.476-0.092-0.931-0.258-1.347l0.009 0.024 0.201-0.077c0.166 0.416 0.263 0.898 0.263 1.403s-0.096 0.987-0.272 1.429l0.009-0.026z"></path>
<path fill="#7c7771" style="fill: var(--color5, #7c7771)" d="M4.412 17.163l-0.194-0.096c0.085-0.184 0.134-0.4 0.134-0.628 0-0.004-0-0.009-0-0.013v0.001c-0.004-0.215-0.053-0.418-0.138-0.6l0.004 0.009 0.194-0.090c0.098 0.209 0.155 0.453 0.155 0.71s-0.057 0.502-0.159 0.721l0.004-0.011z"></path>
<path fill="#7c7771" style="fill: var(--color5, #7c7771)" d="M2.347 17.15l-0.213-0.062c0.060-0.19 0.094-0.408 0.094-0.634 0-0.002 0-0.004 0-0.006v0c0-0 0-0.001 0-0.001 0-0.228-0.034-0.447-0.098-0.654l0.004 0.016 0.213-0.062c0.065 0.209 0.102 0.449 0.102 0.697 0 0.001 0 0.002 0 0.003v-0c0 0.003 0 0.007 0 0.011 0 0.247-0.037 0.485-0.107 0.71l0.005-0.017z"></path>
<path fill="#231f20" style="fill: var(--color1, #231f20)" d="M31.292 15.089h-24.821l-2.157 0.698h-2.063l-1.299 0.335s-0.868 0.158-0.868 0.326 0.853 0.333 0.853 0.333l1.312 0.337h2.063l2.157 0.698h24.823c0.066-0.396 0.112-0.866 0.13-1.343l0.001-0.020c-0.015-0.494-0.062-0.965-0.139-1.425l0.008 0.062z"></path>
<path fill="#231f20" style="fill: var(--color1, #231f20)" d="M0.883 16.124s-0.853 0.156-0.853 0.324 0.853 0.333 0.853 0.333c0.031-0.094 0.049-0.201 0.049-0.313 0-0.008-0-0.015-0-0.023l0 0.001c-0-0.115-0.018-0.226-0.051-0.33l0.002 0.008z"></path>
<path fill="#fff" style="fill: var(--color2, #fff)" d="M0.9 16.811h-0.021c-0.147-0.032-0.879-0.171-0.879-0.363s0.73-0.324 0.877-0.35h0.021v0.021c0.032 0.099 0.051 0.212 0.051 0.33 0 0 0 0 0 0.001v-0c0 0.007 0 0.016 0 0.024 0 0.114-0.019 0.224-0.054 0.326l0.002-0.007zM0.864 16.154c-0.343 0.060-0.809 0.194-0.809 0.294s0.465 0.233 0.811 0.301c0.026-0.087 0.041-0.188 0.041-0.291 0-0.004-0-0.008-0-0.012v0.001c-0-0.104-0.016-0.205-0.045-0.3l0.002 0.007z"></path>
<path fill="#fff" style="fill: var(--color2, #fff)" d="M2.259 17.118h0.038c0.054-0.196 0.085-0.421 0.085-0.653v-0c-0.001-0.241-0.032-0.475-0.090-0.698l0.004 0.020h-0.038c0.054 0.2 0.085 0.43 0.085 0.668 0 0.004 0 0.008-0 0.011v-0.001c0 0.007 0 0.014 0 0.022 0 0.224-0.031 0.442-0.089 0.647l0.004-0.017z"></path>
<path fill="#fff" style="fill: var(--color2, #fff)" d="M4.267 17.118h0.038c0.054-0.196 0.085-0.421 0.085-0.653v-0c-0.001-0.241-0.032-0.475-0.090-0.698l0.004 0.020h-0.038c0.054 0.2 0.085 0.43 0.085 0.668 0 0.004 0 0.008-0 0.011v-0.001c0 0.007 0 0.014 0 0.022 0 0.224-0.031 0.442-0.089 0.647l0.004-0.017z"></path>
<path fill="#fff" style="fill: var(--color2, #fff)" d="M6.485 17.815h0.038c0.141-0.399 0.223-0.858 0.224-1.337v-0.001c-0.003-0.497-0.085-0.975-0.233-1.421l0.009 0.032h-0.038c0.143 0.411 0.226 0.884 0.226 1.377 0 0.004 0 0.008-0 0.012v-0.001c0 0.012 0 0.025 0 0.039 0 0.466-0.083 0.912-0.235 1.325l0.009-0.027z"></path>
<path fill="#fff" style="fill: var(--color2, #fff)" d="M7.531 16.416c0-0.090 0.073-0.162 0.162-0.162h19.025c0.090 0 0.162 0.073 0.162 0.162s-0.073 0.162-0.162 0.162h-19.025c-0.090 0-0.162-0.073-0.162-0.162z"></path>
<path fill="#231f20" style="fill: var(--color1, #231f20)" d="M30.581 18.56h1.419v-1.242h-4.098l2.679 1.242z"></path>
<path fill="#fff" style="fill: var(--color2, #fff)" d="M32.028 18.588h-1.457l-2.79-1.295h4.247zM30.588 18.534h1.387v-1.19h-3.951z"></path>
<path fill="#231f20" style="fill: var(--color1, #231f20)" d="M30.581 14.409l-2.679 1.242h4.098v-1.242h-1.419z"></path>
<path fill="#fff" style="fill: var(--color2, #fff)" d="M32.028 15.678h-4.247l2.801-1.295h1.446zM28.023 15.625h3.951v-1.188h-1.387z"></path>
</symbol>
<symbol id="icon-hwasong9" viewBox="0 0 32 32">
<path fill="#231f20" style="fill: var(--color1, #231f20)" d="M29.858 15.149h1.754v1.547h-3.179l1.425-1.538v-0.009z"></path>
<path fill="#fff" style="fill: var(--color2, #fff)" d="M31.665 16.749h-3.354l1.493-1.613v-0.032h1.86zM28.557 16.64h3.002v-1.438h-1.67z"></path>
<path fill="#231f20" style="fill: var(--color1, #231f20)" d="M28.435 16.695h2.347c0.085 0.317 0.134 0.681 0.134 1.056s-0.049 0.739-0.141 1.085l0.007-0.029h-25.803l-3.486-0.73c0.034-0.096 0.053-0.207 0.053-0.322 0-0.001 0-0.001 0-0.002v0c0-0 0-0.001 0-0.001 0-0.117-0.020-0.23-0.056-0.335l0.002 0.007 3.479-0.73h23.467z"></path>
<path fill="#fff" style="fill: var(--color2, #fff)" d="M30.82 18.861h-25.841l-3.55-0.742 0.019-0.058c0.029-0.086 0.045-0.185 0.045-0.287 0-0.007-0-0.014-0-0.021l0 0.001c0-0.001 0-0.001 0-0.002 0-0.111-0.019-0.217-0.053-0.316l0.002 0.007-0.019-0.058 3.546-0.745h25.852l0.011 0.041c0.085 0.32 0.134 0.688 0.134 1.067s-0.049 0.747-0.14 1.097l0.007-0.030zM1.568 18.037l3.413 0.717h25.756c0.077-0.301 0.122-0.647 0.122-1.003s-0.044-0.702-0.128-1.032l0.006 0.029h-25.758l-3.413 0.717c0.024 0.085 0.038 0.184 0.038 0.285 0 0.001 0 0.002 0 0.003v-0c0 0.002 0 0.005 0 0.008 0 0.098-0.013 0.193-0.038 0.283l0.002-0.008z"></path>
<path fill="#231f20" style="fill: var(--color1, #231f20)" d="M0.015 17.737l1.493-0.311c0.034 0.098 0.053 0.21 0.053 0.328 0 0 0 0.001 0 0.001v-0c-0.005 0.118-0.030 0.229-0.071 0.331l0.002-0.007-1.493-0.311z"></path>
<path fill="#fff" style="fill: var(--color2, #fff)" d="M1.534 18.133l-1.585-0.324 0.019-0.117 1.568-0.329 0.015 0.045c0.035 0.103 0.055 0.222 0.055 0.346v0c0 0.001 0 0.002 0 0.003 0 0.121-0.021 0.238-0.060 0.346l0.002-0.007zM0.201 17.751l1.263 0.265c0.019-0.073 0.030-0.156 0.030-0.242 0-0.007-0-0.015-0-0.022l0 0.001c0-0.008 0-0.017 0-0.026 0-0.083-0.011-0.164-0.032-0.241l0.001 0.006z"></path>
<path fill="#231f20" style="fill: var(--color1, #231f20)" d="M30.778 18.807h0.834v1.547h-1.754v-0.006l-1.425-1.54h2.345z"></path>
<path fill="#fff" style="fill: var(--color2, #fff)" d="M31.665 20.407h-1.86v-0.041l-1.493-1.613h3.354zM29.888 20.301h1.67v-1.44h-3.002z"></path>
<path fill="#fff" style="fill: var(--color2, #fff)" d="M7.511 18.259h18.276c0.092 0 0.166-0.075 0.166-0.166s-0.075-0.166-0.166-0.166h-18.276c-0.092 0-0.166 0.075-0.166 0.166s0.074 0.166 0.166 0.166v0z"></path>
<path fill="#fff" style="fill: var(--color2, #fff)" d="M5.030 18.82l-0.102-0.026c0.079-0.313 0.124-0.673 0.124-1.043s-0.045-0.73-0.13-1.074l0.006 0.031 0.102-0.026c0.081 0.316 0.128 0.68 0.128 1.054 0 0.010-0 0.020-0 0.029v-0.002c0 0.001 0 0.003 0 0.004 0 0.374-0.047 0.736-0.135 1.082l0.007-0.030z"></path>
<path fill="#231f20" style="fill: var(--color1, #231f20)" d="M28.503 17.754c0.481-0.068 1.036-0.107 1.6-0.107s1.119 0.039 1.663 0.114l-0.063-0.007c-0.481 0.068-1.036 0.107-1.6 0.107s-1.119-0.039-1.663-0.114l0.063 0.007z"></path>
</symbol>
<symbol id="icon-kavosaghar-1" viewBox="0 0 32 32">
<path fill="#000" style="fill: var(--color8, #000)" d="M5.532 17.141v-2.283h25.067v2.283h-25.067z"></path>
<path fill="#fff" style="fill: var(--color2, #fff)" d="M30.66 17.201h-25.188v-2.402h25.188zM5.594 17.082h24.945v-2.163h-24.945z"></path>
<path fill="#000" style="fill: var(--color8, #000)" d="M31.39 14.859v-1.141h-1.355l-2.187 1.141h3.541z"></path>
<path fill="#fff" style="fill: var(--color2, #fff)" d="M31.452 14.918h-3.851l2.419-1.265h1.431zM28.096 14.799h3.234v-1.020h-1.28z"></path>
<path fill="#000" style="fill: var(--color8, #000)" d="M31.39 17.141v1.141h-1.355l-2.187-1.141h3.541z"></path>
<path fill="#fff" style="fill: var(--color2, #fff)" d="M31.452 18.347h-1.431l-2.419-1.261h3.851zM30.050 18.225h1.28v-1.024h-3.234z"></path>
<path fill="#000" style="fill: var(--color8, #000)" d="M27.814 16.073v-0.181h3.622v0.181h-3.622z"></path>
<path fill="#fff" style="fill: var(--color2, #fff)" d="M31.499 16.134h-3.744v-0.303h3.744zM27.872 16.013h3.503v-0.060h-3.501z"></path>
<path fill="#fff" style="fill: var(--color2, #fff)" d="M26.21 14.859h0.122v2.315h-0.122v-2.315z"></path>
<path fill="#000" style="fill: var(--color8, #000)" d="M3.42 16.589v-1.146l2.114-0.585v2.283l-2.114-0.553z"></path>
<path fill="#fff" style="fill: var(--color2, #fff)" d="M5.594 17.22l-2.234-0.58v-1.244l2.234-0.617zM3.479 16.542l1.993 0.525v-2.133l-1.993 0.555z"></path>
<path fill="#000" style="fill: var(--color8, #000)" d="M1.826 16.591v-1.152h1.594v1.152h-1.594z"></path>
<path fill="#fff" style="fill: var(--color2, #fff)" d="M3.479 16.651h-1.707v-1.28h1.707zM1.886 16.529h1.474v-1.030h-1.474z"></path>
<path fill="#000" style="fill: var(--color8, #000)" d="M0.64 16.154c0.134 0.13 0.45 0.318 1.19 0.427v-1.152s-0.892 0.111-1.19 0.386c-0.045 0.043-0.073 0.103-0.073 0.17s0.028 0.127 0.073 0.17l0 0z"></path>
<path fill="#fff" style="fill: var(--color2, #fff)" d="M1.886 16.661l-0.070-0.021c-0.745-0.119-1.067-0.311-1.222-0.45v0c-0.055-0.055-0.090-0.13-0.092-0.213v-0c0.001-0.084 0.037-0.16 0.094-0.213l0-0c0.314-0.286 1.186-0.388 1.222-0.393h0.068zM1.764 15.507c-0.213 0.030-0.853 0.134-1.086 0.352-0.034 0.030-0.055 0.073-0.055 0.121 0 0 0 0 0 0.001v-0c0 0 0 0.001 0 0.001 0 0.051 0.021 0.096 0.055 0.129l0 0c0.105 0.102 0.388 0.286 1.086 0.407z"></path>
</symbol>
<symbol id="icon-KN-18" viewBox="0 0 32 32">
<path fill="#231f20" style="fill: var(--color1, #231f20)" d="M30.067 15.245h2.039v1.099h-0.533c-0.030-0.066-0.060-0.132-0.096-0.213h-2.874z"></path>
<path fill="#fff" style="fill: var(--color2, #fff)" d="M32.132 16.369h-0.585v-0.015l-0.090-0.188h-2.95l1.553-0.947h2.071zM31.573 16.316h0.499v-1.043h-1.993l-1.378 0.841h2.786v0.015z"></path>
<path fill="#231f20" style="fill: var(--color1, #231f20)" d="M28.604 16.139h2.863c0.036 0.073 0.066 0.139 0.096 0.213h-3.294z"></path>
<path fill="#fff" style="fill: var(--color2, #fff)" d="M31.605 16.369h-3.43l0.427-0.256h2.889v0.015c0.036 0.070 0.068 0.139 0.098 0.213zM28.373 16.316h3.157l-0.073-0.149h-2.848z"></path>
<path fill="#231f20" style="fill: var(--color1, #231f20)" d="M7.285 16.139h21.318l-0.335 0.213h3.305c0.173 0.321 0.275 0.702 0.275 1.108 0 0.384-0.091 0.746-0.254 1.067l0.006-0.014h-3.332l0.361 0.213h-21.333c0.184-0.378 0.292-0.823 0.292-1.293s-0.108-0.915-0.3-1.311l0.008 0.018zM26.946 17.314h-16.585c-0.014-0.002-0.030-0.003-0.046-0.003s-0.032 0.001-0.048 0.003l0.002-0c-0.087 0-0.147 0.053-0.149 0.111s0.098 0.139 0.241 0.126h16.538c0.1 0 0.181-0.034 0.179-0.126s-0.060-0.107-0.132-0.111z"></path>
<path fill="#c3beb1" style="fill: var(--color4, #c3beb1)" d="M10.27 17.314c0.014-0.002 0.030-0.003 0.046-0.003s0.032 0.001 0.048 0.003l-0.002-0z"></path>
<path fill="#c3beb1" style="fill: var(--color4, #c3beb1)" d="M26.899 17.314v0z"></path>
<path fill="#231f20" style="fill: var(--color1, #231f20)" d="M0.141 17.402l0.777-0.254c0.042 0.074 0.067 0.163 0.067 0.257 0 0.009-0 0.019-0.001 0.028l0-0.001c0 0.003 0 0.006 0 0.009 0 0.103-0.024 0.201-0.068 0.287l0.002-0.004v0.015l-0.777-0.23c-0.020-0.011-0.033-0.032-0.034-0.055v-0c0.002-0.022 0.015-0.041 0.034-0.051l0-0z"></path>
<path fill="#fff" style="fill: var(--color2, #fff)" d="M10.121 17.425c0-0.058 0.062-0.1 0.149-0.111h16.676c0.073 0 0.128 0.038 0.132 0.111s-0.079 0.132-0.179 0.126h-16.538c-0.143 0.013-0.243-0.047-0.241-0.126z"></path>
<path fill="#231f20" style="fill: var(--color1, #231f20)" d="M7.285 16.139l-5.274 0.653c0.060 0.182 0.094 0.391 0.094 0.608 0 0.033-0.001 0.066-0.002 0.099l0-0.005c-0.007 0.209-0.047 0.407-0.113 0.592l0.004-0.014 5.291 0.663c0.184-0.378 0.292-0.823 0.292-1.293s-0.108-0.915-0.3-1.311l0.008 0.018z"></path>
<path fill="#231f20" style="fill: var(--color1, #231f20)" d="M2.012 16.791l-1.094 0.356c0.042 0.074 0.067 0.163 0.067 0.257 0 0.009-0 0.019-0.001 0.028l0-0.001c0 0.003 0 0.006 0 0.009 0 0.103-0.024 0.201-0.068 0.287l0.002-0.004v0.015l1.079 0.322c0.060-0.168 0.099-0.362 0.107-0.564l0-0.004c0.001-0.028 0.002-0.061 0.002-0.094 0-0.217-0.034-0.426-0.098-0.622l0.004 0.014z"></path>
<path fill="#fff" style="fill: var(--color2, #fff)" d="M2.014 18.086h-0.030l-1.109-0.331 0.017-0.043c0.040-0.081 0.064-0.177 0.064-0.279 0-0.001 0-0.002 0-0.003v0c0-0.008 0.001-0.017 0.001-0.026 0-0.090-0.023-0.174-0.064-0.247l0.001 0.003-0.015-0.028 1.152-0.375v0.026c0.066 0.192 0.103 0.414 0.103 0.644 0 0.023-0 0.046-0.001 0.069l0-0.003c-0.010 0.212-0.050 0.412-0.115 0.599l0.005-0.015zM0.947 17.722l1.028 0.307c0.054-0.158 0.091-0.34 0.102-0.53l0-0.006c0.001-0.024 0.002-0.052 0.002-0.080 0-0.206-0.031-0.405-0.089-0.592l0.004 0.014-1.041 0.329c0.035 0.069 0.056 0.151 0.056 0.238 0 0.010-0 0.020-0.001 0.030l0-0.001c0 0.001 0 0.002 0 0.002 0 0.104-0.022 0.203-0.062 0.292l0.002-0.005z"></path>
<path fill="#231f20" style="fill: var(--color1, #231f20)" d="M31.573 18.517h0.514v1.097h-2.037l-1.44-0.877h2.837c0.042-0.062 0.084-0.134 0.121-0.209l0.005-0.011z"></path>
<path fill="#fff" style="fill: var(--color2, #fff)" d="M32.122 19.642h-2.074l-1.525-0.932h2.918c0.038-0.060 0.077-0.13 0.11-0.202l0.005-0.011v-0.015h0.559zM30.063 19.588h2.005v-1.045h-0.471c-0.041 0.084-0.080 0.154-0.124 0.221l0.005-0.008h-2.765z"></path>
<path fill="#231f20" style="fill: var(--color1, #231f20)" d="M28.269 18.505h3.322c-0.041 0.083-0.082 0.153-0.128 0.219l0.004-0.006h-2.837z"></path>
<path fill="#fff" style="fill: var(--color2, #fff)" d="M7.381 18.773l-0.192-0.094c0.178-0.364 0.282-0.793 0.282-1.246s-0.104-0.881-0.289-1.263l0.008 0.017 0.192-0.092c0.191 0.392 0.303 0.852 0.303 1.339s-0.112 0.947-0.311 1.357l0.008-0.018z"></path>
</symbol>
<symbol id="icon-qiam1" viewBox="0 0 32 32">
<path fill="#231f20" style="fill: var(--color1, #231f20)" d="M32 14.411v-0.606h-0.318v-0.365h-24.066l-3.061 0.516h-2.56l-1.813 0.702c-0.086 0.029-0.147 0.109-0.147 0.203s0.061 0.174 0.145 0.202l0.002 0 1.82 0.681h2.56l3.055 0.595h24.066v-0.365h0.318v-0.614h-0.318v-0.949z"></path>
<path fill="#fff" style="fill: var(--color2, #fff)" d="M30.054 16h-21.19c-0.039-0.007-0.068-0.040-0.068-0.080s0.029-0.073 0.067-0.080l0-0h21.19c0.004-0.001 0.008-0.001 0.013-0.001 0.045 0 0.081 0.036 0.081 0.081s-0.036 0.081-0.081 0.081c-0.005 0-0.009-0-0.014-0.001l0 0z"></path>
<path fill="#fff" style="fill: var(--color2, #fff)" d="M1.922 13.956h0.16v1.786h-0.16v-1.786z"></path>
<path fill="#fff" style="fill: var(--color2, #fff)" d="M4.448 13.956h0.213v1.786h-0.213v-1.786z"></path>
<path fill="#fff" style="fill: var(--color2, #fff)" d="M7.509 13.446h0.213v2.893h-0.213v-2.893z"></path>
<path fill="#231f20" style="fill: var(--color1, #231f20)" d="M0.459 15.168c0.039-0.091 0.061-0.197 0.061-0.308s-0.023-0.217-0.063-0.314l0.002 0.005s-0.459 0.073-0.459 0.299 0.459 0.318 0.459 0.318z"></path>
<path fill="#fff" style="fill: var(--color2, #fff)" d="M0.476 15.196h-0.021c-0.019 0-0.48-0.075-0.48-0.343s0.452-0.324 0.48-0.326h0.021v0.019c0.041 0.094 0.065 0.204 0.065 0.32s-0.024 0.226-0.067 0.325l0.002-0.005zM0.444 14.581c-0.087 0.017-0.416 0.092-0.416 0.269s0.329 0.271 0.414 0.297c0.035-0.084 0.055-0.183 0.055-0.285 0-0.101-0.019-0.197-0.055-0.285l0.002 0.005z"></path>
</symbol>
<symbol id="icon-qiam2" viewBox="0 0 32 32">
<path fill="#231f20" style="fill: var(--color1, #231f20)" d="M31.787 17.035v-0.593h-0.309v-0.35h-23.556l-2.997 0.499h-2.496l-1.788 0.689c-0.080 0.032-0.135 0.109-0.135 0.198s0.055 0.166 0.133 0.198l0.001 0 1.788 0.67h2.496l2.997 0.576h23.548v-0.363h0.318v-0.589h-0.309v-0.937z"></path>
<path fill="#fff" style="fill: var(--color2, #fff)" d="M29.867 18.613h-20.725c-0.058-0.001-0.105-0.048-0.107-0.107v-0c0-0.059 0.048-0.107 0.107-0.107v0h20.725c0.059 0 0.107 0.048 0.107 0.107v0c-0.001 0.058-0.048 0.105-0.107 0.107h-0z"></path>
<path fill="#fff" style="fill: var(--color2, #fff)" d="M2.4 16.591h0.053v1.747h-0.053v-1.747z"></path>
<path fill="#fff" style="fill: var(--color2, #fff)" d="M4.898 16.591h0.053v1.747h-0.053v-1.747z"></path>
<path fill="#fff" style="fill: var(--color2, #fff)" d="M7.893 16.092h0.053v2.831h-0.053v-2.831z"></path>
<path fill="#231f20" style="fill: var(--color1, #231f20)" d="M0.917 17.775c0.038-0.089 0.060-0.192 0.060-0.301s-0.022-0.212-0.062-0.306l0.002 0.005s-0.448 0.070-0.448 0.292 0.448 0.309 0.448 0.309z"></path>
<path fill="#fff" style="fill: var(--color2, #fff)" d="M0.934 17.805h-0.021c-0.019 0-0.471-0.075-0.471-0.337s0.452-0.316 0.471-0.318h0.021v0.019c0.039 0.092 0.062 0.2 0.062 0.313s-0.023 0.22-0.064 0.318l0.002-0.005zM0.902 17.203c-0.085 0.017-0.407 0.092-0.407 0.262s0.322 0.265 0.407 0.279c0.031-0.081 0.048-0.174 0.048-0.271s-0.018-0.19-0.050-0.276l0.002 0.005z"></path>
</symbol>
<symbol id="icon-safir" viewBox="0 0 32 32">
<path fill="#000" style="fill: var(--color8, #000)" d="M1.66 16.373v-1.83h29.154v1.83h-29.154z"></path>
<path fill="#fff" style="fill: var(--color2, #fff)" d="M30.861 16.427h-29.246v-1.92h29.246zM1.707 16.326h29.062v-1.741h-29.062z"></path>
<path fill="#000" style="fill: var(--color8, #000)" d="M31.403 17.188v-0.847h-2.603l1.581 0.847h1.022z"></path>
<path fill="#fff" style="fill: var(--color2, #fff)" d="M31.447 17.235h-1.079l-1.751-0.941h2.831zM30.391 17.141h0.969v-0.755h-2.377z"></path>
<path fill="#000" style="fill: var(--color8, #000)" d="M31.403 13.694v0.847h-2.603l1.581-0.847h1.022z"></path>
<path fill="#fff" style="fill: var(--color2, #fff)" d="M31.447 14.586h-2.831l1.751-0.939h1.079zM28.983 14.494h2.377v-0.755h-0.964z"></path>
<path fill="#000" style="fill: var(--color8, #000)" d="M0.542 15.806l1.067 0.557c0.002 0.003 0.005 0.004 0.009 0.004s0.007-0.002 0.008-0.004l0-0v-1.792c0-0.001 0-0.002 0-0.002 0-0.009-0.008-0.017-0.017-0.017-0.003 0-0.006 0.001-0.009 0.002l0-0-1.067 0.553c-0.125 0.068-0.208 0.198-0.208 0.348 0 0.153 0.087 0.286 0.214 0.351l0.002 0.001z"></path>
<path fill="#fff" style="fill: var(--color2, #fff)" d="M1.621 16.41c-0.004 0.001-0.009 0.002-0.014 0.002s-0.010-0.001-0.014-0.002l0 0-1.067-0.557c-0.142-0.075-0.238-0.221-0.238-0.39s0.095-0.316 0.235-0.389l0.002-0.001 1.067-0.553c0.009-0.005 0.020-0.008 0.031-0.008s0.022 0.003 0.031 0.008l-0-0c0.019 0.012 0.032 0.032 0.032 0.055v1.781c0 0 0 0.001 0 0.001 0 0.020-0.011 0.038-0.027 0.048l-0 0c-0.007 0.004-0.015 0.006-0.024 0.006-0.005 0-0.010-0.001-0.015-0.002l0 0zM1.587 14.615l-1.024 0.531c-0.113 0.059-0.189 0.175-0.189 0.309s0.076 0.25 0.187 0.308l0.002 0.001 1.024 0.531z"></path>
<path fill="#fff" style="fill: var(--color2, #fff)" d="M3.010 14.541h0.092v1.83h-0.092v-1.83z"></path>
<path fill="#fff" style="fill: var(--color2, #fff)" d="M7.298 14.541h0.092v1.83h-0.092v-1.83z"></path>
<path fill="#fff" style="fill: var(--color2, #fff)" d="M27.473 14.541h0.092v1.83h-0.092v-1.83z"></path>
<path fill="#000" style="fill: var(--color8, #000)" d="M28.693 15.494v-0.107h2.709v0.107h-2.709z"></path>
<path fill="#fff" style="fill: var(--color2, #fff)" d="M31.447 15.539h-2.799v-0.198h2.799zM28.74 15.447h2.62v-0.015h-2.62z"></path>
</symbol>
<symbol id="icon-scudBC" viewBox="0 0 32 32">
<path fill="#000" style="fill: var(--color8, #000)" d="M28.403 17.67h2.263l0.401-1.764h-4.124l1.459 1.764z"></path>
<path fill="#000" style="fill: var(--color8, #000)" d="M30.667 13.31h-2.263l-1.459 1.764h4.124l-0.401-1.764z"></path>
<path fill="#000" style="fill: var(--color8, #000)" d="M32 16.725h-26.364l-5.519-1.135c-0.069-0.012-0.12-0.072-0.12-0.143s0.052-0.131 0.119-0.143l0.001-0 5.519-1.135h26.364z"></path>
<path fill="#fff" style="fill: var(--color2, #fff)" d="M32.028 16.753h-26.391l-5.525-1.135c-0.079-0.018-0.137-0.088-0.137-0.171s0.058-0.152 0.135-0.17l0.001-0 5.519-1.135h26.398zM5.636 14.193l-5.515 1.137c-0.056 0.011-0.097 0.059-0.097 0.117s0.041 0.106 0.096 0.117l0.001 0 5.519 1.135h26.334v-2.505z"></path>
<path fill="#000" style="fill: var(--color8, #000)" d="M31.808 12.956h-2.263l-1.854 1.764h4.124l-0.006-1.764z"></path>
<path fill="#fff" style="fill: var(--color2, #fff)" d="M31.842 14.746h-4.218l1.909-1.818h2.3zM27.757 14.692h4.030v-1.707h-2.231z"></path>
<path fill="#000" style="fill: var(--color8, #000)" d="M29.545 17.907h2.263l0.006-1.764h-4.124l1.854 1.764z"></path>
<path fill="#fff" style="fill: var(--color2, #fff)" d="M31.834 17.933h-2.3l-1.901-1.811h4.218zM29.555 17.879h2.231v-1.707h-4.032z"></path>
<path fill="#000" style="fill: var(--color8, #000)" d="M5.636 14.17s-0.474 1.297 0 2.56z"></path>
<path fill="#fff" style="fill: var(--color2, #fff)" d="M5.611 16.736c-0.469-1.254 0-2.56 0-2.577l0.051 0.019c0 0.013-0.465 1.303 0 2.539z"></path>
</symbol>
<symbol id="icon-shahab1" viewBox="0 0 32 32">
<path fill="#231f20" style="fill: var(--color1, #231f20)" d="M29.833 14.673h2.020v1.086h-0.538c-0.030-0.064-0.062-0.132-0.098-0.213h-2.833z"></path>
<path fill="#231f20" style="fill: var(--color1, #231f20)" d="M28.384 15.556h2.833c0.036 0.070 0.068 0.139 0.098 0.213h-3.262z"></path>
<path fill="#231f20" style="fill: var(--color1, #231f20)" d="M0.969 17.124c0.042-0.082 0.066-0.178 0.066-0.28 0-0.003-0-0.006-0-0.009v0c0-0.008 0.001-0.017 0.001-0.026 0-0.093-0.025-0.181-0.068-0.256l0.001 0.003 1.086-0.343 5.22-0.64h21.12l-0.331 0.213h3.262c0.17 0.317 0.269 0.692 0.269 1.092 0 0.379-0.090 0.738-0.25 1.055l0.006-0.013h-3.298l0.356 0.213h-21.135l-5.237-0.674-1.067-0.32zM10.202 16.681v0 0.013c-0.062 0.018-0.108 0.070-0.119 0.133l-0 0.001c0.022 0.096 0.107 0.166 0.208 0.166 0.011 0 0.022-0.001 0.032-0.002l-0.001 0h16.373c0.004 0 0.009 0.001 0.014 0.001 0.062 0 0.117-0.034 0.145-0.085l0-0.001h0.467c0.118 0 0.213-0.096 0.213-0.213v0 0 0c0-0.118-0.096-0.213-0.213-0.213v0h-16.9c-0.002-0-0.004-0-0.007-0-0.113 0-0.206 0.088-0.213 0.2l-0 0.001z"></path>
<path fill="#fff" style="fill: var(--color2, #fff)" d="M27.322 16.461c0.118 0 0.213 0.096 0.213 0.213v0h-17.333c0-0.118 0.095-0.213 0.213-0.213v0z"></path>
<path fill="#fff" style="fill: var(--color2, #fff)" d="M10.261 16.681v0z"></path>
<path fill="#fff" style="fill: var(--color2, #fff)" d="M26.694 16.681v0z"></path>
<path fill="#fff" style="fill: var(--color2, #fff)" d="M10.202 16.683h0.060c-0.022 0.002-0.042 0.007-0.061 0.015l0.001-0v-0.015z"></path>
<path fill="#fff" style="fill: var(--color2, #fff)" d="M10.421 16.909c-0.118 0-0.213-0.096-0.213-0.213v0c0.017-0.008 0.038-0.013 0.059-0.015l0.001-0h16.454c0.083 0.001 0.151 0.067 0.156 0.149l0 0c0 0.003 0 0.007 0 0.011 0 0.025-0.006 0.049-0.018 0.069l0-0.001z"></path>
<path fill="#fff" style="fill: var(--color2, #fff)" d="M27.543 16.683v0c0 0.118-0.096 0.213-0.213 0.213v0h-0.467c0.011-0.020 0.017-0.043 0.017-0.068 0-0.004-0-0.007-0-0.011l0 0c-0.005-0.083-0.072-0.148-0.156-0.149h0.828z"></path>
<path fill="#231f20" style="fill: var(--color1, #231f20)" d="M10.202 16.695c0 0.118 0.095 0.213 0.213 0.213v0h16.427c-0.029 0.052-0.083 0.086-0.146 0.086-0.005 0-0.010-0-0.015-0.001l0.001 0h-16.361c-0.009 0.001-0.020 0.002-0.031 0.002-0.101 0-0.186-0.070-0.208-0.165l-0-0.001c0.011-0.065 0.057-0.116 0.118-0.134l0.001-0z"></path>
<path fill="#231f20" style="fill: var(--color1, #231f20)" d="M31.341 17.899h0.512v1.088h-2.020l-1.423-0.87h2.807c0.043-0.062 0.084-0.133 0.12-0.208l0.004-0.010z"></path>
<path fill="#231f20" style="fill: var(--color1, #231f20)" d="M28.053 17.899h3.287c-0.040 0.082-0.081 0.152-0.127 0.219l0.003-0.005h-2.807z"></path>
<path fill="#231f20" style="fill: var(--color1, #231f20)" d="M31.217 18.17h-23.942c-0.029 0-0.053-0.024-0.053-0.053v0c0-0.029 0.024-0.053 0.053-0.053v0h23.942c0.029 0 0.053 0.024 0.053 0.053v0c0 0.029-0.024 0.053-0.053 0.053v0z"></path>
<path fill="#231f20" style="fill: var(--color1, #231f20)" d="M31.217 18.17c-0.004 0.001-0.010 0.002-0.015 0.002s-0.010-0.001-0.015-0.002l0 0c-0.014-0.010-0.023-0.026-0.023-0.044 0-0.012 0.004-0.022 0.010-0.031l-0 0c0.225-0.354 0.358-0.784 0.358-1.246 0-0.001 0-0.003 0-0.004v0c-0.017-0.464-0.15-0.895-0.369-1.267l0.007 0.013c-0.004-0.007-0.006-0.016-0.006-0.025 0-0.030 0.024-0.054 0.054-0.054 0.021 0 0.039 0.012 0.048 0.029l0 0c0.219 0.374 0.356 0.821 0.373 1.298l0 0.005c0 0.005 0 0.011 0 0.017 0 0.481-0.141 0.929-0.383 1.305l0.006-0.009c-0.009 0.008-0.022 0.014-0.036 0.014-0.003 0-0.006-0-0.010-0.001l0 0z"></path>
<path fill="#231f20" style="fill: var(--color1, #231f20)" d="M0.201 16.809l0.768-0.252c0.042 0.073 0.067 0.16 0.067 0.253 0 0.009-0 0.018-0.001 0.027l0-0.001c0 0.002 0 0.005 0 0.008 0 0.102-0.024 0.198-0.068 0.283l0.002-0.004v0.015l-0.768-0.226c-0.021-0.012-0.034-0.034-0.034-0.059 0-0 0-0 0-0.001v0c0.003-0.020 0.016-0.036 0.034-0.045l0-0z"></path>
<path fill="#231f20" style="fill: var(--color1, #231f20)" d="M29.833 14.673h2.020v1.086h-3.799l1.779-1.086z"></path>
<path fill="#231f20" style="fill: var(--color1, #231f20)" d="M28.053 17.901h3.799v1.086h-2.020l-1.779-1.086z"></path>
<path fill="#fff" style="fill: var(--color2, #fff)" d="M7.275 18.17c-0.004 0.001-0.008 0.002-0.012 0.002s-0.008-0.001-0.012-0.002l0 0c-0.017-0.009-0.029-0.027-0.029-0.047 0-0.008 0.002-0.016 0.005-0.023l-0 0c0.179-0.368 0.284-0.801 0.284-1.258s-0.105-0.89-0.291-1.275l0.008 0.017c-0.004-0.007-0.007-0.016-0.007-0.026 0-0.022 0.013-0.041 0.032-0.049l0-0c0.007-0.004 0.015-0.006 0.024-0.006 0.021 0 0.040 0.013 0.048 0.031l0 0c0.186 0.381 0.295 0.829 0.295 1.302s-0.109 0.921-0.302 1.32l0.008-0.018c-0.010 0.018-0.029 0.030-0.051 0.030-0 0-0 0-0.001 0h0z"></path>
<path fill="#fff" style="fill: var(--color2, #fff)" d="M2.031 17.515v0c-0.011-0.003-0.018-0.013-0.018-0.024 0-0.003 0-0.005 0.001-0.008l-0 0c0.060-0.167 0.098-0.36 0.107-0.561l0-0.004c0.001-0.027 0.002-0.058 0.002-0.090 0-0.209-0.034-0.411-0.096-0.6l0.004 0.014c-0.001-0.002-0.001-0.004-0.001-0.006 0-0.009 0.005-0.017 0.011-0.021l0-0c0.002-0.001 0.005-0.001 0.007-0.001 0.011 0 0.021 0.008 0.024 0.018l0 0c0.059 0.181 0.094 0.39 0.094 0.607 0 0.030-0.001 0.061-0.002 0.091l0-0.004c-0.010 0.207-0.049 0.401-0.113 0.584l0.004-0.015c-0.003 0.012-0.013 0.021-0.026 0.021h-0z"></path>
<path fill="#231f20" style="fill: var(--color1, #231f20)" d="M10.319 15.403h16.375l0.847 0.316h-18.069l0.847-0.316z"></path>
<path fill="#231f20" style="fill: var(--color1, #231f20)" d="M9.472 17.967h18.069l-0.847 0.314h-16.375l-0.847-0.314z"></path>
</symbol>
<symbol id="icon-shahab2" viewBox="0 0 32 32">
<path fill="#231f20" style="fill: var(--color1, #231f20)" d="M29.758 13.843h2.029v1.090h-0.538l-0.102-0.213h-2.837z"></path>
<path fill="#231f20" style="fill: var(--color1, #231f20)" d="M28.307 14.72h2.839l0.096 0.201h-3.264z"></path>
<path fill="#231f20" style="fill: var(--color1, #231f20)" d="M27.061 17.28h-19.861l-5.239-0.64c0.060-0.17 0.099-0.366 0.109-0.569l0-0.005c0.001-0.023 0.001-0.050 0.001-0.076 0-0.217-0.034-0.427-0.097-0.623l0.004 0.014 5.222-0.64h21.107l-0.329 0.201h3.262c0.17 0.317 0.269 0.693 0.269 1.092 0 0.379-0.090 0.738-0.25 1.055l0.006-0.013h-3.287l0.356 0.213zM27.307 16.156c0.087 0 0.158-0.071 0.158-0.158s-0.071-0.158-0.158-0.158v0h-16.373c-0.087 0-0.158 0.071-0.158 0.158s0.071 0.158 0.158 0.158v0h16.373z"></path>
<path fill="#231f20" style="fill: var(--color1, #231f20)" d="M10.933 15.84h16.373c0.087 0 0.158 0.071 0.158 0.158s-0.071 0.158-0.158 0.158v0h-16.378c-0.087 0-0.158-0.071-0.158-0.158s0.071-0.158 0.158-0.158v0z"></path>
<path fill="#231f20" style="fill: var(--color1, #231f20)" d="M31.266 17.067h0.521v1.086h-2.020l-1.431-0.873h2.812c0.039-0.059 0.079-0.129 0.114-0.201l0.005-0.012z"></path>
<path fill="#231f20" style="fill: var(--color1, #231f20)" d="M27.979 17.067h3.287c-0.041 0.084-0.082 0.154-0.126 0.221l0.005-0.008h-2.81z"></path>
<path fill="#fff" style="fill: var(--color2, #fff)" d="M31.147 14.754h-23.947c-0.001 0-0.001 0-0.002 0-0.014 0-0.026-0.011-0.026-0.026 0-0 0-0 0-0v0c0-0.015 0.012-0.028 0.028-0.028v0h23.947c0 0 0 0 0 0 0.014 0 0.026 0.011 0.026 0.026 0 0.001-0 0.002-0 0.002v-0c0 0.014-0.011 0.026-0.026 0.026v0z"></path>
<path fill="#fff" style="fill: var(--color2, #fff)" d="M31.147 17.314h-23.947c-0.001 0-0.001 0-0.002 0-0.014 0-0.026-0.011-0.026-0.026 0-0 0-0 0-0v0c0-0.015 0.012-0.028 0.028-0.028v0h23.947c0 0 0 0 0 0 0.014 0 0.026 0.011 0.026 0.026 0 0.001-0 0.002-0 0.002v-0c0 0.014-0.011 0.026-0.026 0.026v0z"></path>
<path fill="#fff" style="fill: var(--color2, #fff)" d="M7.2 17.314v0l-5.244-0.657c-0.013-0.002-0.024-0.014-0.024-0.027 0-0.001 0-0.002 0-0.003v0c0.002-0.013 0.014-0.024 0.027-0.024 0.001 0 0.002 0 0.003 0h-0l5.239 0.657c0.013 0.001 0.024 0.012 0.024 0.026 0 0.002-0 0.003-0 0.004l0-0c-0.001 0.013-0.012 0.023-0.026 0.023-0 0-0 0-0 0v0z"></path>
<path fill="#fff" style="fill: var(--color2, #fff)" d="M1.978 15.401c-0.013-0.001-0.024-0.011-0.026-0.023l-0-0c-0-0.001-0-0.003-0-0.004 0-0.014 0.010-0.025 0.024-0.026h0l5.22-0.64c0.001-0 0.003-0 0.004-0 0.014 0 0.025 0.010 0.026 0.024v0c0 0.001 0 0.003 0 0.004 0 0.014-0.010 0.025-0.024 0.026h-0l-5.22 0.64z"></path>
<path fill="#231f20" style="fill: var(--color1, #231f20)" d="M0.894 15.727l1.084-0.354c0.059 0.182 0.093 0.391 0.093 0.608 0 0.027-0.001 0.054-0.002 0.080l0-0.004c-0.009 0.211-0.048 0.41-0.113 0.597l0.004-0.015-1.067-0.322v-0.013c0.041-0.083 0.064-0.18 0.064-0.283 0-0.008-0-0.016-0-0.024l0 0.001c0-0.006 0-0.013 0-0.020 0-0.093-0.024-0.18-0.066-0.256l0.001 0.003z"></path>
<path fill="#231f20" style="fill: var(--color1, #231f20)" d="M0.245 15.938l0.64-0.213c0.046 0.077 0.073 0.169 0.073 0.268 0 0.003-0 0.005-0 0.008v-0c0 0.002 0 0.004 0 0.006 0 0.102-0.024 0.2-0.066 0.286l0.002-0.004v0.013l-0.64-0.194c-0.035-0.015-0.059-0.049-0.059-0.089s0.024-0.074 0.058-0.088l0.001-0z"></path>
<path fill="#231f20" style="fill: var(--color1, #231f20)" d="M29.76 13.843h2.018v1.086h-3.799l1.781-1.086z"></path>
<path fill="#231f20" style="fill: var(--color1, #231f20)" d="M27.979 17.071h3.799v1.086h-2.018l-1.781-1.086z"></path>
<path fill="#fff" style="fill: var(--color2, #fff)" d="M7.241 17.333v0c-0.009-0.005-0.015-0.014-0.015-0.025 0-0.004 0.001-0.008 0.003-0.012l-0 0c0.18-0.371 0.286-0.807 0.286-1.268s-0.105-0.897-0.293-1.286l0.008 0.018c-0.002-0.003-0.003-0.007-0.003-0.011 0-0.011 0.006-0.020 0.015-0.025l0-0c0.003-0.001 0.006-0.001 0.010-0.001 0.011 0 0.021 0.006 0.027 0.014l0 0c0.183 0.378 0.29 0.822 0.29 1.292s-0.107 0.914-0.298 1.31l0.008-0.018c-0.005 0.009-0.014 0.015-0.025 0.015-0.004 0-0.008-0.001-0.012-0.003l0 0z"></path>
<path fill="#231f20" style="fill: var(--color1, #231f20)" d="M10.244 14.573h16.375l0.847 0.316h-18.069l0.847-0.316z"></path>
<path fill="#231f20" style="fill: var(--color1, #231f20)" d="M9.397 17.137h18.069l-0.847 0.316h-16.375l-0.847-0.316z"></path>
<path fill="#fff" style="fill: var(--color2, #fff)" d="M9.884 15.497h17.097c0.091 0 0.164 0.074 0.164 0.164v0.015c0 0.091-0.074 0.164-0.164 0.164h-17.097c-0.091 0-0.164-0.074-0.164-0.164v-0.015c0-0.091 0.074-0.164 0.164-0.164z"></path>
</symbol>
<symbol id="icon-shahab3" viewBox="0 0 32 32">
<path fill="#231f20" style="fill: var(--color1, #231f20)" d="M30.438 13.107h1.417v1.239h-0.64c-0.040-0.218-0.088-0.405-0.148-0.586l0.009 0.031h-2.106z"></path>
<path fill="#231f20" style="fill: var(--color1, #231f20)" d="M28.962 13.792h2.106c0.050 0.15 0.099 0.336 0.134 0.527l0.004 0.028h-3.443z"></path>
<path fill="#231f20" style="fill: var(--color1, #231f20)" d="M26.605 15.268c0.079-0.008 0.141-0.074 0.141-0.155 0-0.001 0-0.002-0-0.003v0c-0.001-0.081-0.062-0.147-0.14-0.156l-0.001-0h-19.051c-0.070 0.020-0.12 0.083-0.12 0.158 0 0.003 0 0.006 0 0.009l-0-0c0.003 0.071 0.053 0.129 0.118 0.147l0.001 0zM6.374 13.792h22.588l-1.199 0.555h3.443c0.042 0.23 0.068 0.496 0.070 0.768l0 0.002c0 0.008 0 0.018 0 0.028 0 0.308-0.030 0.61-0.088 0.901l0.005-0.029h-3.43l1.067 0.497h-22.455c0.162-0.404 0.256-0.871 0.256-1.361s-0.094-0.958-0.265-1.386l0.009 0.025z"></path>
<path fill="#231f20" style="fill: var(--color1, #231f20)" d="M4.222 14.487l2.153-0.695c0.162 0.403 0.256 0.871 0.256 1.361s-0.094 0.958-0.265 1.386l0.009-0.025-2.153-0.698c0.092-0.195 0.145-0.423 0.145-0.665 0-0.011-0-0.022-0-0.033l0 0.002c-0.004-0.231-0.057-0.448-0.149-0.643l0.004 0.010z"></path>
<path fill="#231f20" style="fill: var(--color1, #231f20)" d="M2.163 14.487h2.059c0.089 0.188 0.142 0.407 0.145 0.639v0.001c0 0.009 0 0.020 0 0.031 0 0.241-0.054 0.47-0.149 0.674l0.004-0.010h-2.059c0.062-0.197 0.098-0.424 0.098-0.659 0-0.006-0-0.012-0-0.019v0.001c-0.001-0.235-0.036-0.462-0.102-0.676l0.004 0.016z"></path>
<path fill="#231f20" style="fill: var(--color1, #231f20)" d="M0.672 14.871l1.493-0.384c0.061 0.197 0.096 0.423 0.096 0.658 0 0 0 0.001 0 0.001v-0c0 0.001 0 0.002 0 0.003 0 0.235-0.036 0.461-0.102 0.674l0.004-0.016-1.493-0.384c0.022-0.082 0.036-0.177 0.036-0.275v-0c-0.001-0.101-0.014-0.199-0.038-0.292l0.002 0.008z"></path>
<path fill="#231f20" style="fill: var(--color1, #231f20)" d="M7.554 14.955h19.051c0.079 0.009 0.14 0.075 0.141 0.156v0c0 0.001 0 0.002 0 0.003 0 0.081-0.061 0.147-0.14 0.155l-0.001 0h-19.051c-0.067-0.018-0.116-0.076-0.119-0.147v-0c-0-0.002-0-0.005-0-0.008 0-0.075 0.050-0.138 0.119-0.158l0.001-0z"></path>
<path fill="#231f20" style="fill: var(--color1, #231f20)" d="M31.194 16.017h0.661v1.239h-1.417l-1.602-0.742h2.231c0.046-0.135 0.090-0.302 0.122-0.473l0.004-0.024z"></path>
<path fill="#231f20" style="fill: var(--color1, #231f20)" d="M27.763 16.017h3.43c-0.036 0.195-0.080 0.362-0.134 0.524l0.008-0.027h-2.231z"></path>
<path fill="#fff" style="fill: var(--color2, #fff)" d="M31.119 16.567h-24.811l0.030-0.073c0.159-0.398 0.252-0.859 0.252-1.342s-0.093-0.944-0.261-1.367l0.009 0.025-0.030-0.073h24.811l0.013 0.036c0.134 0.412 0.211 0.885 0.211 1.377s-0.077 0.965-0.22 1.41l0.009-0.032zM6.464 16.461h24.578c0.123-0.391 0.194-0.841 0.194-1.308s-0.071-0.916-0.203-1.34l0.009 0.032h-24.578c0.147 0.389 0.233 0.838 0.233 1.308s-0.085 0.919-0.241 1.334l0.009-0.026z"></path>
<path fill="#fff" style="fill: var(--color2, #fff)" d="M4.288 15.844h-2.133l0.011-0.034c0.061-0.196 0.096-0.421 0.096-0.654 0-0.003 0-0.007-0-0.010v0.001c-0.001-0.229-0.036-0.449-0.1-0.656l0.004 0.016-0.011-0.034h2.133v0.015c0.088 0.188 0.142 0.407 0.147 0.638l0 0.002c0 0.008 0 0.018 0 0.028 0 0.247-0.054 0.48-0.152 0.69l0.004-0.010zM2.225 15.787h2.029c0.087-0.188 0.138-0.408 0.138-0.64s-0.051-0.452-0.142-0.65l0.004 0.010h-2.029c0.057 0.188 0.090 0.405 0.090 0.629 0 0.004 0 0.008-0 0.012v-0.001c0 0.002 0 0.004 0 0.006 0 0.226-0.033 0.444-0.094 0.65l0.004-0.016z"></path>
<path fill="#fff" style="fill: var(--color2, #fff)" d="M4.286 15.868l0.033-0.101 2.151 0.696-0.033 0.102-2.152-0.696z"></path>
<path fill="#fff" style="fill: var(--color2, #fff)" d="M4.286 14.44l2.151-0.698 0.033 0.101-2.151 0.698-0.033-0.101z"></path>
<path fill="#231f20" style="fill: var(--color1, #231f20)" d="M0.096 15.021l0.576-0.149c0.022 0.085 0.036 0.183 0.036 0.283v0c-0.001 0.098-0.014 0.193-0.038 0.283l0.002-0.008-0.578-0.149c-0.055-0.018-0.094-0.070-0.094-0.13 0-0.002 0-0.003 0-0.005v0c0.004-0.058 0.042-0.107 0.095-0.126l0.001-0z"></path>
<path fill="#fff" style="fill: var(--color2, #fff)" d="M0.089 15.31l0.013-0.052 2.068 0.534-0.013 0.052-2.068-0.534z"></path>
<path fill="#fff" style="fill: var(--color2, #fff)" d="M0.090 14.997l2.068-0.534 0.013 0.052-2.068 0.534-0.013-0.052z"></path>
<path fill="#fff" style="fill: var(--color2, #fff)" d="M0.087 15.309c-0.067-0.021-0.115-0.084-0.115-0.157s0.048-0.135 0.114-0.156l0.001-0 0.017 0.051c-0.044 0.014-0.075 0.053-0.077 0.1v0c0 0.001-0 0.002-0 0.002 0 0.050 0.032 0.092 0.076 0.108l0.001 0z"></path>
<path fill="#fff" style="fill: var(--color2, #fff)" d="M0.7 15.439l-0.060-0.013c0.023-0.081 0.036-0.173 0.036-0.269v-0c0-0.003 0-0.006 0-0.009 0-0.096-0.013-0.188-0.038-0.276l0.002 0.007 0.053-0.013c0.023 0.087 0.036 0.187 0.036 0.29v0c0 0.007 0 0.014 0 0.022 0 0.092-0.011 0.181-0.032 0.267l0.002-0.008z"></path>
<path fill="#231f20" style="fill: var(--color1, #231f20)" d="M30.519 13.107h1.414v1.239h-4.090l2.675-1.239z"></path>
<path fill="#231f20" style="fill: var(--color1, #231f20)" d="M27.844 16.017h4.090v1.239h-1.414l-2.675-1.239z"></path>
<path fill="#fff" style="fill: var(--color2, #fff)" d="M30.509 17.28l-2.675-1.239 0.021-0.047 2.675 1.239-0.021 0.047z"></path>
<path fill="#fff" style="fill: var(--color2, #fff)" d="M27.844 15.989h4.090v0.053h-4.090v-0.053z"></path>
<path fill="#fff" style="fill: var(--color2, #fff)" d="M31.908 16.017h0.053v1.239h-0.053v-1.239z"></path>
<path fill="#fff" style="fill: var(--color2, #fff)" d="M30.519 17.231h1.414v0.053h-1.414v-0.053z"></path>
<path fill="#fff" style="fill: var(--color2, #fff)" d="M27.855 14.372l-0.021-0.049 2.675-1.239 0.021 0.049-2.675 1.239z"></path>
<path fill="#fff" style="fill: var(--color2, #fff)" d="M27.844 14.321h4.090v0.053h-4.090v-0.053z"></path>
<path fill="#fff" style="fill: var(--color2, #fff)" d="M31.908 13.107h0.053v1.239h-0.053v-1.239z"></path>
<path fill="#fff" style="fill: var(--color2, #fff)" d="M30.519 13.082h1.414v0.053h-1.414v-0.053z"></path>
<path fill="#fff" style="fill: var(--color2, #fff)" d="M6.921 14.293h20.38v0.053h-20.38v-0.053z"></path>
<path fill="#fff" style="fill: var(--color2, #fff)" d="M7.42 13.98h19.051v0.053h-19.051v-0.053z"></path>
<path fill="#fff" style="fill: var(--color2, #fff)" d="M6.935 14.345l-0.028-0.047 0.499-0.314 0.028 0.045-0.499 0.316z"></path>
<path fill="#fff" style="fill: var(--color2, #fff)" d="M27.29 14.347l-0.828-0.316 0.019-0.049 0.828 0.314-0.019 0.051z"></path>
<path fill="#fff" style="fill: var(--color2, #fff)" d="M7.582 14.963h19.031c0.080 0 0.145 0.065 0.145 0.145v0.004c0 0.080-0.065 0.145-0.145 0.145h-19.031c-0.080 0-0.145-0.065-0.145-0.145v-0.004c0-0.080 0.065-0.145 0.145-0.145z"></path>
</symbol>
<symbol id="icon-shahab3M" viewBox="0 0 32 32">
<path fill="#231f20" style="fill: var(--color1, #231f20)" d="M30.319 13.069h1.41v1.235h-0.64c-0.039-0.217-0.087-0.403-0.145-0.584l0.009 0.031h-2.099z"></path>
<path fill="#231f20" style="fill: var(--color1, #231f20)" d="M28.847 13.751h2.099c0.050 0.149 0.097 0.335 0.132 0.525l0.004 0.027h-3.43z"></path>
<path fill="#231f20" style="fill: var(--color1, #231f20)" d="M26.498 15.223c0.079-0.009 0.14-0.076 0.14-0.157s-0.061-0.147-0.139-0.157l-0.001-0h-18.987c-0.070 0.019-0.121 0.082-0.121 0.157s0.051 0.138 0.12 0.157l0.001 0zM6.334 13.751h22.513l-1.195 0.553h3.43c0.043 0.229 0.069 0.494 0.070 0.764v0.001c0 0.016 0 0.036 0 0.055 0 0.298-0.030 0.59-0.086 0.871l0.005-0.028h-3.413l1.067 0.497h-22.391c0.162-0.402 0.256-0.869 0.256-1.357s-0.094-0.955-0.265-1.382l0.009 0.025z"></path>
<path fill="#231f20" style="fill: var(--color1, #231f20)" d="M4.188 14.445l2.146-0.693c0.162 0.402 0.256 0.868 0.256 1.357s-0.094 0.955-0.265 1.382l0.009-0.025-2.146-0.695c0.092-0.194 0.145-0.422 0.145-0.662 0-0.011-0-0.022-0-0.033l0 0.002c-0.005-0.23-0.058-0.446-0.149-0.641l0.004 0.010z"></path>
<path fill="#231f20" style="fill: var(--color1, #231f20)" d="M2.133 14.445h2.052c0.088 0.188 0.141 0.407 0.145 0.639l0 0.001c0 0.009 0 0.020 0 0.031 0 0.24-0.054 0.468-0.149 0.672l0.004-0.010h-2.052c0.062-0.197 0.098-0.423 0.098-0.658 0-0.001 0-0.001 0-0.002v0c0-0.003 0-0.007 0-0.011 0-0.236-0.036-0.464-0.103-0.679l0.004 0.016z"></path>
<path fill="#231f20" style="fill: var(--color1, #231f20)" d="M0.651 14.827l1.493-0.382c0.062 0.198 0.098 0.426 0.098 0.663 0 0.001 0 0.002 0 0.003v-0c-0.004 0.237-0.043 0.463-0.113 0.675l0.005-0.016-1.493-0.384c0.023-0.081 0.036-0.174 0.036-0.27 0-0.001 0-0.002 0-0.004v0c0-0.002 0-0.004 0-0.006 0-0.099-0.013-0.194-0.038-0.285l0.002 0.008z"></path>
<path fill="#231f20" style="fill: var(--color1, #231f20)" d="M7.509 14.91h18.987c0.079 0.009 0.14 0.076 0.14 0.157s-0.061 0.147-0.139 0.157l-0.001 0h-18.987c-0.070-0.019-0.121-0.082-0.121-0.157s0.051-0.138 0.12-0.157l0.001-0z"></path>
<path fill="#231f20" style="fill: var(--color1, #231f20)" d="M31.072 15.968h0.657v1.235h-1.41l-1.598-0.738h2.225c0.043-0.129 0.086-0.296 0.121-0.467l0.005-0.030z"></path>
<path fill="#231f20" style="fill: var(--color1, #231f20)" d="M27.652 15.968h3.413c-0.040 0.201-0.083 0.368-0.135 0.531l0.009-0.034h-2.219z"></path>
<path fill="#fff" style="fill: var(--color2, #fff)" d="M31.072 16.491h-24.672l0.015-0.036c0.161-0.399 0.254-0.862 0.254-1.347s-0.093-0.948-0.263-1.372l0.009 0.025-0.015-0.036 24.672 0.019c0.13 0.396 0.208 0.851 0.213 1.324l0 0.003c0 0.010 0 0.022 0 0.034 0 0.489-0.078 0.959-0.222 1.4l0.009-0.032zM6.479 16.437h24.555c0.127-0.398 0.201-0.855 0.201-1.33s-0.073-0.932-0.209-1.362l0.009 0.032h-24.555c0.154 0.395 0.243 0.852 0.243 1.33s-0.089 0.935-0.252 1.356l0.009-0.026z"></path>
<path fill="#fff" style="fill: var(--color2, #fff)" d="M4.282 15.797h-2.172v-0.036c0.062-0.191 0.099-0.411 0.1-0.639v-0.001c-0-0.235-0.037-0.461-0.105-0.673l0.004 0.016v-0.034h2.172v0.015c0.091 0.187 0.146 0.406 0.151 0.638l0 0.002c0 0.010 0 0.023 0 0.035 0 0.242-0.054 0.471-0.15 0.677l0.004-0.010zM2.182 15.744h2.065c0.088-0.189 0.139-0.41 0.139-0.643 0-0.009-0-0.018-0-0.026l0 0.001c-0.005-0.22-0.056-0.427-0.143-0.613l0.004 0.009h-2.065c0.058 0.192 0.091 0.412 0.092 0.64v0c-0.001 0.225-0.034 0.443-0.096 0.648l0.004-0.016z"></path>
<path fill="#fff" style="fill: var(--color2, #fff)" d="M4.252 15.817l0.033-0.101 2.145 0.694-0.033 0.102-2.145-0.694z"></path>
<path fill="#fff" style="fill: var(--color2, #fff)" d="M4.282 14.393l2.142-0.699 0.017 0.051-2.142 0.699-0.017-0.051z"></path>
<path fill="#231f20" style="fill: var(--color1, #231f20)" d="M0.075 14.976l0.576-0.149c0.023 0.083 0.036 0.179 0.036 0.278 0 0.002 0 0.004-0 0.006v-0c0 0.001 0 0.002 0 0.004 0 0.096-0.013 0.189-0.038 0.277l0.002-0.007-0.576-0.147c-0.055-0.019-0.094-0.071-0.094-0.131 0-0.002 0-0.004 0-0.006v0c0.001-0.058 0.040-0.107 0.093-0.123l0.001-0z"></path>
<path fill="#fff" style="fill: var(--color2, #fff)" d="M0.070 15.265l0.013-0.052 2.062 0.532-0.013 0.052-2.062-0.532z"></path>
<path fill="#fff" style="fill: var(--color2, #fff)" d="M0.067 14.95l2.062-0.532 0.013 0.052-2.062 0.532-0.013-0.052z"></path>
<path fill="#fff" style="fill: var(--color2, #fff)" d="M0.066 15.264c-0.066-0.024-0.113-0.087-0.113-0.161 0-0.001 0-0.001 0-0.002v0c0.002-0.071 0.048-0.13 0.112-0.151l0.001-0 0.017 0.051c-0.046 0.013-0.080 0.053-0.083 0.102v0c0 0.001 0 0.001 0 0.002 0 0.049 0.032 0.092 0.076 0.107l0.001 0z"></path>
<path fill="#fff" style="fill: var(--color2, #fff)" d="M0.676 15.394l-0.051-0.015c0.023-0.080 0.036-0.172 0.036-0.266v-0c-0-0.099-0.013-0.194-0.038-0.285l0.002 0.008 0.051-0.013c0.024 0.087 0.038 0.186 0.038 0.289 0 0 0 0.001 0 0.001v-0c-0 0.1-0.014 0.197-0.040 0.289l0.002-0.007z"></path>
<path fill="#231f20" style="fill: var(--color1, #231f20)" d="M30.398 13.069h1.412v1.235h-4.079l2.667-1.235z"></path>
<path fill="#231f20" style="fill: var(--color1, #231f20)" d="M27.731 15.968h4.079v1.235h-1.412l-2.667-1.235z"></path>
<path fill="#fff" style="fill: var(--color2, #fff)" d="M30.387 17.229l-2.667-1.235 0.023-0.049 2.667 1.235-0.023 0.049z"></path>
<path fill="#fff" style="fill: var(--color2, #fff)" d="M27.731 15.942h4.077v0.053h-4.077v-0.053z"></path>
<path fill="#fff" style="fill: var(--color2, #fff)" d="M31.782 15.968h0.053v1.235h-0.053v-1.235z"></path>
<path fill="#fff" style="fill: var(--color2, #fff)" d="M30.398 17.178h1.41v0.053h-1.41v-0.053z"></path>
<path fill="#fff" style="fill: var(--color2, #fff)" d="M27.744 14.33l-0.023-0.049 2.667-1.235 0.023 0.047-2.667 1.237z"></path>
<path fill="#fff" style="fill: var(--color2, #fff)" d="M27.731 14.278h4.077v0.053h-4.077v-0.053z"></path>
<path fill="#fff" style="fill: var(--color2, #fff)" d="M31.782 13.069h0.053v1.235h-0.053v-1.235z"></path>
<path fill="#fff" style="fill: var(--color2, #fff)" d="M30.398 13.043h1.41v0.053h-1.41v-0.053z"></path>
<path fill="#fff" style="fill: var(--color2, #fff)" d="M6.878 14.251h20.311v0.053h-20.311v-0.053z"></path>
<path fill="#fff" style="fill: var(--color2, #fff)" d="M7.375 13.937h18.989v0.053h-18.989v-0.053z"></path>
<path fill="#fff" style="fill: var(--color2, #fff)" d="M6.893 14.3l-0.028-0.045 0.497-0.314 0.028 0.047-0.497 0.311z"></path>
<path fill="#fff" style="fill: var(--color2, #fff)" d="M27.181 14.304l-0.826-0.314 0.019-0.051 0.826 0.314-0.019 0.051z"></path>
<path fill="#fff" style="fill: var(--color2, #fff)" d="M7.541 14.918h18.963c0.081 0 0.147 0.066 0.147 0.147v-0.002c0 0.081-0.066 0.147-0.147 0.147h-18.963c-0.081 0-0.147-0.066-0.147-0.147v0.002c0-0.081 0.066-0.147 0.147-0.147z"></path>
</symbol>
<symbol id="icon-simorgh" viewBox="0 0 32 32">
<path fill="#000" style="fill: var(--color8, #000)" d="M12.205 17.532v-3.061h19.191v3.061h-19.191z"></path>
<path fill="#fff" style="fill: var(--color2, #fff)" d="M31.437 17.57h-19.277v-3.14h19.273zM12.237 17.489h19.123v-2.982h-19.117z"></path>
<path fill="#000" style="fill: var(--color8, #000)" d="M1.359 16.806v-1.611h9.050v1.611h-9.050z"></path>
<path fill="#fff" style="fill: var(--color2, #fff)" d="M10.453 16.853h-9.135v-1.707h9.135zM1.399 16.766h8.96v-1.532h-8.96z"></path>
<path fill="#000" style="fill: var(--color8, #000)" d="M10.409 16.806v-1.613l1.794-0.723v3.059l-1.794-0.723z"></path>
<path fill="#fff" style="fill: var(--color2, #fff)" d="M12.243 17.589l-1.875-0.757v-1.664l1.875-0.757zM10.453 16.779l1.707 0.691v-2.94l-1.707 0.691z"></path>
<path fill="#000" style="fill: var(--color8, #000)" d="M0.427 16.337l0.894 0.465c0.002 0.001 0.004 0.002 0.007 0.002 0.007 0 0.013-0.006 0.013-0.013 0-0.001-0-0.001-0-0.002v0-1.598l-0.913 0.471c-0.123 0.065-0.205 0.191-0.205 0.337s0.082 0.272 0.203 0.336l0.002 0.001z"></path>
<path fill="#fff" style="fill: var(--color2, #fff)" d="M1.325 16.853c-0.004 0.001-0.008 0.001-0.013 0.001s-0.009-0.001-0.013-0.002l0 0-0.892-0.48c-0.132-0.074-0.22-0.213-0.22-0.373s0.088-0.299 0.218-0.372l0.93-0.481 0.043 0.023v1.621c0 0 0 0.001 0 0.001 0 0.019-0.010 0.036-0.025 0.045l-0 0c-0.008 0.007-0.017 0.012-0.027 0.015l-0 0zM0.444 16.301l0.853 0.446v-1.493l-0.853 0.446c-0.109 0.058-0.182 0.171-0.182 0.301s0.073 0.243 0.181 0.3l0.002 0.001z"></path>
<path fill="#000" style="fill: var(--color8, #000)" d="M31.959 14.47v-0.725h-0.905l-1.423 0.725h2.327z"></path>
<path fill="#fff" style="fill: var(--color2, #fff)" d="M32 14.507h-2.537l1.583-0.806h0.954zM29.801 14.426h2.118v-0.64h-0.853z"></path>
<path fill="#000" style="fill: var(--color8, #000)" d="M31.959 17.53v0.725h-0.905l-1.423-0.725h2.327z"></path>
<path fill="#fff" style="fill: var(--color2, #fff)" d="M32 18.295h-0.954l-1.583-0.802h2.537zM31.066 18.214h0.853v-0.64h-2.118z"></path>
<path fill="#000" style="fill: var(--color8, #000)" d="M29.553 16.062v-0.107h2.409v0.107h-2.409z"></path>
<path fill="#fff" style="fill: var(--color2, #fff)" d="M32 16.102h-2.487v-0.188h2.487zM29.591 16.021h2.327v-0.021h-2.327z"></path>
<path fill="#fff" style="fill: var(--color2, #fff)" d="M28.474 14.515h0.081v2.972h-0.081v-2.972z"></path>
<path fill="#fff" style="fill: var(--color2, #fff)" d="M2.643 15.223h0.081v1.553h-0.081v-1.553z"></path>
</symbol>
<symbol id="icon-taepodong2" viewBox="0 0 32 32">
<path fill="#000" style="fill: var(--color8, #000)" d="M31.97 11.797h-1.662l-0.706 0.853h-14.857l-1.692 0.375h-12.096l-0.71 0.213c-0.13 0.065-0.218 0.196-0.218 0.349s0.088 0.284 0.215 0.348l0.002 0.001 0.71 0.213h12.096l1.692 0.382h14.857l0.706 0.853h1.662v-0.853h-0.412c0.076-0.252 0.119-0.542 0.119-0.841 0-0.038-0.001-0.076-0.002-0.113l0 0.005c0.001-0.034 0.002-0.073 0.002-0.113 0-0.299-0.044-0.587-0.125-0.86l0.005 0.021h0.412z"></path>
<path fill="#000" style="fill: var(--color8, #000)" d="M0.247 13.246c-0.13 0.065-0.218 0.196-0.218 0.349s0.088 0.284 0.215 0.348l0.002 0.001c0.035-0.1 0.056-0.215 0.056-0.335 0-0.005-0-0.009-0-0.014v0.001c0-0.002 0-0.004 0-0.007 0-0.123-0.020-0.241-0.058-0.351l0.002 0.008z"></path>
<path fill="#fff" style="fill: var(--color2, #fff)" d="M0.258 13.973h-0.021c-0.136-0.069-0.227-0.208-0.227-0.368s0.091-0.299 0.225-0.367l0.002-0.001h0.021v0.021c0.037 0.105 0.058 0.226 0.058 0.352 0 0.002 0 0.005-0 0.007v-0c0 0.004 0 0.008 0 0.013 0 0.123-0.021 0.241-0.060 0.351l0.002-0.007zM0.235 13.278c-0.107 0.068-0.178 0.184-0.183 0.317l-0 0.001c0.005 0.134 0.077 0.249 0.184 0.315l0.002 0.001c0.028-0.093 0.045-0.199 0.045-0.309 0-0.002 0-0.004-0-0.007v0c0-0.002 0-0.005 0-0.008 0-0.11-0.017-0.217-0.049-0.317l0.002 0.007z"></path>
<path fill="#fff" style="fill: var(--color2, #fff)" d="M0.958 14.167h0.019c0.052-0.17 0.085-0.366 0.090-0.569l0-0.003c0-0 0-0.001 0-0.002 0-0.203-0.029-0.399-0.083-0.585l0.004 0.015h-0.030c0.051 0.167 0.081 0.359 0.081 0.557 0 0.005-0 0.010-0 0.015v-0.001c0 0.003 0 0.006 0 0.009 0 0.201-0.030 0.394-0.085 0.577l0.004-0.014z"></path>
<path fill="#fff" style="fill: var(--color2, #fff)" d="M1.92 14.167h0.158c0.049-0.171 0.078-0.368 0.079-0.571v-0.001c0-0 0-0.001 0-0.002 0-0.203-0.029-0.399-0.083-0.585l0.004 0.015h-0.158c0.050 0.167 0.079 0.359 0.079 0.557 0 0.005-0 0.010-0 0.016v-0.001c0 0.003 0 0.006 0 0.009 0 0.2-0.029 0.394-0.083 0.577l0.004-0.014z"></path>
<path fill="#fff" style="fill: var(--color2, #fff)" d="M6.944 14.167h0.158c0.049-0.171 0.078-0.368 0.079-0.571v-0.001c0-0 0-0.001 0-0.002 0-0.203-0.029-0.399-0.083-0.585l0.004 0.015h-0.158c0.050 0.167 0.079 0.359 0.079 0.557 0 0.005-0 0.010-0 0.016v-0.001c0 0.003 0 0.006 0 0.009 0 0.2-0.029 0.394-0.083 0.577l0.004-0.014z"></path>
<path fill="#fff" style="fill: var(--color2, #fff)" d="M13.037 14.167h0.019c0.049-0.171 0.078-0.368 0.079-0.571v-0.001c0-0 0-0.001 0-0.002 0-0.203-0.029-0.399-0.083-0.585l0.004 0.015h-0.019c0.050 0.167 0.079 0.359 0.079 0.557 0 0.005-0 0.010-0 0.016v-0.001c0 0.003 0 0.006 0 0.009 0 0.2-0.029 0.394-0.083 0.577l0.004-0.014z"></path>
<path fill="#fff" style="fill: var(--color2, #fff)" d="M14.758 14.554h0.16c0.084-0.285 0.133-0.613 0.134-0.953v-0.001c-0-0.339-0.049-0.666-0.141-0.976l0.006 0.024h-0.16c0.087 0.277 0.137 0.596 0.137 0.927 0 0.009-0 0.017-0 0.026v-0.001c0 0.005 0 0.012 0 0.018 0 0.334-0.050 0.656-0.143 0.959l0.006-0.023z"></path>
<path fill="#fff" style="fill: var(--color2, #fff)" d="M28.399 14.549h0.158c0.084-0.284 0.133-0.611 0.134-0.948v-0.001c-0-0.339-0.049-0.666-0.141-0.976l0.006 0.024h-0.158c0.085 0.285 0.134 0.612 0.134 0.95s-0.049 0.666-0.141 0.975l0.006-0.024z"></path>
<path fill="#000" style="fill: var(--color8, #000)" d="M29.773 13.6c0.277 0.041 0.597 0.064 0.923 0.064 0.056 0 0.111-0.001 0.167-0.002l-0.008 0c0.042 0.001 0.092 0.001 0.142 0.001 0.343 0 0.681-0.023 1.012-0.067l-0.039 0.004c-0.277-0.043-0.597-0.067-0.922-0.067-0.072 0-0.143 0.001-0.214 0.004l0.010-0c-0.067-0.003-0.145-0.005-0.224-0.005-0.299 0-0.592 0.025-0.878 0.073l0.031-0.004z"></path>
<path fill="#fff" style="fill: var(--color2, #fff)" d="M30.854 13.677c-0.045 0.001-0.097 0.002-0.15 0.002-0.329 0-0.653-0.023-0.97-0.068l0.036 0.004-0.073-0.013 0.070-0.019c0.255-0.042 0.55-0.066 0.85-0.066 0.076 0 0.152 0.002 0.228 0.005l-0.011-0c0.057-0.002 0.124-0.003 0.192-0.003 0.331 0 0.657 0.023 0.975 0.069l-0.037-0.004 0.081 0.017-0.083 0.015c-0.295 0.040-0.637 0.063-0.984 0.063-0.044 0-0.088-0-0.132-0.001l0.007 0zM29.877 13.598c0.263 0.030 0.567 0.048 0.876 0.048 0.036 0 0.071-0 0.106-0.001l-0.005 0c0.026 0 0.057 0 0.089 0 0.321 0 0.638-0.017 0.951-0.051l-0.039 0.003c-0.273-0.029-0.589-0.045-0.909-0.045-0.036 0-0.072 0-0.108 0.001l0.005-0c-0.041-0.001-0.089-0.001-0.138-0.001-0.292 0-0.58 0.017-0.863 0.049l0.035-0.003z"></path>
</symbol>
</defs>
</svg>
