<svg id="Layer_1" data-name="Layer 1" xmlns="http://www.w3.org/2000/svg" viewBox="0 0 150 150"><defs><style>.cls-1{fill:#fff;}</style></defs><title>MissileTree_outlines</title><path d="M149.86,55.3h-7.79l-3.31,4H69.12l-7.93,1.76H4.49l-3.33,1a1.82,1.82,0,0,0,0,3.27l3.33,1h56.7l7.93,1.79h69.64l3.31,4h7.79v-4h-1.93a14.19,14.19,0,0,0,.55-4.45,14.07,14.07,0,0,0-.55-4.46h1.93Z"/><path d="M1.16,62.09a1.82,1.82,0,0,0,0,3.27,4.86,4.86,0,0,0,.26-1.63A5.11,5.11,0,0,0,1.16,62.09Z"/><path class="cls-1" d="M1.21,65.5l-.1,0a1.93,1.93,0,0,1,0-3.45l.1,0,0,.1a5.17,5.17,0,0,1,.27,1.68,4.93,4.93,0,0,1-.27,1.67ZM1.1,62.24a1.84,1.84,0,0,0-.86,1.49,1.81,1.81,0,0,0,.87,1.48,5.11,5.11,0,0,0,.21-1.48A4.89,4.89,0,0,0,1.1,62.24Z"/><path class="cls-1" d="M4.49,66.41h.09A10.31,10.31,0,0,0,5,63.73a9.84,9.84,0,0,0-.37-2.68H4.49a9.17,9.17,0,0,1,.38,2.68A9.34,9.34,0,0,1,4.49,66.41Z"/><path class="cls-1" d="M9,66.41h.74a10.31,10.31,0,0,0,.37-2.68,9.84,9.84,0,0,0-.37-2.68H9a9.39,9.39,0,0,1,.37,2.68A9.57,9.57,0,0,1,9,66.41Z"/><path class="cls-1" d="M32.55,66.41h.74a10.31,10.31,0,0,0,.37-2.68,9.84,9.84,0,0,0-.37-2.68h-.74a9.39,9.39,0,0,1,.37,2.68A9.57,9.57,0,0,1,32.55,66.41Z"/><path class="cls-1" d="M61.11,66.41h.09a10.31,10.31,0,0,0,.37-2.68,9.84,9.84,0,0,0-.37-2.68h-.09a9.39,9.39,0,0,1,.37,2.68A9.57,9.57,0,0,1,61.11,66.41Z"/><path class="cls-1" d="M69.18,68.22h.75a16.73,16.73,0,0,0,.63-4.47,16.15,16.15,0,0,0-.63-4.46h-.75a15.06,15.06,0,0,1,.64,4.46A15.34,15.34,0,0,1,69.18,68.22Z"/><path class="cls-1" d="M133.12,68.2h.74a16.67,16.67,0,0,0,.63-4.45,16.15,16.15,0,0,0-.63-4.46h-.74a16.07,16.07,0,0,1,0,8.91Z"/><path d="M139.56,63.75a31.46,31.46,0,0,0,5.07.29,35.27,35.27,0,0,0,5.23-.29,29.79,29.79,0,0,0-5.28-.3A24.61,24.61,0,0,0,139.56,63.75Z"/><path class="cls-1" d="M144.63,64.11a32.32,32.32,0,0,1-5.08-.29l-.34-.06.33-.09a25.73,25.73,0,0,1,5-.29,32.15,32.15,0,0,1,5.3.29l.38.08-.39.07A36.2,36.2,0,0,1,144.63,64.11Zm-4.58-.37a37.92,37.92,0,0,0,4.58.22,41.25,41.25,0,0,0,4.69-.22,42.79,42.79,0,0,0-4.74-.21A35.06,35.06,0,0,0,140.05,63.74Z"/></svg>